<svg width="546" height="546" viewBox="0 0 546 546" fill="none" xmlns="http://www.w3.org/2000/svg">
<path d="M296.991 503.521C426.596 503.521 531.662 443.762 531.662 370.046C531.662 296.33 426.596 236.571 296.991 236.571C167.386 236.571 62.3204 296.33 62.3204 370.046C62.3204 443.762 167.386 503.521 296.991 503.521Z" fill="#E3F5F5"/>
<path d="M445.853 432.159C476.846 432.159 501.971 416.406 501.971 396.975C501.971 377.543 476.846 361.791 445.853 361.791C414.86 361.791 389.735 377.543 389.735 396.975C389.735 416.406 414.86 432.159 445.853 432.159Z" fill="#87989E"/>
<path d="M75.3261 294.807C75.3261 294.807 74.7037 283.363 69.7788 271.209C64.8538 259.055 55.3862 246.814 44.4771 244.499C33.568 242.195 28.9489 249.522 31.253 256.729C33.2295 262.932 41.3431 268.086 47.491 273.502C53.6499 278.919 65.1378 292.012 68.3264 304.657L74.4744 305.334L75.3261 294.807Z" fill="#F3B150"/>
<path d="M71.122 300.497C70.7507 300.497 70.4559 300.202 70.434 299.841C69.2874 268.042 38.1873 250.265 37.8706 250.09C37.543 249.904 37.4229 249.489 37.6085 249.162C37.7941 248.834 38.2091 248.714 38.5367 248.9C38.8534 249.074 70.6197 267.245 71.799 299.798C71.8099 300.18 71.5151 300.497 71.1438 300.507C71.1438 300.497 71.1329 300.497 71.122 300.497Z" fill="#167EA1"/>
<path d="M80.2511 350.816C80.2511 350.816 73.8957 354.835 63.9585 353.12C60.7917 352.574 57.6795 351.362 55.4081 349.014C52.8419 346.372 52.4379 343.707 51.7062 340.169C51.4114 338.706 51.0838 337.199 50.2102 335.998C48.0808 333.071 43.8329 333.126 40.2948 332.361C35.2716 331.28 30.6525 327.666 29.2001 322.741C27.7477 317.816 30.1065 311.799 34.8676 309.877C32.9238 308.632 30.9691 307.376 29.0254 306.131C27.2563 304.996 25.4655 303.849 24.024 302.309C22.5826 300.77 21.5124 298.793 21.5015 296.686C21.4797 293.584 23.8056 290.811 26.6339 289.544C29.4622 288.277 32.6945 288.255 35.7849 288.616C38.8971 288.976 41.9656 289.697 44.914 290.767C45.7439 291.062 46.5957 291.4 47.4693 291.346C48.6268 291.269 49.6205 290.549 50.5924 289.915C57.2754 285.503 68.1627 285.831 71.7444 294.152C72.2686 295.375 72.5853 296.686 73.1531 297.898C75.2388 302.375 81.081 301.032 84.8484 303.128C87.3054 304.493 88.7796 307.212 89.2383 309.975C89.9917 314.409 88.7578 319.465 87.9388 323.844C87.1416 328.091 86.0824 332.296 84.8921 336.445C83.9202 339.863 82.8501 343.27 81.7144 346.634C81.4741 347.354 80.95 350.379 80.2511 350.816Z" fill="#F3B150"/>
<path d="M84.2478 340.573C80.8299 330.832 74.9549 322.893 68.2828 316.538C68.2173 316.385 68.0862 316.254 67.9115 316.188C65.804 314.212 63.6309 312.388 61.436 310.706C59.8962 301.479 63.609 293.376 63.6418 293.3C63.8056 292.961 63.6527 292.547 63.3142 292.394C62.9648 292.23 62.5607 292.383 62.4078 292.721C62.255 293.049 58.8261 300.507 59.8962 309.56C45.2088 298.847 30.0737 294.567 29.8226 294.49C29.4622 294.392 29.08 294.61 28.9817 294.971C28.8834 295.331 29.0909 295.713 29.4622 295.812C29.7461 295.888 49.151 301.381 65.1488 315.5C55.3317 313.786 43.6145 318.525 43.0685 318.744C42.7191 318.886 42.5553 319.29 42.6972 319.639C42.8064 319.901 43.0576 320.065 43.3306 320.065C43.418 320.065 43.5053 320.054 43.5927 320.01C43.7346 319.956 57.5048 314.387 67.2345 317.4C73.8083 323.647 79.6178 331.444 82.9702 341.02C83.0685 341.304 83.3306 341.479 83.6145 341.479C83.6909 341.479 83.7674 341.468 83.8438 341.435C84.1932 341.315 84.3789 340.922 84.2478 340.573Z" fill="#167EA1"/>
<path d="M80.4695 349.866C80.4695 352.705 82.5989 356.243 85.2197 357.761L218.367 434.638C220.988 436.156 225.247 436.156 227.868 434.638L410.046 329.456C412.667 327.939 414.796 324.411 414.796 321.561C414.796 318.722 412.667 315.184 410.046 313.666L276.898 236.789C274.278 235.271 270.019 235.271 267.398 236.789L85.2306 341.982C82.5989 343.489 80.4695 347.027 80.4695 349.866Z" fill="#37474F"/>
<path d="M223.128 425.487V435.774C221.403 435.774 219.678 435.402 218.378 434.638L85.2306 357.761C82.6098 356.243 80.4803 352.716 80.4803 349.866C80.4803 347.202 82.3586 343.926 84.7501 342.288C82.6207 343.816 82.7845 346.055 85.2306 347.464L218.378 424.34C219.678 425.094 221.403 425.487 223.128 425.487Z" fill="#263238"/>
<path d="M76.0141 342.145C73.5571 340.726 71.5587 337.111 71.5587 334.086V175.19C71.5587 172.154 73.6881 168.474 76.3089 166.956L258.487 61.7744C261.108 60.2565 265.236 60.1801 267.693 61.5997C270.15 63.0193 272.148 66.6338 272.148 69.6587V228.556C272.148 231.591 270.019 235.271 267.398 236.789L85.2306 341.982C82.5988 343.489 78.482 343.565 76.0141 342.145Z" fill="#455A64"/>
<path d="M84.6627 342.265C82.0419 343.499 78.3073 343.478 76.0141 342.145C73.5571 340.726 71.5587 337.122 71.5587 334.086V175.189C71.5587 173.672 72.0829 172.001 72.9565 170.516L81.8672 175.648V175.659C81.0154 177.155 80.4694 178.815 80.4694 180.333V339.23C80.4694 342.047 82.304 343.303 84.6627 342.265Z" fill="#263238"/>
<path d="M80.4695 180.344V339.241C80.4695 342.276 82.5989 343.499 85.2197 341.982L267.398 236.8C270.019 235.282 272.148 231.602 272.148 228.566V69.6694C272.148 66.6337 270.019 65.4106 267.398 66.9285L85.2306 172.11C82.5989 173.628 80.4695 177.308 80.4695 180.344Z" fill="#37474F"/>
<path d="M85.2305 347.463L218.378 424.34C220.999 425.858 225.258 425.858 227.878 424.34L410.057 319.159C412.678 317.641 412.678 315.184 410.057 313.677L276.909 236.8C274.288 235.282 270.03 235.282 267.409 236.8L85.2305 341.981C82.5988 343.488 82.5988 345.945 85.2305 347.463Z" fill="#455A64"/>
<path d="M87.7859 180.933L263.434 79.5522C265.007 78.6458 266.284 79.3774 266.284 81.2011V218.749C266.284 220.573 265.007 222.779 263.434 223.685L87.7859 325.056C86.2134 325.962 84.9357 325.23 84.9357 323.407V185.869C84.9248 184.046 86.2025 181.84 87.7859 180.933Z" fill="white"/>
<path d="M100.682 343.347L269.79 245.711C271.1 244.958 273.229 244.958 274.54 245.711L283.188 250.702C284.499 251.455 284.499 252.689 283.188 253.442L114.059 351.056C112.749 351.81 110.62 351.81 109.309 351.056L100.682 346.077C99.372 345.334 99.372 344.111 100.682 343.347Z" fill="#37474F"/>
<path d="M122.97 356.221L292.077 258.586C293.388 257.832 295.517 257.832 296.827 258.586L350.03 289.304C351.34 290.057 351.34 291.291 350.03 292.044L181.119 389.538C179.809 390.292 177.679 390.303 176.358 389.549L122.97 358.951C121.66 358.198 121.66 356.975 122.97 356.221Z" fill="#263238"/>
<path d="M274.562 302.506L279.858 299.448C280.087 299.317 280.065 299.099 279.825 298.957L273.699 295.419C273.459 295.277 273.076 295.277 272.858 295.397L267.562 298.454C267.332 298.585 267.354 298.804 267.595 298.946L273.721 302.484C273.95 302.637 274.332 302.637 274.562 302.506ZM264.111 290.363L258.815 293.42C258.586 293.551 258.607 293.77 258.848 293.912L264.974 297.45C265.214 297.592 265.596 297.592 265.815 297.472L271.111 294.414C271.34 294.283 271.318 294.064 271.078 293.923L264.952 290.384C264.712 290.243 264.329 290.232 264.111 290.363ZM246.999 300.245L238.034 305.421C237.805 305.552 237.827 305.771 238.067 305.913L244.193 309.451C244.433 309.593 244.815 309.593 245.034 309.473L253.999 304.297C254.229 304.165 254.207 303.947 253.966 303.805L247.84 300.267C247.611 300.114 247.229 300.114 246.999 300.245ZM256.369 294.829L251.073 297.886C250.843 298.018 250.865 298.236 251.105 298.378L257.231 301.916C257.472 302.058 257.854 302.058 258.072 301.938L263.369 298.88C263.598 298.749 263.576 298.531 263.336 298.389L257.21 294.851C256.969 294.709 256.598 294.698 256.369 294.829ZM235.599 306.83L230.303 309.888C230.073 310.019 230.095 310.237 230.336 310.379L236.462 313.917C236.702 314.059 237.084 314.059 237.302 313.939L242.599 310.881C242.828 310.75 242.806 310.532 242.566 310.39L236.44 306.852C236.2 306.699 235.828 306.699 235.599 306.83ZM227.857 311.296L222.56 314.354C222.331 314.485 222.353 314.703 222.593 314.845L228.719 318.383C228.96 318.525 229.342 318.536 229.56 318.405L234.856 315.348C235.086 315.217 235.064 314.998 234.824 314.856L228.698 311.318C228.468 311.165 228.086 311.165 227.857 311.296ZM251.946 325.667L257.242 322.609C257.472 322.478 257.45 322.26 257.21 322.118L251.084 318.58C250.843 318.438 250.461 318.438 250.243 318.558L244.946 321.616C244.717 321.747 244.739 321.965 244.979 322.107L251.105 325.645C251.335 325.787 251.717 325.798 251.946 325.667ZM244.204 330.133L249.5 327.076C249.729 326.945 249.708 326.726 249.467 326.584L243.341 323.046C243.101 322.904 242.719 322.904 242.5 323.024L237.204 326.082C236.975 326.213 236.997 326.431 237.237 326.573L243.363 330.111C243.603 330.253 243.975 330.264 244.204 330.133ZM236.462 334.6L241.758 331.542C241.987 331.411 241.965 331.192 241.725 331.051L235.599 327.512C235.359 327.37 234.977 327.37 234.758 327.491L229.462 330.548C229.233 330.679 229.254 330.898 229.495 331.04L235.621 334.578C235.861 334.72 236.243 334.731 236.462 334.6ZM228.73 339.066L234.026 336.008C234.256 335.877 234.234 335.659 233.994 335.517L227.868 331.979C227.627 331.837 227.245 331.826 227.027 331.957L221.731 335.014C221.501 335.146 221.523 335.364 221.763 335.506L227.889 339.044C228.13 339.197 228.501 339.197 228.73 339.066ZM266.819 306.983L272.115 303.925C272.345 303.794 272.323 303.576 272.083 303.434L265.957 299.896C265.716 299.754 265.334 299.754 265.116 299.874L259.82 302.932C259.59 303.063 259.612 303.281 259.852 303.423L265.978 306.961C266.219 307.103 266.59 307.103 266.819 306.983ZM259.678 321.201L271.493 314.387C271.722 314.256 271.7 314.037 271.46 313.895L256.587 305.312C256.347 305.17 255.965 305.17 255.746 305.29L249.642 308.817C249.413 308.948 249.435 309.167 249.675 309.309L257.548 313.852C257.788 313.993 257.799 314.212 257.581 314.343L252.689 317.16C252.459 317.291 252.481 317.51 252.722 317.652L258.848 321.19C259.077 321.321 259.459 321.332 259.678 321.201ZM220.125 315.763L214.829 318.82C214.6 318.951 214.622 319.17 214.862 319.312L220.988 322.85C221.228 322.992 221.61 322.992 221.829 322.871L227.125 319.814C227.354 319.683 227.333 319.464 227.092 319.322L220.966 315.784C220.726 315.642 220.344 315.631 220.125 315.763ZM212.383 320.229L207.087 323.286C206.858 323.417 206.879 323.636 207.12 323.778L213.246 327.316C213.486 327.458 213.868 327.458 214.087 327.338L219.383 324.28C219.612 324.149 219.59 323.931 219.35 323.789L213.224 320.251C212.984 320.109 212.612 320.098 212.383 320.229ZM173.715 370.33C173.956 370.472 174.338 370.472 174.556 370.352L179.852 367.294C180.082 367.163 180.06 366.945 179.82 366.803L173.693 363.265C173.453 363.123 173.071 363.123 172.853 363.243L167.556 366.3C167.327 366.431 167.349 366.65 167.589 366.792L173.715 370.33ZM150.478 355.97L145.181 359.028C144.952 359.159 144.974 359.377 145.214 359.519L151.34 363.057C151.58 363.199 151.963 363.21 152.181 363.079L157.477 360.021C157.707 359.89 157.685 359.672 157.445 359.53L151.318 355.992C151.078 355.85 150.707 355.839 150.478 355.97ZM162.937 366.453C163.178 366.595 163.56 366.595 163.778 366.475L169.074 363.417C169.304 363.286 169.282 363.068 169.042 362.926L162.915 359.388C162.675 359.246 162.293 359.246 162.075 359.366L156.778 362.424C156.549 362.555 156.571 362.773 156.811 362.915L162.937 366.453ZM187.376 373.038L192.672 369.98C192.902 369.849 192.88 369.631 192.64 369.489L186.514 365.951C186.273 365.809 185.891 365.809 185.673 365.929L180.377 368.987C180.147 369.118 180.169 369.336 180.409 369.478L186.535 373.016C186.776 373.169 187.158 373.169 187.376 373.038ZM178.793 377.493C179.033 377.635 179.416 377.635 179.634 377.515L184.93 374.458C185.159 374.326 185.138 374.108 184.897 373.966L178.771 370.428C178.531 370.286 178.149 370.286 177.93 370.406L172.634 373.464C172.405 373.595 172.427 373.813 172.667 373.955L178.793 377.493ZM158.22 351.504L152.924 354.561C152.694 354.692 152.716 354.911 152.956 355.053L159.083 358.591C159.323 358.733 159.705 358.733 159.923 358.613L165.22 355.555C165.449 355.424 165.427 355.206 165.187 355.064L159.061 351.526C158.82 351.384 158.438 351.373 158.22 351.504ZM196.909 329.161L191.613 332.219C191.384 332.35 191.406 332.568 191.646 332.71L197.772 336.248C198.012 336.39 198.395 336.39 198.613 336.27L203.909 333.213C204.138 333.082 204.117 332.863 203.876 332.721L197.75 329.183C197.51 329.041 197.128 329.03 196.909 329.161ZM165.951 347.037L160.655 350.095C160.426 350.226 160.448 350.444 160.688 350.586L166.814 354.124C167.054 354.266 167.436 354.277 167.655 354.146L172.951 351.089C173.18 350.958 173.158 350.739 172.918 350.597L166.792 347.059C166.552 346.917 166.181 346.906 165.951 347.037ZM204.641 324.695L199.345 327.753C199.115 327.884 199.137 328.102 199.377 328.244L205.503 331.782C205.744 331.924 206.126 331.935 206.344 331.804L211.64 328.746C211.87 328.615 211.848 328.397 211.608 328.255L205.482 324.717C205.252 324.575 204.87 324.564 204.641 324.695ZM189.167 333.628L183.871 336.685C183.642 336.816 183.663 337.035 183.904 337.177L190.03 340.715C190.27 340.857 190.652 340.868 190.871 340.737L196.167 337.679C196.396 337.548 196.374 337.33 196.134 337.188L190.008 333.649C189.768 333.508 189.396 333.497 189.167 333.628ZM181.436 338.094L176.14 341.152C175.91 341.283 175.932 341.501 176.172 341.643L182.298 345.181C182.539 345.323 182.921 345.323 183.139 345.203L188.435 342.145C188.665 342.014 188.643 341.796 188.403 341.654L182.277 338.116C182.036 337.974 181.654 337.974 181.436 338.094ZM173.693 342.571L168.397 345.629C168.168 345.76 168.19 345.978 168.43 346.12L174.556 349.658C174.796 349.8 175.179 349.8 175.397 349.68L180.693 346.622C180.923 346.491 180.901 346.273 180.66 346.131L174.534 342.593C174.294 342.44 173.923 342.44 173.693 342.571ZM213.246 348.009L218.542 344.952C218.771 344.821 218.749 344.602 218.509 344.46L212.383 340.922C212.143 340.78 211.761 340.78 211.542 340.9L206.246 343.958C206.017 344.089 206.039 344.307 206.279 344.449L212.405 347.987C212.645 348.129 213.027 348.14 213.246 348.009ZM281.212 280.491L275.916 283.549C275.686 283.68 275.708 283.898 275.948 284.04L282.074 287.578C282.315 287.72 282.697 287.72 282.915 287.6L288.212 284.542C288.441 284.411 288.419 284.193 288.179 284.051L282.053 280.513C281.812 280.371 281.441 280.36 281.212 280.491ZM271.842 285.896L266.546 288.954C266.317 289.085 266.339 289.303 266.579 289.445L272.705 292.983C272.945 293.125 273.328 293.125 273.546 293.005L278.842 289.948C279.071 289.817 279.05 289.598 278.809 289.456L272.683 285.918C272.454 285.776 272.072 285.765 271.842 285.896ZM288.954 276.025L283.658 279.082C283.429 279.213 283.45 279.432 283.691 279.574L289.817 283.112C290.057 283.254 290.439 283.265 290.658 283.134L295.954 280.076C296.183 279.945 296.161 279.727 295.921 279.585L289.795 276.046C289.555 275.894 289.183 275.894 288.954 276.025ZM248.9 317.324L254.196 314.266C254.425 314.135 254.403 313.917 254.163 313.775L248.037 310.237C247.797 310.095 247.414 310.095 247.196 310.215L241.9 313.273C241.671 313.404 241.692 313.622 241.933 313.764L248.059 317.302C248.299 317.444 248.67 317.455 248.9 317.324ZM297.537 271.569C297.297 271.427 296.915 271.427 296.696 271.547L291.4 274.605C291.171 274.736 291.193 274.954 291.433 275.096L297.559 278.635C297.799 278.776 298.182 278.776 298.4 278.656L303.696 275.599C303.925 275.468 303.904 275.249 303.663 275.107L297.537 271.569ZM220.988 343.532L226.284 340.474C226.514 340.343 226.492 340.125 226.251 339.983L220.125 336.445C219.885 336.303 219.503 336.303 219.284 336.423L213.988 339.481C213.759 339.612 213.781 339.83 214.021 339.972L220.147 343.51C220.387 343.663 220.77 343.663 220.988 343.532ZM315.883 288.746L321.179 285.689C321.408 285.558 321.386 285.339 321.146 285.197L315.02 281.659C314.78 281.517 314.398 281.506 314.179 281.638L308.883 284.695C308.654 284.826 308.676 285.045 308.916 285.187L315.042 288.725C315.282 288.867 315.664 288.878 315.883 288.746ZM299.405 288.168L304.701 285.11C304.93 284.979 304.908 284.761 304.668 284.619L298.542 281.081C298.302 280.939 297.919 280.939 297.701 281.059L292.405 284.116C292.175 284.247 292.197 284.466 292.438 284.608L298.564 288.146C298.793 288.288 299.175 288.299 299.405 288.168ZM306.284 276.625C306.044 276.483 305.662 276.483 305.443 276.603L300.147 279.661C299.918 279.792 299.94 280.01 300.18 280.152L306.306 283.69C306.546 283.832 306.928 283.832 307.147 283.712L312.443 280.655C312.672 280.524 312.65 280.305 312.41 280.163L306.284 276.625ZM307.911 275.675L322.784 284.258C323.024 284.4 323.407 284.4 323.625 284.28L328.921 281.223C329.151 281.092 329.129 280.873 328.889 280.731L314.015 272.148C313.775 272.006 313.393 272.006 313.175 272.126L307.878 275.184C307.66 275.326 307.671 275.544 307.911 275.675ZM289.959 285.536L284.663 288.594C284.433 288.725 284.455 288.94 °h–U   °h–U                  0S h–U           \¯h–U  ˆ°h–U          @°h–U   @      @°h–U          8 289.456 297.166 289.238 296.926 289.096L290.8 285.558C290.559 285.416 290.188 285.405 289.959 285.536ZM231.722 319.159L226.426 322.216C226.197 322.347 226.219 322.566 226.459 322.708L232.585 326.246C232.825 326.388 233.207 326.388 233.426 326.268L238.722 323.21C238.951 323.079 238.93 322.861 238.689 322.719L232.563 319.18C232.323 319.039 231.941 319.039 231.722 319.159ZM307.3 293.202C307.54 293.344 307.922 293.344 308.141 293.224L313.437 290.166C313.666 290.035 313.644 289.817 313.404 289.675L307.278 286.137C307.038 285.995 306.655 285.995 306.437 286.115L301.141 289.172C300.911 289.303 300.933 289.522 301.174 289.664L307.3 293.202ZM239.454 314.692L234.158 317.75C233.928 317.881 233.95 318.099 234.19 318.241L240.316 321.779C240.557 321.921 240.939 321.921 241.157 321.801L246.453 318.744C246.683 318.613 246.661 318.394 246.421 318.252L240.295 314.714C240.065 314.572 239.683 314.561 239.454 314.692ZM181.458 365.863C181.698 366.005 182.08 366.005 182.298 365.885L187.595 362.828C187.824 362.697 187.802 362.478 187.562 362.336L181.436 358.798C181.196 358.656 180.813 358.656 180.595 358.776L175.299 361.834C175.069 361.965 175.091 362.183 175.331 362.325L181.458 365.863ZM169.817 354.911L164.521 357.968C164.291 358.099 164.313 358.318 164.553 358.46L170.68 361.998C170.92 362.14 171.302 362.14 171.52 362.02L176.817 358.962C177.046 358.831 177.024 358.613 176.784 358.471L170.658 354.933C170.417 354.78 170.035 354.78 169.817 354.911ZM190.041 361.408L195.337 358.351C195.566 358.219 195.544 358.001 195.304 357.859L189.178 354.321C188.938 354.179 188.556 354.168 188.337 354.299L183.041 357.357C182.812 357.488 182.834 357.706 183.074 357.848L189.2 361.386C189.429 361.528 189.811 361.539 190.041 361.408ZM197.772 356.942L203.068 353.884C203.298 353.753 203.276 353.535 203.036 353.393L196.909 349.855C196.669 349.713 196.287 349.713 196.069 349.833L190.772 352.891C190.543 353.022 190.565 353.24 190.805 353.382L196.931 356.92C197.171 357.062 197.554 357.073 197.772 356.942ZM205.514 352.476L210.811 349.418C211.04 349.287 211.018 349.069 210.778 348.927L204.652 345.388C204.411 345.247 204.029 345.247 203.811 345.367L198.515 348.424C198.285 348.555 198.307 348.774 198.547 348.916L204.674 352.454C204.914 352.596 205.285 352.607 205.514 352.476ZM177.548 350.434L172.252 353.491C172.023 353.622 172.045 353.841 172.285 353.983L178.411 357.521C178.651 357.663 179.033 357.674 179.252 357.542L184.548 354.485C184.777 354.354 184.755 354.135 184.515 353.993L178.389 350.455C178.149 350.313 177.778 350.313 177.548 350.434ZM185.291 345.967L179.994 349.025C179.765 349.156 179.787 349.374 180.027 349.516L186.153 353.054C186.393 353.196 186.776 353.196 186.994 353.076L192.29 350.019C192.52 349.888 192.498 349.669 192.257 349.527L186.131 345.989C185.891 345.847 185.509 345.836 185.291 345.967ZM216.238 328.102L210.942 331.16C210.712 331.291 210.734 331.509 210.974 331.651L217.1 335.189C217.341 335.331 217.723 335.342 217.941 335.211L223.238 332.153C223.467 332.022 223.445 331.804 223.205 331.662L217.079 328.124C216.849 327.982 216.467 327.971 216.238 328.102ZM208.506 332.568L203.21 335.626C202.981 335.757 203.003 335.975 203.243 336.117L209.369 339.655C209.609 339.797 209.992 339.797 210.21 339.677L215.506 336.62C215.736 336.489 215.714 336.27 215.473 336.128L209.347 332.59C209.107 332.448 208.725 332.437 208.506 332.568ZM223.98 323.636L218.684 326.693C218.455 326.825 218.476 327.043 218.717 327.185L224.843 330.723C225.083 330.865 225.465 330.865 225.684 330.745L230.98 327.687C231.209 327.556 231.187 327.338 230.947 327.196L224.821 323.658C224.581 323.505 224.209 323.505 223.98 323.636ZM193.033 341.501L187.737 344.559C187.507 344.69 187.529 344.908 187.769 345.05L193.895 348.588C194.136 348.73 194.518 348.741 194.736 348.61L200.033 345.552C200.262 345.421 200.24 345.203 200 345.061L193.874 341.523C193.633 341.381 193.251 341.37 193.033 341.501ZM200.764 337.035L195.468 340.092C195.239 340.223 195.26 340.442 195.501 340.584L201.627 344.122C201.867 344.264 202.249 344.264 202.468 344.144L207.764 341.086C207.993 340.955 207.971 340.737 207.731 340.595L201.605 337.057C201.365 336.915 200.993 336.904 200.764 337.035ZM195.119 368.572L200.415 365.514C200.644 365.383 200.622 365.165 200.382 365.023L194.256 361.485C194.016 361.343 193.633 361.332 193.415 361.463L188.119 364.52C187.889 364.651 187.911 364.87 188.152 365.012L194.278 368.55C194.518 368.692 194.889 368.703 195.119 368.572ZM149.702 363.985L143.576 360.447C143.336 360.305 142.954 360.305 142.735 360.425L137.439 363.483C137.21 363.614 137.232 363.832 137.472 363.974L143.598 367.512C143.838 367.654 144.22 367.654 144.439 367.534L149.735 364.477C149.964 364.346 149.942 364.127 149.702 363.985ZM161.299 367.392L155.173 363.854C154.933 363.712 154.551 363.701 154.332 363.832L146.186 368.539C145.957 368.67 145.979 368.888 146.219 369.03L152.345 372.568C152.585 372.71 152.967 372.721 153.186 372.59L161.332 367.884C161.561 367.753 161.54 367.534 161.299 367.392ZM140.311 357.16L134.185 353.622C133.945 353.48 133.562 353.469 133.344 353.6L126.825 357.368C126.596 357.499 126.617 357.717 126.858 357.859L132.984 361.397C133.224 361.539 133.606 361.539 133.825 361.419L140.344 357.652C140.573 357.51 140.551 357.291 140.311 357.16ZM145.312 354.266C145.553 354.408 145.935 354.408 146.153 354.288L151.449 351.231C151.679 351.1 151.657 350.881 151.417 350.739L145.291 347.201C145.05 347.059 144.668 347.059 144.45 347.179L139.154 350.237C138.924 350.368 138.946 350.586 139.186 350.728L145.312 354.266ZM172.088 371.269L165.962 367.731C165.722 367.589 165.34 367.589 165.121 367.709L154.944 373.584C154.715 373.715 154.736 373.933 154.977 374.075L161.103 377.613C161.343 377.755 161.725 377.755 161.944 377.635L172.121 371.76C172.339 371.629 172.328 371.411 172.088 371.269ZM177.166 378.432L171.04 374.894C170.8 374.752 170.417 374.741 170.199 374.872L163.68 378.64C163.451 378.771 163.472 378.989 163.713 379.131L169.839 382.669C170.079 382.811 170.461 382.811 170.68 382.691L177.199 378.924C177.417 378.793 177.406 378.574 177.166 378.432ZM202.839 321.059C203.079 321.201 203.461 321.201 203.68 321.081L208.976 318.023C209.205 317.892 209.183 317.674 208.943 317.532L202.817 313.993C202.577 313.852 202.195 313.852 201.976 313.972L196.68 317.029C196.451 317.16 196.473 317.379 196.713 317.521L202.839 321.059ZM187.365 329.991C187.606 330.133 187.988 330.133 188.206 330.013L193.502 326.956C193.732 326.824 193.71 326.606 193.47 326.464L187.343 322.926C187.103 322.784 186.721 322.784 186.503 322.904L181.206 325.962C180.977 326.093 180.999 326.311 181.239 326.453L187.365 329.991ZM153.044 349.8C153.284 349.942 153.666 349.953 153.885 349.822L159.181 346.764C159.41 346.633 159.388 346.415 159.148 346.273L153.022 342.735C152.782 342.593 152.399 342.593 152.181 342.713L146.885 345.771C146.656 345.902 146.677 346.12 146.918 346.262L153.044 349.8ZM195.108 325.525C195.348 325.667 195.73 325.678 195.948 325.547L201.245 322.489C201.474 322.358 201.452 322.14 201.212 321.998L195.086 318.46C194.846 318.318 194.463 318.318 194.245 318.438L188.949 321.496C188.719 321.627 188.741 321.845 188.981 321.987L195.108 325.525ZM179.634 334.458C179.874 334.6 180.256 334.6 180.475 334.479L185.771 331.422C186 331.291 185.978 331.072 185.738 330.93L179.612 327.392C179.372 327.25 178.99 327.239 178.771 327.37L173.475 330.428C173.246 330.559 173.268 330.778 173.508 330.919L179.634 334.458ZM181.414 379.011C181.174 378.869 180.791 378.858 180.573 378.989L172.427 383.696C172.197 383.827 172.219 384.045 172.46 384.187L178.586 387.725C178.826 387.867 179.208 387.878 179.426 387.747L187.573 383.041C187.802 382.91 187.78 382.691 187.54 382.549L181.414 379.011ZM168.528 340.868C168.769 341.01 169.151 341.01 169.369 340.889L174.665 337.832C174.895 337.701 174.873 337.482 174.633 337.34L168.506 333.802C168.266 333.66 167.884 333.66 167.666 333.781L162.369 336.838C162.14 336.969 162.162 337.188 162.402 337.33L168.528 340.868ZM160.786 345.334C161.026 345.476 161.408 345.476 161.627 345.356L166.923 342.298C167.152 342.167 167.131 341.949 166.89 341.807L160.764 338.269C160.524 338.127 160.142 338.127 159.923 338.247L154.627 341.304C154.398 341.435 154.42 341.654 154.66 341.796L160.786 345.334ZM324.783 296.238C324.542 296.096 324.16 296.096 323.942 296.216L310.914 303.74C310.685 303.871 310.707 304.089 310.947 304.231L317.073 307.769C317.313 307.911 317.696 307.911 317.914 307.791L330.941 300.267C331.171 300.136 331.149 299.918 330.909 299.776L324.783 296.238ZM307.671 306.109C307.431 305.967 307.049 305.956 306.83 306.087L301.534 309.145C301.305 309.276 301.326 309.494 301.567 309.636L307.693 313.174C307.933 313.316 308.315 313.316 308.534 313.196L313.83 310.139C314.059 310.008 314.037 309.789 313.797 309.647L307.671 306.109ZM202.85 364.105L208.146 361.048C208.375 360.917 208.354 360.698 208.113 360.556L201.987 357.018C201.747 356.876 201.365 356.876 201.146 356.996L195.85 360.054C195.621 360.185 195.643 360.404 195.883 360.545L202.009 364.084C202.249 364.225 202.631 364.236 202.85 364.105ZM292.197 315.053C291.957 314.911 291.575 314.911 291.356 315.031L286.06 318.088C285.831 318.22 285.853 318.438 286.093 318.58L292.219 322.118C292.459 322.26 292.842 322.26 293.06 322.14L298.356 319.082C298.586 318.951 298.564 318.733 298.323 318.591L292.197 315.053ZM332.525 291.771C332.285 291.629 331.902 291.629 331.684 291.749L326.388 294.807C326.159 294.938 326.18 295.157 326.421 295.298L332.547 298.837C332.787 298.978 333.169 298.978 333.388 298.858L338.684 295.801C338.913 295.67 338.891 295.451 338.651 295.309L332.525 291.771ZM346.382 290.832L331.509 282.249C331.269 282.107 330.887 282.107 330.668 282.227L325.372 285.285C325.143 285.416 325.165 285.634 325.405 285.776L340.278 294.359C340.518 294.501 340.901 294.501 341.119 294.381L346.415 291.324C346.634 291.193 346.623 290.974 346.382 290.832ZM263.281 331.738C263.041 331.597 262.659 331.597 262.44 331.717L255.921 335.484C255.692 335.615 255.714 335.834 255.954 335.975L262.08 339.514C262.32 339.655 262.702 339.666 262.921 339.535L269.44 335.768C269.669 335.637 269.648 335.419 269.407 335.277L263.281 331.738ZM282.828 320.458C282.588 320.316 282.206 320.316 281.987 320.436L273.841 325.143C273.611 325.274 273.633 325.492 273.874 325.634L280 329.172C280.24 329.314 280.622 329.314 280.841 329.194L288.987 324.488C289.216 324.357 289.194 324.138 288.954 323.996L282.828 320.458ZM245.361 342.091C245.121 341.949 244.739 341.949 244.521 342.069L200.939 367.228C200.71 367.36 200.731 367.578 200.972 367.72L207.098 371.258C207.338 371.4 207.72 371.411 207.939 371.28L251.52 346.12C251.75 345.989 251.728 345.771 251.488 345.629L245.361 342.091ZM199.345 368.659C199.104 368.517 198.722 368.517 198.504 368.637L191.984 372.405C191.755 372.536 191.777 372.754 192.017 372.896L198.143 376.434C198.384 376.576 198.766 376.576 198.984 376.456L205.503 372.688C205.733 372.557 205.711 372.339 205.471 372.197L199.345 368.659ZM254.327 336.915C254.087 336.773 253.704 336.773 253.486 336.893L246.967 340.66C246.737 340.791 246.759 341.01 246.999 341.152L253.126 344.69C253.366 344.832 253.748 344.842 253.966 344.711L260.486 340.944C260.715 340.813 260.693 340.595 260.453 340.453L254.327 336.915ZM190.379 373.835C190.139 373.693 189.757 373.693 189.538 373.813L183.019 377.581C182.79 377.712 182.812 377.93 183.052 378.072L189.178 381.61C189.418 381.752 189.8 381.752 190.019 381.632L196.538 377.865C196.767 377.734 196.746 377.515 196.505 377.373L190.379 373.835ZM272.246 326.573C272.006 326.431 271.624 326.42 271.406 326.551L264.886 330.319C264.657 330.45 264.679 330.668 264.919 330.81L271.045 334.348C271.286 334.49 271.668 334.49 271.886 334.37L278.405 330.603C278.635 330.472 278.613 330.253 278.373 330.111L272.246 326.573ZM299.94 310.576C299.699 310.434 299.317 310.434 299.099 310.554L293.803 313.611C293.573 313.742 293.595 313.961 293.835 314.103L299.961 317.641C300.202 317.783 300.584 317.783 300.802 317.663L306.098 314.605C306.328 314.474 306.306 314.256 306.066 314.114L299.94 310.576ZM316.898 298.269L322.195 295.211C322.424 295.08 322.402 294.862 322.162 294.72L316.036 291.182C315.795 291.04 315.413 291.029 315.195 291.16L309.899 294.217C309.669 294.348 309.691 294.567 309.931 294.709L316.058 298.247C316.287 298.389 316.669 298.4 316.898 298.269ZM282.293 298.039L287.589 294.982C287.818 294.851 287.797 294.632 287.556 294.49L281.43 290.952C281.19 290.81 280.808 290.799 280.589 290.93L275.293 293.988C275.064 294.119 275.086 294.338 275.326 294.479L281.452 298.018C281.692 298.17 282.074 298.17 282.293 298.039ZM264.766 328.364L280.24 319.432C280.469 319.301 280.447 319.082 280.207 318.94L274.081 315.402C273.841 315.26 273.459 315.26 273.24 315.38L257.767 324.324C257.537 324.455 257.559 324.673 257.799 324.815L263.925 328.353C264.155 328.484 264.537 328.495 264.766 328.364ZM308.315 302.713C308.555 302.855 308.938 302.855 309.156 302.735L314.452 299.677C314.682 299.546 314.66 299.328 314.42 299.186L308.293 295.648C308.053 295.506 307.671 295.506 307.453 295.626L302.156 298.684C301.927 298.815 301.949 299.033 302.189 299.175L308.315 302.713ZM300.409 297.69L305.705 294.632C305.935 294.501 305.913 294.283 305.673 294.141L299.546 290.603C299.306 290.461 298.924 290.461 298.706 290.581L293.409 293.639C293.18 293.77 293.202 293.988 293.442 294.13L299.568 297.668C299.809 297.81 300.18 297.81 300.409 297.69ZM257.024 332.83L262.32 329.773C262.55 329.642 262.528 329.423 262.287 329.281L256.161 325.743C255.921 325.601 255.539 325.601 255.32 325.722L250.024 328.779C249.795 328.91 249.817 329.129 250.057 329.271L256.183 332.809C256.423 332.951 256.795 332.962 257.024 332.83ZM291.204 312.596C291.444 312.738 291.826 312.738 292.044 312.618L297.341 309.56C297.57 309.429 297.548 309.211 297.308 309.069L291.182 305.53C290.942 305.389 290.559 305.389 290.341 305.509L285.045 308.566C284.815 308.697 284.837 308.916 285.077 309.058L291.204 312.596ZM218.334 355.173L223.631 352.115C223.86 351.984 223.838 351.766 223.598 351.624L217.472 348.086C217.232 347.944 216.849 347.944 216.631 348.064L211.335 351.121C211.105 351.253 211.127 351.471 211.367 351.613L217.494 355.151C217.734 355.293 218.105 355.304 218.334 355.173ZM226.066 350.707L231.362 347.649C231.591 347.518 231.569 347.299 231.329 347.158L225.203 343.619C224.963 343.478 224.581 343.477 224.362 343.598L219.066 346.655C218.837 346.786 218.859 347.005 219.099 347.147L225.225 350.685C225.465 350.827 225.847 350.838 226.066 350.707ZM210.592 359.639L215.888 356.581C216.118 356.45 216.096 356.232 215.856 356.09L209.729 352.552C209.489 352.41 209.107 352.399 208.889 352.53L203.592 355.588C203.363 355.719 203.385 355.937 203.625 356.079L209.751 359.617C209.992 359.759 210.363 359.77 210.592 359.639ZM241.55 341.763L246.847 338.705C247.076 338.574 247.054 338.356 246.814 338.214L240.688 334.676C240.447 334.534 240.065 334.534 239.847 334.654L234.551 337.712C234.321 337.843 234.343 338.061 234.583 338.203L240.71 341.741C240.939 341.894 241.321 341.894 241.55 341.763ZM233.808 346.24L239.104 343.183C239.334 343.052 239.312 342.833 239.072 342.691L232.945 339.153C232.705 339.011 232.323 339 232.105 339.131L226.808 342.189C226.579 342.32 226.601 342.538 226.841 342.68L232.967 346.218C233.207 346.36 233.579 346.36 233.808 346.24ZM249.282 337.297L254.578 334.239C254.807 334.108 254.785 333.89 254.545 333.748L248.419 330.21C248.179 330.068 247.797 330.057 247.578 330.188L242.282 333.245C242.053 333.377 242.075 333.595 242.315 333.737L248.441 337.275C248.681 337.417 249.063 337.428 249.282 337.297ZM284.684 271.209C284.925 271.351 285.307 271.351 285.525 271.231L290.821 268.173C291.051 268.042 291.029 267.824 290.789 267.682L289.162 266.743C288.921 266.601 288.539 266.601 288.321 266.721L283.025 269.778C282.795 269.909 282.817 270.128 283.057 270.27L284.684 271.209ZM246.617 295.779C246.857 295.921 247.24 295.932 247.458 295.801L252.754 292.743C252.984 292.612 252.962 292.394 252.722 292.252L246.595 288.714C246.355 288.572 245.973 288.561 245.755 288.692L240.458 291.749C240.229 291.881 240.251 292.099 240.491 292.241L246.617 295.779ZM262.091 286.846C262.331 286.988 262.713 286.988 262.932 286.868L268.228 283.811C268.457 283.68 268.435 283.461 268.195 283.319L262.069 279.781C261.829 279.639 261.447 279.639 261.228 279.759L255.932 282.817C255.703 282.948 255.725 283.166 255.965 283.308L262.091 286.846ZM237.161 301.239C237.401 301.381 237.783 301.392 238.001 301.261L243.298 298.203C243.527 298.072 243.505 297.854 243.265 297.712L237.139 294.174C236.898 294.032 236.516 294.032 236.298 294.152L231.002 297.209C230.772 297.34 230.794 297.559 231.034 297.701L237.161 301.239ZM254.349 291.313C254.589 291.455 254.971 291.455 255.189 291.334L260.486 288.277C260.715 288.146 260.693 287.927 260.453 287.785L254.327 284.247C254.087 284.105 253.704 284.105 253.486 284.226L248.19 287.283C247.96 287.414 247.982 287.633 248.222 287.775L254.349 291.313ZM221.687 310.171C221.927 310.313 222.309 310.313 222.528 310.193L227.824 307.136C228.053 307.005 228.031 306.786 227.791 306.644L221.665 303.106C221.425 302.964 221.043 302.953 220.824 303.084L215.528 306.142C215.299 306.273 215.321 306.491 215.561 306.633L221.687 310.171ZM229.429 305.705C229.669 305.847 230.052 305.847 230.27 305.727L235.566 302.669C235.796 302.538 235.774 302.32 235.533 302.178L229.407 298.64C229.167 298.498 228.785 298.498 228.566 298.618L223.27 301.676C223.041 301.807 223.063 302.025 223.303 302.167L229.429 305.705ZM269.211 280.141C269.451 280.283 269.833 280.283 270.052 280.163L275.348 277.106C275.577 276.975 275.555 276.756 275.315 276.614L273.688 275.675C273.448 275.533 273.065 275.533 272.847 275.653L267.551 278.711C267.322 278.842 267.343 279.06 267.584 279.202L269.211 280.141ZM292.427 266.743C292.667 266.885 293.049 266.896 293.267 266.764L298.564 263.707C298.793 263.576 298.771 263.357 298.531 263.215L296.904 262.276C296.664 262.134 296.281 262.134 296.063 262.255L290.767 265.312C290.537 265.443 290.559 265.662 290.8 265.804L292.427 266.743ZM305.29 274.168C305.531 274.31 305.913 274.31 306.131 274.19L311.427 271.132C311.657 271.001 311.635 270.783 311.395 270.641L305.269 267.103C305.028 266.961 304.646 266.961 304.428 267.081L299.132 270.139C298.902 270.27 298.924 270.488 299.164 270.63L305.29 274.168ZM324.63 293.802L329.926 290.745C330.155 290.614 330.133 290.395 329.893 290.253L323.767 286.715C323.527 286.573 323.145 286.573 322.926 286.693L317.63 289.751C317.401 289.882 317.423 290.101 317.663 290.242L323.789 293.781C324.029 293.923 324.411 293.933 324.63 293.802ZM276.953 275.675C277.193 275.817 277.575 275.828 277.794 275.697L283.09 272.639C283.319 272.508 283.298 272.29 283.057 272.148L281.43 271.209C281.19 271.067 280.808 271.056 280.589 271.187L275.293 274.245C275.064 274.376 275.086 274.594 275.326 274.736L276.953 275.675ZM213.945 314.638C214.185 314.78 214.567 314.78 214.785 314.66L220.082 311.602C220.311 311.471 220.289 311.253 220.049 311.111L213.923 307.573C213.683 307.431 213.3 307.431 213.082 307.551L207.786 310.608C207.556 310.739 207.578 310.958 207.818 311.1L213.945 314.638Z" fill="#455A64"/>
<path d="M248.266 361.092L300.518 330.931C302.091 330.024 304.646 330.024 306.219 330.931L336.183 348.228C337.756 349.134 337.756 350.609 336.183 351.515L283.931 381.676C282.358 382.582 279.803 382.582 278.231 381.676L248.266 364.379C246.694 363.472 246.694 361.998 248.266 361.092Z" fill="#263238"/>
<path d="M259.688 95.2444V103.227L140.759 171.892C139.94 172.372 139.274 171.979 139.274 171.029L139.361 168.168C139.361 168.168 137.232 167.382 137.166 167.491L101.556 188.053C100.726 188.534 100.06 189.691 100.06 190.641V193.666C100.06 194.616 99.3938 195.774 98.5748 196.254L94.4689 198.624V190.641C94.4689 189.691 95.135 188.534 95.954 188.053L258.203 94.3817C259.022 93.9121 259.688 94.2943 259.688 95.2444Z" fill="#167EA1"/>
<path d="M259.699 214.775C259.699 215.725 259.033 216.882 258.203 217.363L95.954 311.023C95.135 311.504 94.4689 311.111 94.4689 310.161V198.613L98.5748 196.243C99.3938 195.763 100.737 188.523 101.556 188.053L137.166 167.491C137.996 167.01 139.94 172.361 140.759 171.881L259.688 103.216V112.924L259.699 214.775Z" fill="#EBEBEB"/>
<path d="M101.556 229.189L172.809 188.01C173.639 187.53 174.305 187.923 174.305 188.873V258.914C174.305 259.864 173.639 261.021 172.809 261.502L101.556 302.681C100.726 303.161 100.06 302.768 100.06 301.818V231.777C100.071 230.827 100.737 229.67 101.556 229.189Z" fill="white"/>
<path d="M101.556 210.691L252.601 123.484C253.42 123.003 254.097 123.396 254.097 124.346V134.84C254.097 135.79 253.431 136.948 252.601 137.428L101.556 224.636C100.737 225.116 100.06 224.723 100.06 223.773V213.279C100.071 212.329 100.737 211.171 101.556 210.691Z" fill="#455A64"/>
<path d="M198.089 163.276V166.061C198.089 166.628 198.493 166.858 198.984 166.574L242.894 141.218V136.369L198.984 161.725C198.493 162.009 198.089 162.708 198.089 163.276Z" fill="white"/>
<path d="M247.6 133.65C248.091 133.366 248.496 133.596 248.496 134.163V136.948C248.496 137.516 248.091 138.215 247.6 138.499L242.894 141.218V136.369L247.6 133.65Z" fill="#27DEBF"/>
<path d="M247.261 137.461L246.737 137.297C246.792 137.079 246.825 136.85 246.825 136.62C246.825 136.085 246.65 135.67 246.344 135.496C246.115 135.364 245.842 135.375 245.58 135.528C244.99 135.867 244.531 136.828 244.531 137.712C244.531 138.247 244.706 138.662 245.012 138.837C245.11 138.892 245.23 138.924 245.34 138.924C245.482 138.924 245.624 138.881 245.776 138.793C246.126 138.586 246.432 138.16 246.628 137.658L247.152 137.821C247.174 137.832 247.196 137.832 247.207 137.832C247.294 137.832 247.371 137.778 247.393 137.69C247.414 137.603 247.36 137.494 247.261 137.461ZM245.569 138.466C245.427 138.553 245.296 138.564 245.198 138.499C245.023 138.4 244.914 138.094 244.914 137.712C244.914 136.981 245.307 136.129 245.765 135.867C245.853 135.823 245.929 135.79 246.006 135.79C246.06 135.79 246.104 135.801 246.148 135.823C246.322 135.921 246.432 136.227 246.432 136.609C246.421 137.363 246.038 138.204 245.569 138.466Z" fill="white"/>
<path d="M259.688 103.227V112.935L94.4689 208.321V198.613L97.5374 196.833C98.3564 196.353 98.6294 195.632 99.0225 194.245L100.06 190.631C100.388 189.375 100.726 188.523 101.556 188.043L137.166 167.48C137.996 167 138.64 166.956 139.263 167.994L140.54 170.309C141.01 171.117 141.239 171.597 142.058 171.117L259.688 103.227Z" fill="#87989E"/>
<path d="M252.7 100.257C253.737 99.656 254.578 100.147 254.578 101.338C254.578 102.539 253.737 103.991 252.7 104.592C251.662 105.192 250.822 104.701 250.822 103.511C250.811 102.31 251.662 100.846 252.7 100.257Z" fill="#455A64"/>
<path d="M245.929 104.155C246.967 103.554 247.808 104.046 247.808 105.236C247.808 106.426 246.967 107.89 245.929 108.49C244.892 109.091 244.051 108.599 244.051 107.409C244.051 106.219 244.892 104.745 245.929 104.155Z" fill="#455A64"/>
<path d="M239.17 108.053C240.207 107.453 241.048 107.944 241.048 109.135C241.048 110.336 240.207 111.788 239.17 112.389C238.132 112.989 237.292 112.498 237.292 111.308C237.292 110.106 238.132 108.643 239.17 108.053Z" fill="#455A64"/>
<path opacity="0.5" d="M101.316 199.323L98.9679 200.677L99.8633 198.962C99.9397 198.81 99.9507 198.624 99.8851 198.547C99.8196 198.471 99.6995 198.526 99.6231 198.679L98.3563 201.125V201.136C98.3454 201.168 98.3345 201.19 98.3236 201.223C98.3236 201.234 98.3127 201.245 98.3127 201.256C98.2799 201.277 98.2799 201.321 98.2799 201.365C98.2799 201.409 98.2908 201.441 98.3017 201.474C98.3017 201.485 98.3127 201.485 98.3127 201.496C98.3236 201.518 98.3345 201.54 98.3454 201.55L99.6121 202.533C99.6449 202.566 99.6886 202.555 99.7323 202.533C99.7869 202.501 99.8415 202.435 99.8742 202.348C99.9397 202.184 99.9397 202.009 99.8524 201.944L98.957 201.256L101.305 199.902C101.414 199.847 101.49 199.661 101.49 199.498C101.501 199.334 101.414 199.257 101.316 199.323Z" fill="#455A64"/>
<path opacity="0.5" d="M103.27 198.187L105.618 196.833L104.723 196.145C104.646 196.08 104.635 195.905 104.701 195.741C104.766 195.577 104.887 195.501 104.963 195.556L106.23 196.527C106.241 196.538 106.252 196.56 106.262 196.582C106.262 196.593 106.273 196.593 106.273 196.604C106.284 196.637 106.295 196.669 106.295 196.713C106.295 196.757 106.284 196.8 106.273 196.844C106.273 196.855 106.262 196.866 106.262 196.877C106.252 196.91 106.241 196.942 106.23 196.964V196.975L104.963 199.421C104.93 199.487 104.887 199.541 104.843 199.563C104.788 199.596 104.734 199.585 104.701 199.541C104.635 199.465 104.635 199.268 104.723 199.126L105.618 197.412L103.27 198.766C103.161 198.821 103.085 198.744 103.085 198.58C103.085 198.428 103.161 198.253 103.27 198.187Z" fill="#455A64"/>
<path opacity="0.5" d="M110.958 191.439C110.947 191.297 110.816 191.319 110.762 191.472L110.445 192.258C109.899 192.203 109.233 192.738 108.785 193.677C108.206 194.911 108.206 196.364 108.785 196.921C109.08 197.205 109.451 197.205 109.833 196.986C110.216 196.768 110.598 196.32 110.882 195.709C110.958 195.556 110.958 195.37 110.882 195.294C110.805 195.228 110.685 195.294 110.62 195.447C110.183 196.364 109.484 196.768 109.047 196.353C108.61 195.938 108.61 194.846 109.047 193.929C109.353 193.273 109.801 192.891 110.183 192.869L109.943 193.459C109.877 193.612 109.943 193.754 110.041 193.688L111.002 193.066C111.067 193.022 111.122 192.902 111.111 192.804L110.958 191.439Z" fill="#455A64"/>
<path opacity="0.5" d="M136.14 171.925L136.991 170.112C137.09 169.894 137.09 169.642 136.991 169.544C136.893 169.446 136.729 169.544 136.631 169.752L135.779 171.564L134.927 170.745C134.829 170.647 134.665 170.745 134.567 170.953C134.469 171.171 134.469 171.422 134.567 171.521L135.419 172.34L134.567 174.152C134.469 174.371 134.469 174.622 134.567 174.72C134.622 174.764 134.687 174.775 134.753 174.731C134.818 174.698 134.884 174.611 134.938 174.513L135.79 172.7L136.642 173.519C136.697 173.563 136.762 173.574 136.828 173.53C136.893 173.486 136.959 173.41 137.013 173.312C137.111 173.093 137.111 172.842 137.013 172.744L136.14 171.925Z" fill="#455A64"/>
<path d="M114.07 193.667V190.642C114.07 189.692 114.736 188.534 115.566 188.054L249.806 110.587C250.625 110.107 251.302 110.5 251.302 111.45V114.475C251.302 115.425 250.636 116.582 249.806 117.063L115.566 194.529C114.736 194.999 114.07 194.617 114.07 193.667Z" fill="white"/>
<path d="M248.932 112.192L249.325 113.022C249.347 113.077 249.402 113.098 249.456 113.077L250.33 112.738C250.472 112.683 250.527 112.88 250.428 113.066L249.795 114.256C249.751 114.332 249.74 114.42 249.751 114.485L249.904 115.566C249.926 115.741 249.784 115.959 249.653 115.948L248.867 115.85C248.812 115.839 248.758 115.883 248.714 115.938L247.928 116.942C247.808 117.106 247.655 117.04 247.677 116.844L247.829 115.588C247.84 115.512 247.818 115.446 247.786 115.413L247.152 114.955C247.054 114.878 247.109 114.616 247.251 114.518L248.124 113.841C248.179 113.797 248.223 113.721 248.255 113.644L248.648 112.356C248.692 112.159 248.867 112.061 248.932 112.192Z" stroke="#FFF1F1" stroke-width="0.819" stroke-miterlimit="10"/>
<g opacity="0.5">
<path d="M253.049 110.227C252.874 110.227 252.7 110.139 252.601 109.965C252.459 109.713 252.547 109.397 252.787 109.255L256.991 106.831C257.242 106.689 257.559 106.776 257.701 107.016C257.843 107.267 257.756 107.584 257.515 107.726L253.311 110.15C253.235 110.205 253.137 110.227 253.049 110.227Z" fill="#455A64"/>
<path d="M253.049 112.651C252.874 112.651 252.7 112.564 252.601 112.389C252.459 112.138 252.547 111.821 252.787 111.679L256.991 109.255C257.242 109.113 257.559 109.2 257.701 109.441C257.843 109.692 257.756 110.008 257.515 110.15L253.311 112.575C253.235 112.629 253.137 112.651 253.049 112.651Z" fill="#455A64"/>
<path d="M253.049 115.075C252.874 115.075 252.7 114.988 252.601 114.813C252.459 114.562 252.547 114.245 252.787 114.103L256.991 111.679C257.242 111.537 257.559 111.625 257.701 111.865C257.843 112.116 257.756 112.433 257.515 112.575L253.311 114.999C253.235 115.053 253.137 115.075 253.049 115.075Z" fill="#455A64"/>
</g>
<path d="M134.196 245.678C140.191 239.574 141.731 236.8 141.731 234.354C141.731 232.061 140.704 230.368 137.505 232.214C135.015 233.655 133.672 235.512 132.787 238.001C132.449 238.962 131.444 239.945 130.45 240.163L126.29 241.092C125.296 241.31 124.63 240.677 124.87 239.694C126.683 232.257 131.291 225.389 137.745 221.665C145.498 217.188 150.019 220.54 150.019 228.13C150.019 235.391 146.186 241.452 142.419 245.809C141.752 246.574 141.185 248.004 141.185 249.02V251.488C141.185 252.503 140.475 253.748 139.59 254.25L134.491 257.199C133.606 257.712 132.896 257.297 132.896 256.281V248.845C132.896 247.807 133.486 246.399 134.196 245.678Z" fill="#F3B150"/>
<path d="M132.798 267.398C132.798 264.515 134.218 261.469 137.024 259.852C139.776 258.269 141.196 259.667 141.196 262.55C141.196 265.433 139.82 268.512 137.024 270.128C134.218 271.744 132.798 270.281 132.798 267.398Z" fill="#F3B150"/>
<path d="M302.124 69.7569L298.072 67.4201C297.45 67.0488 296.587 67.0925 295.626 67.6385L195.861 125.241C193.972 126.333 192.432 128.987 192.432 131.171V274.671C192.432 275.73 192.804 276.483 193.393 276.855V276.866L193.437 276.887H193.448L197.488 279.224L295.637 219.055C297.526 217.963 299.055 215.31 299.055 213.126L302.124 69.7569Z" fill="#167EA1"/>
<path opacity="0.15" d="M197.423 279.192L193.448 276.888H193.437L193.393 276.855V276.844C192.803 276.473 192.443 275.741 192.443 274.671V131.171C192.443 130.024 192.88 128.736 193.557 127.622L197.608 129.959C196.92 131.073 196.494 132.361 196.494 133.519V277.019C196.484 278.067 196.844 278.82 197.423 279.192Z" fill="black"/>
<path d="M199.913 127.589L299.689 69.9864C301.578 68.8944 303.107 69.779 303.107 71.963V215.463C303.107 217.647 301.578 220.3 299.689 221.392L199.923 278.995C198.034 280.087 196.495 279.203 196.495 277.019V133.519C196.484 131.335 198.023 128.681 199.913 127.589Z" fill="#167EA1"/>
<path opacity="0.4" d="M298.061 67.4202L301.971 69.6806C301.359 69.3967 300.562 69.4732 299.678 69.9864L199.902 127.578C199.017 128.092 198.209 128.943 197.597 129.948L193.546 127.611C194.147 126.618 194.966 125.755 195.85 125.242L295.626 67.6495C296.587 67.1035 297.439 67.0489 298.061 67.4202Z" fill="white"/>
<path d="M211.236 133.246L291.149 87.1088C292.58 86.2789 293.737 86.9559 293.737 88.6048V211.335C293.737 212.984 292.58 214.993 291.149 215.823L211.247 261.872C209.817 262.702 208.659 262.025 208.659 260.376V137.734C208.638 136.074 209.795 134.065 211.236 133.246Z" fill="white"/>
<path d="M274.551 160.251L275.359 159.585C275.293 159.497 273.601 157.477 270.379 156.658L270.117 157.663C272.989 158.405 274.54 160.229 274.551 160.251Z" fill="#37474F"/>
<path d="M276.331 164.324L274.693 162.708C273.852 161.878 273.841 160.524 274.671 159.683C275.501 158.842 276.855 158.831 277.696 159.661L279.334 161.277C280.174 162.107 280.185 163.461 279.355 164.302C278.525 165.143 277.171 165.154 276.331 164.324Z" fill="#167EA1"/>
<mask id="mask0_2_3214" style="mask-type:luminance" maskUnits="userSpaceOnUse" x="208" y="86" width="86" height="177">
<path d="M211.236 133.246L291.149 87.1088C292.58 86.2789 293.737 86.9559 293.737 88.6048V211.335C293.737 212.984 292.58 214.993 291.149 215.823L211.247 261.872C209.817 262.702 208.659 262.025 208.659 260.376V137.734C208.638 136.074 209.795 134.065 211.236 133.246Z" fill="white"/>
</mask>
<g mask="url(#mask0_2_3214)">
<mask id="path-48-inside-1_2_3214" fill="white">
<path d="M290.865 201.649C293.016 205.318 294.556 207.961 294.556 207.961C294.556 207.961 318.733 195.141 320.098 193.47C321.463 191.799 321.376 188.381 321.583 186.558C321.922 183.5 320.797 180.868 320.644 179.765C320.36 177.843 323.134 177.734 324.499 180.399C325.503 182.342 325.58 184.57 326.432 184.603C326.726 184.614 329.435 182.135 329.828 181.709C331.324 180.071 334.032 177.33 336.085 177.712C336.762 177.843 337.286 178.411 337.45 179.187C337.701 180.41 337.603 181.436 338.214 182.452C338.476 182.888 338.88 183.227 339.022 183.762C339.219 184.472 338.935 185.149 339.001 185.881C339.088 186.896 340.071 187.322 340.213 188.305C340.311 189.015 339.951 189.844 339.962 190.598C339.962 191.078 340.114 191.515 340.114 191.996C340.103 192.946 339.503 193.907 338.87 194.682C336.631 197.412 334.349 198.963 331.695 200.688C329.489 202.129 326.585 203.407 324.095 204.761C321.605 206.115 293.104 227.977 289.315 225.389C287.764 224.33 283.68 219.099 279.388 213.257"/>
</mask>
<path d="M290.865 201.649C293.016 205.318 294.556 207.961 294.556 207.961C294.556 207.961 318.733 195.141 320.098 193.47C321.463 191.799 321.376 188.381 321.583 186.558C321.922 183.5 320.797 180.868 320.644 179.765C320.36 177.843 323.134 177.734 324.499 180.399C325.503 182.342 325.58 184.57 326.432 184.603C326.726 184.614 329.435 182.135 329.828 181.709C331.324 180.071 334.032 177.33 336.085 177.712C336.762 177.843 337.286 178.411 337.45 179.187C337.701 180.41 337.603 181.436 338.214 182.452C338.476 182.888 338.88 183.227 339.022 183.762C339.219 184.472 338.935 185.149 339.001 185.881C339.088 186.896 340.071 187.322 340.213 188.305C340.311 189.015 339.951 189.844 339.962 190.598C339.962 191.078 340.114 191.515 340.114 191.996C340.103 192.946 339.503 193.907 338.87 194.682C336.631 197.412 334.349 198.963 331.695 200.688C329.489 202.129 326.585 203.407 324.095 204.761C321.605 206.115 293.104 227.977 289.315 225.389C287.764 224.33 283.68 219.099 279.388 213.257" fill="white"/>
<path d="M294.556 207.961L293.692 208.464L294.176 209.294L295.025 208.844L294.556 207.961ZM321.583 186.558L322.577 186.671L322.577 186.668L321.583 186.558ZM320.644 179.765L321.635 179.628L321.633 179.619L320.644 179.765ZM324.499 180.399L323.609 180.855L323.61 180.858L324.499 180.399ZM326.432 184.603L326.393 185.602L326.395 185.602L326.432 184.603ZM329.828 181.709L330.563 182.387L330.566 182.383L329.828 181.709ZM336.085 177.712L336.275 176.731L336.268 176.729L336.085 177.712ZM337.45 179.187L338.43 178.985L338.428 178.98L337.45 179.187ZM338.214 182.452L339.072 181.937L339.071 181.936L338.214 182.452ZM339.022 183.762L338.056 184.019L338.059 184.029L339.022 183.762ZM339.001 185.881L339.997 185.795L339.997 185.791L339.001 185.881ZM340.213 188.305L341.203 188.168L341.202 188.162L340.213 188.305ZM339.962 190.598H340.962V190.591L340.961 190.583L339.962 190.598ZM340.114 191.996L341.114 192.007V191.996H340.114ZM338.87 194.682L339.643 195.316L339.644 195.315L338.87 194.682ZM331.695 200.688L331.15 199.85L331.148 199.851L331.695 200.688ZM289.315 225.389L288.751 226.215L288.751 226.215L289.315 225.389ZM290.003 202.155C291.078 203.989 292 205.566 292.654 206.685C292.981 207.245 293.24 207.689 293.418 207.994C293.507 208.147 293.576 208.264 293.622 208.344C293.645 208.383 293.663 208.414 293.674 208.434C293.68 208.444 293.685 208.451 293.688 208.457C293.689 208.459 293.69 208.461 293.691 208.462C293.691 208.463 293.692 208.463 293.692 208.464C293.692 208.464 293.692 208.464 293.692 208.464C293.692 208.464 293.692 208.464 293.692 208.464C293.692 208.464 293.692 208.464 294.556 207.961C295.42 207.457 295.42 207.457 295.42 207.457C295.42 207.457 295.42 207.457 295.42 207.457C295.42 207.457 295.42 207.457 295.42 207.457C295.42 207.457 295.419 207.456 295.419 207.455C295.418 207.454 295.417 207.452 295.416 207.45C295.413 207.444 295.408 207.437 295.402 207.427C295.391 207.406 295.373 207.376 295.35 207.336C295.303 207.257 295.235 207.139 295.146 206.987C294.968 206.681 294.708 206.236 294.381 205.676C293.727 204.557 292.804 202.978 291.728 201.143L290.003 202.155ZM294.556 207.961C295.025 208.844 295.025 208.844 295.025 208.844C295.025 208.844 295.025 208.844 295.026 208.844C295.027 208.843 295.028 208.843 295.029 208.842C295.032 208.84 295.037 208.838 295.042 208.835C295.054 208.829 295.072 208.819 295.094 208.807C295.14 208.783 295.209 208.747 295.297 208.699C295.475 208.605 295.736 208.466 296.068 208.289C296.733 207.935 297.683 207.427 298.828 206.813C301.118 205.584 304.185 203.927 307.297 202.218C310.406 200.51 313.566 198.746 316.036 197.302C317.27 196.581 318.341 195.935 319.151 195.413C319.555 195.152 319.904 194.916 320.179 194.713C320.429 194.529 320.698 194.316 320.872 194.103L319.324 192.837C319.327 192.833 319.248 192.915 318.993 193.103C318.765 193.271 318.454 193.482 318.067 193.732C317.293 194.231 316.251 194.86 315.027 195.576C312.58 197.006 309.439 198.76 306.334 200.465C303.23 202.17 300.168 203.823 297.882 205.05C296.739 205.664 295.79 206.171 295.127 206.524C294.796 206.701 294.536 206.839 294.359 206.933C294.27 206.98 294.202 207.016 294.157 207.041C294.134 207.053 294.117 207.062 294.105 207.068C294.099 207.071 294.095 207.073 294.092 207.075C294.091 207.076 294.089 207.076 294.089 207.077C294.088 207.077 294.088 207.077 294.088 207.077C294.088 207.077 294.088 207.077 294.556 207.961ZM320.872 194.103C321.744 193.036 322.088 191.518 322.266 190.205C322.358 189.526 322.411 188.848 322.453 188.242C322.497 187.621 322.528 187.098 322.577 186.671L320.59 186.445C320.535 186.929 320.499 187.518 320.458 188.102C320.416 188.702 320.367 189.325 320.284 189.937C320.112 191.206 319.817 192.233 319.324 192.837L320.872 194.103ZM322.577 186.668C322.763 184.99 322.545 183.449 322.275 182.215C322.14 181.598 321.989 181.047 321.868 180.601C321.74 180.128 321.662 179.827 321.635 179.628L319.654 179.903C319.702 180.255 319.822 180.697 319.938 181.123C320.06 181.577 320.198 182.081 320.321 182.642C320.567 183.763 320.742 185.068 320.589 186.448L322.577 186.668ZM321.633 179.619C321.598 179.381 321.67 179.358 321.638 179.39C321.623 179.405 321.672 179.343 321.874 179.359C322.279 179.391 323.045 179.755 323.609 180.855L325.389 179.943C324.587 178.378 323.284 177.464 322.032 177.365C321.406 177.316 320.729 177.475 320.231 177.968C319.716 178.477 319.548 179.188 319.655 179.911L321.633 179.619ZM323.61 180.858C324.061 181.729 324.298 182.65 324.568 183.516C324.692 183.911 324.841 184.356 325.048 184.71C325.252 185.058 325.665 185.574 326.393 185.602L326.47 183.604C326.773 183.615 326.857 183.841 326.775 183.701C326.697 183.567 326.605 183.327 326.477 182.919C326.245 182.177 325.941 181.012 325.387 179.94L323.61 180.858ZM326.395 185.602C326.687 185.613 326.915 185.494 326.953 185.475C327.043 185.431 327.127 185.38 327.194 185.335C327.333 185.244 327.491 185.126 327.65 185.001C327.973 184.747 328.367 184.411 328.754 184.07C329.513 183.402 330.326 182.644 330.563 182.387L329.093 181.031C328.937 181.2 328.199 181.894 327.432 182.569C327.056 182.9 326.693 183.209 326.413 183.43C326.27 183.542 326.165 183.619 326.098 183.663C326.062 183.686 326.057 183.687 326.075 183.678C326.084 183.674 326.115 183.659 326.163 183.644C326.2 183.632 326.314 183.598 326.469 183.604L326.395 185.602ZM330.566 182.383C331.307 181.573 332.306 180.536 333.348 179.753C333.869 179.362 334.369 179.057 334.826 178.872C335.287 178.686 335.639 178.647 335.902 178.695L336.268 176.729C335.504 176.587 334.748 176.747 334.077 177.018C333.402 177.291 332.747 177.703 332.147 178.154C330.948 179.055 329.845 180.208 329.089 181.035L330.566 182.383ZM335.895 178.694C336.106 178.735 336.375 178.935 336.472 179.393L338.428 178.98C338.198 177.888 337.418 176.952 336.275 176.731L335.895 178.694ZM336.47 179.388C336.594 179.99 336.605 180.382 336.709 181.05C336.802 181.648 336.957 182.302 337.358 182.968L339.071 181.936C338.86 181.586 338.759 181.219 338.685 180.744C338.622 180.339 338.557 179.606 338.429 178.985L336.47 179.388ZM337.357 182.966C337.518 183.235 337.768 183.54 337.858 183.662C337.982 183.832 338.033 183.931 338.056 184.018L339.989 183.506C339.87 183.058 339.648 182.72 339.469 182.478C339.256 182.187 339.172 182.105 339.072 181.937L337.357 182.966ZM338.059 184.029C338.103 184.188 338.103 184.371 338.067 184.704C338.035 184.992 337.96 185.477 338.005 185.97L339.997 185.791C339.975 185.552 340.01 185.333 340.055 184.922C340.095 184.556 340.139 184.046 339.986 183.495L338.059 184.029ZM338.004 185.966C338.076 186.799 338.528 187.37 338.794 187.715C339.099 188.111 339.196 188.259 339.223 188.448L341.202 188.162C341.088 187.368 340.622 186.812 340.378 186.495C340.095 186.127 340.013 185.978 339.997 185.795L338.004 185.966ZM339.222 188.442C339.245 188.609 339.218 188.837 339.139 189.243C339.071 189.585 338.954 190.106 338.962 190.612L340.961 190.583C340.958 190.337 341.015 190.066 341.101 189.627C341.175 189.252 341.278 188.711 341.203 188.168L339.222 188.442ZM338.962 190.598C338.962 190.934 339.015 191.244 339.052 191.461C339.092 191.702 339.114 191.851 339.114 191.996H341.114C341.114 191.66 341.061 191.35 341.024 191.132C340.984 190.891 340.962 190.742 340.962 190.598H338.962ZM339.114 191.984C339.108 192.567 338.711 193.296 338.095 194.049L339.644 195.315C340.295 194.518 341.099 193.324 341.114 192.007L339.114 191.984ZM338.096 194.048C335.962 196.651 333.792 198.132 331.15 199.85L332.24 201.526C334.905 199.794 337.3 198.173 339.643 195.316L338.096 194.048ZM331.148 199.851C330.093 200.54 328.857 201.2 327.548 201.866C326.256 202.524 324.877 203.197 323.617 203.883L324.573 205.64C325.802 204.971 327.12 204.328 328.455 203.648C329.772 202.978 331.091 202.277 332.242 201.525L331.148 199.851ZM323.617 203.883C323.242 204.087 322.467 204.619 321.465 205.325C320.437 206.05 319.1 207.008 317.562 208.106C314.481 210.305 310.577 213.076 306.635 215.723C302.686 218.374 298.727 220.882 295.532 222.563C293.93 223.406 292.56 224.02 291.501 224.346C290.97 224.509 290.559 224.587 290.259 224.6C289.945 224.613 289.863 224.552 289.879 224.563L288.751 226.215C289.24 226.549 289.824 226.621 290.346 226.598C290.881 226.574 291.473 226.447 292.089 226.257C293.324 225.877 294.822 225.197 296.463 224.333C299.756 222.601 303.787 220.044 307.749 217.384C311.717 214.719 315.642 211.934 318.724 209.733C320.267 208.632 321.595 207.68 322.617 206.96C323.665 206.221 324.325 205.774 324.573 205.64L323.617 203.883ZM289.879 224.563C289.596 224.37 289.118 223.922 288.451 223.193C287.802 222.484 287.027 221.566 286.158 220.489C284.42 218.335 282.336 215.581 280.194 212.665L278.582 213.849C280.732 216.775 282.836 219.557 284.601 221.745C285.483 222.838 286.287 223.791 286.975 224.543C287.644 225.275 288.258 225.878 288.751 226.215L289.879 224.563Z" fill="black" mask="url(#path-48-inside-1_2_3214)"/>
<mask id="path-50-inside-2_2_3214" fill="white">
<path d="M278.438 214.021C272.214 205.569 266.492 195.108 266.492 195.108C262.135 182.877 267.071 174.731 267.071 174.731C267.071 174.731 273.35 172.787 278.58 181.043C280.884 184.679 286.912 194.9 290.865 201.649"/>
</mask>
<path d="M278.438 214.021C272.214 205.569 266.492 195.108 266.492 195.108C262.135 182.877 267.071 174.731 267.071 174.731C267.071 174.731 273.35 172.787 278.58 181.043C280.884 184.679 286.912 194.9 290.865 201.649" fill="white"/>
<path d="M266.492 195.108L265.55 195.443L265.576 195.518L265.614 195.588L266.492 195.108ZM267.071 174.731L266.775 173.776L266.412 173.888L266.215 174.213L267.071 174.731ZM278.58 181.043L277.735 181.578L277.735 181.578L278.58 181.043ZM279.243 213.428C276.157 209.238 273.189 204.539 270.988 200.879C269.888 199.051 268.983 197.487 268.352 196.379C268.037 195.826 267.791 195.387 267.623 195.087C267.54 194.937 267.476 194.822 267.433 194.744C267.412 194.705 267.395 194.676 267.385 194.656C267.379 194.647 267.375 194.639 267.373 194.635C267.371 194.632 267.371 194.63 267.37 194.629C267.37 194.629 267.369 194.628 267.369 194.628C267.369 194.628 267.369 194.628 267.369 194.628C267.369 194.628 267.369 194.628 266.492 195.108C265.614 195.588 265.614 195.588 265.615 195.588C265.615 195.588 265.615 195.588 265.615 195.588C265.615 195.589 265.615 195.589 265.616 195.59C265.616 195.591 265.618 195.593 265.619 195.596C265.622 195.601 265.626 195.609 265.632 195.619C265.643 195.64 265.66 195.671 265.682 195.71C265.726 195.79 265.791 195.908 265.876 196.061C266.046 196.366 266.296 196.81 266.614 197.369C267.251 198.488 268.165 200.066 269.274 201.91C271.49 205.594 274.495 210.352 277.633 214.614L279.243 213.428ZM267.434 194.772C265.322 188.845 265.47 183.934 266.129 180.523C266.459 178.814 266.919 177.478 267.292 176.577C267.478 176.126 267.642 175.785 267.757 175.561C267.814 175.449 267.859 175.366 267.889 175.314C267.903 175.288 267.914 175.269 267.92 175.258C267.923 175.253 267.926 175.25 267.926 175.248C267.927 175.247 267.927 175.247 267.927 175.247C267.927 175.247 267.927 175.247 267.927 175.248C267.927 175.248 267.926 175.248 267.926 175.248C267.926 175.249 267.926 175.249 267.071 174.731C266.215 174.213 266.215 174.213 266.215 174.214C266.215 174.214 266.214 174.214 266.214 174.215C266.213 174.216 266.213 174.217 266.212 174.218C266.211 174.22 266.209 174.223 266.207 174.226C266.204 174.232 266.199 174.241 266.193 174.251C266.181 174.272 266.164 174.3 266.144 174.337C266.103 174.41 266.046 174.514 265.977 174.649C265.839 174.918 265.652 175.309 265.443 175.813C265.026 176.821 264.524 178.286 264.165 180.143C263.446 183.863 263.304 189.14 265.55 195.443L267.434 194.772ZM267.071 174.731C267.366 175.686 267.366 175.686 267.365 175.687C267.365 175.687 267.364 175.687 267.364 175.687C267.363 175.687 267.363 175.687 267.362 175.688C267.361 175.688 267.36 175.688 267.36 175.688C267.359 175.688 267.36 175.688 267.362 175.687C267.367 175.686 267.377 175.683 267.393 175.679C267.424 175.671 267.477 175.658 267.55 175.643C267.696 175.614 267.922 175.576 268.212 175.553C268.794 175.507 269.634 175.519 270.625 175.762C272.58 176.242 275.248 177.652 277.735 181.578L279.425 180.508C276.682 176.178 273.595 174.432 271.102 173.82C269.87 173.517 268.813 173.499 268.054 173.559C267.675 173.59 267.369 173.639 267.151 173.684C267.042 173.706 266.955 173.727 266.892 173.743C266.86 173.751 266.835 173.758 266.815 173.764C266.805 173.767 266.797 173.769 266.79 173.771C266.787 173.772 266.784 173.773 266.781 173.774C266.78 173.774 266.779 173.774 266.778 173.775C266.777 173.775 266.776 173.775 266.776 173.775C266.775 173.775 266.775 173.776 267.071 174.731ZM277.735 181.578C280.028 185.196 286.045 195.398 290.002 202.154L291.728 201.143C287.779 194.402 281.741 184.162 279.425 180.507L277.735 181.578Z" fill="black" mask="url(#path-50-inside-2_2_3214)"/>
<path d="M278.134 179.516L278.134 179.516C280.332 183.045 283.249 187.861 285.617 191.796C286.801 193.763 287.847 195.51 288.598 196.764C288.973 197.392 289.274 197.896 289.481 198.244L289.668 198.556C289.644 198.607 289.615 198.666 289.583 198.733C289.452 199 289.254 199.391 288.984 199.879C288.444 200.854 287.621 202.214 286.49 203.743C284.289 206.719 280.933 210.322 276.251 212.987L263.131 193.189L256.677 175.206C256.858 175.138 257.089 175.052 257.362 174.953C258.074 174.697 259.07 174.359 260.204 174.029C262.488 173.365 265.27 172.757 267.421 172.893C269.627 173.033 271.497 173.416 273.21 174.383C274.922 175.349 276.521 176.923 278.134 179.516ZM256.041 174.917C256.041 174.917 262.965 172.11 267.453 172.394C271.941 172.678 275.271 173.967 278.558 179.252C282.959 186.317 290.232 198.526 290.232 198.526L256.041 174.917Z" fill="#455A64" stroke="black"/>
<path d="M275.587 254.487L275.581 254.057L275.553 252.275C275.529 250.735 275.495 248.526 275.454 245.846C275.372 240.486 275.263 233.244 275.154 225.716C274.935 210.662 274.717 194.457 274.717 189.877C274.717 189.471 274.706 189.064 274.695 188.65C274.417 182.342 271.567 177.797 267.522 175.563C263.475 173.328 258.138 173.354 252.782 176.378L275.587 254.487ZM275.587 254.487C260.283 271.399 242.172 275.71 227.901 271.014L228.193 227.882V227.879V204.881C228.193 200.456 228.873 197.001 229.655 194.492L229.655 194.492C230.52 191.721 232.214 189.247 234.361 187.554L243.59 181.58L252.782 176.378L275.587 254.487Z" fill="#F0F0F0" stroke="black"/>
<path d="M238.627 134.718C238.462 134.721 238.256 134.728 238.021 134.746C237.355 134.796 236.455 134.928 235.511 135.257C233.636 135.908 231.596 137.321 230.832 140.43L238.627 134.718ZM238.627 134.718L238.63 135.717C238.633 136.664 238.637 138.017 238.642 139.642C238.653 142.892 238.67 147.229 238.695 151.578C238.719 155.927 238.751 160.29 238.792 163.59C238.806 164.719 238.821 165.724 238.837 166.562L238.627 134.718Z" fill="#263238" stroke="black"/>
<path d="M249.061 119.275L249.061 119.275C255.416 116.769 259.14 117.315 261.245 118.378C262.303 118.913 262.981 119.592 263.393 120.131C263.52 120.297 263.621 120.45 263.701 120.581L240.685 128.69C240.722 128.597 240.762 128.498 240.805 128.395C241.129 127.611 241.629 126.54 242.33 125.391C243.736 123.084 245.918 120.512 249.061 119.275Z" fill="#27DEBF" stroke="black"/>
<path opacity="0.4" d="M249.061 119.275L249.061 119.275C255.416 116.769 259.14 117.315 261.245 118.378C262.303 118.913 262.981 119.592 263.393 120.131C263.52 120.297 263.621 120.45 263.701 120.581L240.685 128.69C240.722 128.597 240.762 128.498 240.805 128.395C241.129 127.611 241.629 126.54 242.33 125.391C243.736 123.084 245.918 120.512 249.061 119.275Z" fill="black" stroke="black"/>
<path d="M259.308 152.987L259.308 152.987C255.217 154.082 251.549 153.154 248.9 150.805C246.243 148.449 244.562 144.618 244.562 139.831C244.562 135.053 246.121 131.818 248.677 129.489C251.256 127.138 254.893 125.669 259.119 124.534C263.365 123.399 267.192 122.873 269.932 123.765C271.28 124.203 272.358 124.983 273.108 126.213C273.865 127.453 274.313 129.192 274.313 131.586C274.313 136.381 272.631 141.185 269.902 145.07C267.171 148.957 263.418 151.888 259.308 152.987Z" fill="#263238" stroke="black"/>
<path d="M236.894 157.115L241.338 162.254L241.487 170.071C241.38 170.041 241.263 170.002 241.14 169.951C240.639 169.745 240.05 169.354 239.658 168.594C239.566 168.415 239.441 168.077 239.292 167.588C239.146 167.109 238.984 166.515 238.815 165.846C238.476 164.508 238.109 162.887 237.769 161.318C237.43 159.75 237.12 158.237 236.894 157.115Z" fill="#263238" stroke="black"/>
<path d="M234.146 142.665C234.269 141.615 234.537 140.785 234.94 140.203C235.838 138.909 236.851 138.232 237.627 137.878C237.935 137.737 238.207 137.646 238.421 137.588L239.759 154.348L236.354 154.81C235.279 151.891 234.505 148.892 234.205 146.296C234.049 144.942 234.024 143.711 234.146 142.665Z" fill="#263238" stroke="black"/>
<path d="M241.93 154.802L242.127 154.612L242.074 154.344L242.073 154.344L242.073 154.343L242.073 154.342L242.072 154.335L242.066 154.304C242.061 154.276 242.053 154.234 242.043 154.178C242.023 154.066 241.994 153.9 241.96 153.685C241.893 153.255 241.805 152.629 241.724 151.852C241.563 150.297 241.431 148.141 241.549 145.74C241.786 140.917 243.024 135.199 246.937 131.307L246.937 131.307C250.921 127.339 256.576 124.439 261.368 124.281C263.751 124.202 265.887 124.801 267.519 126.242C269.151 127.683 270.342 130.022 270.723 133.551C272.137 146.694 271.494 152.382 269.837 159.671L269.837 159.671C268.814 164.192 266.711 167.707 263.481 169.153C262.514 169.583 260.997 169.902 259.681 170.115C259.031 170.22 258.444 170.297 258.02 170.348C257.807 170.373 257.636 170.392 257.519 170.404C257.46 170.41 257.414 170.415 257.384 170.418L257.349 170.421L257.341 170.422L257.339 170.422L257.338 170.422L256.884 170.464L256.884 170.921L256.895 176.84L256.896 177.123L257.14 177.268C257.834 177.682 258.201 178.151 258.355 178.616C258.509 179.081 258.472 179.608 258.236 180.177C257.756 181.334 256.484 182.571 254.721 183.477C251.249 185.26 246.195 185.602 242.486 181.801L242.323 162.049L241.336 161.959C241.332 161.958 241.332 161.958 241.333 161.958L241.332 161.959L241.332 161.959L241.328 161.979C241.323 161.999 241.315 162.03 241.304 162.071C241.28 162.154 241.24 162.277 241.179 162.425C241.056 162.722 240.85 163.113 240.515 163.49C239.865 164.225 238.68 164.97 236.497 164.766L236.497 164.766C235.385 164.662 234.01 163.583 233.111 161.843C232.229 160.134 231.876 157.909 232.694 155.697C233.512 153.495 234.689 152.693 235.689 152.485C236.732 152.268 237.692 152.67 238.107 153.059C238.281 153.222 238.456 153.398 238.64 153.583C238.729 153.672 238.82 153.764 238.914 153.857C239.193 154.133 239.491 154.417 239.791 154.646C240.084 154.869 240.424 155.076 240.79 155.145C241.192 155.222 241.594 155.125 241.93 154.802Z" fill="white" stroke="black"/>
<path d="M238.875 136.981L239.371 137.045L239.389 136.904L239.33 136.774C238.565 135.09 238.866 132.899 239.823 130.782C240.776 128.676 242.33 126.756 243.89 125.662C246.265 124.002 248.883 123.361 251.49 122.883L251.491 122.883C253.835 122.449 256.179 122.124 258.501 121.907C259.121 121.849 259.746 121.799 260.374 121.749C262.587 121.571 264.845 121.39 267.114 120.881L267.116 120.881C269.46 120.345 271.211 119.618 273.59 118.533L273.59 118.533C273.95 118.368 274.255 118.355 274.486 118.421C274.713 118.487 274.913 118.642 275.053 118.904C275.34 119.441 275.385 120.482 274.63 121.944L274.63 121.944C273.885 123.392 271.765 126.965 268.987 129.046L268.987 129.046C262.138 134.189 254.157 135.436 247.13 136.211L247.13 136.211C246.626 136.266 246.197 136.464 245.843 136.834C245.503 137.188 245.256 137.674 245.05 138.266C244.643 139.44 244.335 141.231 243.908 143.755L243.908 143.755C243.731 144.796 243.563 145.996 243.39 147.22C243.377 147.315 243.363 147.411 243.35 147.506C243.163 148.833 242.971 150.18 242.757 151.399C242.543 152.622 242.312 153.695 242.051 154.479C241.92 154.873 241.789 155.171 241.663 155.373C241.623 155.437 241.587 155.486 241.555 155.524C241.519 155.49 241.478 155.448 241.431 155.397C241.218 155.166 240.953 154.832 240.652 154.446C240.621 154.407 240.59 154.367 240.558 154.326C240.288 153.981 239.997 153.609 239.712 153.271C239.398 152.899 239.067 152.541 238.756 152.299L238.449 152.695L238.758 152.301C238.759 152.302 238.759 152.303 238.759 152.302C238.76 152.302 238.724 152.267 238.676 152.144C238.626 152.017 238.578 151.837 238.537 151.601C238.454 151.129 238.408 150.495 238.394 149.741C238.365 148.238 238.463 146.329 238.608 144.442C238.753 142.558 238.943 140.708 239.098 139.329C239.175 138.64 239.244 138.068 239.293 137.669C239.317 137.47 239.337 137.314 239.35 137.207L239.366 137.086L239.37 137.056L239.371 137.048L239.371 137.046L239.371 137.046C239.371 137.045 239.371 137.045 238.875 136.981Z" fill="#263238" stroke="black"/>
<path d="M233.212 134.538C233.371 135.092 233.381 135.767 233.196 136.47L229.015 134.997C229.349 134.357 229.81 133.853 230.307 133.531C230.922 133.132 231.558 133.028 232.091 133.215C232.615 133.401 233.018 133.865 233.212 134.538Z" fill="#263238" stroke="black"/>
<path d="M246.868 170.737L246.868 170.737C247.597 170.99 248.628 171.151 249.731 171.256C250.844 171.363 252.068 171.416 253.201 171.44C254.336 171.464 255.385 171.459 256.151 171.448C256.439 171.444 256.687 171.439 256.885 171.434V172.8C256.613 172.809 256.237 172.82 255.785 172.827C254.826 172.841 253.528 172.835 252.172 172.756C250.813 172.677 249.411 172.525 248.238 172.253C247.651 172.116 247.135 171.953 246.714 171.759C246.289 171.564 245.992 171.353 245.812 171.136C245.404 170.642 245.07 170.108 244.799 169.589C245.401 170.06 246.106 170.472 246.868 170.737Z" fill="#F28F8F" stroke="black"/>
<path d="M253.875 150.244L253.875 150.244L253.869 150.246C253.604 150.317 253.399 150.251 253.252 150.114C253.095 149.967 252.96 149.693 252.96 149.287C252.96 148.888 253.096 148.478 253.323 148.145C253.552 147.81 253.844 147.594 254.124 147.522C254.39 147.454 254.598 147.521 254.747 147.661C254.905 147.809 255.039 148.081 255.039 148.479C255.039 148.878 254.902 149.289 254.676 149.621C254.447 149.956 254.155 150.173 253.875 150.244Z" fill="#263238" stroke="black"/>
<path d="M251.919 141.496C252.096 141.514 252.265 141.586 252.409 141.722L250.067 143.846C250.061 143.649 250.083 143.44 250.133 143.227C250.25 142.731 250.514 142.255 250.886 141.914C251.256 141.575 251.63 141.467 251.919 141.496Z" fill="#263238" stroke="black"/>
<path d="M257.221 161.939C257.114 161.693 257.062 161.377 257.096 161.02L259.512 161.419C259.355 161.72 259.148 161.974 258.921 162.164C258.568 162.458 258.202 162.567 257.902 162.52C257.61 162.47 257.368 162.275 257.221 161.939Z" fill="#F28F8F" stroke="black"/>
<path d="M269.496 137.223C269.534 137.515 269.508 137.844 269.41 138.177L267.339 136.889C267.56 136.608 267.818 136.409 268.07 136.298C268.423 136.142 268.744 136.16 268.992 136.314C269.246 136.471 269.439 136.782 269.496 137.223Z" fill="#263238" stroke="black"/>
<path d="M266.673 146.313L266.673 146.313L266.668 146.315C266.402 146.386 266.197 146.32 266.05 146.183C265.893 146.035 265.758 145.761 265.758 145.356C265.758 144.957 265.895 144.546 266.121 144.214C266.35 143.879 266.642 143.662 266.922 143.591C267.188 143.522 267.396 143.59 267.545 143.729C267.703 143.878 267.837 144.15 267.837 144.548C267.837 144.947 267.701 145.357 267.474 145.69C267.245 146.025 266.953 146.241 266.673 146.313Z" fill="#263238" stroke="black"/>
<path d="M261.263 146.736L265.682 152.825L261.398 155.064L261.263 146.736Z" fill="#F4D3D3" stroke="black"/>
<path d="M211.461 252.301L211.461 252.301C210.767 259.372 210.96 268.56 212.497 280.702L212.497 280.702C212.844 283.457 213.551 286.882 214.164 289.857C214.495 291.459 214.799 292.931 215.005 294.098L215.005 294.099C215.996 299.766 217.282 303.225 218.823 305.196C219.585 306.171 220.404 306.773 221.277 307.105C222.153 307.439 223.118 307.514 224.192 307.382C227.798 306.936 229.381 305.948 229.858 304.738C230.1 304.127 230.097 303.379 229.834 302.464C229.57 301.547 229.056 300.502 228.328 299.33L228.327 299.33C227.213 297.536 226.479 295.839 226.022 294.589C225.794 293.963 225.634 293.449 225.532 293.088C225.48 292.908 225.443 292.767 225.419 292.669C225.412 292.643 225.407 292.62 225.402 292.601C225.398 292.584 225.394 292.569 225.391 292.556L225.384 292.526L225.382 292.517L225.382 292.515L225.381 292.514L225.381 292.514C225.381 292.514 225.381 292.514 225.869 292.405L225.381 292.514L225.101 291.253L226.157 291.996L226.254 292.065C227.575 292.995 228.097 293.362 228.856 293.559C229.58 293.747 230.18 293.567 230.65 293.253C231.114 292.943 231.438 292.508 231.586 292.198C231.532 292.122 231.42 292.016 231.2 291.83C231.164 291.799 231.126 291.768 231.087 291.735C230.659 291.375 230.045 290.86 229.425 290.044C229.424 290.043 229.424 290.043 229.424 290.043L229.822 289.741C229.164 288.876 228.804 287.999 228.458 287.156C227.942 285.901 227.457 284.721 226.066 283.767L211.461 252.301ZM211.461 252.301C213.611 230.198 216.422 215.264 220.038 205.318C223.589 195.556 227.887 190.676 233.027 188.492L211.461 252.301Z" fill="#FAF5F4" stroke="black"/>
<path d="M236.243 185.815C236.243 185.815 228.315 188.37 224.188 194.715C220.06 201.059 216.019 211.324 212.918 229.648C212.918 229.648 217.723 236.571 230.838 231.231C230.838 231.231 237.051 207.906 237.783 198.635C238.58 188.534 236.243 185.815 236.243 185.815Z" fill="#455A64"/>
<path d="M243.614 121.19C236.211 125.831 233 131.466 232.825 138.269C232.673 143.893 233.175 150.03 233.382 152.236C230.587 154.321 228.643 157.696 228.643 161.004C228.643 165.602 232.367 168.321 236.964 167.098C241.561 165.864 245.285 161.146 245.285 156.549C245.285 153.109 243.199 150.718 240.229 150.248C240.207 150.139 238.657 140.464 240.295 130.691C241.944 120.863 260.311 115.195 264.417 120.863C263.194 115.959 253.923 114.715 243.614 121.19Z" fill="#167EA1"/>
<path opacity="0.15" d="M243.614 121.19C236.211 125.831 233 131.466 232.825 138.269C232.673 143.893 233.175 150.03 233.382 152.236C230.587 154.321 228.643 157.696 228.643 161.004C228.643 165.602 232.367 168.321 236.964 167.098C241.561 165.864 245.285 161.146 245.285 156.549C245.285 153.109 243.199 150.718 240.229 150.248C240.207 150.139 238.657 140.464 240.295 130.691C241.944 120.863 260.311 115.195 264.417 120.863C263.194 115.959 253.923 114.715 243.614 121.19Z" fill="black"/>
<path d="M240.939 157.696C240.939 155.49 239.159 154.191 236.953 154.78C234.747 155.37 232.967 157.63 232.967 159.836C232.967 162.042 234.747 163.341 236.953 162.752C239.159 162.162 240.939 159.902 240.939 157.696Z" fill="#167EA1"/>
</g>
<path d="M178.062 227.857C177.865 228.054 177.701 228.239 177.57 228.425C177.57 228.436 177.559 228.447 177.559 228.447C177.264 228.829 177.068 229.178 176.98 229.495C176.98 229.495 176.991 229.506 176.98 229.506C176.893 229.768 176.882 230.008 176.948 230.216C176.98 230.38 177.057 230.532 177.177 230.642C177.232 230.707 177.297 230.762 177.374 230.816L173.366 228.501C173.191 228.403 173.071 228.272 172.984 228.119C172.842 227.857 172.82 227.54 172.929 227.158C172.94 227.158 172.929 227.147 172.929 227.147C172.995 226.918 173.126 226.656 173.3 226.383C173.475 226.11 173.715 225.815 173.999 225.509L178.062 227.857Z" fill="#167EA1"/>
<path d="M178.094 227.813C176.009 229.986 176.74 231.471 179.732 231.122L196.484 229.189V208.703L178.094 227.813Z" fill="#167EA1"/>
<path d="M178.094 227.813C176.773 229.189 176.587 230.281 177.374 230.816L173.366 228.501C172.525 227.977 172.711 226.863 174.043 225.465L192.443 206.355L196.494 208.703L178.094 227.813Z" fill="#167EA1"/>
<path opacity="0.15" d="M178.062 227.857C177.865 228.054 177.701 228.239 177.57 228.425C177.57 228.436 177.559 228.447 177.559 228.447C177.275 228.829 177.079 229.178 176.98 229.495C176.98 229.495 176.991 229.506 176.98 229.506C176.904 229.768 176.893 230.008 176.948 230.216C176.98 230.38 177.057 230.522 177.177 230.642C177.232 230.707 177.297 230.762 177.374 230.816L173.366 228.501C173.191 228.403 173.071 228.272 172.984 228.119C172.842 227.857 172.82 227.54 172.929 227.158C172.94 227.158 172.929 227.147 172.929 227.147C173.006 226.918 173.126 226.656 173.3 226.383C173.475 226.11 173.715 225.815 173.999 225.509L178.062 227.857Z" fill="black"/>
<path opacity="0.4" d="M196.494 208.703L178.094 227.813C178.083 227.824 178.062 227.846 178.062 227.857L173.999 225.509C174.01 225.498 174.032 225.476 174.043 225.465L192.443 206.355L196.494 208.703Z" fill="white"/>
<mask id="path-80-inside-3_2_3214" fill="white">
<path d="M290.865 201.649C293.016 205.318 294.556 207.961 294.556 207.961C294.556 207.961 318.733 195.141 320.098 193.47C321.463 191.799 321.376 188.381 321.583 186.557C321.922 183.5 320.797 180.868 320.644 179.765C320.305 177.417 323.68 177.963 324.75 178.892C325.525 179.569 325.951 180.53 326.486 181.414C327.021 182.288 327.993 185.138 329.009 185.324C329.795 185.465 331.356 184.341 331.99 183.86C334.643 181.851 336.281 179.066 338.323 176.522C338.738 176.009 339.175 175.474 339.787 175.255C340.78 174.895 341.862 175.452 342.757 176.031C343.576 176.566 344.395 177.144 344.93 177.963C345.301 178.553 345.509 179.23 345.673 179.907C346.732 184.537 344.384 188.447 341.578 191.952C338.815 195.403 335.375 198.296 331.684 200.699C329.478 202.14 326.574 203.418 324.084 204.772C321.594 206.126 294.403 228.872 290.614 226.284C289.063 225.225 282.741 219.853 278.449 214.021"/>
</mask>
<path d="M290.865 201.649C293.016 205.318 294.556 207.961 294.556 207.961C294.556 207.961 318.733 195.141 320.098 193.47C321.463 191.799 321.376 188.381 321.583 186.557C321.922 183.5 320.797 180.868 320.644 179.765C320.305 177.417 323.68 177.963 324.75 178.892C325.525 179.569 325.951 180.53 326.486 181.414C327.021 182.288 327.993 185.138 329.009 185.324C329.795 185.465 331.356 184.341 331.99 183.86C334.643 181.851 336.281 179.066 338.323 176.522C338.738 176.009 339.175 175.474 339.787 175.255C340.78 174.895 341.862 175.452 342.757 176.031C343.576 176.566 344.395 177.144 344.93 177.963C345.301 178.553 345.509 179.23 345.673 179.907C346.732 184.537 344.384 188.447 341.578 191.952C338.815 195.403 335.375 198.296 331.684 200.699C329.478 202.14 326.574 203.418 324.084 204.772C321.594 206.126 294.403 228.872 290.614 226.284C289.063 225.225 282.741 219.853 278.449 214.021" fill="white"/>
<path d="M294.556 207.961L293.692 208.464L294.176 209.294L295.025 208.844L294.556 207.961ZM321.583 186.557L322.577 186.671L322.577 186.668L321.583 186.557ZM320.644 179.765L321.635 179.628L321.634 179.623L320.644 179.765ZM324.75 178.892L325.408 178.138L325.405 178.136L324.75 178.892ZM326.486 181.414L325.631 181.932L325.633 181.936L326.486 181.414ZM329.009 185.324L328.829 186.307L328.831 186.308L329.009 185.324ZM331.99 183.86L331.386 183.063L331.385 183.064L331.99 183.86ZM338.323 176.522L337.546 175.893L337.544 175.896L338.323 176.522ZM339.787 175.255L340.123 176.197L340.128 176.195L339.787 175.255ZM342.757 176.031L343.304 175.193L343.3 175.191L342.757 176.031ZM344.93 177.963L345.776 177.431L345.772 177.424L345.767 177.417L344.93 177.963ZM345.673 179.907L346.647 179.684L346.645 179.672L345.673 179.907ZM341.578 191.952L342.358 192.577L342.358 192.577L341.578 191.952ZM331.684 200.699L331.139 199.861L331.137 199.862L331.684 200.699ZM290.614 226.284L290.05 227.11L290.05 227.11L290.614 226.284ZM290.002 202.155C291.078 203.989 292 205.566 292.654 206.685C292.981 207.245 293.24 207.689 293.418 207.994C293.507 208.147 293.576 208.264 293.622 208.344C293.645 208.383 293.663 208.413 293.674 208.434C293.68 208.444 293.685 208.451 293.688 208.456C293.689 208.459 293.69 208.461 293.691 208.462C293.691 208.463 293.692 208.463 293.692 208.464C293.692 208.464 293.692 208.464 293.692 208.464C293.692 208.464 293.692 208.464 293.692 208.464C293.692 208.464 293.692 208.464 294.556 207.961C295.42 207.457 295.42 207.457 295.42 207.457C295.42 207.457 295.42 207.457 295.42 207.457C295.42 207.457 295.42 207.457 295.42 207.457C295.42 207.456 295.419 207.456 295.419 207.455C295.418 207.454 295.417 207.452 295.416 207.45C295.413 207.444 295.408 207.437 295.402 207.427C295.39 207.406 295.373 207.376 295.35 207.336C295.303 207.257 295.235 207.139 295.146 206.987C294.968 206.681 294.708 206.236 294.381 205.676C293.727 204.557 292.804 202.978 291.728 201.143L290.002 202.155ZM294.556 207.961C295.025 208.844 295.025 208.844 295.025 208.844C295.025 208.844 295.025 208.844 295.026 208.844C295.026 208.843 295.028 208.843 295.029 208.842C295.032 208.84 295.036 208.838 295.042 208.835C295.054 208.829 295.071 208.819 295.094 208.807C295.14 208.783 295.208 208.747 295.297 208.699C295.475 208.605 295.736 208.466 296.068 208.289C296.732 207.935 297.683 207.427 298.828 206.813C301.118 205.584 304.185 203.927 307.297 202.218C310.406 200.51 313.566 198.746 316.036 197.302C317.27 196.581 318.341 195.935 319.15 195.413C319.555 195.152 319.904 194.916 320.179 194.713C320.429 194.529 320.698 194.316 320.872 194.103L319.324 192.837C319.327 192.833 319.248 192.915 318.993 193.103C318.765 193.271 318.454 193.482 318.067 193.732C317.293 194.231 316.251 194.86 315.027 195.576C312.58 197.006 309.439 198.76 306.334 200.465C303.23 202.17 300.168 203.823 297.882 205.05C296.739 205.664 295.79 206.171 295.127 206.524C294.796 206.701 294.536 206.839 294.359 206.933C294.27 206.98 294.202 207.016 294.157 207.041C294.134 207.053 294.116 207.062 294.105 207.068C294.099 207.071 294.095 207.073 294.092 207.075C294.09 207.076 294.089 207.076 294.089 207.077C294.088 207.077 294.088 207.077 294.088 207.077C294.088 207.077 294.088 207.077 294.556 207.961ZM320.872 194.103C321.744 193.036 322.088 191.518 322.266 190.205C322.357 189.526 322.41 188.848 322.453 188.242C322.497 187.62 322.528 187.098 322.577 186.671L320.589 186.444C320.534 186.928 320.499 187.517 320.458 188.102C320.416 188.702 320.366 189.325 320.284 189.937C320.112 191.206 319.817 192.233 319.324 192.837L320.872 194.103ZM322.577 186.668C322.763 184.99 322.545 183.449 322.275 182.214C322.14 181.598 321.989 181.046 321.868 180.601C321.74 180.128 321.662 179.827 321.635 179.628L319.653 179.903C319.702 180.255 319.822 180.697 319.938 181.123C320.06 181.576 320.198 182.081 320.321 182.642C320.566 183.763 320.742 185.068 320.589 186.447L322.577 186.668ZM321.634 179.623C321.608 179.441 321.625 179.343 321.638 179.301C321.648 179.266 321.66 179.253 321.672 179.241C321.713 179.203 321.864 179.114 322.212 179.099C322.543 179.085 322.937 179.143 323.309 179.26C323.692 179.381 323.965 179.535 324.095 179.647L325.405 178.136C324.999 177.784 324.449 177.522 323.909 177.352C323.359 177.179 322.73 177.074 322.125 177.101C321.538 177.127 320.842 177.284 320.313 177.774C319.733 178.311 319.534 179.075 319.654 179.908L321.634 179.623ZM324.092 179.645C324.373 179.89 324.612 180.206 324.858 180.602C324.982 180.801 325.1 181.009 325.228 181.234C325.352 181.455 325.488 181.695 325.631 181.932L327.342 180.897C327.217 180.691 327.099 180.479 326.969 180.25C326.842 180.025 326.705 179.785 326.558 179.548C326.263 179.073 325.902 178.57 325.408 178.138L324.092 179.645ZM325.633 181.936C325.73 182.095 325.865 182.377 326.056 182.788C326.235 183.174 326.448 183.64 326.679 184.086C326.907 184.527 327.175 184.995 327.476 185.377C327.746 185.718 328.194 186.191 328.829 186.307L329.189 184.34C329.316 184.363 329.262 184.41 329.046 184.138C328.863 183.906 328.665 183.572 328.456 183.168C328.249 182.769 328.056 182.347 327.87 181.947C327.697 181.572 327.51 181.17 327.339 180.892L325.633 181.936ZM328.831 186.308C329.282 186.389 329.724 186.279 330.046 186.167C330.392 186.046 330.74 185.872 331.052 185.694C331.677 185.338 332.267 184.905 332.594 184.657L331.385 183.064C331.079 183.296 330.572 183.666 330.062 183.956C329.806 184.102 329.576 184.213 329.388 184.278C329.177 184.352 329.129 184.329 329.186 184.339L328.831 186.308ZM332.594 184.657C334.018 183.579 335.151 182.306 336.172 181.01C336.681 180.364 337.17 179.701 337.649 179.055C338.131 178.404 338.606 177.767 339.103 177.148L337.544 175.896C337.02 176.549 336.524 177.214 336.042 177.864C335.557 178.518 335.088 179.154 334.6 179.773C333.628 181.008 332.616 182.132 331.386 183.063L332.594 184.657ZM339.101 177.151C339.555 176.59 339.822 176.304 340.123 176.197L339.45 174.314C338.528 174.643 337.922 175.428 337.546 175.893L339.101 177.151ZM340.128 176.195C340.345 176.117 340.621 176.117 340.996 176.241C341.379 176.367 341.787 176.594 342.214 176.87L343.3 175.191C342.831 174.888 342.251 174.548 341.621 174.341C340.984 174.131 340.222 174.034 339.446 174.315L340.128 176.195ZM342.21 176.868C343.033 177.405 343.685 177.886 344.093 178.51L345.767 177.417C345.105 176.403 344.119 175.726 343.304 175.193L342.21 176.868ZM344.084 178.496C344.366 178.944 344.543 179.492 344.701 180.142L346.645 179.672C346.474 178.969 346.237 178.162 345.776 177.431L344.084 178.496ZM344.698 180.13C345.645 184.272 343.583 187.847 340.797 191.327L342.358 192.577C345.185 189.046 347.818 184.802 346.647 179.684L344.698 180.13ZM340.797 191.327C338.116 194.676 334.763 197.502 331.139 199.861L332.23 201.537C335.987 199.091 339.514 196.129 342.358 192.577L340.797 191.327ZM331.137 199.862C330.082 200.551 328.846 201.21 327.537 201.877C326.245 202.535 324.866 203.208 323.606 203.894L324.562 205.651C325.791 204.982 327.109 204.339 328.444 203.659C329.761 202.988 331.08 202.288 332.231 201.536L331.137 199.862ZM323.606 203.894C323.213 204.107 322.446 204.667 321.484 205.393C320.489 206.144 319.203 207.137 317.726 208.277C314.767 210.56 311.026 213.441 307.247 216.199C303.462 218.96 299.666 221.577 296.595 223.338C295.054 224.221 293.737 224.866 292.717 225.212C292.206 225.385 291.812 225.469 291.526 225.486C291.231 225.504 291.158 225.445 291.178 225.459L290.05 227.11C290.543 227.447 291.127 227.514 291.648 227.482C292.178 227.45 292.759 227.309 293.359 227.106C294.561 226.698 296.009 225.979 297.59 225.073C300.76 223.255 304.628 220.585 308.426 217.814C312.229 215.039 315.99 212.142 318.947 209.86C320.429 208.717 321.705 207.732 322.689 206.99C323.705 206.222 324.332 205.776 324.562 205.651L323.606 203.894ZM291.178 225.459C289.714 224.458 283.475 219.163 279.254 213.429L277.644 214.614C282.007 220.542 288.413 225.992 290.05 227.11L291.178 225.459Z" fill="black" mask="url(#path-80-inside-3_2_3214)"/>
<path d="M469.751 162.698C473.779 162.752 476.841 163.412 479.318 164.94C481.901 166.532 483.913 169.108 485.702 173.09L485.702 173.091C486.181 174.155 486.797 175.495 487.502 177.028C489.361 181.073 491.84 186.465 494.059 191.712C495.587 195.329 496.987 198.865 497.97 201.83C498.462 203.312 498.847 204.644 499.092 205.768C499.34 206.902 499.435 207.783 499.376 208.381C499.321 208.945 498.966 209.818 498.31 210.964C497.666 212.09 496.768 213.418 495.697 214.873C493.554 217.781 490.742 221.16 487.939 224.377C485.138 227.592 482.353 230.639 480.268 232.882C479.225 234.004 478.358 234.924 477.751 235.564C477.526 235.802 477.337 236.001 477.189 236.157L471.447 229.176L484.983 206.425L485.147 206.149L484.964 205.885L471.577 186.58L469.751 162.698Z" fill="white" stroke="black"/>
<path d="M448.004 399.846C448.004 399.846 448.987 402.827 449.522 405.437C449.948 407.512 450.548 410.985 449.817 412.546C449.085 414.108 446.257 415.112 441.856 415.08C439.006 415.058 434.572 416.991 431.537 418.683C428.403 420.43 421.872 421.129 418.553 420.736C414.643 420.278 410.592 418.006 409.959 416.39C409.325 414.774 408.79 412.546 419.383 409.161C419.47 409.128 432.192 404.989 436.658 400.065L448.004 399.846Z" fill="#263238"/>
<path d="M448.004 400.141L445.984 399.89L436.658 400.076C432.203 405.001 419.47 409.139 419.383 409.172C418.782 409.369 418.225 409.554 417.69 409.74C415.856 411.225 417.406 413.748 421.785 414.141C426.153 414.534 439.759 409.947 442.773 408.495C445.787 407.043 448.004 404.138 448.004 400.141Z" fill="#FFFEFE"/>
<path d="M448.004 396.134C448.004 396.134 447.993 398.678 448.004 400.141C448.015 401.594 446.301 403.767 441.845 403.603C438.722 403.494 436.538 402.653 436.658 400.076V396.363L448.004 396.134Z" fill="white"/>
<path d="M477.903 383.106C478.7 383.434 478.864 384.984 478.908 388.053C478.94 390.379 479.323 394.441 476.593 395.173C473.852 395.904 469.888 395.391 468.206 393.153C466.109 390.368 464.701 387.922 461.687 384.515C459.077 381.555 456.238 378.782 455.266 374.698C454.381 371.007 455.244 369.445 457.767 368.451C460.158 367.501 462.571 368.277 466.066 371.192C467.267 371.924 468.348 372.579 469.178 372.841C471.46 373.54 477.095 382.778 477.903 383.106Z" fill="#263238"/>
<path d="M477.979 380.267L477.881 384.034C477.881 384.034 475.359 388.959 468.37 384.034C468.217 383.663 467.584 376.39 467.584 376.39L477.979 380.267Z" fill="white"/>
<path d="M469.167 372.831C468.337 372.579 467.256 371.924 466.055 371.182C463.237 370.275 457.286 371.324 459.972 375.419C462.855 379.83 465.815 382.113 468.359 384.024C471.526 385.585 472.629 383.652 472.629 383.652L471.504 374.829C470.598 373.792 469.768 373.016 469.167 372.831Z" fill="#FAFAFA"/>
<path d="M483.09 328.2C481.703 315.861 479.017 308.719 479.017 308.719C479.017 308.719 481.386 292.11 483.254 276.166C487.633 238.744 484.717 238.143 479.421 225.137C479.421 225.137 431.449 218.968 429.44 238.918C426.939 263.761 428.064 311.94 428.49 320.753C428.916 329.565 429.626 333.551 432.236 352.006C434.223 366.049 436.112 396.767 436.112 396.767C442.402 400.392 448.452 396.134 448.452 396.134C448.452 396.134 454.458 358.35 454.327 348.195C454.152 335.79 451.073 325.94 451.073 325.94C451.073 325.94 455.146 285.448 456.194 279.017C456.194 279.017 457.352 291.924 457.777 300.736C458.203 309.549 460.584 318.023 462.691 334.425C464.515 348.653 467.551 378.367 467.551 378.367C473.841 381.992 478.231 380.343 478.231 380.343C478.231 380.343 484.477 340.54 483.09 328.2Z" fill="#167EA1"/>
<path d="M451.121 172.236L449.451 154.524L465.275 151.638L466.518 171.26L451.121 172.236Z" fill="white" stroke="black"/>
<path d="M481.769 170.112C480.109 165.176 476.713 162.282 469.211 162.206L466.448 162.293C465.924 165.045 457.854 167.272 449.882 164.455C448.757 164.75 445.678 165.318 443.942 165.547L440.131 166.104C434.321 168.004 431.766 178.083 431.209 194.07C430.652 210.046 428.261 244.237 428.261 244.237C428.261 244.237 440.742 250.931 460.442 248.332C478.067 246.017 484.935 235.588 484.324 236.92C484.324 236.92 481.638 224.242 475.217 211.313C484.488 188.49 484.237 177.439 481.769 170.112Z" fill="#F3B150"/>
<path d="M450.668 248.91C453.682 248.943 456.937 248.779 460.431 248.321C476.505 246.213 483.625 237.357 484.291 236.822C484.051 235.741 481.321 223.641 475.206 211.302C479.901 199.781 482.151 191.253 482.915 184.701C482.151 189.484 475.086 208.004 465.836 213.562C465.836 213.562 471.056 214.37 475.522 220.507C479.978 226.612 476.32 247.589 450.668 248.91Z" fill="#655A4A"/>
<path d="M410.456 203.649L410.455 203.65C409.213 204.98 407.043 206.581 404.454 208.213C401.855 209.852 398.799 211.544 395.757 213.052C392.715 214.559 389.678 215.888 387.116 216.796C385.836 217.25 384.666 217.602 383.669 217.818C382.685 218.031 381.819 218.124 381.171 218.02C379.967 217.827 378.82 217.257 377.762 216.568C376.753 215.91 375.792 215.122 374.915 214.403C374.872 214.367 374.828 214.331 374.785 214.296C373.857 213.535 373.045 212.88 372.331 212.489C371.604 212.091 371.142 212.056 370.81 212.248L370.808 212.249C370.619 212.358 370.535 212.478 370.495 212.599C370.45 212.735 370.444 212.923 370.503 213.181C370.624 213.711 370.98 214.366 371.443 215.076C371.669 215.425 371.912 215.773 372.151 216.114C372.173 216.145 372.194 216.175 372.216 216.206C372.431 216.512 372.642 216.813 372.826 217.091C373.026 217.395 373.207 217.692 373.329 217.959C373.438 218.197 373.558 218.528 373.48 218.846L410.456 203.649ZM410.456 203.649C414.969 198.806 422.107 189.556 427.277 175.615C428.631 171.968 430.896 169.829 433.759 168.471C436.534 167.154 439.878 166.566 443.544 166.091C443.562 166.184 443.581 166.29 443.601 166.41C443.687 166.909 443.796 167.636 443.886 168.542C444.066 170.355 444.17 172.878 443.868 175.714C443.262 181.388 441.035 188.277 434.572 193.293L434.488 193.358L434.438 193.451C433.859 194.524 433.328 195.541 432.816 196.52C429.676 202.53 427.279 207.117 419.15 214.715L419.15 214.715C415.6 218.035 409.294 221.182 402.573 223.757C395.868 226.326 388.822 228.3 383.849 229.299C378.878 230.298 374.136 230.679 370.048 230.11C365.964 229.543 362.565 228.034 360.217 225.283C357.862 222.518 357.241 219.31 357.629 217.161C357.825 216.075 358.261 215.342 358.763 215.014C359.213 214.719 359.836 214.677 360.661 215.259L360.662 215.26M410.456 203.649L360.662 215.26M360.662 215.26C362.622 216.64 365.621 217.906 368.147 218.688M360.662 215.26L368.147 218.688M368.147 218.688C369.412 219.079 370.585 219.357 371.472 219.464M368.147 218.688L371.472 219.464M371.472 219.464C371.91 219.517 372.311 219.533 372.629 219.485M371.472 219.464L372.629 219.485M372.629 219.485C372.788 219.461 372.958 219.416 373.109 219.328M372.629 219.485L373.109 219.328M373.109 219.328C373.268 219.235 373.423 219.08 373.48 218.848L373.109 219.328Z" fill="#FDFDFD" stroke="black"/>
<path d="M440.338 130.952C440.338 130.952 434.147 123.581 439.006 116.396C444.728 107.933 454.796 105.061 467.245 108.763C473.415 110.597 482.457 119.115 482.915 131.051C483.265 140.256 457.45 146.35 457.865 152.661L440.338 130.952Z" fill="#263238"/>
<path d="M436.157 135.519L435.908 140.252C435.734 140.196 435.536 140.131 435.332 140.058C435.024 139.947 434.712 139.822 434.454 139.694C434.272 139.604 434.147 139.527 434.071 139.469C434.074 139.453 434.079 139.433 434.085 139.412C434.128 139.248 434.217 139.017 434.35 138.728C434.613 138.156 435.012 137.434 435.434 136.716C435.677 136.301 435.927 135.892 436.157 135.519Z" fill="white" stroke="black"/>
<path d="M467.941 119.451L467.941 119.451C464.023 116.541 459.772 115.487 456.129 115.349C452.472 115.211 449.468 115.998 448.07 116.72C446.32 117.625 443.993 118.883 441.901 121.491C439.809 124.098 437.921 128.094 437.144 134.518L467.941 119.451ZM467.941 119.451C470.604 121.426 471.755 124.981 471.597 129.136C471.439 133.28 469.978 137.92 467.55 141.907C465.502 145.259 462.279 148.035 459.033 150.14C455.789 152.243 452.56 153.651 450.542 154.281C448.969 154.769 446.626 154.921 444.505 154.797C443.449 154.735 442.469 154.606 441.686 154.425C441.295 154.334 440.962 154.232 440.698 154.123C440.428 154.012 440.261 153.905 440.173 153.82M467.941 119.451L440.173 153.82M440.173 153.82C438.517 152.214 435.548 147.77 437.144 134.518L440.173 153.82Z" fill="white" stroke="black"/>
<path d="M446.803 116.833C446.803 116.833 443.734 128.998 447.414 136.686C447.414 136.686 449.566 131.935 453.65 133.3C457.756 134.676 457.384 140.147 454.152 142.943C450.92 145.738 447.786 144.297 447.786 144.297C447.786 144.297 447.895 151.024 453.65 153.688C453.65 153.688 465.683 159.443 476.549 147.824C486.41 137.275 485.143 118.395 470.598 113.546C456.052 108.719 446.803 116.833 446.803 116.833Z" fill="#263238"/>
<path d="M495.703 168.135C486.093 168.135 478.307 160.349 478.307 150.74V128.375C487.917 128.375 495.703 136.161 495.703 145.771V168.135Z" fill="#263238"/>
<path d="M437.433 111.362C432.017 116.877 431.711 132.776 447.403 136.686L457.668 108.523C451.695 104.646 442.271 106.448 437.433 111.362Z" fill="#263238"/>
<path d="M445.831 141.042C444.215 140.464 443.385 138.684 443.964 137.068C444.542 135.451 446.322 134.621 447.938 135.2L445.831 141.042Z" fill="#263238"/>
<path opacity="0.1" d="M456.205 279.017L458.815 262.32C458.815 262.32 465.891 261.829 473.633 257.166C473.633 257.166 470.379 262.091 461.741 264.133L459.077 283.472L458.007 303.729L456.205 279.017Z" fill="black"/>
</svg>
