<svg width="598" height="480" viewBox="0 0 598 480" fill="none" xmlns="http://www.w3.org/2000/svg">
<mask id="mask0_2_2970" style="mask-type:luminance" maskUnits="userSpaceOnUse" x="0" y="0" width="598" height="480">
<path d="M598 0.26709H0V480H598V0.26709Z" fill="white"/>
</mask>
<g mask="url(#mask0_2_2970)">
<path d="M598 0.26709H0V480H598V0.26709Z" fill="white"/>
<mask id="mask1_2_2970" style="mask-type:luminance" maskUnits="userSpaceOnUse" x="0" y="0" width="598" height="497">
<path d="M598 0.26709H0V496.477H598V0.26709Z" fill="white"/>
</mask>
<g mask="url(#mask1_2_2970)">
<path d="M471 185.427V102.915C471 89.5751 468.53 76.3654 463.73 64.0406C458.931 51.7159 451.897 40.5173 443.029 31.0844C434.161 21.6514 423.633 14.1687 412.046 9.06369C400.46 3.95861 388.041 1.33105 375.5 1.33105C350.172 1.33105 325.881 12.0337 307.971 31.0844C290.062 50.1351 280 75.9734 280 102.915V263.003" stroke="#546463" stroke-width="2"/>
<path d="M347.89 62.42C348.04 62.1979 348.253 62.032 348.497 61.946C348.741 61.8601 349.005 61.8585 349.25 61.9414C350.65 62.2286 351.98 66.6429 349.38 71.0786" fill="white"/>
<path d="M347.89 62.42C348.04 62.1979 348.253 62.032 348.497 61.946C348.741 61.8601 349.005 61.8585 349.25 61.9414C350.65 62.2286 351.98 66.6429 349.38 71.0786" stroke="#1D1D1B" stroke-width="0.78" stroke-miterlimit="10" stroke-linecap="round"/>
<path d="M326.47 52.5063C326.47 52.5063 324.07 54.2721 321.2 61.0905C318.33 67.9089 316.67 80.7691 292.74 88.949C282.5 92.4486 270.9 99.7137 271.82 111.052C272.56 120.105 280.01 131.486 297.7 131.433C314.36 131.369 330.35 98.1075 330.5 91.1722C330.65 84.2367 326.47 52.5063 326.47 52.5063Z" fill="#383B3D"/>
<path d="M355.87 105.383C355.87 105.383 347.5 102.384 345.63 95.608C344.81 92.5336 344.212 89.3972 343.84 86.2261C349.15 82.301 351.28 73.1318 347.5 61.0907C346.879 58.0265 345.629 55.1461 343.84 52.6554C341.13 49.2728 336.21 50.177 336.21 50.177C336.21 50.177 330.89 48.6133 324.63 56.3678L322.69 65.8454C323.94 74.2913 328.41 79.312 329.58 88.1833C330.18 92.7679 325.74 99.3097 325.74 99.3097" fill="white"/>
<path d="M355.87 105.383C355.87 105.383 347.5 102.384 345.63 95.608C344.81 92.5336 344.212 89.3972 343.84 86.2261C349.15 82.301 351.28 73.1318 347.5 61.0907C346.879 58.0265 345.629 55.1461 343.84 52.6554C341.13 49.2728 336.21 50.177 336.21 50.177C336.21 50.177 330.89 48.6133 324.63 56.3678L322.69 65.8454C323.94 74.2913 328.41 79.312 329.58 88.1833C330.18 92.7679 325.74 99.3097 325.74 99.3097" stroke="black" stroke-width="0.78" stroke-miterlimit="10"/>
<path d="M332.6 83.6626C332.6 83.6626 338.22 89.9385 343.84 86.2261" stroke="#1D1D1B" stroke-width="0.78" stroke-miterlimit="10" stroke-linecap="round"/>
<path d="M339.65 76.1948L342.37 75.7268C342.414 75.7191 342.456 75.7001 342.491 75.6717C342.527 75.6433 342.556 75.6063 342.576 75.5636C342.595 75.5209 342.605 75.4739 342.604 75.4264C342.603 75.379 342.591 75.3324 342.57 75.2907C340.13 70.972 340 64.0898 340 64.0898" stroke="#1D1D1B" stroke-width="0.78" stroke-miterlimit="10" stroke-linecap="round"/>
<path d="M331.66 70.6744C332.514 71.3014 333.559 71.564 334.587 71.4104C335.615 71.2567 336.551 70.6979 337.21 69.8447" stroke="#1D1D1B" stroke-width="0.78" stroke-miterlimit="10" stroke-linecap="round"/>
<path d="M342 68.9827C342 68.9827 345.53 70.8016 347.35 67.9189" stroke="#1D1D1B" stroke-width="0.78" stroke-miterlimit="10" stroke-linecap="round"/>
<path d="M329.84 68.7491C330.493 67.3767 331.467 66.2064 332.668 65.3512C333.87 64.496 335.259 63.9847 336.7 63.8667" stroke="#1D1D1B" stroke-width="0.78" stroke-miterlimit="10" stroke-linecap="round"/>
<path d="M342 63.0256C343.15 62.8188 344.33 62.8893 345.451 63.2317C346.573 63.5742 347.608 64.1798 348.48 65.0041" stroke="#1D1D1B" stroke-width="0.78" stroke-miterlimit="10" stroke-linecap="round"/>
<path d="M337.64 80.4069C337.595 80.4069 337.552 80.3879 337.52 80.3539C337.488 80.32 337.47 80.274 337.47 80.2261C337.47 80.1781 337.488 80.1321 337.52 80.0982C337.552 80.0643 337.595 80.0453 337.64 80.0453C338.327 80.0195 339.004 79.8647 339.64 79.5879C341.12 78.7901 341.04 77.854 342.64 77.854C343.187 77.8371 343.73 77.9651 344.22 78.2263C344.265 78.2521 344.303 78.2885 344.333 78.3329C344.362 78.3771 344.381 78.4281 344.389 78.4817C344.397 78.5353 344.393 78.59 344.377 78.6417C344.362 78.6934 344.335 78.7405 344.3 78.7794C343.344 79.7933 342.113 80.4629 340.78 80.6941C339.726 80.8208 338.658 80.7232 337.64 80.4069Z" fill="#383B3D"/>
<path d="M347.5 61.0906C343.09 60.6439 339.87 54.0595 339.87 54.0595C339.87 54.0595 335.4 65.4838 325 67.9516C324.36 68.1005 322.81 68.9408 322.13 69.0153C321.938 67.7308 321.834 66.4332 321.82 65.1327C321.82 51.9002 331.34 47.9432 331.34 47.9432C333.2 46.9433 346.07 45.2414 347.39 60.8034C347.417 60.9031 347.454 60.9995 347.5 61.0906Z" fill="#383B3D"/>
<path d="M324.71 68.2068C324.71 68.2068 322.46 66.3879 320.87 67.3772C319.28 68.3664 318.78 71.4618 320.37 74.3976C321.014 75.6898 322.035 76.7251 323.279 77.3484C324.523 77.9717 325.923 78.1493 327.27 77.8547" fill="white"/>
<path d="M324.71 68.2068C324.71 68.2068 322.46 66.3879 320.87 67.3772C319.28 68.3664 318.78 71.4618 320.37 74.3976C321.014 75.6898 322.035 76.7251 323.279 77.3484C324.523 77.9717 325.923 78.1493 327.27 77.8547" stroke="black" stroke-width="0.78" stroke-miterlimit="10" stroke-linecap="round"/>
<path d="M320.75 70.6526C321.426 70.4364 322.146 70.4213 322.829 70.6087C323.513 70.7963 324.136 71.1793 324.63 71.7163" fill="white"/>
<path d="M320.75 70.6526C321.426 70.4364 322.146 70.4213 322.829 70.6087C323.513 70.7963 324.136 71.1793 324.63 71.7163" stroke="#1D1D1B" stroke-width="0.78" stroke-miterlimit="10" stroke-linecap="round"/>
<path d="M324.83 76.0247C323.513 74.419 322.546 72.5227 322 70.4722L324.83 76.0247Z" fill="white"/>
<path d="M324.83 76.0247C323.513 74.419 322.546 72.5227 322 70.4722" stroke="#1D1D1B" stroke-width="0.78" stroke-miterlimit="10" stroke-linecap="round"/>
<path d="M304.07 185.353C304.07 185.353 297.8 185.81 296.24 176.63C291.7 149.91 298.8 127.349 309.05 112.042C316.26 101.277 323.23 105.809 327.15 95.0228C327.189 94.9187 327.259 94.8309 327.349 94.7733C327.44 94.7156 327.545 94.6912 327.65 94.7037C329.75 95.0335 340.34 96.5439 345.05 94.6399C345.096 94.6217 345.145 94.6151 345.194 94.6204C345.243 94.6258 345.29 94.643 345.332 94.6708C345.373 94.6985 345.408 94.7361 345.434 94.7805C345.46 94.825 345.475 94.8751 345.48 94.9271C345.57 96.2355 346.48 100.054 353.79 103.745C364 108.947 367 114.808 369.06 119.403C380.58 144.464 383.06 187.15 383.06 187.15H366.27L358.83 146.815H358.74C358.58 148.368 357.84 155.463 356.85 160.802C354.76 172.12 358.56 201.351 358.56 201.351L304.07 185.353Z" fill="#546463"/>
<path d="M328.87 99.341C329.422 98.3037 329.804 97.1744 330 96.001" stroke="#F3B150" stroke-miterlimit="10" stroke-linecap="round"/>
<path d="M333.42 96.7886L333.06 100.501" stroke="#F3B150" stroke-miterlimit="10" stroke-linecap="round"/>
<path d="M337.42 96.7886V101.277" stroke="#F3B150" stroke-miterlimit="10" stroke-linecap="round"/>
<path d="M341.44 96.3843C341.609 97.6604 341.921 98.9104 342.37 100.107" stroke="#F3B150" stroke-miterlimit="10" stroke-linecap="round"/>
<path d="M344.23 96.001C344.23 96.001 344.77 98.5113 345.78 99.341" stroke="#F3B150" stroke-miterlimit="10" stroke-linecap="round"/>
<path d="M329.03 148.091L333.06 145.368" stroke="#F3B150" stroke-miterlimit="10" stroke-linecap="round"/>
<path d="M330.89 151.474L334.18 149.006" stroke="#F3B150" stroke-miterlimit="10" stroke-linecap="round"/>
<path d="M332.61 154.526L335.7 151.803" stroke="#F3B150" stroke-miterlimit="10" stroke-linecap="round"/>
<path d="M334.61 157.334L337.04 154.856" stroke="#F3B150" stroke-miterlimit="10" stroke-linecap="round"/>
<path d="M348.919 122.005L342.451 123.864C341.369 124.176 340.728 125.361 341.021 126.512L345.405 143.774C345.698 144.926 346.812 145.606 347.895 145.296L354.363 143.436C355.445 143.126 356.085 141.94 355.793 140.789L351.408 123.527C351.116 122.375 350.001 121.694 348.919 122.005Z" fill="black"/>
<path d="M343.33 127.902C343.744 127.902 344.08 127.544 344.08 127.104C344.08 126.664 343.744 126.306 343.33 126.306C342.916 126.306 342.58 126.664 342.58 127.104C342.58 127.544 342.916 127.902 343.33 127.902Z" fill="white"/>
<path d="M334.18 144.751C334.18 144.751 338.8 141.369 340.43 138.901C342.06 136.433 344.95 127.828 346.36 128.125C347.53 128.381 346.36 133.944 345.93 135.827C345.917 135.879 345.92 135.934 345.937 135.985C345.953 136.036 345.984 136.081 346.024 136.114C346.065 136.147 346.113 136.167 346.164 136.17C346.215 136.174 346.266 136.162 346.31 136.135C348.066 135.182 349.722 134.034 351.25 132.71C354.31 129.615 350.55 128.998 351.01 128.125C351.47 127.253 354.47 127.306 355.4 129.285C355.744 129.215 356.1 129.259 356.419 129.414C356.738 129.569 357.004 129.824 357.18 130.146C357.495 130.912 357.575 131.764 357.41 132.582C357.774 132.624 358.119 132.772 358.41 133.008C359.18 133.667 358.69 135.231 358.54 135.625C358.53 135.643 358.525 135.663 358.525 135.683C358.525 135.703 358.53 135.723 358.54 135.742C358.63 135.837 358.79 136.231 358.67 137.869C358.41 141.496 354.95 144.677 350.06 146.655C345.813 148.58 341.682 150.783 337.69 153.25" fill="white"/>
<path d="M334.18 144.751C334.18 144.751 338.8 141.369 340.43 138.901C342.06 136.433 344.95 127.828 346.36 128.125C347.53 128.381 346.36 133.944 345.93 135.827C345.917 135.879 345.92 135.934 345.937 135.985C345.953 136.036 345.984 136.081 346.024 136.114C346.065 136.147 346.113 136.167 346.164 136.17C346.215 136.174 346.266 136.162 346.31 136.135C348.066 135.182 349.722 134.034 351.25 132.71C354.31 129.615 350.55 128.998 351.01 128.125C351.47 127.253 354.47 127.306 355.4 129.285C355.744 129.215 356.1 129.259 356.419 129.414C356.738 129.569 357.004 129.824 357.18 130.146C357.495 130.912 357.575 131.764 357.41 132.582C357.774 132.624 358.119 132.772 358.41 133.008C359.18 133.667 358.69 135.231 358.54 135.625C358.53 135.643 358.525 135.663 358.525 135.683C358.525 135.703 358.53 135.723 358.54 135.742C358.63 135.837 358.79 136.231 358.67 137.869C358.41 141.496 354.95 144.677 350.06 146.655C345.813 148.58 341.682 150.783 337.69 153.25" stroke="black" stroke-width="0.78" stroke-miterlimit="10"/>
<path d="M300.12 164.451L332.58 142.996C332.666 142.943 332.761 142.91 332.859 142.899C332.957 142.887 333.057 142.899 333.151 142.931C333.245 142.963 333.332 143.015 333.406 143.085C333.48 143.155 333.539 143.24 333.58 143.336L338.84 156.101C338.892 156.224 338.912 156.361 338.896 156.496C338.88 156.631 338.829 156.759 338.75 156.867C336.8 159.494 324.22 176.12 312.67 181.747" stroke="#F3B150" stroke-miterlimit="10"/>
<path d="M349.93 137.326C349.93 137.326 356.75 133.699 355.4 129.285L349.93 137.326Z" fill="white"/>
<path d="M349.93 137.326C349.93 137.326 356.75 133.699 355.4 129.285" stroke="black" stroke-width="0.78" stroke-miterlimit="10" stroke-linecap="round"/>
<path d="M351.75 138.858C351.75 138.858 356.99 135.922 357.41 132.582L351.75 138.858Z" fill="white"/>
<path d="M351.75 138.858C351.75 138.858 356.99 135.922 357.41 132.582" stroke="black" stroke-width="0.78" stroke-miterlimit="10" stroke-linecap="round"/>
<path d="M353.77 140.837C353.77 140.837 357.88 137.816 358.56 135.518L353.77 140.837Z" fill="white"/>
<path d="M353.77 140.837C353.77 140.837 357.88 137.816 358.56 135.518" stroke="black" stroke-width="0.78" stroke-miterlimit="10" stroke-linecap="round"/>
<path d="M324.2 73.7485C324.2 73.7485 324.25 88.5128 337.29 100.107C337.29 100.107 335.09 112.127 329.49 119.594C317.4 135.72 303.32 136.858 302.27 158.079C301.63 171.057 313.48 185.863 329.03 180.417C353.63 171.907 350.29 146.549 350.29 146.549" stroke="black" stroke-width="0.78" stroke-miterlimit="10"/>
<path d="M349.76 67.5469C349.76 67.5469 351.85 77.9074 348.65 85.949C346.383 91.8382 342.401 96.7998 337.29 100.107" stroke="black" stroke-width="0.78" stroke-miterlimit="10"/>
<path d="M350.6 66.739C350.78 67.9836 350.52 69.0686 350 69.1537C349.48 69.2388 348.9 68.3133 348.71 67.0263C348.52 65.7392 348.78 65.0797 349.3 64.9839C349.82 64.8882 350.41 65.4945 350.6 66.739Z" fill="black"/>
<path d="M324.118 75.9819C324.99 75.7717 325.485 74.6027 325.223 73.3708C324.96 72.139 324.041 71.3107 323.168 71.5209C322.295 71.7311 321.8 72.9002 322.063 74.1321C322.325 75.3638 323.245 76.1922 324.118 75.9819Z" fill="black"/>
<path d="M357 215.924V155.569L429 155.377V216.2C429 216.2 417 221.519 393 221.519C369 221.519 357 215.924 357 215.924Z" fill="white" stroke="#F3B150"/>
<path d="M436.34 203.436H361.34V251.302H436.34V203.436Z" fill="white"/>
<path d="M393.28 161.877C413.28 161.877 429.43 159.09 429.43 155.654C429.43 153.41 422.55 151.399 412.22 150.335V148.602H401.75V149.591C399.03 149.474 396.2 149.41 393.28 149.41C373.28 149.41 357 151.591 357 155.026C357 158.462 373.31 161.877 393.28 161.877Z" fill="white" stroke="#F3B150" stroke-width="0.91" stroke-miterlimit="10"/>
<path d="M408.47 126.976V87.3638" stroke="#546463" stroke-miterlimit="10"/>
<path d="M409.87 82.7898C409.822 84.5224 409.327 86.2078 408.44 87.6615C407.502 86.2329 406.999 84.5323 406.999 82.7898C406.999 81.0472 407.502 79.3466 408.44 77.918C409.327 79.3717 409.822 81.0571 409.87 82.7898Z" fill="#546463" stroke="#546463" stroke-width="0.41" stroke-miterlimit="10"/>
<path d="M412.44 91.7458C411.369 93.0385 409.985 93.9949 408.44 94.5114C408.584 92.7868 409.22 91.15 410.261 89.8195C411.303 88.4891 412.701 87.5282 414.27 87.0654C414.073 88.7739 413.44 90.3924 412.44 91.7458Z" fill="#546463" stroke="#546463" stroke-width="0.41" stroke-miterlimit="10"/>
<path d="M404.44 97.0647C405.511 98.3605 406.894 99.3205 408.44 99.8409C408.257 98.1193 407.631 96.4849 406.63 95.1181C405.556 93.8263 404.174 92.8671 402.63 92.3418C402.816 94.0626 403.442 95.6961 404.44 97.0647Z" fill="#546463" stroke="#546463" stroke-width="0.41" stroke-miterlimit="10"/>
<path d="M412.35 102.106C411.279 103.402 409.896 104.362 408.35 104.882C408.493 103.161 409.125 101.526 410.163 100.196C411.201 98.8654 412.595 97.9031 414.16 97.4365C413.977 99.1561 413.354 100.789 412.36 102.159L412.35 102.106Z" fill="#546463" stroke="#546463" stroke-width="0.41" stroke-miterlimit="10"/>
<path d="M404.53 107.457C405.604 108.748 406.986 109.708 408.53 110.233C408.338 108.509 407.709 106.873 406.71 105.5C405.641 104.204 404.257 103.247 402.71 102.734C402.9 104.456 403.53 106.089 404.53 107.457Z" fill="#546463" stroke="#546463" stroke-width="0.41" stroke-miterlimit="10"/>
<path d="M412.35 111.446C411.282 112.745 409.898 113.705 408.35 114.222C408.493 112.5 409.125 110.865 410.163 109.536C411.201 108.205 412.595 107.242 414.16 106.776C413.977 108.495 413.354 110.129 412.36 111.499L412.35 111.446Z" fill="#546463" stroke="#546463" stroke-width="0.41" stroke-miterlimit="10"/>
<path d="M404.53 116.807C405.601 118.103 406.984 119.064 408.53 119.584C408.386 117.859 407.75 116.222 406.709 114.892C405.667 113.561 404.268 112.6 402.7 112.138C402.887 113.858 403.513 115.492 404.51 116.861L404.53 116.807Z" fill="#546463" stroke="#546463" stroke-width="0.41" stroke-miterlimit="10"/>
<path d="M391.34 148.123H380.34V152.378H391.34V148.123Z" fill="white"/>
<path d="M385.93 147.793C388.93 147.793 391.3 147.155 391.3 146.368C391.3 145.581 388.9 144.932 385.93 144.932C382.96 144.932 380.57 145.57 380.57 146.368C380.57 147.165 383 147.793 385.93 147.793Z" fill="white" stroke="#546463" stroke-miterlimit="10" stroke-linecap="round"/>
<path d="M385.93 156.983C388.93 156.983 391.3 156.345 391.3 155.547C391.3 154.75 388.9 154.122 385.93 154.122C382.96 154.122 380.57 154.76 380.57 155.547C380.57 156.335 383 156.983 385.93 156.983Z" stroke="#546463" stroke-miterlimit="10" stroke-linecap="round"/>
<path d="M380.57 155.633V146.368" stroke="#546463" stroke-miterlimit="10" stroke-linecap="round"/>
<path d="M391.1 155.633V146.368" stroke="#546463" stroke-miterlimit="10" stroke-linecap="round"/>
<path d="M380.57 154.08C380.151 154.101 379.732 154.029 379.34 153.867C378.752 153.626 378.246 153.202 377.889 152.649C377.532 152.097 377.341 151.442 377.34 150.771C377.349 150.322 377.442 149.879 377.613 149.467C377.785 149.057 378.032 148.687 378.34 148.378C378.641 148.066 378.998 147.824 379.39 147.665C379.782 147.506 380.201 147.434 380.62 147.453" stroke="#546463" stroke-miterlimit="10" stroke-linecap="round"/>
<path d="M412.52 122.062L415.78 154.09C415.78 155.154 412.33 156.058 408.06 156.058C403.79 156.058 400.34 155.175 400.34 154.09L404 121.53C404.76 123.136 401.48 120.466 408 120.466C414.52 120.466 411.76 123.657 412.52 122.062Z" fill="#383B3D"/>
<path d="M419.38 177.513C421.86 176.854 434.11 191.001 434.11 191.001L445.42 238.166C446.7 238.396 447.936 238.845 449.08 239.495C454.53 242.357 456.87 248.367 454.94 253.132C449.56 266.418 436.32 240.953 437.08 240.293C435.553 236.398 433.049 233.023 429.84 230.539C417.91 220.966 416.71 203.287 416.02 199.106C415.78 193.075 416.9 178.247 419.38 177.513Z" fill="#151515"/>
<path d="M576.74 374.629C576.74 374.703 576.67 374.778 576.67 374.852C576.53 375.363 576.47 375.81 576.33 376.32C576.19 376.831 576.12 377.129 575.98 377.565C575.84 378.001 575.64 378.629 575.5 379.256C575.436 379.537 575.342 379.808 575.22 380.065C575.078 380.445 574.964 380.836 574.88 381.235C574.74 381.671 574.6 382.043 574.47 382.479C574.34 382.915 574.26 383.064 574.19 383.288C574.12 383.511 573.91 384.022 573.78 384.458C573.65 384.894 573.36 385.521 573.16 386.075C572.96 386.628 572.81 387.032 572.6 387.468C572.537 387.584 572.493 387.709 572.47 387.84C572.26 388.276 572.12 388.638 571.91 389.085C571.91 389.159 571.85 389.234 571.85 389.298C571.64 389.744 571.43 390.18 571.22 390.702C571.01 391.223 570.6 391.946 570.33 392.531C570.19 392.829 569.98 393.191 569.85 393.489C569.779 393.649 569.684 393.796 569.57 393.925C569.342 394.381 569.089 394.821 568.81 395.244C568.53 395.754 568.26 396.201 567.98 396.712C567.708 397.193 567.411 397.658 567.09 398.105C567.09 398.116 567.088 398.125 567.085 398.134C567.081 398.143 567.076 398.151 567.07 398.158C567.063 398.165 567.055 398.171 567.047 398.174C567.038 398.178 567.029 398.179 567.02 398.179L566.19 399.499C565.91 399.871 565.64 400.307 565.36 400.679C565.22 400.892 565.09 401.041 564.95 401.264C564.715 401.633 564.461 401.989 564.19 402.328C563.84 402.775 563.57 403.136 563.19 403.509C563.051 403.722 562.89 403.918 562.71 404.094C562.5 404.306 562.3 404.604 562.09 404.828C562.015 404.943 561.92 405.04 561.81 405.115C561.496 405.489 561.162 405.845 560.81 406.179C560.33 406.764 559.81 407.242 559.29 407.795C559.02 408.083 558.74 408.306 558.46 408.604C557.91 409.114 557.46 409.668 556.88 410.061C556.53 410.433 556.12 410.731 555.71 411.125C555.64 411.199 555.57 411.199 555.57 411.274C555.22 411.572 554.88 411.859 554.46 412.157C554.34 412.277 554.201 412.374 554.05 412.444C553.64 412.742 553.29 413.029 552.88 413.327C552.527 413.621 552.156 413.892 551.77 414.135L551.15 414.571C550.754 414.87 550.34 415.14 549.91 415.38C549.43 415.678 548.91 416.039 548.4 416.337C548.372 416.366 548.339 416.387 548.303 416.4C548.267 416.413 548.228 416.417 548.19 416.411C547.77 416.699 547.29 416.922 546.81 417.22C546.759 417.226 546.71 417.249 546.67 417.284C546.12 417.582 545.67 417.879 545.09 418.167C503.64 439.888 403.09 421.985 391.98 380.235C391.829 379.735 391.715 379.223 391.64 378.703C391.7 355.737 395.5 328.443 410.81 313.912C424.26 301.222 445.57 287.873 451.98 266.96C453.15 263.152 443.77 241.431 443.43 237.102L476.88 260.876L497.78 264.471C498.071 267.087 498.6 269.666 499.36 272.173C500.74 276.651 503.16 281.64 507.36 282.363C509.09 282.661 511.5 283.033 514.36 283.544C524.91 285.448 541.36 289.266 548.77 298.946C554.12 306.03 566.67 343.079 576.74 374.629Z" fill="white"/>
<path d="M411.22 314.679C424.36 302.276 445.01 289.245 451.93 269.152C452.375 267.837 452.485 266.42 452.25 265.046C451.02 257.6 444.14 241.644 443.84 237.868L477.22 261.706L498.12 265.301C498.411 267.92 498.94 270.503 499.7 273.013C501.08 277.481 503.5 282.469 507.7 283.203C509.43 283.501 517.65 285.001 520.48 285.512" stroke="#151515" stroke-miterlimit="10" stroke-linecap="round"/>
<path d="M439.7 179.555C423.22 207.063 437.29 248.696 472.7 264.439C495.7 274.704 514.97 262.088 517.87 251.451C523.25 232.081 510.08 223.572 507.04 208.605C505.39 200.383 506.15 198.925 500.84 179.555C492.6 149.474 453 157.324 439.7 179.555Z" fill="white"/>
<path d="M472.6 264.439C495.6 274.704 514.88 262.089 517.78 251.452C523.16 232.081 516.42 224.018 510.05 207.691C505.93 197.149 505.19 192.373 500.13 179.555C491.92 149.474 452.95 157.218 439.64 179.555" fill="white"/>
<path d="M516.4 255.558C521.5 233.22 515.29 228.359 510.09 212.19C506.73 201.734 506.09 197 502 184.289" stroke="#151515" stroke-miterlimit="10" stroke-linecap="round"/>
<path d="M489.89 152.473C486.79 153.058 503.96 146.676 498.89 137.581C491.23 130.837 477.51 134.794 467.58 137.954C446.75 144.474 415.44 162.525 416.06 193.926C416.41 212.009 421.51 219.902 424.61 220.519C425.99 220.806 432.2 212.445 434.41 208.19C455.16 217.285 448.89 231.89 453.92 230.933C458.34 230.05 458.75 218.391 454.68 197.777C452.89 188.671 490.68 197.404 513.68 182.885C523.68 176.566 527.68 161.611 519.81 152.505C514.51 146.538 501.27 150.25 489.89 152.473Z" fill="#151515"/>
<path d="M447.22 210.435C447.22 210.435 433.15 198.628 426.46 209.701C419.91 220.487 430.66 250.718 454.87 239.123" fill="white"/>
<path d="M447.22 210.435C447.22 210.435 433.15 198.628 426.46 209.701C419.91 220.487 430.66 250.718 454.87 239.123" stroke="#151515" stroke-miterlimit="10" stroke-linecap="round"/>
<path d="M467.36 211.02L477.43 206.255L482.43 203.84L484.91 202.585L486.15 202L486.77 201.713L487.12 201.564L487.33 201.489L487.46 201.415L487.53 201.34C487.6 201.34 487.53 201.34 487.67 201.266L487.74 201.191C487.81 201.117 487.74 201.266 487.88 201.043C487.988 200.895 488.057 200.718 488.08 200.532C488.29 200.606 487.81 198.99 487.19 199.138C486.883 199.074 486.564 199.126 486.29 199.287L486.15 199.362L485.88 199.511L485.26 199.872L484.08 200.606L481.67 202L476.84 204.787L467.12 210.297C467.043 210.35 466.986 210.431 466.96 210.524C466.934 210.618 466.941 210.719 466.98 210.807C466.979 210.855 466.991 210.902 467.013 210.942C467.036 210.984 467.069 211.017 467.108 211.039C467.148 211.062 467.192 211.071 467.237 211.068C467.281 211.065 467.324 211.048 467.36 211.02Z" fill="#151515"/>
<path d="M496.14 199.457L506.51 201.308C506.613 201.341 506.725 201.33 506.821 201.276C506.916 201.222 506.988 201.131 507.02 201.021C507.11 200.883 506.94 200.659 506.76 200.585L497.26 196.894C496.877 196.732 496.455 196.7 496.054 196.804C495.653 196.906 495.292 197.139 495.02 197.468C494.925 197.634 494.868 197.822 494.852 198.015C494.837 198.21 494.863 198.404 494.93 198.585C494.997 198.766 495.102 198.929 495.237 199.06C495.373 199.191 495.534 199.286 495.71 199.34C495.843 199.413 495.99 199.453 496.14 199.457Z" fill="#151515"/>
<path d="M491.82 200.074C492.01 200.074 502.07 225.135 504.61 231.464C504.686 231.653 504.726 231.855 504.726 232.06C504.727 232.264 504.689 232.467 504.614 232.656C504.54 232.845 504.43 233.015 504.292 233.158C504.153 233.3 503.989 233.412 503.81 233.485L496 234.379" stroke="#151515" stroke-miterlimit="10" stroke-linecap="round"/>
<path d="M431.09 219.902C433.744 218.732 436.613 218.219 439.48 218.404C442.348 218.588 445.138 219.464 447.64 220.966" stroke="#151515" stroke-miterlimit="10" stroke-linecap="round"/>
<path d="M445.7 233.326L435.36 218.583" stroke="#151515" stroke-miterlimit="10" stroke-linecap="round"/>
<path d="M436.81 201.117C436.81 201.117 449.15 236.485 454.32 228.773C459.49 221.061 449.43 191.788 449.43 191.788C449.43 191.788 436.94 201.308 436.81 201.117Z" fill="#151515"/>
<path d="M582.5 381.607C582.5 394.904 567.73 422.347 551.79 430.825C548.41 432.591 539.36 436.144 527 437.984C509.5 440.643 463.15 442.622 443.5 440.643C403.5 436.686 392.17 405.807 385.34 380.012C385.198 379.509 385.085 378.997 385 378.48C385.07 355.514 388.86 328.22 404.17 313.689C417.62 300.999 430.91 293.011 440.36 284.703C447.2 290.862 448.8 303.031 481.85 303.031C498.91 303.031 516.3 302.329 516.3 283.044C526.85 284.948 547.93 289.192 555.38 298.872C559.17 303.786 566.76 324.475 574.48 347.366C575.65 350.813 576.76 354.27 577.93 357.791C579.86 363.631 582.5 368.311 582.5 381.607Z" fill="#167EA1"/>
<path d="M586.6 251.452H559C558.231 251.461 557.483 251.719 556.855 252.19C556.226 252.66 555.747 253.323 555.48 254.09L532.38 325.55C531.76 327.528 531.89 329.953 534.38 331.272L538.24 333.251H571.7L595.07 257.908C595.63 256.004 595.21 252.92 591.28 251.601C590 251.154 587.91 251.452 586.6 251.452Z" fill="#546463"/>
<path d="M533.36 348.653C533.36 348.653 539.84 309.477 546.67 298.84C553.5 288.203 557.29 281.384 562.39 282.48C566.53 283.363 558.94 299.138 555.91 305.084C555.079 306.707 554.81 308.589 555.15 310.402C555.7 313.115 556.94 316.497 559.77 316.274C564.46 315.976 573.63 268.588 580.32 264.695C587.01 260.802 577.91 305.414 577.91 305.414C577.91 305.414 589.49 268.184 593.77 266.822C597.84 265.503 595.91 279.002 595.7 280.47C595.7 280.489 595.707 280.508 595.72 280.522C595.734 280.536 595.751 280.544 595.77 280.544C596.18 280.172 596.84 279.002 597.39 285.863C597.582 289.904 597.431 293.954 596.94 297.968C596.94 297.968 601.01 325.847 578.18 343.973C555.35 362.099 557.63 370.013 557.63 370.013L533.36 348.653Z" fill="white" stroke="#151515" stroke-miterlimit="10" stroke-linecap="round"/>
<path d="M573.42 354.482L571.35 358.078L533.9 422.826C518.8 427.453 499.35 428.623 479.7 426.644L526.59 344.845C527.479 343.287 528.738 342.005 530.241 341.129C531.744 340.253 533.437 339.814 535.15 339.856C553.22 340.218 562.87 344.037 567.91 347.632C572.73 351.153 573.42 354.482 573.42 354.482Z" fill="#167EA1"/>
<path d="M573.42 354.482C573.42 354.482 570.53 340.548 535.15 339.888C533.44 339.864 531.753 340.309 530.253 341.184C528.753 342.058 527.491 343.33 526.59 344.877L480.52 424.655" stroke="#167EA1" stroke-miterlimit="10" stroke-linecap="round"/>
<path d="M535.56 419.9L558.88 379.767" stroke="#167EA1" stroke-miterlimit="10" stroke-linecap="round"/>
<path d="M587 311.168C587 311.168 595.35 289.011 595.62 280.65" stroke="#151515" stroke-miterlimit="10" stroke-linecap="round"/>
<path d="M492.7 216.104C492.7 216.104 486.79 213.977 481.4 222.199" stroke="#151515" stroke-miterlimit="10" stroke-linecap="round"/>
<path d="M507.07 210.627C507.07 210.627 503.37 209.286 499.15 212.818" stroke="#151515" stroke-miterlimit="10" stroke-linecap="round"/>
<path d="M492.81 215.977C492.81 215.977 492.81 220.37 491.27 221.125C487.97 222.763 487.73 216.487 487.73 216.487C489.366 215.915 491.102 215.741 492.81 215.977Z" fill="#151515"/>
<path d="M507.31 210.158C507.31 210.158 507.31 214.541 505.78 215.307C502.47 216.934 502.24 210.658 502.24 210.658C503.873 210.086 505.606 209.915 507.31 210.158Z" fill="#151515"/>
<path d="M590.17 256.249H562.44C561.9 256.245 561.374 256.424 560.935 256.758C560.497 257.093 560.169 257.566 560 258.111L550.69 283.64" stroke="#EFF5FB" stroke-miterlimit="10" stroke-linecap="round"/>
<path d="M472.35 233.347C464.04 228.135 455.72 207.095 452.94 195.054L443.5 217.264L448.19 232.156C452.5 248.112 457.24 259.525 474.91 275.385C492.3 288.905 517.7 280.576 523.91 271.566C530.12 262.557 531.36 251.356 526.64 241.442C521.92 231.528 518.09 230.199 514.4 223.008C513.17 226.497 512.07 230.39 505.49 235.209C498.91 240.027 482.75 239.868 472.35 233.347Z" fill="#151515"/>
<path d="M489.89 240.666C489.89 240.666 497 247.261 504.2 240.666" stroke="white" stroke-miterlimit="10" stroke-linecap="round"/>
<path d="M398.08 329.443C409.41 325.422 439.36 339.08 444.65 363.992C449.128 384.579 451.502 405.62 451.73 426.751" stroke="#167EA1"/>
<path d="M494.69 216.137C495.865 219.812 496.08 223.757 495.31 227.55C494.55 230.741 492.93 232.72 490.8 233.23C488.67 233.741 486.15 232.699 483.8 230.305C481.124 227.468 479.164 223.96 478.1 220.104C476.925 216.427 476.711 212.478 477.48 208.68C478.24 205.489 479.86 203.521 481.99 203.01C484.12 202.5 486.64 203.532 488.99 205.925C491.662 208.769 493.622 212.281 494.69 216.137Z" stroke="#546463" stroke-width="1.09"/>
<path d="M513.59 208.605C514.549 212.33 514.69 216.239 514 220.03C513.31 223.157 511.91 225.167 510.1 225.646C508.29 226.125 506.16 225.072 504.17 222.646C501.932 219.616 500.316 216.12 499.426 212.384C498.535 208.649 498.39 204.756 499 200.957C499.69 197.819 501.09 195.809 502.91 195.33C504.73 194.852 506.84 195.915 508.84 198.33C511.143 201.322 512.768 204.838 513.59 208.605Z" stroke="#546463"/>
<path d="M440.53 207.414L478.58 222.178" stroke="#546463"/>
<path d="M494.69 216.136L499.52 214.009" stroke="#546463"/>
<path d="M513 207.414H508.64" stroke="#546463"/>
<path d="M229.45 70.4722L373.05 217.998V337.835L402 368.311L470 440.643L485 459.79L403.48 445.855L406.05 447.387V459.79L452.05 496.488L99 476.809V169.397L229.45 70.4722Z" fill="white"/>
<path d="M388.57 280.341C388.488 280.189 388.444 280.017 388.44 279.842L388.57 280.341Z" fill="#383B3D"/>
<path d="M189 480.181C293.382 480.181 378 465.212 378 446.748C378 428.283 293.382 413.316 189 413.316C84.6182 413.316 0 428.283 0 446.748C0 465.212 84.6182 480.181 189 480.181Z" fill="#A9B9B9"/>
<path d="M49.7 418.89L52.7 445.047H58L61.33 419.603" fill="white"/>
<path d="M49.7 418.89L52.7 445.047H58L61.33 419.603" stroke="#546463" stroke-miterlimit="10"/>
<path d="M109.37 428.027L112.37 454.184H117.71L121 428.74" fill="white"/>
<path d="M109.37 428.027L112.37 454.184H117.71L121 428.74" stroke="#546463" stroke-miterlimit="10"/>
<path d="M297.11 416.177L299.88 438.069H305.21L308.45 414.167" fill="white"/>
<path d="M297.11 416.177L299.88 438.069H305.21L308.45 414.167" stroke="#546463" stroke-miterlimit="10"/>
<path d="M88.6499 413.199L91.6499 439.345H96.9999L100.33 413.901" fill="white"/>
<path d="M88.6499 413.199L91.6499 439.345H96.9999L100.33 413.901" stroke="#546463" stroke-miterlimit="10"/>
<path d="M151.07 417.571L154.07 443.706H159.4L162.72 418.305" fill="white"/>
<path d="M151.07 417.571L154.07 443.706H159.4L162.72 418.305" stroke="#546463" stroke-miterlimit="10"/>
<path d="M95.63 316.71C90.83 316.518 85.82 316.412 80.63 316.412C45.33 316.412 16.71 321.316 16.71 327.368C16.71 333.421 45.36 338.314 80.66 338.314C115.96 338.314 144.58 333.421 144.58 327.368C144.58 323.422 132.41 319.922 114.16 318.04" stroke="#F3B150" stroke-width="2" stroke-miterlimit="10"/>
<path d="M17 327.347V433.399" stroke="#F3B150" stroke-width="2"/>
<path d="M105 317.657C110.24 317.657 114.49 316.529 114.49 315.136C114.49 313.742 110.24 312.615 105 312.615C99.76 312.615 95.52 313.742 95.52 315.136C95.52 316.529 99.78 317.657 105 317.657Z" fill="white" stroke="#546463" stroke-miterlimit="10" stroke-linecap="round"/>
<path d="M105 333.814C110.24 333.814 114.49 332.687 114.49 331.293C114.49 329.9 110.24 328.772 105 328.772C99.76 328.772 95.52 329.9 95.52 331.293C95.52 332.687 99.78 333.814 105 333.814Z" stroke="#546463" stroke-miterlimit="10" stroke-linecap="round"/>
<path d="M95.54 331.432V315.125" stroke="#546463" stroke-miterlimit="10" stroke-linecap="round"/>
<path d="M114.16 331.432V315.125" stroke="#546463" stroke-miterlimit="10" stroke-linecap="round"/>
<path d="M95.54 328.709C94.8006 328.74 94.0627 328.614 93.37 328.336C92.5051 327.99 91.737 327.414 91.1375 326.665C90.538 325.917 90.1267 325.019 89.9419 324.056C89.7571 323.092 89.805 322.094 90.081 321.156C90.3569 320.217 90.852 319.368 91.52 318.688C92.048 318.137 92.6781 317.711 93.37 317.433C94.0633 317.158 94.8002 317.028 95.54 317.05" stroke="#546463" stroke-miterlimit="10" stroke-linecap="round"/>
<path d="M97.1399 288.075L88.3199 324.624C88.3199 326.528 82.2099 328.081 74.6599 328.081C67.1099 328.081 60.9999 326.528 60.9999 324.624L52.1399 288.075C53.4899 290.905 63.0399 293.096 74.6099 293.096C86.1799 293.096 95.7899 290.905 97.1399 288.075Z" fill="#383B3D"/>
<path d="M75.3799 289.022V219.328" stroke="#546463" stroke-miterlimit="10"/>
<path d="M77.8699 211.286C77.7803 214.337 76.9052 217.302 75.3399 219.859C73.6923 217.344 72.8091 214.352 72.8091 211.286C72.8091 208.22 73.6923 205.228 75.3399 202.712C76.9066 205.27 77.7818 208.235 77.8699 211.286Z" fill="#546463" stroke="#546463" stroke-width="0.41" stroke-miterlimit="10"/>
<path d="M82.4 226.997C80.5 229.287 78.0434 230.976 75.3 231.879C75.5556 228.824 76.6801 225.925 78.5238 223.566C80.3674 221.208 82.8427 219.503 85.62 218.679C85.2822 221.712 84.1684 224.59 82.4 226.997Z" fill="#546463" stroke="#546463" stroke-width="0.41" stroke-miterlimit="10"/>
<path d="M68.26 236.475C70.1618 238.763 72.6178 240.452 75.36 241.357C75.1101 238.303 73.9887 235.402 72.146 233.045C70.3034 230.688 67.8275 228.986 65.05 228.167C65.3797 231.197 66.4906 234.073 68.26 236.475Z" fill="#546463" stroke="#546463" stroke-width="0.41" stroke-miterlimit="10"/>
<path d="M82.2499 245.271C80.3476 247.556 77.8915 249.241 75.1499 250.143C75.3991 247.093 76.5167 244.197 78.3534 241.84C80.1901 239.484 82.6587 237.779 85.4299 236.953C85.1092 239.984 84.0089 242.862 82.2499 245.271Z" fill="#546463" stroke="#546463" stroke-width="0.41" stroke-miterlimit="10"/>
<path d="M68.42 254.675C70.3275 256.962 72.786 258.65 75.53 259.557C75.28 256.503 74.1586 253.604 72.3159 251.246C70.4733 248.888 67.9974 247.186 65.22 246.367C65.5508 249.397 66.6577 252.27 68.42 254.675Z" fill="#546463" stroke="#546463" stroke-width="0.41" stroke-miterlimit="10"/>
<path d="M82.2499 261.706C80.3476 263.991 77.8915 265.677 75.1499 266.578C75.4069 263.535 76.528 260.649 78.3641 258.3C80.2003 255.952 82.6647 254.253 85.4299 253.43C85.1092 256.462 84.0089 259.339 82.2499 261.748V261.706Z" fill="#546463" stroke="#546463" stroke-width="0.41" stroke-miterlimit="10"/>
<path d="M68.42 271.13C70.3275 273.416 72.786 275.104 75.53 276.013C75.28 272.959 74.1586 270.058 72.3159 267.701C70.4733 265.344 67.9974 263.642 65.22 262.823C65.5508 265.851 66.6577 268.725 68.42 271.13Z" fill="#546463" stroke="#546463" stroke-width="0.41" stroke-miterlimit="10"/>
<path d="M69.6801 290.713L38.0601 229.635" stroke="#546463" stroke-miterlimit="10"/>
<path d="M36.5899 221.306C37.8996 224.03 38.4807 227.084 38.2699 230.135C35.6888 228.779 33.5597 226.615 32.1689 223.934C30.7781 221.252 30.1922 218.182 30.4899 215.137C33.0182 216.576 35.1277 218.725 36.5899 221.349V221.306Z" fill="#546463" stroke="#546463" stroke-width="0.41" stroke-miterlimit="10"/>
<path d="M47.6899 232.741C47.0647 235.72 45.6808 238.458 43.6899 240.655C42.5138 237.856 42.1708 234.743 42.7071 231.73C43.2434 228.719 44.6332 225.953 46.6899 223.806C47.787 226.631 48.133 229.722 47.6899 232.741Z" fill="#546463" stroke="#546463" stroke-width="0.41" stroke-miterlimit="10"/>
<path d="M39.59 248.303C42.2985 249.334 45.2204 249.558 48.04 248.952C46.3645 246.477 44.0861 244.535 41.45 243.335C38.7423 242.301 35.8194 242.076 33 242.687C34.6655 245.163 36.9381 247.106 39.57 248.303H39.59Z" fill="#546463" stroke="#546463" stroke-width="0.41" stroke-miterlimit="10"/>
<path d="M55.8399 248.856C55.2103 251.832 53.827 254.569 51.8399 256.77C50.6594 253.972 50.3141 250.857 50.8506 247.843C51.3871 244.831 52.7795 242.065 54.8399 239.921C55.9426 242.744 56.2887 245.836 55.8399 248.856Z" fill="#546463" stroke="#546463" stroke-width="0.41" stroke-miterlimit="10"/>
<path d="M47.9999 264.163C50.7049 265.195 53.6236 265.419 56.4399 264.812C54.7657 262.34 52.4913 260.398 49.8599 259.195C47.1514 258.165 44.2296 257.94 41.4099 258.546C43.0854 261.022 45.3639 262.964 47.9999 264.163Z" fill="#546463" stroke="#546463" stroke-width="0.41" stroke-miterlimit="10"/>
<path d="M63.29 263.259C62.667 266.235 61.2827 268.97 59.29 271.162C58.1139 268.364 57.7709 265.249 58.3072 262.238C58.8435 259.225 60.2333 256.461 62.29 254.313C63.3875 257.141 63.7334 260.236 63.29 263.259Z" fill="#546463" stroke="#546463" stroke-width="0.41" stroke-miterlimit="10"/>
<path d="M55.4599 278.565C58.1648 279.597 61.0836 279.822 63.8999 279.214C62.2242 276.75 59.9448 274.821 57.3099 273.64C54.6084 272.609 51.6928 272.384 48.8799 272.992C50.5463 275.471 52.823 277.414 55.4599 278.608V278.565Z" fill="#546463" stroke="#546463" stroke-width="0.41" stroke-miterlimit="10"/>
<path d="M80.8799 290.319L112.51 229.241" stroke="#546463" stroke-miterlimit="10"/>
<path d="M114 220.912C112.684 223.633 112.106 226.69 112.33 229.741C114.913 228.377 117.043 226.205 118.432 223.516C119.82 220.827 120.403 217.751 120.1 214.7C117.57 216.136 115.459 218.286 114 220.912Z" fill="#546463" stroke="#546463" stroke-width="0.41" stroke-miterlimit="10"/>
<path d="M102.87 232.347C103.497 235.322 104.881 238.056 106.87 240.251C108.053 237.454 108.4 234.337 107.864 231.324C107.327 228.31 105.933 225.545 103.87 223.402C102.773 226.23 102.427 229.324 102.87 232.347Z" fill="#546463" stroke="#546463" stroke-width="0.41" stroke-miterlimit="10"/>
<path d="M111 247.909C108.299 248.94 105.383 249.164 102.57 248.558C104.169 246.007 106.462 244.035 109.142 242.907C111.822 241.777 114.762 241.545 117.57 242.24C115.905 244.737 113.625 246.699 110.98 247.909H111Z" fill="#546463" stroke="#546463" stroke-width="0.41" stroke-miterlimit="10"/>
<path d="M94.7201 248.462C95.3456 251.438 96.7295 254.172 98.7201 256.366C99.8962 253.567 100.239 250.453 99.7029 247.441C99.1667 244.429 97.7768 241.664 95.7201 239.517C94.6227 242.345 94.2767 245.439 94.7201 248.462Z" fill="#546463" stroke="#546463" stroke-width="0.41" stroke-miterlimit="10"/>
<path d="M102.56 263.769C99.8552 264.801 96.9364 265.026 94.1201 264.418C95.7211 261.87 98.0148 259.902 100.695 258.776C103.375 257.651 106.314 257.422 109.12 258.121C107.46 260.606 105.191 262.56 102.56 263.769Z" fill="#546463" stroke="#546463" stroke-width="0.41" stroke-miterlimit="10"/>
<path d="M87.2599 262.855C87.8827 265.834 89.2669 268.573 91.2599 270.769C92.4456 267.973 92.7947 264.858 92.2599 261.844C91.7123 258.833 90.3173 256.069 88.2599 253.919C87.1578 256.743 86.8117 259.835 87.2599 262.855Z" fill="#546463" stroke="#546463" stroke-width="0.41" stroke-miterlimit="10"/>
<path d="M95.1099 278.172C92.4048 279.203 89.4863 279.427 86.6699 278.821C88.2709 276.272 90.5646 274.304 93.2449 273.179C95.9251 272.053 98.8643 271.825 101.67 272.524C100.002 275.009 97.7268 276.962 95.0899 278.172H95.1099Z" fill="#546463" stroke="#546463" stroke-width="0.41" stroke-miterlimit="10"/>
<path d="M47 371.321V419.826C46.9955 420.056 47.0705 420.278 47.2106 420.452C47.3507 420.628 47.5462 420.741 47.76 420.773L114.42 430.527C114.516 430.548 114.614 430.548 114.71 430.527L165.47 420.432C165.679 420.394 165.869 420.281 166.01 420.113C166.141 419.94 166.218 419.728 166.23 419.507L166.87 368.523C166.873 368.283 166.79 368.05 166.638 367.872C166.486 367.694 166.275 367.585 166.05 367.566L98.76 361.981H98.57L48.17 369.927C47.8456 369.959 47.5447 370.121 47.3276 370.379C47.1106 370.638 46.9936 370.974 47 371.321Z" fill="white" stroke="#546463" stroke-width="2" stroke-miterlimit="10"/>
<path d="M138.19 330.943L229.82 329.336C229.82 329.336 238.06 313.7 237.31 299.393C237.31 299.393 225.6 256.015 241.48 245.059C244.97 242.655 252.02 247.697 257.48 245.771C258.48 245.388 326.71 246.835 326.71 246.835C326.71 246.835 347.02 238.325 353.71 259.195L310.37 413.965L243.79 425.666L189.85 416.178L176.37 413.816L166.32 412.104" stroke="#546463" stroke-width="2" stroke-miterlimit="10"/>
<path d="M139.75 360.407C127.93 366.789 130.93 375.076 127.26 379.139C125.1 381.543 118.77 382.139 114.26 378.958C109.75 375.778 105.26 379.32 97.1199 383.553C88.9799 387.787 80.6399 385.16 75.4699 381.607C70.2999 378.054 71.9799 375.427 73.8099 374.544C75.6399 373.661 87.9099 373.629 93.9999 368.364C108.15 355.993 128 347.696 128 347.696L139.75 360.407Z" fill="#383B3D"/>
<path d="M130.42 346.451C118.61 352.834 121.61 361.12 117.94 365.173C115.78 367.587 109.45 368.183 104.94 365.002C100.43 361.822 95.9401 365.353 87.8001 369.598C79.6601 373.842 71.3201 371.204 66.1501 367.651C60.9801 364.098 62.6601 361.471 64.4901 360.588C66.3201 359.705 78.6001 359.695 84.6501 354.397C98.7801 342.037 118.59 333.719 118.59 333.719L130.42 346.451Z" fill="#383B3D"/>
<path d="M75.49 381.607C70.34 378.075 72 375.427 73.83 374.544C75.66 373.661 87.92 373.629 94 368.364C108.15 355.993 128 347.696 128 347.696L139.82 360.407C128 366.789 131 375.076 127.34 379.139" stroke="#F3B150" stroke-miterlimit="10" stroke-linecap="round"/>
<path d="M279.78 248.526C279.78 248.526 292.78 251.718 298.3 243.538C297.977 242.058 297.22 240.724 296.14 239.73C293.64 237.485 291.61 238.123 289.73 235.145C287.85 232.167 288.82 228.071 288.82 228.071C288.82 228.071 285.74 237.857 280.62 239.942C279.571 242.659 279.279 245.638 279.78 248.526Z" fill="#151515" stroke="#151515" stroke-miterlimit="10" stroke-linecap="round"/>
<path d="M250.82 241.591C248.9 234.698 250.7 219.636 250.7 219.636C254.295 219.988 257.92 219.565 261.357 218.389C264.794 217.214 267.972 215.311 270.7 212.796C271.32 218.413 279.98 222.37 279.98 222.37C285.56 216.892 288.39 219.274 288.39 219.274C288.216 215.359 287.323 211.517 285.76 207.967C282.22 200.745 270.88 197.043 263.24 199.883C253.16 203.638 251.11 213.796 250.82 214.966C250.17 217.626 247.99 224.848 243.39 226.029C237.73 227.486 234.39 235.656 234.39 235.656C234.39 235.656 240.68 246.569 252.12 245.644L250.82 241.591Z" fill="#151515" stroke="#151515" stroke-miterlimit="10" stroke-linecap="round"/>
<path d="M280.24 222.444C280.24 222.444 286.29 216.626 288.82 220.242C291.35 223.859 287.23 238.091 279.41 240.208" fill="white"/>
<path d="M280.24 222.444C280.24 222.444 286.29 216.626 288.82 220.242C291.35 223.859 287.23 238.091 279.41 240.208" stroke="#151515" stroke-miterlimit="10" stroke-linecap="round"/>
<path d="M261.58 252.675L260.25 263.312C260.25 263.312 266.15 269.545 282.3 262.099C279.369 255.165 278.751 247.374 280.55 240.017" fill="white"/>
<path d="M261.58 252.675L260.25 263.312C260.25 263.312 266.15 269.545 282.3 262.099C279.369 255.165 278.751 247.374 280.55 240.017" stroke="#151515" stroke-miterlimit="10" stroke-linecap="round"/>
<path d="M281.74 228.454C281.74 228.454 283.74 224.199 287.07 224.923L281.74 228.454Z" fill="white"/>
<path d="M281.74 228.454C281.74 228.454 283.74 224.199 287.07 224.923" stroke="#151515" stroke-miterlimit="10" stroke-linecap="round"/>
<path d="M282.41 234.73L285.41 225.455" stroke="#151515" stroke-miterlimit="10" stroke-linecap="round"/>
<path d="M276.33 240.793C276.33 240.793 269.09 253.558 260.68 252.367C245.47 250.292 250.78 217.562 250.78 217.562" fill="white"/>
<path d="M276.33 240.793C276.33 240.793 269.09 253.558 260.68 252.367C245.47 250.292 250.78 217.562 250.78 217.562" stroke="#151515" stroke-miterlimit="10" stroke-linecap="round"/>
<path d="M258.69 223.125C258.69 223.125 258.89 232.209 255.01 236.23C255.005 236.258 255.005 236.286 255.01 236.315C255.006 236.35 255.006 236.386 255.01 236.421C255.02 236.46 255.037 236.496 255.06 236.528L255.14 236.592L258.29 237.655" stroke="#151515" stroke-miterlimit="10" stroke-linecap="round"/>
<path d="M257.48 243.048C257.578 242.711 257.761 242.409 258.01 242.176C258.259 241.941 258.563 241.783 258.89 241.719C260.159 241.655 261.422 241.495 262.67 241.24C264.45 240.708 265.67 239.113 266.5 238.411C266.522 238.388 266.55 238.372 266.58 238.367C266.611 238.361 266.642 238.364 266.67 238.377C266.699 238.388 266.723 238.41 266.741 238.436C266.759 238.463 266.769 238.495 266.77 238.528C266.777 238.546 266.781 238.566 266.781 238.586C266.781 238.606 266.777 238.625 266.77 238.645C265.97 240.081 263.93 243.187 261.24 243.463C258.1 243.857 257.48 243.048 257.48 243.048Z" fill="#383B3D"/>
<path d="M262.27 228.252C262.27 228.252 265.42 225.987 269.27 229.624" stroke="#151515" stroke-miterlimit="10" stroke-linecap="round"/>
<path d="M263.09 228.273C263.09 228.273 263.17 230.507 264.56 230.677C266.67 230.965 267.56 228.316 267.56 228.316C266.644 227.784 265.601 227.547 264.56 227.635C263 227.901 263.09 228.273 263.09 228.273Z" fill="#151515"/>
<path d="M263.53 221.38C264.341 221.441 265.138 221.639 265.89 221.965C266.626 222.281 267.319 222.699 267.95 223.21C268.58 223.712 269.136 224.311 269.6 224.986C269.836 225.328 270.053 225.682 270.25 226.05C270.36 226.231 270.43 226.422 270.52 226.593L270.65 226.88C270.65 226.965 270.78 227.039 270.57 227.252C270.491 227.336 270.39 227.391 270.28 227.412C269.98 227.465 269.98 227.412 269.93 227.273L269.8 227.039C269.713 226.873 269.616 226.714 269.51 226.561C268.902 225.654 268.151 224.866 267.29 224.231C266.723 223.812 266.104 223.479 265.45 223.242C264.824 222.984 264.168 222.816 263.5 222.742H263.45C263.371 222.732 263.295 222.705 263.227 222.663C263.158 222.621 263.098 222.564 263.05 222.497C262.953 222.364 262.906 222.198 262.919 222.03C262.932 221.863 263.004 221.707 263.12 221.593C263.24 221.485 263.392 221.424 263.55 221.423L263.53 221.38Z" fill="#151515"/>
<path d="M251.82 228.071C252.341 227.5 253.012 227.109 253.745 226.95C254.479 226.791 255.24 226.871 255.93 227.178C256.388 227.388 256.802 227.692 257.15 228.071" stroke="#151515" stroke-miterlimit="10" stroke-linecap="round"/>
<path d="M252.5 227.369C252.5 227.369 252.55 229.497 253.75 229.709C255.53 229.954 256.02 227.678 256.02 227.678C255.513 227.294 254.92 227.059 254.3 226.997C253.679 226.943 253.057 227.072 252.5 227.369Z" fill="#151515"/>
<path d="M251 225.125C251.293 224.517 251.67 223.962 252.12 223.476C253.022 222.494 254.154 221.789 255.4 221.434C256.026 221.265 256.666 221.166 257.31 221.136C257.373 221.124 257.437 221.124 257.5 221.136C257.565 221.154 257.623 221.191 257.67 221.242C257.721 221.285 257.762 221.339 257.79 221.402C257.82 221.464 257.838 221.532 257.84 221.604C257.85 221.671 257.85 221.739 257.84 221.806C257.813 221.873 257.779 221.937 257.74 221.997C257.691 222.042 257.637 222.081 257.58 222.114C257.518 222.13 257.452 222.13 257.39 222.114H257.33C256.76 222.096 256.19 222.142 255.63 222.253C255.067 222.371 254.522 222.571 254.01 222.848C253.489 223.124 253.01 223.482 252.59 223.912C252.152 224.311 251.78 224.785 251.49 225.316C251.457 225.377 251.403 225.422 251.34 225.444C251.276 225.47 251.204 225.47 251.14 225.444C251.082 225.409 251.039 225.351 251.02 225.284C250.994 225.215 250.994 225.14 251.02 225.071L251 225.125Z" fill="#151515"/>
<path d="M164.81 256.43C164.81 256.43 157.73 253.377 158 251.484C158.27 249.59 168.74 251.484 174.73 255.738C178.157 258.055 181.41 260.652 184.46 263.503" stroke="#151515" stroke-miterlimit="10" stroke-linecap="round"/>
<path d="M161.56 263.908C161.56 263.908 157.23 263.737 155.36 262.589C152.78 260.982 148.98 256.887 147.65 257.153C145.24 257.642 148.41 264.982 157.06 268.545C162.85 270.96 168.22 267.982 171.21 268.152C174.2 268.322 178.91 272.087 178.91 272.087" stroke="#151515" stroke-miterlimit="10" stroke-linecap="round"/>
<path d="M147.32 257.1C147.32 257.1 145.12 255.494 145.37 254.047C145.62 252.601 149.85 253.771 154.11 257.717C155.695 259.155 157.622 260.102 159.68 260.451" stroke="#151515" stroke-miterlimit="10" stroke-linecap="round"/>
<path d="M167.67 256.483C167.67 256.483 163.14 256.876 161.22 256.164C159.81 255.632 152.36 249.941 149.13 249.537C147.04 249.281 147.61 250.6 147.61 250.6" stroke="#151515" stroke-miterlimit="10" stroke-linecap="round"/>
<path d="M145.91 253.164C145.91 253.164 144.99 252.016 145.91 251.175C146.49 250.665 149.06 250.665 154.77 255.185C159.06 258.589 160.93 258.143 160.93 258.143" stroke="#151515" stroke-miterlimit="10" stroke-linecap="round"/>
<path d="M294.31 260.493C289.98 257.047 283.07 259.525 283.07 259.525L282.36 257.526C282.335 257.456 282.297 257.394 282.247 257.342C282.196 257.291 282.136 257.251 282.07 257.228C282.004 257.212 281.936 257.212 281.87 257.228C281.8 257.233 281.731 257.254 281.67 257.292C270.21 264.589 261.67 261.068 259.82 260.164C259.778 260.149 259.732 260.149 259.69 260.164C259.644 260.153 259.596 260.153 259.55 260.164C259.507 260.182 259.469 260.211 259.44 260.249C259.409 260.286 259.385 260.33 259.37 260.376L258.61 263.387C258.577 263.529 258.495 263.654 258.38 263.737C258.266 263.82 258.127 263.854 257.99 263.833C242.87 261.706 228.15 284.799 228.15 284.799L179.7 257.366L172.21 270.131C172.21 270.131 218.98 318.157 229.3 325.443C246.83 337.836 305.09 332.113 305.09 332.113L299.22 263.738L294.31 260.493Z" fill="#F3B150" stroke="#F3B150" stroke-miterlimit="10"/>
<path d="M299.22 263.716C307.46 272.821 325.1 296.563 325.31 315.933C325.56 338.984 312.39 337.729 305.77 336.197C299.15 334.665 263.7 325.943 263.7 325.943L255.77 313.582C255.77 313.582 288.77 305.286 303.55 313.412L299.22 263.716Z" fill="#F3B150" stroke="#F3B150" stroke-miterlimit="10"/>
<path d="M187.9 296.085L182.47 252.303L224.83 258.962L229.08 311.583L258.36 324.178L257.73 328.347L226 314.955L187.9 296.085Z" fill="#383B3D"/>
<path d="M186.56 286.341L182.43 252.303L215.38 257.292" stroke="#167EA1" stroke-miterlimit="10" stroke-linecap="round"/>
<path d="M202.31 282.969C203.46 282.714 204.07 280.842 203.67 278.715C203.27 276.587 202.02 275.151 200.88 275.396C199.74 275.64 199.11 277.523 199.51 279.651C199.91 281.778 201.16 283.214 202.31 282.969Z" fill="white"/>
<path d="M255.15 316.731C255.15 316.731 243.29 315.402 241.79 316.987C240.29 318.572 248.53 320.965 248.53 320.965" fill="white"/>
<path d="M255.15 316.731C255.15 316.731 243.29 315.402 241.79 316.987C240.29 318.572 248.53 320.965 248.53 320.965" stroke="#151515" stroke-miterlimit="10" stroke-linecap="round"/>
<path d="M257.27 316.072C247.53 314.21 238.04 324.018 238.04 324.018L243.91 332.634L259.52 327.071L263.14 322.029" fill="white"/>
<path d="M257.27 316.072C247.53 314.21 238.04 324.018 238.04 324.018L243.91 332.634L259.52 327.071L263.14 322.029" stroke="#151515" stroke-miterlimit="10" stroke-linecap="round"/>
<path d="M239 326.922C239 326.922 244 321.231 249.49 321.231L239 326.922Z" fill="white"/>
<path d="M239 326.922C239 326.922 244 321.231 249.49 321.231" stroke="#151515" stroke-miterlimit="10" stroke-linecap="round"/>
<path d="M240.29 329.315C240.29 329.315 246.91 323.613 250.4 324.273L240.29 329.315Z" fill="white"/>
<path d="M240.29 329.315C240.29 329.315 246.91 323.613 250.4 324.273" stroke="#151515" stroke-miterlimit="10" stroke-linecap="round"/>
<path d="M186.2 294.511C197.54 294.149 228.03 311.296 242.79 330.017L257.79 326.922C257.79 326.922 262.32 344.686 251.13 355.993C238.9 368.375 204 367.832 183.71 340.654C183.71 340.654 179.5 344.856 164.9 356.546C149.26 369.098 137.27 375.108 137.27 375.108C122.27 371.13 112.72 349.749 112.72 349.749C102.14 345.25 100.72 335.921 100.72 335.921C100.72 335.921 150.58 291.937 166.55 291.49C166.55 291.49 175.87 291.851 178.88 295.745C178.87 295.745 180.68 294.67 186.2 294.511Z" fill="#167EA1" stroke="#167EA1" stroke-miterlimit="10"/>
<path d="M257.8 326.922C257.8 326.922 262.33 344.686 251.14 355.993" stroke="#546463" stroke-miterlimit="10" stroke-linecap="round"/>
<path d="M178.87 295.745C178.87 295.745 180.71 294.681 186.2 294.511" stroke="#546463" stroke-miterlimit="10" stroke-linecap="round"/>
<path d="M52.16 291.255C52.0595 291.075 52.0044 290.869 52 290.66L52.16 291.255Z" fill="#383B3D"/>
<path d="M97.1399 291.255L97.2999 290.617C97.2979 290.841 97.2428 291.061 97.1399 291.255Z" fill="#383B3D"/>
<path d="M249.78 362.705C249.78 362.705 251.78 331.166 257.04 324.007C261.58 317.795 266.28 319.242 271.04 319.997C275.8 320.752 316.47 337.463 316.47 337.463" fill="white"/>
<path d="M249.78 362.705C249.78 362.705 251.78 331.166 257.04 324.007C261.58 317.795 266.28 319.242 271.04 319.997C275.41 320.731 310.24 334.889 315.75 337.186C316.554 337.482 317.385 337.685 318.23 337.793C319.553 338.048 320.917 337.783 322.07 337.048C324.07 335.633 324.9 329.602 324.9 329.602" stroke="#546463" stroke-miterlimit="10" stroke-linecap="round"/>
<path d="M254.39 392.425C254.39 392.425 259.85 341.75 260.6 336.548C261.89 327.592 266.26 325.911 277.42 332.496" stroke="#546463" stroke-miterlimit="10"/>
<path d="M314.7 280.023C314.7 280.023 313.58 248.41 331.24 245.431" stroke="#546463" stroke-miterlimit="10" stroke-linecap="round"/>
<path d="M173.54 374.363L242.46 380.012" stroke="#546463" stroke-miterlimit="10" stroke-linecap="round"/>
<path d="M114.62 430.548V383.937" stroke="#546463" stroke-miterlimit="10" stroke-linecap="round"/>
<path d="M47 420.656V370.129" stroke="#546463" stroke-miterlimit="10" stroke-linecap="round"/>
<path d="M298.39 292.915L305.88 314.827C288.74 302.786 259.21 313.881 257.14 314.689" stroke="#383B3D" stroke-miterlimit="10" stroke-linecap="round"/>
<path d="M242.79 284.437C242.79 284.437 232.96 300.393 237.63 311.647" stroke="#383B3D" stroke-miterlimit="10" stroke-linecap="round"/>
<path d="M260.1 264.652C260.1 264.652 274.74 269.971 283.1 259.525" stroke="#383B3D" stroke-miterlimit="10" stroke-linecap="round"/>
<path d="M137.25 375.448C122.25 371.481 112.7 350.089 112.7 350.089C112.7 350.089 149.16 316.051 162.6 307.69" stroke="#546463" stroke-miterlimit="10" stroke-linecap="round"/>
<path d="M193 329.315C193 329.315 188.25 337.399 183.26 341.633" stroke="#546463" stroke-miterlimit="10" stroke-linecap="round"/>
<path d="M136.08 184.598H173.88C175.237 184.597 176.582 184.88 177.836 185.432C179.091 185.983 180.231 186.792 181.191 187.812C182.151 188.832 182.913 190.045 183.433 191.379C183.952 192.713 184.22 194.142 184.22 195.586V216.477C184.217 216.833 184.082 217.175 183.845 217.426C183.607 217.677 183.285 217.817 182.95 217.817H136.08C133.339 217.817 130.711 216.66 128.772 214.6C126.833 212.539 125.743 209.745 125.74 206.829V195.586C125.74 194.142 126.008 192.713 126.527 191.379C127.047 190.045 127.809 188.832 128.769 187.812C129.729 186.792 130.869 185.983 132.124 185.432C133.378 184.88 134.723 184.597 136.08 184.598ZM205.63 208.754H226.8C227.76 208.754 228.711 208.956 229.597 209.346C230.484 209.737 231.29 210.31 231.969 211.032C232.648 211.754 233.186 212.611 233.554 213.555C233.921 214.499 234.11 215.509 234.11 216.53V221.349C234.11 222.37 233.921 223.382 233.554 224.324C233.186 225.268 232.648 226.125 231.969 226.847C231.29 227.569 230.484 228.142 229.597 228.533C228.711 228.923 227.76 229.125 226.8 229.125H199.58C199.243 229.125 198.92 228.982 198.682 228.729C198.444 228.476 198.31 228.132 198.31 227.774V216.477C198.323 214.422 199.101 212.456 200.472 211.01C201.844 209.562 203.698 208.751 205.63 208.754Z" fill="#167EA1" stroke="#167EA1" stroke-width="2"/>
<path d="M142.88 204.415C144.548 204.415 145.9 202.976 145.9 201.202C145.9 199.428 144.548 197.99 142.88 197.99C141.212 197.99 139.86 199.428 139.86 201.202C139.86 202.976 141.212 204.415 142.88 204.415Z" fill="white"/>
<path d="M154.98 204.415C156.648 204.415 158 202.976 158 201.202C158 199.428 156.648 197.99 154.98 197.99C153.312 197.99 151.96 199.428 151.96 201.202C151.96 202.976 153.312 204.415 154.98 204.415Z" fill="white"/>
<path d="M167.08 204.415C168.748 204.415 170.1 202.976 170.1 201.202C170.1 199.428 168.748 197.99 167.08 197.99C165.412 197.99 164.06 199.428 164.06 201.202C164.06 202.976 165.412 204.415 167.08 204.415Z" fill="white"/>
<path d="M133.26 358.471C133.26 358.471 175.39 311.668 189.52 312.859C204.44 314.157 225.15 355.259 236.8 351.025" stroke="#546463" stroke-miterlimit="10" stroke-linecap="round"/>
<path d="M207.9 221.296C209.154 221.296 210.17 220.215 210.17 218.881C210.17 217.547 209.154 216.466 207.9 216.466C206.646 216.466 205.63 217.547 205.63 218.881C205.63 220.215 206.646 221.296 207.9 221.296Z" fill="white"/>
<path d="M216.22 221.296C217.474 221.296 218.49 220.215 218.49 218.881C218.49 217.547 217.474 216.466 216.22 216.466C214.966 216.466 213.95 217.547 213.95 218.881C213.95 220.215 214.966 221.296 216.22 221.296Z" fill="white"/>
<path d="M224.53 221.296C225.784 221.296 226.8 220.215 226.8 218.881C226.8 217.547 225.784 216.466 224.53 216.466C223.276 216.466 222.26 217.547 222.26 218.881C222.26 220.215 223.276 221.296 224.53 221.296Z" fill="white"/>
<path d="M173.88 421.719C168.16 443.908 195.52 456.705 195.52 456.705C195.52 456.705 193.85 458.109 196.52 460.587C199.19 463.066 218.16 461.289 218.16 461.289C218.16 461.289 215.52 460.96 215.83 466.246C216.03 469.565 261.44 477.947 281.08 457.056C300.72 436.165 293.56 408.349 272.08 398.403C222.48 375.448 180.53 395.967 173.88 421.719Z" fill="#F3B150"/>
<path d="M250.71 434.527C250.71 434.527 251.71 467.268 262.71 465.204C274.39 463.013 275.5 438.239 275.5 438.239C276.01 422.071 259.5 416.273 249.5 417.571C237.3 419.177 233.8 429.495 229.8 433.197C225.8 436.899 222.11 441.154 215.58 442.207C208.65 443.345 208.92 450.078 209.05 451.493C209.056 451.52 209.056 451.549 209.05 451.578C209.05 451.578 209.05 451.631 209.05 451.642C209.024 451.647 208.996 451.647 208.97 451.642H208.9C207.38 451.206 198.7 449.121 195.52 456.343" stroke="#167EA1" stroke-miterlimit="10" stroke-linecap="round"/>
<path d="M233.67 442.207C233.67 442.207 235.74 448.844 243.6 446.121" stroke="#167EA1" stroke-miterlimit="10" stroke-linecap="round"/>
<path d="M215.57 466.331C215.57 466.331 215.82 459.949 221.62 458.513C226.02 457.449 228.49 459.034 229.45 459.885C229.62 460.028 229.818 460.126 230.03 460.172C230.243 460.236 230.468 460.236 230.68 460.172L248.4 455.035" stroke="#167EA1" stroke-miterlimit="10" stroke-linecap="round"/>
<path d="M185.55 429.825C185.55 429.825 195.28 445.525 209.21 447.376" stroke="#167EA1" stroke-miterlimit="10" stroke-linecap="round"/>
<path d="M209.05 451.492C209.05 451.492 211.9 454.854 215.57 453.545C221.69 451.354 221.62 442.164 217.38 442.206C211.57 442.281 208.15 446.865 209.05 451.492Z" fill="#167EA1" stroke="#167EA1" stroke-miterlimit="10" stroke-linecap="round"/>
<path d="M99 169.397L229.45 70.4722L373.05 217.998V337.835L470 440.962" stroke="#167EA1" stroke-width="2" stroke-miterlimit="10" stroke-linecap="round"/>
</g>
</g>
</svg>
