<svg width="617" height="412" viewBox="0 0 617 412" fill="none" xmlns="http://www.w3.org/2000/svg">
<path d="M511.763 345.418H368.126C350.505 345.418 336.215 331.128 336.215 313.507V196.598C336.215 178.977 350.505 164.688 368.126 164.688H511.763C529.384 164.688 543.674 178.977 543.674 196.598V313.507C543.674 331.128 529.384 345.418 511.763 345.418Z" fill="#6FA8BB"/>
<g opacity="0.4">
<path d="M511.763 345.418H368.126C350.505 345.418 336.215 331.128 336.215 313.507V196.598C336.215 178.977 350.505 164.688 368.126 164.688H511.763C529.384 164.688 543.674 178.977 543.674 196.598V313.507C543.674 331.128 529.384 345.418 511.763 345.418Z" fill="black"/>
</g>
<path d="M543.616 227.695H574.688L542.917 259.475L543.616 227.695Z" fill="#6FA8BB"/>
<g opacity="0.4">
<path d="M543.616 227.695H574.688L542.917 259.475L543.616 227.695Z" fill="black"/>
</g>
<path d="M331.255 247.233L318.232 232.458C314.711 228.937 313.502 227.235 314.209 226.618C315.147 225.795 314.744 226.066 322.057 231.562C322.057 231.562 311.692 223.631 315.287 223.582C315.92 223.574 317.681 224.602 319.565 225.836C316.998 223.656 316.291 222.183 316.776 221.484C317.615 220.275 323.958 224.668 326.87 226.79C324.484 225.013 319.935 221.558 319.129 220.48C318.035 219 320.256 219.123 322.066 219.74C324.098 220.431 335.327 226.165 338.651 227.646C340.938 228.666 341.744 226.593 341.744 226.593C342.969 221.451 346.671 218.095 348.095 217.659C349.526 217.223 350.604 219.041 349.592 220.349C348.777 221.41 347.955 223.582 347.404 225.235C346.951 226.601 346.713 228.024 346.737 229.456C346.762 231.117 346.852 232.524 346.959 233.717L358.855 250.047L338.947 261.589L331.255 247.233Z" fill="white"/>
<path d="M326.574 233.832C326.442 234.021 324.122 232.425 321.408 230.278C318.684 228.131 316.603 226.247 316.759 226.074C316.908 225.902 319.227 227.489 321.926 229.628C324.624 231.759 326.714 233.643 326.574 233.832Z" fill="black"/>
<path d="M329.116 231.232C328.984 231.422 326.426 229.867 323.398 227.752C320.371 225.646 318.026 223.779 318.158 223.59C318.29 223.401 320.848 224.955 323.876 227.07C326.895 229.184 329.248 231.043 329.116 231.232Z" fill="black"/>
<path d="M330.959 228.468C330.827 228.658 328.384 227.226 325.488 225.268C322.6 223.31 320.355 221.566 320.486 221.377C320.618 221.188 323.061 222.619 325.957 224.577C328.844 226.535 331.082 228.279 330.959 228.468Z" fill="black"/>
<path d="M348.078 235.963L395.529 296.132L384.662 321.429C384.662 321.429 371.647 318.55 367.699 313.063C363.75 307.575 331.255 247.225 331.255 247.225L348.078 235.963Z" fill="white"/>
<path d="M468.532 151.764C471.946 154.725 471.938 159.941 471.543 164.441C471.148 168.941 470.852 174.066 473.962 177.34C476.528 180.039 481.193 181.215 481.793 184.892C482.073 186.603 481.176 188.454 479.646 189.285C478.124 190.124 476.084 189.886 474.784 188.734C475.788 191.638 475.097 195.266 472.58 197.026C470.062 198.787 465.85 197.701 465.069 194.731C465.546 196.697 464.106 198.91 462.115 199.272C460.125 199.634 457.994 198.071 457.747 196.064" fill="#263238"/>
<path d="M419.641 182.136C418.794 184.382 415.931 185.608 413.718 184.687C411.505 183.765 410.37 180.861 411.374 178.681C412.155 176.97 414.006 175.736 414.187 173.86C414.401 171.59 412.089 169.977 410.033 168.99C407.976 168.003 405.582 166.72 405.36 164.449C405.146 162.261 407.104 160.558 408.741 159.094C410.378 157.629 411.999 155.367 410.987 153.409C410.469 152.414 409.391 151.838 408.7 150.949C407.162 148.991 407.968 145.874 409.926 144.335C411.884 142.797 414.607 142.583 417.058 143.027C419.51 143.471 421.813 144.483 424.207 145.191C432.08 147.535 440.932 146.375 447.933 142.081" fill="#263238"/>
<path d="M434.211 235.189C443.054 236.975 451.7 231.339 453.617 222.52L465.291 168.998C468.359 155.975 460.075 142.994 446.978 140.287L445.753 140.106C433.421 138.297 421.772 146.268 418.983 158.411C416.384 169.706 413.661 182.227 412.838 188.372C411.135 201.09 423.549 204.932 423.549 204.932L421.32 215.651C419.452 224.602 425.235 233.371 434.211 235.189Z" fill="white"/>
<path d="M421.262 166.793C421.089 167.747 421.748 168.677 422.743 168.883C423.73 169.08 424.676 168.471 424.849 167.525C425.022 166.571 424.364 165.641 423.368 165.436C422.381 165.238 421.435 165.847 421.262 166.793Z" fill="#263238"/>
<path d="M420.793 165.025C420.982 165.296 422.504 164.482 424.454 164.77C426.404 165.033 427.695 166.242 427.942 166.037C428.065 165.946 427.893 165.485 427.342 164.942C426.79 164.4 425.811 163.807 424.594 163.634C423.376 163.462 422.29 163.758 421.632 164.136C420.966 164.506 420.703 164.901 420.793 165.025Z" fill="#263238"/>
<path d="M440.34 169.961C440.167 170.915 440.825 171.845 441.82 172.05C442.808 172.248 443.754 171.639 443.926 170.693C444.099 169.739 443.441 168.809 442.446 168.603C441.458 168.398 440.512 169.007 440.34 169.961Z" fill="#263238"/>
<path d="M439.928 168.201C440.118 168.472 441.639 167.658 443.589 167.946C445.539 168.209 446.83 169.418 447.077 169.212C447.192 169.122 447.036 168.661 446.468 168.118C445.917 167.575 444.938 166.983 443.721 166.81C442.503 166.637 441.417 166.934 440.759 167.312C440.093 167.674 439.83 168.077 439.928 168.201Z" fill="#263238"/>
<path d="M430.723 181.634C430.747 181.527 429.563 181.14 427.638 180.597C427.144 180.474 426.692 180.301 426.659 179.956C426.593 179.577 426.881 179.075 427.21 178.524C427.852 177.389 428.534 176.196 429.242 174.946C432.08 169.845 434.211 165.617 434.005 165.501C433.799 165.386 431.331 169.434 428.493 174.534C427.802 175.793 427.152 176.994 426.519 178.146C426.247 178.68 425.828 179.281 425.976 180.063C426.058 180.457 426.379 180.778 426.692 180.91C426.996 181.058 427.276 181.099 427.522 181.148C429.472 181.552 430.698 181.741 430.723 181.634Z" fill="#263238"/>
<path d="M440.537 160.476C440.652 161.035 442.635 161.068 444.889 161.677C447.151 162.244 448.895 163.182 449.274 162.754C449.446 162.549 449.191 161.998 448.525 161.381C447.859 160.755 446.748 160.097 445.399 159.744C444.05 159.39 442.758 159.423 441.87 159.645C440.981 159.859 440.496 160.212 440.537 160.476Z" fill="#263238"/>
<path d="M422.34 159.48C422.619 159.974 424.026 159.71 425.647 159.924C427.276 160.081 428.592 160.656 428.97 160.245C429.143 160.039 428.995 159.562 428.452 159.06C427.926 158.559 426.988 158.073 425.869 157.942C424.75 157.818 423.73 158.073 423.105 158.443C422.471 158.814 422.216 159.241 422.34 159.48Z" fill="#263238"/>
<path d="M453.543 153.047C453.56 153.072 453.584 153.088 453.601 153.113C455.386 155.005 456.39 157.514 456.365 160.113C456.365 160.204 456.365 160.294 456.365 160.377C456.332 164.07 455.699 167.74 455.707 171.442C455.707 175.135 456.423 179.002 458.734 181.881C459.68 183.066 461.523 184.061 462.609 182.992C463.028 182.58 463.177 181.972 463.308 181.396C465.266 172.75 468.787 165.337 470.112 156.189C470.474 153.697 469.643 151.188 467.833 149.444C466.122 147.79 463.991 146.03 461.712 146.721C459.433 147.42 456.093 150.998 454.201 152.446" fill="#263238"/>
<path d="M460.166 174.115C460.396 174.049 469.273 172.815 467.718 181.453C466.171 190.091 457.813 186.76 457.846 186.504C457.87 186.258 460.166 174.115 460.166 174.115Z" fill="white"/>
<path d="M461.071 183.708C461.112 183.683 461.202 183.839 461.433 184.004C461.663 184.16 462.074 184.316 462.551 184.226C463.522 184.053 464.551 182.745 464.871 181.19C465.036 180.409 465.003 179.627 464.838 178.961C464.69 178.278 464.361 177.768 463.917 177.604C463.481 177.414 463.103 177.636 462.955 177.859C462.798 178.081 462.823 178.262 462.774 178.27C462.749 178.286 462.617 178.089 462.749 177.752C462.815 177.587 462.955 177.398 463.185 177.275C463.423 177.143 463.744 177.11 464.057 177.2C464.715 177.365 465.209 178.089 465.39 178.821C465.612 179.57 465.661 180.442 465.48 181.322C465.11 183.05 463.934 184.522 462.617 184.662C461.984 184.711 461.507 184.44 461.285 184.185C461.046 183.913 461.038 183.716 461.071 183.708Z" fill="#AA6550"/>
<path d="M461.803 148.119C464.452 144.96 459.327 139.111 455.238 137.137C451.149 135.162 445.201 136.421 440.726 137.211C437.904 137.713 435.042 138.56 432.228 138.033C430.344 137.68 428.633 136.717 426.93 135.829C425.227 134.932 423.45 134.068 421.534 133.92C419.617 133.772 417.519 134.496 416.54 136.15C415.561 137.803 416.244 140.362 418.087 140.905C415.874 139.235 412.147 140.46 411.357 143.118C410.567 145.775 413.027 148.835 415.791 148.638C414.697 147.519 412.575 148.786 412.501 150.357C412.427 151.92 413.661 153.244 414.985 154.075C418.375 156.198 422.669 156.305 426.601 155.597C430.533 154.882 434.293 153.425 438.209 152.619C442.125 151.813 448.698 150.291 452.235 152.15C454.843 153.524 456.266 157.111 457.92 156.601C459.524 156.116 460.7 154.684 461.235 153.096C461.786 151.5 461.795 149.789 461.803 148.119Z" fill="#263238"/>
<path d="M478.725 188.24C478.725 188.24 478.898 188.215 479.177 188.043C479.457 187.878 479.835 187.541 480.115 186.973C480.378 186.414 480.551 185.624 480.395 184.744C480.255 183.847 479.671 182.942 478.84 182.202C478.001 181.461 476.915 180.885 475.73 180.384C474.554 179.874 473.254 179.421 472.086 178.623C470.918 177.842 469.996 176.624 469.445 175.193C468.878 173.769 468.647 172.157 468.68 170.52C468.771 167.221 469.684 164.144 469.906 161.24C470.177 158.353 469.75 155.613 468.524 153.729C467.306 151.846 465.612 150.916 464.419 150.645C463.818 150.488 463.333 150.496 463.012 150.505C462.691 150.538 462.518 150.562 462.527 150.579C462.527 150.636 463.218 150.48 464.378 150.809C465.521 151.122 467.125 152.059 468.261 153.894C469.404 155.72 469.799 158.369 469.503 161.207C469.264 164.054 468.335 167.131 468.244 170.512C468.211 172.198 468.45 173.868 469.05 175.357C469.634 176.846 470.622 178.146 471.864 178.96C473.098 179.783 474.422 180.236 475.59 180.721C476.767 181.198 477.828 181.741 478.643 182.432C479.449 183.123 480 183.962 480.156 184.785C480.321 185.608 480.189 186.356 479.959 186.899C479.457 188.01 478.675 188.191 478.725 188.24Z" fill="#455A64"/>
<path d="M417.807 140.707C417.815 140.699 417.684 140.633 417.429 140.51C417.305 140.444 417.141 140.378 416.943 140.321C416.746 140.247 416.515 140.181 416.244 140.14C415.199 139.926 413.439 140.099 411.884 141.473L411.876 141.481C410.823 142.674 410.14 144.558 410.321 146.631C410.461 148.712 411.596 150.917 413.496 152.496C415.38 154.1 417.947 155.104 420.686 155.392C423.434 155.696 426.322 155.417 429.226 154.865C433.956 153.961 438.258 152.151 441.812 150.004C443.606 148.967 445.3 147.972 447.003 147.305C448.698 146.622 450.393 146.326 451.939 146.293C455.057 146.236 457.5 147.165 459.03 147.972C460.569 148.794 461.293 149.469 461.326 149.419C461.326 149.419 460.651 148.696 459.113 147.823C457.591 146.968 455.123 145.973 451.939 145.989C450.36 145.997 448.607 146.285 446.872 146.968C445.128 147.634 443.4 148.63 441.607 149.658C438.061 151.772 433.816 153.549 429.135 154.438C426.264 154.981 423.409 155.252 420.727 154.972C418.046 154.701 415.569 153.738 413.743 152.208C411.9 150.695 410.798 148.605 410.65 146.614C410.452 144.623 411.086 142.813 412.065 141.654L412.057 141.662C413.496 140.337 415.199 140.115 416.219 140.288C417.28 140.436 417.791 140.749 417.807 140.707Z" fill="#455A64"/>
<path d="M422.62 133.509C422.62 133.509 422.529 134.233 422.924 135.45C423.327 136.651 424.38 138.313 426.33 139.547C427.292 140.172 428.452 140.699 429.777 140.979C431.093 141.267 432.549 141.324 434.046 141.201C437.065 140.97 440.233 139.942 443.548 139.078C446.855 138.214 450.179 137.77 453.042 138.535C455.904 139.267 458.093 141.012 459.491 142.723C460.914 144.45 461.622 146.161 461.959 147.362C462.288 148.572 462.329 149.279 462.379 149.271C462.395 149.271 462.387 149.098 462.354 148.761C462.338 148.424 462.247 147.938 462.115 147.321C461.828 146.087 461.145 144.327 459.722 142.525C458.315 140.748 456.094 138.922 453.132 138.14C450.17 137.326 446.756 137.778 443.433 138.65C440.093 139.514 436.967 140.551 434.005 140.789C432.533 140.921 431.118 140.872 429.843 140.617C428.559 140.362 427.424 139.868 426.486 139.284C424.577 138.116 423.516 136.544 423.072 135.393C422.652 134.225 422.677 133.501 422.62 133.509Z" fill="#455A64"/>
<path d="M426.823 188.1C426.971 188.939 427.119 189.795 427.49 190.56C427.868 191.325 428.51 192.008 429.332 192.222C430.213 192.452 431.183 192.107 431.833 191.465C432.483 190.831 432.845 189.943 432.993 189.046C433.125 188.232 432.96 187.195 432.179 186.932C431.858 186.825 431.504 186.883 431.167 186.94C429.645 187.212 428.131 187.491 426.609 187.763" fill="#AA6550"/>
<path d="M427.621 191.555C427.687 191.432 428.46 192.082 429.884 191.983C430.575 191.934 431.397 191.662 432.014 191.012C432.623 190.371 433.026 189.375 432.927 188.355C432.911 188.1 432.837 187.853 432.763 187.631C432.656 187.409 432.681 187.426 432.5 187.393C432.319 187.384 432.006 187.426 431.759 187.442C431.504 187.458 431.249 187.483 431.002 187.5C430.015 187.574 429.127 187.631 428.378 187.664C426.881 187.738 425.951 187.73 425.935 187.623C425.927 187.516 426.84 187.335 428.321 187.129C429.061 187.022 429.949 186.916 430.937 186.8C431.183 186.776 431.438 186.743 431.693 186.718C431.965 186.693 432.179 186.644 432.541 186.652C432.714 186.661 432.952 186.702 433.141 186.866C433.331 187.022 433.413 187.212 433.479 187.368C433.586 187.672 433.668 187.969 433.693 188.289C433.816 189.565 433.306 190.757 432.524 191.522C431.726 192.296 430.706 192.551 429.917 192.534C429.11 192.526 428.493 192.271 428.123 192.032C427.745 191.794 427.597 191.588 427.621 191.555Z" fill="#263238"/>
<path d="M423.541 204.924C423.541 204.924 431.833 208.066 439.904 205.779C439.904 205.779 433.816 210.88 422.71 208.922L423.541 204.924Z" fill="#E5D0C5"/>
<path d="M436.193 322.869C436.177 322.894 435.766 322.581 435.058 322.005C434.704 321.709 434.268 321.356 433.734 320.985C433.207 320.607 432.623 320.146 431.932 319.71C431.249 319.258 430.501 318.764 429.662 318.295C428.839 317.785 427.917 317.333 426.955 316.839C425.005 315.901 422.801 315.005 420.407 314.272C418.013 313.565 415.668 313.112 413.521 312.825C412.443 312.709 411.423 312.586 410.461 312.553C409.498 312.479 408.601 312.487 407.787 312.487C406.964 312.471 406.224 312.537 405.574 312.561C404.924 312.586 404.365 312.635 403.904 312.693C402.991 312.783 402.481 312.816 402.481 312.792C402.473 312.759 402.974 312.668 403.888 312.528C404.34 312.454 404.899 312.372 405.558 312.331C406.207 312.282 406.956 312.191 407.779 312.191C408.601 312.166 409.506 312.142 410.477 312.199C411.448 312.208 412.484 312.331 413.57 312.43C415.734 312.701 418.103 313.154 420.53 313.861C422.94 314.593 425.17 315.523 427.128 316.485C428.09 316.995 429.02 317.464 429.842 317.991C430.682 318.476 431.43 318.986 432.105 319.463C432.796 319.916 433.363 320.401 433.882 320.804C434.408 321.199 434.828 321.569 435.165 321.89C435.848 322.491 436.21 322.845 436.193 322.869Z" fill="#FAFAFA"/>
<path d="M387.846 280.617L394.6 251.388C397.183 240.397 400.243 229.834 405.385 228.584V231.982L403.188 315.49C403.188 315.49 389.433 331.153 371.894 322.441C366.415 319.718 356.42 300.591 356.42 300.591C356.42 300.591 333.196 259.088 334.159 257.204C335.121 255.32 349.337 237.008 350.785 236.095L387.846 280.617Z" fill="#6FA8BB"/>
<path d="M457.262 220.341C470.671 222.908 485.767 230.731 492.718 250.763C495.252 258.085 513.721 312.051 513.721 312.051L482.229 311.393L477.104 300.262L479.605 318.312L481.736 344.069L402.234 345.402L402.793 306.613L403.558 229.448C403.558 229.448 404.455 228.28 418.161 220.711C426.675 216.03 457.262 220.341 457.262 220.341Z" fill="#6FA8BB"/>
<g opacity="0.2">
<path d="M465.192 271.922C466.5 288.211 467.997 293.245 469.305 309.534C469.429 311.072 469.56 312.644 470.161 314.059C470.77 315.482 471.938 316.749 473.452 317.053C475.763 317.522 478.774 319.2 479.432 316.93L477.236 301.241C477.236 301.241 476.718 298.288 475.064 294.619C470.186 283.793 468.384 283.159 465.192 271.922Z" fill="black"/>
</g>
<path d="M418.161 229.077L418.424 227.383L420.966 211.127C421.122 210.148 422.002 209.449 422.99 209.531L454.292 212.147C456.258 212.312 457.722 214.031 457.582 215.997L456.883 225.441L447.11 238.192L433.034 240.389" fill="#6FA8BB"/>
<path d="M402.439 259.64C402.555 259.64 402.653 272.374 402.653 288.079C402.653 303.792 402.555 316.518 402.439 316.518C402.324 316.518 402.226 303.784 402.226 288.079C402.226 272.374 402.324 259.64 402.439 259.64Z" fill="#263238"/>
<path d="M482.896 314.001C482.888 314.001 482.855 313.943 482.797 313.82C482.731 313.672 482.641 313.491 482.542 313.26C482.312 312.734 481.991 312.01 481.588 311.097C480.765 309.18 479.589 306.457 478.149 303.109C475.278 296.322 471.329 286.993 466.969 276.693C464.805 271.527 462.741 266.607 460.857 262.124C459.861 259.911 459.195 257.64 458.833 255.51C458.455 253.371 458.306 251.355 458.29 249.512C458.249 245.827 458.8 242.841 459.54 240.916C459.631 240.677 459.713 240.447 459.795 240.233C459.894 240.027 459.993 239.838 460.083 239.657C460.256 239.295 460.412 238.999 460.577 238.785C460.717 238.579 460.832 238.415 460.931 238.275C461.013 238.16 461.054 238.11 461.062 238.11C461.12 238.143 460.371 239.032 459.705 240.973C459.022 242.898 458.52 245.852 458.594 249.512C458.693 253.149 459.187 257.574 461.219 261.976C463.111 266.451 465.184 271.37 467.356 276.529C471.675 286.853 475.582 296.19 478.42 302.994C479.811 306.366 480.938 309.106 481.728 311.031C482.098 311.961 482.394 312.693 482.608 313.227C482.698 313.458 482.772 313.647 482.83 313.803C482.879 313.935 482.904 314.001 482.896 314.001Z" fill="#263238"/>
<path d="M467.018 223.179C467.018 223.179 466.73 223.484 466.105 223.969C465.48 224.463 464.493 225.104 463.102 225.721C461.712 226.322 459.927 226.857 457.813 227.202C455.698 227.556 453.272 227.778 450.573 227.918C447.883 228.041 444.93 227.984 441.771 228.05C438.62 228.124 435.231 228.321 431.817 229.259C428.436 230.172 424.939 231.858 422.455 234.779C421.237 236.235 420.324 238.004 419.855 239.912C419.37 241.813 419.362 243.878 419.946 245.794C420.258 246.749 420.735 247.637 421.328 248.427C421.928 249.208 422.693 249.85 423.549 250.303C424.396 250.755 425.367 250.985 426.297 250.878C427.226 250.788 428.106 250.327 428.707 249.636C429.941 248.229 430.171 246.206 429.925 244.429C429.793 243.532 429.53 242.652 429.143 241.862C428.748 241.072 428.23 240.332 427.679 239.657C425.425 236.943 422.274 235.371 419.246 234.664C416.194 233.94 413.192 234.088 410.608 234.762C408.009 235.412 405.812 236.482 403.994 237.592C402.176 238.695 400.745 239.855 399.618 240.85C398.491 241.837 397.693 242.693 397.133 243.252C396.878 243.532 396.673 243.746 396.516 243.91C396.376 244.059 396.302 244.133 396.294 244.124C396.294 244.124 397.29 242.775 399.503 240.719C400.613 239.707 402.045 238.514 403.863 237.387C405.681 236.251 407.894 235.149 410.526 234.475C413.134 233.767 416.194 233.603 419.312 234.326C422.405 235.042 425.638 236.622 427.967 239.419C428.534 240.126 429.061 240.867 429.489 241.697C429.9 242.537 430.18 243.45 430.311 244.388C430.451 245.325 430.451 246.304 430.262 247.267C430.073 248.221 429.686 249.175 429.003 249.932C428.329 250.689 427.358 251.207 426.329 251.306C425.301 251.421 424.248 251.166 423.335 250.681C422.422 250.196 421.607 249.521 420.974 248.69C420.349 247.859 419.855 246.93 419.526 245.926C418.909 243.91 418.926 241.772 419.427 239.805C419.921 237.831 420.851 236.013 422.117 234.499C424.692 231.488 428.263 229.785 431.693 228.864C435.157 227.926 438.579 227.737 441.746 227.679C444.913 227.63 447.858 227.704 450.54 227.605C453.222 227.49 455.649 227.284 457.755 226.955C459.861 226.635 461.638 226.125 463.02 225.557C464.402 224.973 465.398 224.364 466.031 223.895C466.36 223.673 466.582 223.467 466.747 223.352C466.928 223.237 467.018 223.171 467.018 223.179Z" fill="#FAFAFA"/>
<path d="M494.224 257.418C494.224 257.435 494.1 257.451 493.87 257.476C493.64 257.492 493.302 257.542 492.858 257.55C491.978 257.591 490.703 257.583 489.131 257.459C487.56 257.344 485.701 257.106 483.644 256.826C481.588 256.546 479.333 256.234 476.948 256.102C474.57 255.987 472.3 256.168 470.284 256.604C468.277 257.048 466.533 257.723 465.208 258.537C462.518 260.15 461.548 261.959 461.457 261.861C461.449 261.852 461.506 261.746 461.63 261.556C461.77 261.367 461.926 261.063 462.23 260.734C462.773 260.034 463.711 259.129 465.052 258.282C466.385 257.418 468.162 256.703 470.202 256.225C472.25 255.765 474.562 255.567 476.972 255.683C479.383 255.814 481.645 256.143 483.702 256.439C485.758 256.744 487.601 257.015 489.164 257.163C490.719 257.32 491.986 257.377 492.866 257.385C493.738 257.394 494.224 257.385 494.224 257.418Z" fill="#FAFAFA"/>
<path d="M474.455 294.297C474.447 294.404 472.802 293.713 469.733 293.894C468.203 293.968 466.352 294.289 464.254 294.873C462.148 295.441 459.812 296.272 457.179 297.086C454.563 297.892 451.577 298.657 448.311 298.633C445.062 298.633 441.565 297.991 438.209 296.535C434.836 295.12 431.603 292.858 428.995 289.839C427.687 288.341 426.544 286.622 425.729 284.722C424.931 282.821 424.487 280.682 424.791 278.543C425.104 276.429 426.099 274.405 427.712 273.04C428.518 272.365 429.456 271.839 430.484 271.625C431.504 271.403 432.565 271.444 433.544 271.724C434.523 272.003 435.453 272.472 436.185 273.171C436.917 273.863 437.469 274.751 437.666 275.73C437.88 276.701 437.781 277.721 437.444 278.618C437.107 279.522 436.547 280.304 435.905 280.979C434.614 282.319 433.01 283.216 431.389 283.85C430.575 284.154 429.735 284.393 428.913 284.532C428.502 284.606 428.09 284.697 427.679 284.763C427.268 284.812 426.864 284.861 426.453 284.903C423.212 285.256 420.16 284.903 417.478 284.277C414.788 283.636 412.468 282.665 410.543 281.612C408.618 280.567 407.088 279.44 405.928 278.42C405.64 278.165 405.368 277.926 405.105 277.704C404.866 277.466 404.644 277.235 404.43 277.022C404.003 276.61 403.665 276.24 403.41 275.919C403.164 275.623 402.966 275.384 402.818 275.212C402.686 275.047 402.621 274.965 402.629 274.965C402.637 274.957 402.711 275.039 402.851 275.187C403.007 275.352 403.213 275.582 403.468 275.87C403.731 276.174 404.077 276.536 404.513 276.939C404.727 277.145 404.957 277.367 405.196 277.597C405.459 277.82 405.73 278.05 406.026 278.297C407.195 279.292 408.725 280.386 410.65 281.406C412.567 282.426 414.87 283.372 417.535 283.989C420.193 284.59 423.212 284.927 426.404 284.557C426.799 284.508 427.202 284.458 427.605 284.409C428.008 284.343 428.411 284.253 428.814 284.179C429.637 284.039 430.435 283.8 431.233 283.504C432.804 282.887 434.367 282.007 435.601 280.715C436.21 280.074 436.736 279.325 437.049 278.486C437.362 277.647 437.452 276.717 437.246 275.82C436.868 274.019 435.256 272.612 433.413 272.135C432.491 271.872 431.496 271.839 430.558 272.053C429.612 272.25 428.724 272.744 427.975 273.385C426.461 274.677 425.499 276.602 425.203 278.626C424.915 280.658 425.334 282.731 426.116 284.574C426.906 286.425 428.016 288.111 429.308 289.584C431.866 292.553 435.042 294.783 438.357 296.19C441.664 297.629 445.103 298.279 448.303 298.296C451.52 298.337 454.465 297.604 457.081 296.815C459.705 296.025 462.066 295.211 464.18 294.668C466.294 294.108 468.17 293.804 469.717 293.754C470.49 293.697 471.173 293.771 471.765 293.787C472.349 293.87 472.859 293.911 473.254 294.009C473.633 294.1 473.929 294.174 474.151 294.232C474.357 294.256 474.455 294.289 474.455 294.297Z" fill="#FAFAFA"/>
<path d="M402.168 285.52C402.102 285.553 401.724 284.648 400.926 283.307C400.128 281.966 398.853 280.214 397.117 278.585C395.373 276.965 393.538 275.813 392.14 275.114C390.75 274.414 389.82 274.093 389.845 274.028C389.853 274.003 390.092 274.052 390.519 274.176C390.947 274.291 391.548 274.521 392.272 274.842C393.719 275.484 395.628 276.619 397.405 278.273C399.182 279.934 400.449 281.752 401.181 283.159C401.551 283.858 401.814 284.443 401.962 284.862C402.119 285.282 402.193 285.512 402.168 285.52Z" fill="#FAFAFA"/>
<path d="M370.249 320.73C370.241 320.73 370.2 320.664 370.117 320.524C370.027 320.36 369.92 320.163 369.78 319.908C369.484 319.356 369.056 318.55 368.53 317.489C367.493 315.375 365.963 312.29 364.762 308.226C364.186 306.194 363.701 303.899 363.585 301.406C363.511 300.155 363.577 298.856 363.742 297.539C363.931 296.223 364.26 294.882 364.712 293.549C365.675 290.917 367.197 288.26 369.541 286.244C371.837 284.237 375.004 282.83 378.319 283.168C379.948 283.34 381.577 284.007 382.646 285.274C383.699 286.507 384.209 288.202 383.864 289.773C383.691 290.555 383.272 291.279 382.696 291.805C382.128 292.348 381.412 292.702 380.688 292.9C379.216 293.311 377.653 293.048 376.394 292.381C375.119 291.723 374.083 290.752 373.252 289.708C372.421 288.655 371.771 287.519 371.277 286.368C370.315 284.048 370.002 281.662 370.175 279.54C370.348 277.409 371.006 275.55 371.804 274.069C372.602 272.58 373.54 271.445 374.379 270.614C375.226 269.783 375.975 269.232 376.501 268.903C376.756 268.73 376.97 268.623 377.11 268.541C377.25 268.467 377.324 268.425 377.324 268.434C377.332 268.45 377.052 268.623 376.551 268.977C376.04 269.33 375.325 269.898 374.502 270.737C373.688 271.576 372.783 272.711 372.018 274.192C371.253 275.665 370.627 277.491 370.479 279.572C370.331 281.654 370.644 283.974 371.606 286.236C372.092 287.363 372.733 288.465 373.548 289.486C374.362 290.497 375.366 291.427 376.575 292.044C377.776 292.669 379.224 292.908 380.582 292.521C381.939 292.176 383.156 291.123 383.453 289.691C383.765 288.284 383.296 286.697 382.317 285.561C381.347 284.41 379.816 283.768 378.27 283.604C375.111 283.283 372.034 284.632 369.813 286.573C367.534 288.531 366.037 291.123 365.083 293.698C364.63 295.006 364.309 296.314 364.112 297.605C363.947 298.905 363.865 300.172 363.939 301.406C364.038 303.866 364.507 306.136 365.058 308.16C366.21 312.207 367.69 315.301 368.686 317.431C369.188 318.476 369.574 319.291 369.862 319.883C369.986 320.146 370.084 320.36 370.167 320.524C370.224 320.656 370.249 320.73 370.249 320.73Z" fill="#FAFAFA"/>
<path d="M360.089 248.105C360.105 248.105 360.13 248.221 360.163 248.451C360.196 248.681 360.254 249.01 360.286 249.446C360.369 250.318 360.41 251.585 360.278 253.14C360.048 256.242 358.946 260.577 356.214 264.542C353.483 268.507 349.83 271.091 347.017 272.415C345.61 273.09 344.409 273.509 343.57 273.74C343.15 273.871 342.821 273.929 342.599 273.986C342.377 274.036 342.254 274.052 342.254 274.036C342.246 274.003 342.706 273.863 343.521 273.583C344.343 273.304 345.512 272.843 346.885 272.144C349.625 270.762 353.187 268.187 355.869 264.295C358.542 260.404 359.669 256.159 359.982 253.107C360.147 251.569 360.155 250.318 360.122 249.455C360.089 248.591 360.056 248.105 360.089 248.105Z" fill="#FAFAFA"/>
<path d="M501.422 283.776C501.48 283.85 499.867 284.516 498.247 286.68C497.432 287.741 496.609 289.107 495.672 290.629C494.734 292.151 493.566 293.755 492.159 295.277C489.337 298.329 486.153 300.418 483.727 301.611C482.517 302.228 481.489 302.615 480.781 302.87C480.066 303.109 479.663 303.224 479.654 303.191C479.646 303.158 480.025 302.993 480.724 302.714C481.415 302.409 482.41 301.982 483.595 301.34C485.956 300.089 489.074 297.992 491.846 294.981C493.237 293.475 494.388 291.912 495.343 290.415C496.297 288.918 497.152 287.544 498.016 286.491C498.88 285.438 499.727 284.706 500.377 284.303C500.698 284.097 500.961 283.957 501.142 283.883C501.323 283.801 501.422 283.76 501.422 283.776Z" fill="#FAFAFA"/>
<path d="M456.965 221.295C456.965 221.311 456.834 221.344 456.587 221.394C456.291 221.443 455.929 221.509 455.493 221.591C454.539 221.747 453.156 221.961 451.454 222.192C448.031 222.652 443.293 223.187 438.044 223.574C435.42 223.763 432.911 223.936 430.616 223.845C428.32 223.763 426.264 223.384 424.618 222.817C422.965 222.266 421.739 221.533 420.958 220.966C420.563 220.678 420.275 220.439 420.094 220.258C419.905 220.086 419.814 219.987 419.822 219.979C419.847 219.946 420.25 220.308 421.048 220.826C421.846 221.344 423.072 222.019 424.709 222.529C426.338 223.047 428.362 223.384 430.624 223.45C432.886 223.524 435.387 223.343 438.011 223.154C443.252 222.767 447.99 222.282 451.421 221.895C453.082 221.706 454.448 221.55 455.476 221.435C456.431 221.311 456.957 221.27 456.965 221.295Z" fill="#263238"/>
<path d="M513.31 317.866C515.917 331.407 505.618 344.002 491.822 344.142L429.513 343.451L431.151 323.271L484.574 315.3" fill="white"/>
<path d="M435.009 324.201C434.721 324.299 431.126 322.679 427.901 321.19C424.479 319.61 420.727 318.878 416.96 319.067L402.102 319.824C402.102 319.824 403.015 322.276 404.595 323.148C406.166 324.02 415.405 324.209 415.405 324.209L414.936 324.694C412.986 326.702 410.337 327.862 407.54 327.927L406.117 327.96C405.064 327.878 404.027 327.672 403.016 327.352L399.355 325.871C398.244 325.369 397.076 325.451 396.591 326.57C396.154 327.582 396.475 328.972 399.503 330.494C401.197 331.35 407.466 333.513 407.466 333.513C407.466 333.513 407.557 335.249 407.828 336.162C408.1 337.075 410.568 337.988 410.568 337.988C410.568 337.988 412.122 341.18 412.756 341.913C413.044 342.242 415.273 342.933 417.642 343.599C421.476 344.677 425.532 344.652 429.349 343.509L435.009 341.822V324.579" fill="white"/>
<path d="M414.689 335.463C414.681 335.562 412.92 335.472 410.831 334.912C408.733 334.361 407.153 333.579 407.195 333.489C407.236 333.39 408.856 334.015 410.921 334.55C412.986 335.101 414.697 335.356 414.689 335.463Z" fill="#050505"/>
<path d="M414.162 338.943C414.162 339.042 413.2 339.1 412.073 338.795C410.938 338.491 410.148 337.956 410.197 337.866C410.247 337.767 411.086 338.145 412.172 338.433C413.258 338.729 414.171 338.836 414.162 338.943Z" fill="#050505"/>
<path d="M416.877 322.86C416.91 322.893 416.483 323.378 415.734 324.086C414.977 324.793 413.875 325.731 412.501 326.537C411.119 327.344 409.728 327.796 408.708 328.002C407.688 328.207 407.038 328.224 407.038 328.183C407.005 328.051 409.613 327.804 412.32 326.217C413.669 325.435 414.771 324.538 415.569 323.889C416.351 323.239 416.844 322.819 416.877 322.86Z" fill="#050505"/>
<path d="M436.522 321.478L435.009 344.299L493.706 344.324C497.687 344.324 501.603 343.246 505.017 341.189C512.948 336.426 517.036 327.212 515.251 318.138C514.65 314.428 513.235 310.093 511.467 305.478L481.958 310.331L482.904 314.009L436.522 321.478Z" fill="#6FA8BB"/>
<path d="M496.494 312.1C496.494 312.116 496.289 312.157 495.902 312.24C495.466 312.314 494.898 312.421 494.191 312.544C492.653 312.799 490.505 313.161 487.873 313.597C482.493 314.453 475.138 315.621 467.01 316.921C458.874 318.163 451.511 319.29 446.123 320.121C443.482 320.507 441.327 320.82 439.789 321.042C439.073 321.141 438.497 321.215 438.061 321.272C437.666 321.322 437.46 321.338 437.452 321.322C437.452 321.305 437.658 321.264 438.044 321.182C438.48 321.108 439.048 321.001 439.756 320.878C441.294 320.623 443.441 320.261 446.074 319.825C451.454 318.969 458.808 317.801 466.936 316.501C475.072 315.259 482.427 314.132 487.815 313.309C490.456 312.922 492.611 312.61 494.15 312.388C494.866 312.289 495.441 312.215 495.877 312.157C496.281 312.1 496.486 312.083 496.494 312.1Z" fill="#263238"/>
<path d="M466.459 344.331C466.36 344.315 466.813 342.686 466.87 339.996C466.87 339.321 466.887 338.589 466.788 337.808C466.747 337.018 466.582 336.195 466.426 335.323C466.048 333.596 465.431 331.736 464.518 329.91C463.596 328.084 462.444 326.496 461.309 325.139C461.013 324.81 460.725 324.489 460.445 324.176C460.157 323.864 459.853 323.6 459.573 323.321C459.022 322.753 458.438 322.301 457.928 321.864C455.83 320.178 454.341 319.396 454.391 319.322C454.407 319.298 454.777 319.487 455.444 319.857C455.773 320.038 456.184 320.26 456.628 320.573C457.064 320.886 457.607 321.19 458.125 321.634C458.652 322.062 459.252 322.506 459.82 323.066C460.108 323.345 460.421 323.609 460.717 323.921C461.005 324.234 461.301 324.563 461.605 324.892C462.782 326.257 463.958 327.862 464.896 329.729C465.826 331.597 466.443 333.497 466.813 335.257C466.961 336.146 467.117 336.993 467.142 337.791C467.224 338.589 467.191 339.338 467.175 340.021C467.183 340.703 467.06 341.312 467.01 341.847C466.961 342.382 466.854 342.842 466.772 343.213C466.591 343.936 466.484 344.34 466.459 344.331Z" fill="#FAFAFA"/>
<path d="M502.187 342.613C502.187 342.613 501.2 342.654 499.464 342.284C498.609 342.078 497.547 341.782 496.42 341.214C495.293 340.646 494.076 339.832 492.99 338.656C491.912 337.487 490.958 335.949 490.464 334.131C490.234 333.218 490.045 332.255 490.028 331.26C489.962 330.265 490.053 329.22 490.275 328.183C490.505 327.147 490.884 326.11 491.492 325.164C492.085 324.218 492.932 323.379 493.96 322.819C494.981 322.252 496.182 321.931 497.399 322.03C498.617 322.112 499.826 322.721 500.624 323.7C501.422 324.662 501.874 325.929 501.702 327.171C501.537 328.43 500.682 329.458 499.678 330.059C497.621 331.285 495.244 331.268 493.187 330.947C488.983 330.248 485.709 327.739 484.006 325.065C482.246 322.383 481.802 319.734 481.752 317.982C481.703 316.205 481.983 315.251 481.983 315.251C482.04 315.259 481.81 316.222 481.917 317.974C482.024 319.702 482.501 322.293 484.261 324.901C485.964 327.484 489.173 329.903 493.253 330.561C495.252 330.865 497.555 330.849 499.456 329.705C500.377 329.146 501.134 328.216 501.274 327.114C501.422 326.02 501.019 324.86 500.287 323.979C499.555 323.083 498.477 322.548 497.358 322.466C496.239 322.367 495.112 322.671 494.158 323.198C492.2 324.259 491.089 326.308 490.662 328.282C490.439 329.277 490.349 330.289 490.407 331.26C490.415 332.231 490.588 333.169 490.81 334.049C491.27 335.817 492.184 337.315 493.212 338.466C494.257 339.626 495.433 340.433 496.527 341.008C497.63 341.584 498.658 341.897 499.505 342.135C501.208 342.539 502.195 342.555 502.187 342.613Z" fill="#FAFAFA"/>
<path d="M269.35 94.0049H122.348C104.456 94.0049 89.9521 108.508 89.9521 126.401V178.788H58.2385L89.9603 210.51V246.115C89.9603 264.008 104.464 278.511 122.357 278.511H269.358C287.251 278.511 301.754 264.008 301.754 246.115V126.401C301.746 108.508 287.242 94.0049 269.35 94.0049Z" fill="#A1CDCD"/>
<path d="M209.295 99.541C208.366 101.943 209.962 104.576 211.755 106.427C213.548 108.286 215.712 110.046 216.28 112.564C216.749 114.678 215.967 116.874 216.156 119.03C216.354 121.235 217.538 123.217 218.213 125.323C219.439 129.14 218.945 133.311 217.851 137.17C216.954 140.337 215.63 143.446 213.442 145.898C211.253 148.349 208.102 150.085 204.82 150.028C203.89 150.011 202.879 149.806 202.27 149.106C201.743 148.498 201.628 147.642 201.529 146.844C199.646 130.3 199.646 113.543 201.521 96.999" fill="#263238"/>
<path d="M207.56 152.924C214.717 152.611 221.331 159.464 220.763 166.605C228.011 168.365 233.128 176.345 231.713 183.667C231.244 186.085 230.174 188.389 230.026 190.84C229.862 193.522 230.816 196.122 231.334 198.762C232.272 203.526 231.762 208.56 229.903 213.044C228.776 215.767 226.67 218.58 223.725 218.663C221.726 218.72 219.875 217.42 218.756 215.759C217.645 214.097 217.152 212.098 216.757 210.14C215.482 203.715 215.095 197.109 213.335 190.799C211.574 184.489 208.144 178.27 202.434 175.053C199.284 173.276 195.499 172.437 192.99 169.821C190.366 167.082 189.765 162.746 191.139 159.209C192.513 155.672 195.639 152.973 199.201 151.682" fill="#263238"/>
<path d="M158.019 105.44C157.929 102.38 160.758 100.019 163.605 98.8997C166.451 97.7809 169.619 97.3531 172.152 95.6502C174.398 94.1365 175.912 91.7755 177.812 89.8505C182.477 85.1202 189.765 83.1623 196.174 84.9063C202.583 86.6586 207.864 92.047 209.485 98.4884C210.579 102.84 209.83 107.99 206.4 110.886C202.418 114.242 196.511 113.502 191.403 112.457C186.294 111.412 180.519 110.384 176.257 113.379C173.691 115.188 172.21 118.125 170.639 120.848C169.067 123.571 167.093 126.352 164.123 127.372C161.153 128.392 157.114 126.632 156.999 123.489" fill="#263238"/>
<path d="M170.079 106.065C167.438 106.353 165.456 108.608 165.513 111.265L168.565 180.368C168.697 188.529 180.626 193.119 189.362 192.914C198.189 192.708 198.469 188.381 198.584 180.615C198.765 167.642 198.757 162.771 198.757 162.845C198.757 162.845 209.904 160.97 212.183 146.417C213.318 139.178 212.923 127.315 212.29 117.624C211.722 108.895 205.914 98.2009 197.219 99.1387L170.079 106.065Z" fill="white"/>
<path d="M209.781 126.763C209.822 127.751 209.016 128.59 207.987 128.647C206.959 128.705 206.095 127.956 206.062 126.969C206.029 125.982 206.827 125.143 207.856 125.085C208.884 125.028 209.748 125.776 209.781 126.763Z" fill="#263238"/>
<path d="M209.731 123.802C209.501 124.048 208.086 123.004 206.079 123.012C204.071 122.995 202.599 124.032 202.385 123.785C202.278 123.678 202.517 123.234 203.15 122.765C203.784 122.296 204.853 121.844 206.112 121.844C207.362 121.844 208.415 122.304 209.024 122.773C209.633 123.251 209.847 123.695 209.731 123.802Z" fill="#263238"/>
<path d="M190.489 126.763C190.531 127.751 189.724 128.59 188.696 128.647C187.668 128.705 186.804 127.956 186.771 126.969C186.738 125.982 187.536 125.143 188.564 125.085C189.593 125.028 190.457 125.776 190.489 126.763Z" fill="#263238"/>
<path d="M189.996 124.222C189.765 124.468 188.35 123.424 186.343 123.432C184.336 123.415 182.863 124.452 182.649 124.205C182.542 124.098 182.773 123.654 183.414 123.185C184.048 122.716 185.117 122.264 186.368 122.264C187.618 122.272 188.671 122.724 189.28 123.193C189.897 123.67 190.111 124.115 189.996 124.222Z" fill="#263238"/>
<path d="M197.317 139.095C197.309 138.98 198.551 138.766 200.575 138.503C201.085 138.445 201.571 138.346 201.661 137.993C201.784 137.622 201.562 137.071 201.316 136.471C200.83 135.228 200.32 133.929 199.794 132.571C197.679 127.018 196.141 122.453 196.363 122.37C196.585 122.288 198.486 126.722 200.608 132.275C201.118 133.641 201.603 134.949 202.072 136.199C202.27 136.783 202.599 137.441 202.344 138.215C202.204 138.601 201.834 138.873 201.505 138.963C201.176 139.062 200.888 139.07 200.633 139.087C198.584 139.194 197.326 139.21 197.317 139.095Z" fill="#263238"/>
<path d="M198.757 162.853C198.757 162.853 188.967 163.503 179.26 157.695C179.26 157.695 184.007 167.682 198.568 166.284L198.757 162.853Z" fill="#E6D0C5"/>
<path d="M196.478 143.932C195.754 142.978 194.487 142.46 193.229 142.6C192.357 142.698 191.476 143.118 190.95 143.825C190.423 144.533 190.317 145.545 190.794 146.219C191.337 146.976 192.472 147.157 193.426 146.878C194.38 146.606 195.203 145.973 195.993 145.339C196.207 145.166 196.429 144.985 196.569 144.747C196.7 144.508 196.733 144.196 196.56 143.998" fill="#EB996E"/>
<path d="M191.411 140.494C191.74 140.478 191.748 142.658 193.616 144.196C195.483 145.743 197.803 145.496 197.819 145.8C197.852 145.94 197.301 146.228 196.322 146.253C195.36 146.286 193.953 145.981 192.809 145.035C191.666 144.089 191.18 142.822 191.098 141.934C191.016 141.029 191.263 140.486 191.411 140.494Z" fill="#263238"/>
<path d="M190.892 120.701C190.695 121.244 188.688 120.988 186.335 121.285C183.974 121.523 182.073 122.222 181.761 121.729C181.621 121.499 181.95 120.98 182.715 120.454C183.472 119.927 184.69 119.417 186.105 119.261C187.52 119.105 188.811 119.327 189.675 119.672C190.539 120.018 190.975 120.446 190.892 120.701Z" fill="#263238"/>
<path d="M208.983 117.994C208.629 118.455 207.247 117.978 205.585 117.961C203.923 117.887 202.517 118.274 202.188 117.797C202.048 117.566 202.27 117.106 202.879 116.678C203.487 116.25 204.499 115.896 205.643 115.921C206.786 115.954 207.773 116.365 208.358 116.834C208.942 117.303 209.131 117.772 208.983 117.994Z" fill="#263238"/>
<path d="M159.919 153.927C163.918 154.733 168.278 153.508 171.264 150.727C174.25 147.947 175.797 143.693 175.287 139.646C174.834 136.076 172.909 132.439 174.143 129.058C175.78 124.583 182.049 123.209 183.711 118.75C184.681 116.159 183.809 113.123 184.904 110.581C185.932 108.196 188.449 106.814 190.893 105.933C193.336 105.045 195.96 104.436 198.017 102.84C200.073 101.244 201.357 98.2249 200.024 95.9873C189.173 97.2871 178.47 99.8867 168.236 103.712C165.859 104.601 163.366 105.662 161.968 107.776C160.479 110.005 160.553 112.893 160.676 115.575C161.301 128.63 159.311 140.863 159.919 153.927Z" fill="#263238"/>
<path d="M156.456 149.831C156.456 149.839 156.374 149.814 156.217 149.757C156.061 149.707 155.839 149.6 155.551 149.436C155 149.107 154.259 148.424 153.733 147.289C153.215 146.17 152.91 144.607 153.256 142.871C153.601 141.135 154.605 139.35 155.897 137.589C157.172 135.812 158.784 134.011 159.886 131.716C160.429 130.572 160.833 129.305 160.849 127.964C160.874 126.623 160.446 125.282 159.993 123.917C159.533 122.559 159.08 121.079 159.138 119.516C159.204 117.969 159.648 116.406 160.462 115.024C161.269 113.642 162.428 112.408 163.86 111.569C165.291 110.68 167.002 110.376 168.656 110.203C170.318 110.014 171.971 109.923 173.452 109.364C174.949 108.829 176.109 107.686 176.825 106.328C177.557 104.971 177.977 103.482 178.421 102.034C178.857 100.586 179.375 99.1712 180.058 97.8796C181.399 95.2882 183.291 93.1246 185.512 91.7508C187.734 90.3769 190.21 89.8175 192.423 89.9574C194.644 90.0972 196.569 90.9857 197.86 92.1868C199.16 93.3797 199.925 94.7453 200.296 95.9217C200.674 97.0981 200.69 98.077 200.633 98.7187C200.575 99.3604 200.46 99.6895 200.46 99.6895C200.435 99.6812 200.518 99.3522 200.542 98.7187C200.575 98.0853 200.526 97.1228 200.131 95.9793C199.744 94.8358 198.979 93.5195 197.696 92.376C196.429 91.2243 194.562 90.3934 192.406 90.27C190.259 90.1466 187.857 90.7142 185.71 92.0634C183.563 93.4126 181.72 95.535 180.42 98.077C179.754 99.3439 179.252 100.726 178.824 102.174C178.38 103.614 177.969 105.127 177.203 106.542C176.825 107.25 176.34 107.924 175.731 108.484C175.13 109.051 174.39 109.479 173.608 109.775C172.037 110.359 170.351 110.45 168.705 110.639C167.06 110.812 165.439 111.108 164.082 111.947C162.716 112.745 161.606 113.921 160.824 115.246C160.043 116.57 159.607 118.059 159.541 119.54C159.492 121.021 159.903 122.436 160.364 123.802C160.816 125.167 161.252 126.558 161.219 127.981C161.194 129.387 160.767 130.712 160.199 131.88C159.056 134.233 157.41 136.026 156.127 137.779C154.827 139.514 153.832 141.25 153.47 142.937C153.108 144.615 153.379 146.145 153.865 147.239C154.35 148.35 155.049 149.033 155.576 149.378C156.127 149.715 156.464 149.798 156.456 149.831Z" fill="#455A64"/>
<path d="M198.732 86.3957C198.741 86.371 198.946 86.4204 199.3 86.5685C199.654 86.7165 200.139 86.9798 200.674 87.3994C201.743 88.222 203.002 89.818 203.323 91.924C203.635 94.0382 202.895 95.9303 202.114 97.0245C201.719 97.5839 201.332 97.9788 201.044 98.2256C200.748 98.4641 200.567 98.5711 200.55 98.5546C200.493 98.497 201.167 97.987 201.859 96.8599C202.55 95.7658 203.191 93.9642 202.895 91.9816C202.599 90.0072 201.455 88.4688 200.476 87.6215C199.497 86.7577 198.7 86.4697 198.732 86.3957Z" fill="#455A64"/>
<path d="M230.964 186.241C230.915 186.225 231.219 185.715 231.384 184.703C231.557 183.699 231.474 182.161 230.668 180.515C229.887 178.862 228.25 177.291 226.078 176.238C224.992 175.703 223.783 175.283 222.507 174.962C221.224 174.633 219.867 174.354 218.501 173.918C217.144 173.482 215.819 172.889 214.824 171.91C213.795 170.964 213.302 169.623 213.088 168.414C212.866 167.188 212.792 166.028 212.52 164.992C212.257 163.955 211.772 163.075 211.196 162.376C210.036 160.961 208.637 160.294 207.675 159.982C206.688 159.686 206.112 159.686 206.112 159.644C206.112 159.628 206.26 159.628 206.531 159.636C206.803 159.644 207.206 159.702 207.716 159.825C208.711 160.097 210.184 160.739 211.418 162.187C212.027 162.902 212.561 163.832 212.849 164.91C213.146 165.987 213.236 167.155 213.466 168.348C213.689 169.525 214.141 170.734 215.103 171.614C216.025 172.519 217.292 173.095 218.616 173.515C219.949 173.942 221.298 174.222 222.598 174.559C223.898 174.897 225.132 175.333 226.242 175.884C228.472 176.978 230.158 178.648 230.931 180.384C231.729 182.111 231.762 183.716 231.532 184.736C231.425 185.254 231.277 185.632 231.162 185.879C231.047 186.118 230.981 186.241 230.964 186.241Z" fill="#455A64"/>
<path d="M167.685 160.476C160.314 158.502 153.947 151.287 151.364 144.105C148.781 136.932 148.781 129.083 149.439 121.482C149.916 115.97 150.887 110.154 154.539 106C160.051 99.7474 166.015 96.5555 174.349 96.8188" fill="#263238"/>
<path d="M210.71 176.517L203.841 174.79C205.454 173.506 205.906 171.869 205.207 170.002C204.384 167.814 202.278 166.374 199.958 166.111L168.631 162.573C167.513 162.45 166.418 163.067 166.007 164.12C164.617 167.649 164.567 170.553 165.867 172.84H165.719L159.689 174.041L149.463 264.32L216.494 261.185L210.71 176.517Z" fill="#F3B150"/>
<path d="M200.855 175.135C200.855 175.168 200.411 175.25 199.596 175.373C198.782 175.505 197.597 175.653 196.133 175.793C193.196 176.081 189.116 176.262 184.624 176.04C180.124 175.809 176.085 175.225 173.189 174.649C171.741 174.361 170.581 174.098 169.783 173.884C168.985 173.679 168.549 173.547 168.557 173.522C168.565 173.489 169.018 173.563 169.824 173.728C170.63 173.893 171.799 174.106 173.246 174.353C176.142 174.847 180.165 175.39 184.648 175.612C189.124 175.834 193.188 175.694 196.116 175.488C197.581 175.39 198.765 175.283 199.588 175.201C200.394 175.135 200.847 175.11 200.855 175.135Z" fill="#263238"/>
<path d="M170.556 189.482C170.457 189.416 171.51 187.672 172.901 185.583C174.299 183.493 175.509 181.856 175.607 181.922C175.706 181.988 174.653 183.732 173.263 185.821C171.864 187.911 170.655 189.548 170.556 189.482Z" fill="#E0E0E0"/>
<path d="M192.159 191.013C192.069 191.087 190.736 189.581 189.181 187.648C187.626 185.715 186.45 184.094 186.541 184.02C186.631 183.946 187.964 185.452 189.519 187.385C191.073 189.31 192.258 190.939 192.159 191.013Z" fill="#E0E0E0"/>
<path d="M182.123 202.488C182.008 202.513 181.555 200.498 181.111 197.997C180.667 195.496 180.404 193.456 180.519 193.431C180.634 193.406 181.086 195.422 181.531 197.923C181.975 200.423 182.238 202.464 182.123 202.488Z" fill="#E0E0E0"/>
<path d="M198.617 203.196C198.7 203.279 196.997 205.097 194.808 207.244C192.62 209.399 190.786 211.069 190.703 210.987C190.621 210.905 192.324 209.087 194.512 206.939C196.7 204.792 198.535 203.114 198.617 203.196Z" fill="#E0E0E0"/>
<path d="M176.496 218.58C176.447 218.67 174.398 217.428 172.399 215.297C170.384 213.175 169.265 211.069 169.363 211.02C169.47 210.946 170.737 212.92 172.712 215.001C174.678 217.099 176.578 218.473 176.496 218.58Z" fill="#E0E0E0"/>
<path d="M183.604 230.459C183.645 230.583 181.728 231.191 179.556 232.343C177.376 233.487 175.797 234.721 175.714 234.622C175.64 234.548 177.129 233.133 179.359 231.965C181.572 230.78 183.579 230.352 183.604 230.459Z" fill="#E0E0E0"/>
<path d="M195.162 231.224C195.121 231.257 194.611 230.731 193.854 229.817C193.097 228.904 192.085 227.613 191.032 226.14C189.979 224.668 189.083 223.294 188.474 222.282C187.857 221.27 187.52 220.62 187.569 220.587C187.618 220.554 188.054 221.147 188.729 222.117C189.502 223.22 190.399 224.487 191.386 225.893C192.398 227.284 193.311 228.542 194.101 229.628C194.792 230.591 195.211 231.191 195.162 231.224Z" fill="#E0E0E0"/>
<path d="M196.322 241.359C196.347 241.474 194.142 242.058 191.37 242.511C188.597 242.971 186.327 243.128 186.31 243.013C186.294 242.889 188.54 242.552 191.295 242.091C194.06 241.639 196.297 241.244 196.322 241.359Z" fill="#E0E0E0"/>
<path d="M177.607 173.86C177.549 173.811 177.944 173.366 178.281 172.494C178.627 171.631 178.841 170.331 178.635 168.924C178.429 167.509 177.936 166.291 177.574 165.419C177.203 164.547 176.965 164.004 177.022 163.972C177.072 163.947 177.409 164.44 177.853 165.288C178.289 166.143 178.849 167.377 179.063 168.866C179.277 170.355 178.997 171.737 178.561 172.618C178.133 173.506 177.639 173.893 177.607 173.86Z" fill="#E0E0E0"/>
<path d="M190.127 167.098C190.218 167.04 190.991 168.167 191.361 169.796C191.748 171.417 191.559 172.774 191.452 172.758C191.328 172.758 191.312 171.441 190.942 169.895C190.588 168.34 190.012 167.164 190.127 167.098Z" fill="#E0E0E0"/>
<path d="M246.603 231.422L277.79 176.657L281.55 167.156C281.55 167.156 291.265 146.252 291.948 144.129C292.73 141.67 294.103 141.456 294.992 141.809C296.374 142.352 296.818 144.417 296.209 146.54C295.996 147.272 292.22 158.756 292.22 158.756C292.22 158.756 293.05 157.975 295.444 156.362C297.838 154.75 302.231 154.799 306.287 156.247C310.343 157.695 311.355 158.46 310.869 160.056C310.672 160.698 310.145 161.101 309.569 161.348C308.623 161.751 307.538 161.742 306.567 161.413C300.035 159.184 297.139 162.129 297.139 162.129L296.646 163.371C296.646 163.371 301.557 161.8 304.346 164.021C304.798 164.383 305.127 164.786 305.366 165.214C307.102 165.79 308.516 167.295 308.944 169.081C309.389 170.94 308.763 173.013 307.365 174.313C306.698 174.93 305.687 175.382 304.889 174.938C304.469 174.699 304.206 174.272 303.951 173.86C303.819 173.646 303.671 173.424 303.506 173.243L301.639 176.534C301.639 176.534 297.057 183.699 295.412 187.039L273.948 244.231C270.97 252.161 262.077 256.11 254.196 252.992C245.624 249.611 242.046 239.426 246.603 231.422Z" fill="white"/>
<path d="M279.929 176.469C281.032 177.184 282.553 176.699 283.541 175.835C284.536 174.979 285.202 173.803 286.132 172.873C288.913 170.101 293.561 169.838 296.201 166.934C296.572 166.531 296.901 165.914 296.58 165.47C296.284 165.058 295.667 165.108 295.173 165.206C290.92 166.045 286.667 166.893 282.414 167.732" fill="white"/>
<path d="M282.414 167.74C282.405 167.691 282.882 167.542 283.763 167.329C284.643 167.106 285.918 166.819 287.506 166.465C289.151 166.111 291.027 165.716 293.067 165.28C293.593 165.173 294.128 165.058 294.679 164.951C295.198 164.885 295.848 164.564 296.629 165.017C297.008 165.255 297.156 165.798 297.049 166.177C296.958 166.563 296.769 166.851 296.547 167.115C296.111 167.592 295.642 168.02 295.107 168.382C292.985 169.854 290.657 170.455 288.797 171.425C287.86 171.894 287.029 172.437 286.379 173.079C285.721 173.712 285.202 174.436 284.659 175.053C283.623 176.353 282.233 176.995 281.278 176.954C280.299 176.937 279.896 176.477 279.929 176.468C279.962 176.403 280.39 176.74 281.262 176.666C282.134 176.6 283.302 175.999 284.256 174.716C284.758 174.099 285.252 173.35 285.943 172.643C286.634 171.927 287.514 171.327 288.485 170.825C290.402 169.788 292.721 169.147 294.679 167.781C295.165 167.452 295.601 167.041 295.979 166.638C296.333 166.234 296.465 165.741 296.201 165.609C295.946 165.42 295.354 165.535 294.811 165.65C294.26 165.757 293.725 165.856 293.199 165.955C291.142 166.333 289.258 166.679 287.605 166.983C286.009 167.263 284.717 167.477 283.82 167.616C282.924 167.748 282.422 167.797 282.414 167.74Z" fill="black"/>
<path d="M296.465 163.396C296.547 163.445 296.72 162.376 297.929 161.422C298.521 160.953 299.393 160.632 300.397 160.615C301.4 160.583 302.503 160.821 303.646 161.167C304.79 161.504 305.917 161.841 306.986 161.924C308.056 162.006 309.043 161.866 309.792 161.488C310.557 161.117 310.919 160.443 310.984 159.99C311.059 159.538 310.984 159.291 310.968 159.291C310.919 159.291 310.927 159.538 310.803 159.949C310.68 160.352 310.335 160.887 309.644 161.183C308.961 161.479 308.031 161.578 307.027 161.479C306.016 161.381 304.938 161.043 303.778 160.698C302.626 160.352 301.458 160.114 300.372 160.171C299.294 160.212 298.324 160.616 297.715 161.158C297.09 161.693 296.761 162.294 296.604 162.713C296.448 163.141 296.432 163.388 296.465 163.396Z" fill="black"/>
<path d="M296.423 145.717C296.358 145.701 296.086 146.581 295.658 147.996C295.173 149.567 294.597 151.451 293.955 153.524C293.281 155.589 292.68 157.456 292.17 159.028C291.709 160.434 291.422 161.306 291.487 161.331C291.545 161.356 291.94 160.525 292.491 159.143C293.042 157.761 293.733 155.828 294.416 153.672C295.099 151.517 295.642 149.534 295.987 148.095C296.325 146.647 296.481 145.733 296.423 145.717Z" fill="black"/>
<path d="M298.225 166.819C298.233 166.851 298.505 166.819 298.974 166.769C299.426 166.736 300.191 166.695 300.767 167.255C301.047 167.518 301.154 167.937 301.055 168.398C300.973 168.859 300.718 169.328 300.471 169.854C300.224 170.364 299.969 171.031 300.167 171.746C300.372 172.429 300.94 172.98 301.631 173.219C302.338 173.466 303.095 173.326 303.679 173.013C304.272 172.692 304.749 172.24 305.045 171.689C305.571 170.619 305.794 169.599 305.942 168.727C306.073 167.855 306.065 167.131 305.966 166.646C305.859 166.152 305.695 165.922 305.678 165.938C305.637 165.955 305.736 166.202 305.785 166.67C305.826 167.139 305.785 167.83 305.613 168.67C305.432 169.492 305.16 170.504 304.658 171.475C304.165 172.363 302.931 173.145 301.787 172.766C301.228 172.577 300.775 172.125 300.619 171.615C300.463 171.096 300.644 170.545 300.874 170.043C301.096 169.533 301.368 169.023 301.45 168.472C301.557 167.937 301.384 167.329 301.006 167.016C300.249 166.374 299.402 166.514 298.949 166.596C298.472 166.695 298.225 166.794 298.225 166.819Z" fill="black"/>
<path d="M303.605 172.602C303.581 172.594 303.441 172.816 303.457 173.268C303.474 173.704 303.704 174.412 304.411 174.881C305.102 175.341 306.213 175.424 307.184 174.913C308.155 174.403 308.903 173.408 309.282 172.248C309.66 171.08 309.619 169.862 309.282 168.859C308.953 167.847 308.344 167.074 307.76 166.555C307.167 166.029 306.583 165.749 306.172 165.601C305.761 165.453 305.514 165.428 305.506 165.461C305.464 165.543 306.443 165.757 307.521 166.81C308.048 167.329 308.582 168.069 308.854 168.999C309.142 169.92 309.158 171.039 308.821 172.108C308.484 173.169 307.801 174.074 306.97 174.535C306.147 174.996 305.193 174.963 304.584 174.601C303.967 174.247 303.704 173.647 303.638 173.26C303.581 172.849 303.646 172.618 303.605 172.602Z" fill="black"/>
<path d="M293.223 177.76C293.24 177.719 292.853 177.505 292.121 177.422C291.397 177.34 290.303 177.447 289.258 178.105L289.612 178.344C289.719 177.842 289.801 177.299 289.85 176.731C290.13 173.556 289.118 171.104 289.02 171.17C288.88 171.203 289.653 173.638 289.373 176.69C289.324 177.241 289.25 177.768 289.168 178.253L289.069 178.788L289.521 178.492C290.443 177.875 291.438 177.719 292.113 177.71C292.796 177.702 293.207 177.817 293.223 177.76Z" fill="black"/>
<path d="M299.714 158.246C299.591 158.263 299.772 159.234 300.644 159.99C301.507 160.755 302.495 160.805 302.495 160.681C302.519 160.542 301.705 160.303 300.956 159.637C300.191 158.97 299.846 158.197 299.714 158.246Z" fill="black"/>
<path d="M202.352 276.866L234.962 277.187L229.475 253.519L231.31 257.986C234.773 266.418 242.983 271.93 252.107 271.93C262.423 271.93 269.547 264.254 273.915 254.909C284.116 233.059 293.947 197.874 293.947 197.874L274.055 180.401C259.667 207.622 246.134 231.274 246.134 231.274C246.134 231.274 242.226 219.403 239.215 208.807C236.196 198.219 236.221 192.65 231.581 187.36C224.457 179.241 214.297 177.217 204.861 174.79L204.507 218.753L202.352 276.866Z" fill="#6FA8BB"/>
<path d="M165.053 244.124L224.449 255.691L227.345 278.511H136.276C125.713 278.651 117.314 269.692 118.145 259.162C119.453 242.528 120.876 222.044 121.962 213.381C122.801 206.627 125.499 199.643 128.691 193.629C133.29 184.975 148.608 173.853 162.042 173.31L164.584 229.884" fill="#6FA8BB"/>
<g opacity="0.4">
<path d="M202.352 276.866L234.962 277.187L229.475 253.519L231.31 257.986C234.773 266.418 242.983 271.93 252.107 271.93C262.423 271.93 269.547 264.254 273.915 254.909C284.116 233.059 293.947 197.874 293.947 197.874L274.055 180.401C259.667 207.622 246.134 231.274 246.134 231.274C246.134 231.274 242.226 219.403 239.215 208.807C236.196 198.219 236.221 192.65 231.581 187.36C224.457 179.241 214.297 177.217 204.861 174.79L204.507 218.753L202.352 276.866Z" fill="black"/>
<path d="M165.053 244.124L218.624 253.955C220.854 254.366 222.622 256.085 223.091 258.306L227.345 278.519H136.276C125.713 278.659 117.314 269.7 118.145 259.17C119.453 242.536 120.876 222.052 121.962 213.389C122.801 206.635 125.499 199.651 128.691 193.637C133.29 184.983 148.608 173.86 162.042 173.317L164.584 229.892" fill="black"/>
</g>
<path d="M153.741 242.471C153.725 242.471 153.716 242.282 153.716 241.928C153.716 241.525 153.716 241.015 153.725 240.373C153.733 238.966 153.741 237.025 153.758 234.647C153.766 229.818 153.675 223.147 153.297 215.784C153.116 212.107 152.869 208.602 152.614 205.418C152.376 202.235 152.096 199.372 151.421 197.06C150.771 194.748 149.727 193.054 148.805 192.099C147.884 191.129 147.201 190.775 147.242 190.726C147.242 190.726 147.95 191.03 148.929 191.984C149.908 192.93 151.026 194.641 151.717 196.978C152.441 199.314 152.754 202.21 153.017 205.385C153.297 208.569 153.544 212.082 153.733 215.767C154.111 223.138 154.152 229.818 154.07 234.656C154.029 237.074 153.963 239.032 153.897 240.381C153.865 241.023 153.832 241.533 153.815 241.936C153.782 242.282 153.758 242.471 153.741 242.471Z" fill="#263238"/>
<path d="M223.297 257.303C223.248 257.353 222.705 256.456 221.134 255.551C220.352 255.107 219.332 254.687 218.098 254.342C216.864 253.988 215.432 253.717 213.845 253.396C207.502 252.104 198.732 250.303 189.025 248.484C179.309 246.666 170.482 245.202 164.09 244.182C160.923 243.672 158.348 243.261 156.514 242.964C155.65 242.816 154.967 242.701 154.457 242.619C153.988 242.537 153.741 242.487 153.741 242.471C153.741 242.454 153.996 242.479 154.465 242.537C154.975 242.602 155.666 242.693 156.53 242.8C158.323 243.038 160.923 243.4 164.123 243.878C170.532 244.824 179.367 246.239 189.091 248.065C198.807 249.883 207.568 251.726 213.894 253.1C215.474 253.445 216.913 253.741 218.155 254.111C219.398 254.482 220.426 254.934 221.208 255.411C221.989 255.88 222.516 256.374 222.836 256.728C223.009 256.9 223.108 257.057 223.182 257.147C223.264 257.246 223.305 257.295 223.297 257.303Z" fill="#263238"/>
<path d="M153.922 242.47C153.939 242.544 152.828 242.807 151.133 243.49C150.286 243.828 149.307 244.305 148.262 244.905C147.226 245.522 146.131 246.271 145.062 247.159C144.001 248.064 143.079 249.01 142.29 249.932C141.516 250.861 140.875 251.742 140.398 252.515C139.427 254.061 138.983 255.114 138.909 255.082C138.884 255.073 138.974 254.802 139.164 254.316C139.345 253.831 139.674 253.157 140.134 252.35C140.587 251.544 141.212 250.623 141.985 249.668C142.767 248.722 143.705 247.743 144.782 246.822C145.876 245.917 147.003 245.16 148.065 244.552C149.142 243.959 150.146 243.499 151.026 243.194C151.898 242.882 152.622 242.676 153.132 242.577C153.634 242.487 153.914 242.437 153.922 242.47Z" fill="#263238"/>
<path d="M230.619 256.686C230.602 256.686 230.561 256.497 230.495 256.119C230.43 255.699 230.339 255.156 230.224 254.481C229.994 253.058 229.697 251.002 229.352 248.451C228.661 243.359 227.822 236.301 227.114 228.485C226.415 220.67 225.979 213.571 225.757 208.437C225.642 205.871 225.568 203.789 225.543 202.35C225.535 201.667 225.527 201.116 225.518 200.696C225.518 200.318 225.527 200.12 225.535 200.12C225.551 200.12 225.576 200.318 225.601 200.696C225.625 201.116 225.666 201.667 225.708 202.35C225.79 203.83 225.913 205.895 226.061 208.429C226.366 213.562 226.843 220.645 227.542 228.453C228.25 236.26 229.039 243.318 229.656 248.418C229.961 250.936 230.216 252.984 230.397 254.457C230.479 255.14 230.537 255.683 230.586 256.102C230.627 256.489 230.635 256.686 230.619 256.686Z" fill="#263238"/>
<path d="M250.313 247.842C250.288 247.859 250.124 247.669 249.836 247.299C249.548 246.937 249.17 246.378 248.742 245.67C247.886 244.247 246.924 242.133 246.34 239.657C245.764 237.172 245.69 234.852 245.821 233.199C245.887 232.368 245.978 231.702 246.076 231.249C246.167 230.797 246.233 230.55 246.266 230.55C246.34 230.558 246.175 231.57 246.126 233.207C246.068 234.844 246.192 237.115 246.751 239.55C247.327 241.985 248.224 244.074 249.005 245.514C249.778 246.962 250.379 247.793 250.313 247.842Z" fill="#263238"/>
<path d="M153.503 211.901C153.503 211.917 153.396 211.934 153.198 211.966C152.993 211.983 152.696 212.049 152.301 212.049C151.52 212.098 150.385 212.049 149.003 211.794C147.621 211.539 146.025 211.037 144.322 210.329C142.619 209.622 140.809 208.717 138.909 207.771C137.016 206.833 135.165 206.035 133.43 205.476C131.694 204.924 130.073 204.604 128.699 204.554C125.935 204.414 124.306 205.163 124.29 205.056C124.282 205.04 124.38 204.999 124.57 204.924C124.767 204.859 125.039 204.727 125.425 204.637C126.174 204.414 127.309 204.233 128.716 204.258C130.123 204.275 131.784 204.571 133.553 205.105C135.322 205.648 137.197 206.446 139.098 207.392C140.998 208.339 142.792 209.252 144.47 209.967C146.148 210.683 147.711 211.218 149.052 211.498C151.767 212.098 153.503 211.802 153.503 211.901Z" fill="#FAFAFA"/>
<path d="M163.671 209.901C163.687 210.016 161.523 210.485 158.833 210.946C156.143 211.407 153.939 211.678 153.922 211.563C153.906 211.448 156.069 210.979 158.759 210.518C161.449 210.058 163.654 209.778 163.671 209.901Z" fill="#FAFAFA"/>
<path d="M153.132 227.556C153.141 227.58 152.713 227.77 151.939 228.074C151.158 228.378 150.014 228.79 148.591 229.25C145.745 230.18 141.73 231.266 137.222 232.064C134.968 232.459 132.804 232.747 130.83 232.944C128.864 233.15 127.054 233.257 125.549 233.084C124.043 232.936 122.858 232.516 122.118 232.105C121.748 231.899 121.476 231.718 121.304 231.578C121.131 231.439 121.049 231.365 121.057 231.348C121.082 231.315 121.452 231.603 122.2 231.957C122.949 232.311 124.101 232.681 125.581 232.78C127.062 232.903 128.831 232.771 130.789 232.541C132.755 232.327 134.902 232.023 137.148 231.636C141.64 230.846 145.638 229.81 148.501 228.954C149.932 228.535 151.084 228.164 151.882 227.909C152.68 227.663 153.124 227.531 153.132 227.556Z" fill="#FAFAFA"/>
<path d="M163.44 231.891C163.44 232.007 161.433 232.138 158.957 232.179C156.481 232.22 154.473 232.155 154.473 232.04C154.473 231.924 156.481 231.793 158.957 231.752C161.433 231.71 163.44 231.776 163.44 231.891Z" fill="#FAFAFA"/>
<path d="M121.106 269.372C121.09 269.372 121.123 269.216 121.197 268.936C121.287 268.607 121.394 268.195 121.526 267.702C121.6 267.43 121.682 267.134 121.773 266.813C121.88 266.493 122.011 266.155 122.151 265.785C122.439 265.053 122.71 264.189 123.171 263.309C123.385 262.856 123.607 262.387 123.837 261.902C124.076 261.417 124.38 260.94 124.668 260.43C125.219 259.393 125.952 258.381 126.692 257.287C128.255 255.173 130.18 252.993 132.459 250.977C134.771 248.995 137.197 247.399 139.501 246.14C140.677 245.556 141.788 244.972 142.89 244.569C143.433 244.355 143.951 244.124 144.47 243.952C144.988 243.787 145.482 243.631 145.959 243.483C146.897 243.154 147.785 242.997 148.558 242.816C148.945 242.734 149.299 242.644 149.636 242.586C149.965 242.545 150.269 242.504 150.549 242.463C151.059 242.397 151.479 242.347 151.816 242.306C152.104 242.273 152.26 242.265 152.26 242.282C152.26 242.298 152.112 242.331 151.824 242.389C151.487 242.454 151.076 242.528 150.574 242.627C150.294 242.677 149.998 242.726 149.669 242.784C149.34 242.849 148.986 242.956 148.608 243.047C147.851 243.252 146.971 243.425 146.049 243.771C145.58 243.927 145.095 244.092 144.585 244.264C144.075 244.437 143.573 244.684 143.03 244.898C141.944 245.309 140.858 245.901 139.69 246.485C137.411 247.752 135.026 249.34 132.739 251.298C130.485 253.289 128.576 255.436 127.005 257.517C126.264 258.587 125.532 259.582 124.973 260.602C124.685 261.104 124.372 261.573 124.134 262.05C123.895 262.527 123.665 262.996 123.443 263.432C122.974 264.304 122.677 265.143 122.373 265.867C122.225 266.229 122.077 266.567 121.962 266.879C121.863 267.192 121.764 267.488 121.682 267.751C121.518 268.237 121.386 268.64 121.279 268.961C121.18 269.232 121.123 269.372 121.106 269.372Z" fill="#FAFAFA"/>
<path d="M162.363 244.099C162.453 244.173 160.561 245.333 158.982 248.344C158.2 249.833 157.517 251.742 157.089 253.93C156.653 256.118 156.481 258.578 156.308 261.161C156.135 263.744 155.946 266.229 155.469 268.442C155 270.655 154.259 272.58 153.404 274.077C152.548 275.566 151.611 276.619 150.895 277.253C150.533 277.565 150.245 277.795 150.031 277.935C149.825 278.075 149.71 278.149 149.702 278.133C149.611 278.059 151.528 276.932 153.141 273.937C153.939 272.456 154.638 270.556 155.082 268.368C155.535 266.18 155.716 263.72 155.88 261.137C156.053 258.553 156.234 256.069 156.703 253.856C157.163 251.643 157.879 249.71 158.71 248.204C159.549 246.707 160.471 245.638 161.178 245.004C161.532 244.683 161.82 244.453 162.034 244.313C162.248 244.157 162.354 244.091 162.363 244.099Z" fill="#FAFAFA"/>
<path d="M176.405 278.643C176.29 278.643 176.422 271.552 176.71 262.815C176.998 254.07 177.327 246.995 177.442 246.995C177.557 246.995 177.425 254.086 177.137 262.831C176.85 271.568 176.52 278.651 176.405 278.643Z" fill="#FAFAFA"/>
<path d="M198.732 277.426C198.708 277.434 198.576 277.072 198.371 276.397C198.264 276.06 198.14 275.649 198.033 275.163C197.926 274.678 197.778 274.127 197.688 273.501C197.457 272.267 197.301 270.77 197.252 269.108C197.227 267.447 197.317 265.612 197.597 263.712C197.902 261.811 198.362 260.035 198.889 258.455C199.44 256.884 200.032 255.502 200.625 254.391C200.896 253.823 201.2 253.346 201.455 252.91C201.702 252.474 201.941 252.121 202.147 251.833C202.55 251.257 202.78 250.944 202.805 250.961C202.879 251.01 201.99 252.285 200.904 254.523C200.353 255.642 199.794 257.015 199.275 258.57C198.782 260.133 198.329 261.894 198.033 263.761C197.754 265.637 197.655 267.447 197.663 269.084C197.696 270.729 197.811 272.202 198.009 273.436C198.354 275.92 198.815 277.401 198.732 277.426Z" fill="#FAFAFA"/>
<path d="M160.816 186.505C160.783 186.579 159.516 186.003 157.377 185.312C155.247 184.621 152.227 183.88 148.822 183.576C145.416 183.28 142.314 183.477 140.093 183.79C137.872 184.094 136.523 184.432 136.498 184.358C136.49 184.333 136.819 184.226 137.428 184.053C138.037 183.88 138.925 183.683 140.044 183.486C142.265 183.099 145.408 182.844 148.855 183.148C152.301 183.461 155.345 184.259 157.468 185.024C158.529 185.411 159.376 185.756 159.944 186.036C160.52 186.315 160.832 186.472 160.816 186.505Z" fill="#FAFAFA"/>
<path d="M225.806 221.089C225.798 221.147 224.638 221.114 222.754 221.04C220.87 220.966 218.271 220.867 215.4 220.793C212.528 220.719 209.929 220.694 208.045 220.67C206.161 220.645 204.993 220.629 204.993 220.563C204.993 220.53 205.281 220.497 205.807 220.464C206.334 220.423 207.099 220.39 208.037 220.365C209.921 220.308 212.528 220.291 215.408 220.357C218.287 220.431 220.887 220.579 222.762 220.727C223.7 220.801 224.465 220.875 224.984 220.941C225.518 221.015 225.806 221.065 225.806 221.089Z" fill="#FAFAFA"/>
<path d="M242.046 218.013C242.07 218.087 241.017 218.441 239.413 219.23C237.809 220.02 235.686 221.304 233.654 223.113C231.622 224.931 230.101 226.889 229.138 228.395C228.167 229.9 227.698 230.904 227.624 230.871C227.6 230.863 227.698 230.6 227.896 230.131C228.085 229.662 228.422 229.012 228.883 228.23C229.796 226.667 231.31 224.635 233.375 222.793C235.448 220.95 237.636 219.683 239.29 218.959C240.121 218.597 240.803 218.334 241.289 218.202C241.766 218.054 242.037 217.988 242.046 218.013Z" fill="#FAFAFA"/>
<path d="M234.033 191.646C234.041 191.753 232.355 191.383 229.854 192.231C228.603 192.625 227.188 193.308 225.633 194.106C224.079 194.896 222.367 195.826 220.418 196.451C216.518 197.726 212.709 197.619 210.11 197.125C208.802 196.879 207.765 196.558 207.066 196.303C206.375 196.04 205.997 195.859 206.013 195.834C206.038 195.752 207.56 196.41 210.159 196.821C212.742 197.232 216.469 197.29 220.286 196.039C222.195 195.431 223.889 194.526 225.452 193.753C227.015 192.971 228.472 192.313 229.755 191.943C231.038 191.556 232.132 191.466 232.881 191.498C233.251 191.498 233.539 191.556 233.737 191.581C233.934 191.605 234.041 191.63 234.033 191.646Z" fill="#FAFAFA"/>
<path d="M229.928 246.781C229.936 246.806 229.599 246.962 228.973 247.225C228.661 247.357 228.274 247.513 227.813 247.661C227.353 247.809 226.835 248.007 226.25 248.155C225.082 248.5 223.659 248.797 222.063 249.027C220.467 249.233 218.69 249.348 216.831 249.307C214.972 249.241 213.203 249.019 211.624 248.714C210.044 248.393 208.637 248.007 207.494 247.595C206.91 247.414 206.408 247.184 205.955 247.011C205.503 246.839 205.125 246.658 204.82 246.51C204.211 246.213 203.882 246.032 203.891 246.008C203.923 245.934 205.281 246.584 207.584 247.316C208.736 247.686 210.126 248.04 211.689 248.336C213.261 248.607 214.996 248.821 216.839 248.887C218.674 248.936 220.426 248.829 222.014 248.648C223.593 248.443 225.008 248.18 226.176 247.875C228.513 247.275 229.903 246.707 229.928 246.781Z" fill="#FAFAFA"/>
<path d="M248.832 271.132C248.824 271.14 248.709 271.05 248.512 270.869C248.322 270.679 248.01 270.424 247.664 270.038C246.949 269.297 246.011 268.129 245.065 266.55C243.14 263.407 241.503 258.414 241.396 252.77C241.297 247.135 242.399 242.117 243.263 238.563C243.707 236.786 244.102 235.354 244.39 234.367C244.53 233.915 244.637 233.545 244.736 233.24C244.818 232.985 244.867 232.854 244.884 232.854C244.9 232.854 244.875 233.002 244.818 233.265C244.744 233.577 244.662 233.956 244.555 234.417C244.308 235.478 243.971 236.901 243.559 238.637C242.769 242.199 241.725 247.184 241.823 252.762C241.93 258.331 243.493 263.259 245.32 266.393C246.225 267.973 247.113 269.158 247.788 269.923C248.454 270.696 248.857 271.099 248.832 271.132Z" fill="#FAFAFA"/>
<path d="M278.769 243.194C278.703 243.293 277.354 241.804 274.417 240.751C272.961 240.216 271.168 239.772 269.152 239.385C267.137 238.974 264.891 238.604 262.596 237.872C258.005 236.407 254.402 233.783 252.172 231.603C251.045 230.509 250.239 229.53 249.713 228.831C249.441 228.485 249.26 228.197 249.129 228.008C249.005 227.819 248.939 227.712 248.956 227.704C248.981 227.687 249.285 228.057 249.844 228.724C250.404 229.382 251.251 230.32 252.386 231.381C254.64 233.487 258.219 236.021 262.735 237.46C264.981 238.176 267.219 238.563 269.234 238.991C271.258 239.402 273.068 239.887 274.532 240.463C275.997 241.039 277.091 241.722 277.774 242.273C278.136 242.528 278.366 242.783 278.539 242.939C278.703 243.096 278.786 243.186 278.769 243.194Z" fill="#FAFAFA"/>
<path d="M288.18 215.743C288.156 215.759 287.843 215.488 287.3 214.978C287.029 214.723 286.7 214.41 286.288 214.065C285.885 213.719 285.441 213.308 284.906 212.905C283.87 212.057 282.578 211.136 281.089 210.198C279.584 209.285 277.872 208.364 276.013 207.557C274.138 206.768 272.295 206.167 270.592 205.706C268.881 205.279 267.326 204.974 266.001 204.81C265.343 204.703 264.743 204.67 264.208 204.612C263.682 204.555 263.221 204.53 262.851 204.514C262.102 204.472 261.691 204.431 261.691 204.407C261.691 204.374 262.102 204.357 262.859 204.349C263.237 204.341 263.698 204.341 264.224 204.382C264.759 204.415 265.368 204.431 266.034 204.522C267.375 204.653 268.955 204.925 270.691 205.336C272.418 205.78 274.286 206.373 276.178 207.179C278.062 207.993 279.789 208.939 281.295 209.877C282.792 210.84 284.083 211.802 285.095 212.683C285.622 213.102 286.05 213.53 286.445 213.9C286.839 214.262 287.16 214.591 287.415 214.871C287.925 215.406 288.205 215.718 288.18 215.743Z" fill="#FAFAFA"/>
<path d="M216.198 177.982C216.222 178.032 215.63 178.344 214.635 178.731C213.639 179.126 212.232 179.595 210.645 179.965C209.049 180.335 207.584 180.541 206.515 180.623C205.445 180.705 204.787 180.697 204.779 180.64C204.771 180.508 207.395 180.286 210.546 179.546C213.697 178.822 216.148 177.859 216.198 177.982Z" fill="#FAFAFA"/>
<path d="M245.377 293.845C245.838 295.441 244.505 296.972 242.86 296.749C241.971 296.626 241.239 296.001 240.976 295.137L240.285 292.546L240.384 292.579C240.82 294.133 239.323 295.557 237.718 295.4C236.632 295.376 235.703 293.829 235.398 292.998C233.605 293.212 231.91 292.159 231.219 290.991L226.39 283.455L217.448 276.915L222.853 257.591L242.103 270.046C242.86 270.63 242.975 270.885 244.176 271.996L256.598 283.414C255.192 284.261 253.991 284.196 252.041 283.414C250.091 282.633 241.503 276.841 241.503 276.841L245.377 293.845Z" fill="#FFFBF9"/>
<path d="M228.916 277.951C228.932 277.927 229.138 278.05 229.492 278.289C229.689 278.428 229.903 278.577 230.125 278.733C230.372 278.897 230.668 279.128 230.923 279.424C231.178 279.72 231.417 280.098 231.573 280.543C231.721 280.971 231.877 281.423 232.042 281.892C232.371 282.854 232.725 283.899 233.095 284.985C233.827 287.182 234.469 289.181 234.913 290.637C235.357 292.093 235.604 292.998 235.547 293.014C235.489 293.031 235.143 292.159 234.625 290.727C234.107 289.296 233.424 287.321 232.684 285.125C232.322 284.031 231.984 282.994 231.664 282.023C231.516 281.555 231.367 281.102 231.228 280.666C231.096 280.263 230.899 279.909 230.676 279.621C230.454 279.325 230.207 279.12 229.969 278.93C229.755 278.749 229.566 278.585 229.377 278.428C229.064 278.141 228.899 277.976 228.916 277.951Z" fill="#040404"/>
<path d="M240.491 292.965C240.458 292.974 240.367 292.686 240.219 292.167C240.047 291.559 239.841 290.818 239.602 289.963C239.084 288.103 238.377 285.529 237.48 282.723C236.575 279.926 235.645 277.409 234.518 275.87C233.967 275.097 233.391 274.579 232.939 274.299C232.486 274.019 232.198 273.937 232.215 273.896C232.223 273.88 232.297 273.896 232.437 273.929C232.577 273.954 232.774 274.036 233.029 274.159C233.523 274.406 234.164 274.916 234.765 275.698C235.991 277.261 236.978 279.795 237.891 282.6C238.788 285.413 239.454 288.005 239.898 289.889C240.121 290.835 240.285 291.6 240.384 292.126C240.483 292.661 240.524 292.957 240.491 292.965Z" fill="black"/>
<path d="M245.46 294.134C245.435 294.142 245.311 293.837 245.122 293.27C244.917 292.612 244.662 291.814 244.357 290.868C243.732 288.836 242.893 286.022 241.996 282.912C241.124 279.844 240.343 277.072 239.742 274.933C239.421 273.937 238.903 273.254 238.426 272.925C237.957 272.58 237.62 272.539 237.628 272.498C237.628 272.489 237.718 272.481 237.875 272.514C238.031 272.547 238.261 272.621 238.525 272.786C239.059 273.09 239.668 273.806 240.03 274.834C240.705 276.866 241.503 279.679 242.416 282.797C243.312 285.915 244.102 288.737 244.653 290.794C244.9 291.748 245.114 292.562 245.287 293.229C245.418 293.796 245.484 294.125 245.46 294.134Z" fill="black"/>
<path d="M362.36 115.739C362.36 117.326 363.651 118.618 365.239 118.618C366.827 118.618 368.118 117.326 368.118 115.739C368.118 114.151 366.827 112.859 365.239 112.859C363.651 112.859 362.36 114.151 362.36 115.739Z" fill="#455A64"/>
<path d="M353.714 118.618C355.304 118.618 356.593 117.329 356.593 115.739C356.593 114.148 355.304 112.859 353.714 112.859C352.123 112.859 350.834 114.148 350.834 115.739C350.834 117.329 352.123 118.618 353.714 118.618Z" fill="#455A64"/>
<path d="M339.342 114.299C338.544 115.673 339.021 117.442 340.395 118.232C341.768 119.03 343.537 118.553 344.327 117.179C345.125 115.805 344.648 114.036 343.274 113.246C341.9 112.448 340.131 112.926 339.342 114.299Z" fill="#455A64"/>
<path d="M353.532 82.1005C353.532 82.0841 353.335 82.0841 352.948 82.0923C352.529 82.1005 351.961 82.117 351.237 82.1417C350.859 82.1581 350.439 82.1581 349.979 82.1993C349.518 82.2651 349.016 82.3309 348.473 82.4132C347.922 82.4954 347.338 82.5777 346.713 82.6682C346.096 82.8245 345.437 82.9808 344.746 83.1535C341.982 83.861 338.634 85.0786 335.204 87.3162C331.781 89.5127 328.227 92.6553 325.34 96.9249C322.51 101.203 320.322 106.575 319.746 112.621C319.688 114.135 319.507 115.673 319.655 117.236C319.713 118.018 319.696 118.808 319.812 119.597C319.927 120.387 320.05 121.177 320.165 121.975C320.807 125.126 321.745 128.359 323.374 131.361C324.961 134.372 327.01 137.243 329.503 139.794C332.053 142.295 335.023 144.466 338.338 146.136C341.637 147.823 345.298 148.991 349.107 149.443C350.053 149.633 351.015 149.633 351.978 149.69C352.94 149.756 353.911 149.789 354.882 149.74C356.823 149.657 358.773 149.419 360.698 149.007C364.877 148.119 368.817 146.416 372.273 144.137L371.919 144.17C375.933 145.783 379.866 147.362 383.708 148.901L384.407 149.18L384.209 148.456C383.017 144.129 381.865 139.925 380.746 135.853L380.688 136.166C383.996 131.765 386.11 126.746 386.982 121.761C387.418 119.268 387.607 116.784 387.442 114.382C387.393 113.181 387.336 111.988 387.105 110.836C387.015 110.26 386.924 109.684 386.834 109.108C386.727 108.541 386.554 107.99 386.422 107.438C384.144 98.562 378.681 92.0136 373.268 88.2623C370.562 86.3537 367.888 84.9881 365.436 84.1325C364.828 83.9104 364.235 83.7047 363.676 83.4991C363.092 83.351 362.541 83.2111 361.998 83.0713C361.463 82.9397 360.953 82.8163 360.467 82.6929C359.974 82.6024 359.505 82.5448 359.061 82.479C358.172 82.3638 357.382 82.2157 356.7 82.1746C356.025 82.1499 355.449 82.1334 354.964 82.117C354.528 82.1088 354.174 82.1005 353.903 82.0923C353.656 82.0923 353.532 82.0923 353.532 82.1005C353.532 82.1088 353.656 82.1252 353.886 82.1499C354.158 82.1746 354.503 82.1993 354.939 82.2322C355.416 82.2651 355.992 82.3062 356.659 82.3473C357.341 82.3967 358.115 82.5695 358.995 82.7011C362.467 83.3345 367.666 84.7248 372.98 88.6078C378.286 92.3591 383.609 98.8499 385.805 107.57C385.937 108.113 386.102 108.656 386.2 109.207C386.283 109.767 386.373 110.334 386.455 110.902C386.669 112.037 386.719 113.197 386.768 114.382C386.924 116.743 386.727 119.178 386.291 121.613C385.419 126.5 383.337 131.403 380.088 135.705L379.981 135.845L380.03 136.018C381.141 140.09 382.293 144.302 383.469 148.629L383.971 148.185C380.129 146.638 376.197 145.05 372.182 143.438L372.001 143.364L371.837 143.471C368.455 145.692 364.605 147.362 360.517 148.226C358.633 148.629 356.733 148.868 354.832 148.942C353.886 148.983 352.94 148.95 351.994 148.892C351.056 148.835 350.11 148.835 349.189 148.654C345.462 148.218 341.892 147.082 338.659 145.437C335.417 143.808 332.505 141.686 330.004 139.243C327.553 136.75 325.546 133.945 323.983 130.999C322.387 128.063 321.457 124.904 320.815 121.819C320.692 121.037 320.577 120.264 320.453 119.49C320.338 118.717 320.355 117.944 320.297 117.179C320.149 115.649 320.322 114.135 320.371 112.654C320.914 106.723 323.028 101.433 325.784 97.2046C328.598 92.9843 332.077 89.8582 335.434 87.6535C338.79 85.4159 342.089 84.1736 344.82 83.425C345.503 83.244 346.153 83.0713 346.762 82.9068C347.379 82.808 347.963 82.7093 348.506 82.6188C349.041 82.5283 349.543 82.4461 350.003 82.372C350.464 82.3227 350.883 82.3062 351.254 82.2815C351.969 82.2322 352.537 82.191 352.957 82.1581C353.335 82.1417 353.532 82.117 353.532 82.1005Z" fill="#455A64"/>
<path d="M266.724 298.835H169.922H144L163.991 313.264V341.646C163.991 344.92 166.648 347.569 169.914 347.569H266.724C269.999 347.569 272.648 344.912 272.648 341.646V304.766C272.656 301.492 269.999 298.835 266.724 298.835Z" fill="#F3B150"/>
<path d="M261.607 318.892C261.607 319.007 243.098 319.106 220.269 319.106C197.432 319.106 178.93 319.007 178.93 318.892C178.93 318.776 197.44 318.678 220.269 318.678C243.098 318.678 261.607 318.776 261.607 318.892Z" fill="#E0E0E0"/>
<path d="M261.607 329.792C261.607 329.907 243.098 330.006 220.269 330.006C197.432 330.006 178.93 329.907 178.93 329.792C178.93 329.677 197.44 329.578 220.269 329.578C243.098 329.578 261.607 329.677 261.607 329.792Z" fill="#E0E0E0"/>
</svg>
