<svg width="460" height="423" viewBox="0 0 460 423" fill="none" xmlns="http://www.w3.org/2000/svg">
<mask id="path-1-inside-1_102_2" fill="white">
<path fill-rule="evenodd" clip-rule="evenodd" d="M130.977 238.557C126.557 238.557 122.699 228.038 124.024 223.822C124.66 221.8 125 219.663 125 217.454C125 204.785 113.807 194.516 100 194.516C86.1929 194.516 75 204.785 75 217.454C75 219.663 75.3405 221.8 75.9759 223.822C77.3011 228.038 73.4431 238.557 69.0234 238.557H4C1.79086 238.557 0 240.347 0 242.557V402.062C0 413.107 8.95431 422.062 20 422.062H196C198.209 422.062 200 420.271 200 418.062V357.38C200 353.098 191.032 349.711 187.062 351.314C183.983 352.557 180.579 353.247 177 353.247C163.193 353.247 152 342.978 152 330.309C152 317.641 163.193 307.371 177 307.371C180.579 307.371 183.983 308.061 187.062 309.305C191.032 310.908 200 307.521 200 303.239V242.557C200 240.347 198.209 238.557 196 238.557H130.977Z"/>
</mask>
<path fill-rule="evenodd" clip-rule="evenodd" d="M130.977 238.557C126.557 238.557 122.699 228.038 124.024 223.822C124.66 221.8 125 219.663 125 217.454C125 204.785 113.807 194.516 100 194.516C86.1929 194.516 75 204.785 75 217.454C75 219.663 75.3405 221.8 75.9759 223.822C77.3011 228.038 73.4431 238.557 69.0234 238.557H4C1.79086 238.557 0 240.347 0 242.557V402.062C0 413.107 8.95431 422.062 20 422.062H196C198.209 422.062 200 420.271 200 418.062V357.38C200 353.098 191.032 349.711 187.062 351.314C183.983 352.557 180.579 353.247 177 353.247C163.193 353.247 152 342.978 152 330.309C152 317.641 163.193 307.371 177 307.371C180.579 307.371 183.983 308.061 187.062 309.305C191.032 310.908 200 307.521 200 303.239V242.557C200 240.347 198.209 238.557 196 238.557H130.977Z" fill="#E3F5F5"/>
<path d="M187.062 309.305L187.436 308.377L187.062 309.305ZM187.062 351.314L187.436 352.241L187.062 351.314ZM75.9759 223.822L76.9299 223.522L75.9759 223.822ZM124.024 223.822L123.07 223.522L124.024 223.822ZM124 217.454C124 219.56 123.676 221.595 123.07 223.522L124.978 224.122C125.643 222.004 126 219.767 126 217.454H124ZM100 195.516C113.338 195.516 124 205.417 124 217.454H126C126 204.154 114.277 193.516 100 193.516V195.516ZM76 217.454C76 205.417 86.6624 195.516 100 195.516V193.516C85.7234 193.516 74 204.154 74 217.454H76ZM76.9299 223.522C76.3244 221.595 76 219.56 76 217.454H74C74 219.767 74.3565 222.004 75.0219 224.122L76.9299 223.522ZM69.0234 237.557H4V239.557H69.0234V237.557ZM-1 242.557V402.062H1V242.557H-1ZM-1 402.062C-1 413.66 8.40203 423.062 20 423.062V421.062C9.50659 421.062 1 412.555 1 402.062H-1ZM20 423.062H196V421.062H20V423.062ZM201 418.062V357.38H199V418.062H201ZM186.687 350.387C183.727 351.582 180.45 352.247 177 352.247V354.247C180.708 354.247 184.239 353.532 187.436 352.241L186.687 350.387ZM177 352.247C163.662 352.247 153 342.346 153 330.309H151C151 343.609 162.723 354.247 177 354.247V352.247ZM153 330.309C153 318.272 163.662 308.371 177 308.371V306.371C162.723 306.371 151 317.009 151 330.309H153ZM177 308.371C180.45 308.371 183.727 309.036 186.687 310.232L187.436 308.377C184.239 307.086 180.708 306.371 177 306.371V308.371ZM201 303.239V242.557H199V303.239H201ZM196 237.557H130.977V239.557H196V237.557ZM201 242.557C201 239.795 198.761 237.557 196 237.557V239.557C197.657 239.557 199 240.9 199 242.557H201ZM186.687 310.232C187.893 310.719 189.384 310.798 190.871 310.629C192.374 310.458 193.963 310.024 195.416 309.397C196.864 308.772 198.225 307.935 199.241 306.929C200.25 305.928 201 304.674 201 303.239H199C199 303.945 198.629 304.72 197.833 305.508C197.043 306.291 195.914 307.004 194.623 307.56C193.338 308.115 191.94 308.495 190.645 308.642C189.334 308.791 188.215 308.692 187.436 308.377L186.687 310.232ZM196 423.062C198.761 423.062 201 420.823 201 418.062H199C199 419.719 197.657 421.062 196 421.062V423.062ZM4 237.557C1.23858 237.557 -1 239.795 -1 242.557H1C1 240.9 2.34315 239.557 4 239.557V237.557ZM201 357.38C201 355.945 200.25 354.69 199.241 353.69C198.225 352.684 196.864 351.847 195.416 351.222C193.963 350.595 192.374 350.16 190.871 349.99C189.384 349.821 187.893 349.9 186.687 350.387L187.436 352.241C188.215 351.927 189.334 351.828 190.645 351.977C191.94 352.124 193.338 352.503 194.623 353.058C195.914 353.615 197.043 354.327 197.833 355.11C198.629 355.899 199 356.673 199 357.38H201ZM75.0219 224.122C75.2867 224.964 75.3163 226.236 75.0819 227.75C74.8512 229.241 74.3795 230.87 73.7347 232.377C73.0873 233.889 72.2862 235.229 71.4229 236.172C70.5434 237.133 69.7215 237.557 69.0234 237.557V239.557C70.5352 239.557 71.8529 238.665 72.8985 237.522C73.9601 236.362 74.8694 234.808 75.5733 233.164C76.2798 231.513 76.8004 229.723 77.0584 228.056C77.3128 226.412 77.3278 224.788 76.9299 223.522L75.0219 224.122ZM123.07 223.522C122.672 224.788 122.687 226.412 122.942 228.056C123.2 229.723 123.72 231.513 124.427 233.164C125.131 234.808 126.04 236.362 127.102 237.522C128.147 238.665 129.465 239.557 130.977 239.557V237.557C130.278 237.557 129.457 237.133 128.577 236.172C127.714 235.229 126.913 233.889 126.265 232.377C125.621 230.87 125.149 229.241 124.918 227.75C124.684 226.236 124.713 224.964 124.978 224.122L123.07 223.522Z" fill="#167EA1" mask="url(#path-1-inside-1_102_2)"/>
<path d="M58.744 326V314.8H66.088L66.072 316.192H59.928L60.312 315.792L60.328 326H58.744ZM70.6246 326.096C69.9206 326.096 69.2753 325.936 68.6886 325.616C68.1126 325.285 67.6486 324.8 67.2966 324.16C66.9553 323.52 66.7846 322.72 66.7846 321.76C66.7846 320.8 66.95 320 67.2806 319.36C67.622 318.72 68.0806 318.24 68.6566 317.92C69.2433 317.6 69.8993 317.44 70.6246 317.44C71.4566 317.44 72.1926 317.621 72.8326 317.984C73.4726 318.347 73.9793 318.853 74.3526 319.504C74.726 320.144 74.9126 320.896 74.9126 321.76C74.9126 322.624 74.726 323.381 74.3526 324.032C73.9793 324.683 73.4726 325.189 72.8326 325.552C72.1926 325.915 71.4566 326.096 70.6246 326.096ZM66.1286 329.104V317.52H67.6006V319.808L67.5046 321.776L67.6646 323.744V329.104H66.1286ZM70.4966 324.752C71.0406 324.752 71.526 324.629 71.9526 324.384C72.39 324.139 72.7313 323.792 72.9766 323.344C73.2326 322.885 73.3606 322.357 73.3606 321.76C73.3606 321.152 73.2326 320.629 72.9766 320.192C72.7313 319.744 72.39 319.397 71.9526 319.152C71.526 318.907 71.0406 318.784 70.4966 318.784C69.9633 318.784 69.478 318.907 69.0406 319.152C68.614 319.397 68.2726 319.744 68.0166 320.192C67.7713 320.629 67.6486 321.152 67.6486 321.76C67.6486 322.357 67.7713 322.885 68.0166 323.344C68.2726 323.792 68.614 324.139 69.0406 324.384C69.478 324.629 69.9633 324.752 70.4966 324.752ZM77.3419 329.2C76.9365 329.2 76.5419 329.131 76.1579 328.992C75.7739 328.864 75.4432 328.672 75.1659 328.416L75.8219 327.264C76.0352 327.467 76.2699 327.621 76.5259 327.728C76.7819 327.835 77.0539 327.888 77.3419 327.888C77.7152 327.888 78.0245 327.792 78.2699 327.6C78.5152 327.408 78.7445 327.067 78.9579 326.576L79.4859 325.408L79.6459 325.216L82.9739 317.52H84.4779L80.3659 326.848C80.1205 327.445 79.8432 327.915 79.5339 328.256C79.2352 328.597 78.9045 328.837 78.5419 328.976C78.1792 329.125 77.7792 329.2 77.3419 329.2ZM79.3579 326.272L75.4859 317.52H77.0859L80.3819 325.072L79.3579 326.272ZM86.0505 326V317.52H93.9065V326H92.3705V318.48L92.7385 318.864H87.2185L87.5865 318.48V326H86.0505ZM100.511 326.096C99.6573 326.096 98.9 325.909 98.2386 325.536C97.5773 325.163 97.0546 324.651 96.6706 324C96.2866 323.339 96.0946 322.592 96.0946 321.76C96.0946 320.917 96.2866 320.171 96.6706 319.52C97.0546 318.869 97.5773 318.363 98.2386 318C98.9 317.627 99.6573 317.44 100.511 317.44C101.353 317.44 102.105 317.627 102.767 318C103.439 318.363 103.961 318.869 104.335 319.52C104.719 320.16 104.911 320.907 104.911 321.76C104.911 322.603 104.719 323.349 104.335 324C103.961 324.651 103.439 325.163 102.767 325.536C102.105 325.909 101.353 326.096 100.511 326.096ZM100.511 324.752C101.055 324.752 101.54 324.629 101.967 324.384C102.404 324.139 102.745 323.792 102.991 323.344C103.236 322.885 103.359 322.357 103.359 321.76C103.359 321.152 103.236 320.629 102.991 320.192C102.745 319.744 102.404 319.397 101.967 319.152C101.54 318.907 101.055 318.784 100.511 318.784C99.9666 318.784 99.4813 318.907 99.0546 319.152C98.628 319.397 98.2866 319.744 98.0306 320.192C97.7746 320.629 97.6466 321.152 97.6466 321.76C97.6466 322.357 97.7746 322.885 98.0306 323.344C98.2866 323.792 98.628 324.139 99.0546 324.384C99.4813 324.629 99.9666 324.752 100.511 324.752ZM107.129 326V317.52H111.065C112.057 317.52 112.835 317.712 113.401 318.096C113.977 318.469 114.265 319.003 114.265 319.696C114.265 320.389 113.993 320.928 113.449 321.312C112.915 321.685 112.206 321.872 111.321 321.872L111.561 321.456C112.574 321.456 113.326 321.643 113.817 322.016C114.307 322.389 114.553 322.939 114.553 323.664C114.553 324.4 114.275 324.976 113.721 325.392C113.177 325.797 112.339 326 111.209 326H107.129ZM108.633 324.816H111.097C111.737 324.816 112.217 324.72 112.537 324.528C112.857 324.325 113.017 324.005 113.017 323.568C113.017 323.12 112.867 322.795 112.569 322.592C112.281 322.379 111.822 322.272 111.193 322.272H108.633V324.816ZM108.633 321.168H110.937C111.523 321.168 111.966 321.061 112.265 320.848C112.574 320.624 112.729 320.315 112.729 319.92C112.729 319.515 112.574 319.211 112.265 319.008C111.966 318.805 111.523 318.704 110.937 318.704H108.633V321.168ZM116.957 326V317.52H118.493V326H116.957ZM117.725 315.888C117.426 315.888 117.175 315.792 116.973 315.6C116.781 315.408 116.685 315.173 116.685 314.896C116.685 314.608 116.781 314.368 116.973 314.176C117.175 313.984 117.426 313.888 117.725 313.888C118.023 313.888 118.269 313.984 118.461 314.176C118.663 314.357 118.765 314.587 118.765 314.864C118.765 315.152 118.669 315.397 118.477 315.6C118.285 315.792 118.034 315.888 117.725 315.888ZM60.968 351.112C60.328 351.112 59.6987 351.032 59.08 350.872C58.472 350.701 57.928 350.461 57.448 350.152L57.912 348.984C58.3173 349.24 58.7813 349.443 59.304 349.592C59.8267 349.731 60.3547 349.8 60.888 349.8C61.3787 349.8 61.8 349.741 62.152 349.624C62.5147 349.507 62.792 349.347 62.984 349.144C63.176 348.931 63.272 348.685 63.272 348.408C63.272 348.013 63.096 347.709 62.744 347.496C62.392 347.283 61.9013 347.176 61.272 347.176H59.736V346.072H61.176C61.5493 346.072 61.8747 346.029 62.152 345.944C62.4293 345.859 62.6427 345.731 62.792 345.56C62.952 345.379 63.032 345.171 63.032 344.936C63.032 344.68 62.9413 344.461 62.76 344.28C62.5787 344.099 62.3227 343.96 61.992 343.864C61.672 343.768 61.2933 343.72 60.856 343.72C60.4293 343.731 59.992 343.789 59.544 343.896C59.1067 344.003 58.6587 344.168 58.2 344.392L57.784 343.192C58.296 342.947 58.7973 342.76 59.288 342.632C59.7893 342.493 60.2853 342.419 60.776 342.408C61.512 342.387 62.168 342.472 62.744 342.664C63.32 342.845 63.7733 343.112 64.104 343.464C64.4453 343.816 64.616 344.232 64.616 344.712C64.616 345.117 64.488 345.48 64.232 345.8C63.976 346.109 63.6347 346.355 63.208 346.536C62.7813 346.717 62.2907 346.808 61.736 346.808L61.8 346.44C62.7493 346.44 63.496 346.627 64.04 347C64.584 347.373 64.856 347.88 64.856 348.52C64.856 349.032 64.6853 349.485 64.344 349.88C64.0027 350.264 63.5387 350.568 62.952 350.792C62.376 351.005 61.7147 351.112 60.968 351.112ZM67.6231 354.2C67.2178 354.2 66.8231 354.131 66.4391 353.992C66.0551 353.864 65.7245 353.672 65.4471 353.416L66.1031 352.264C66.3165 352.467 66.5511 352.621 66.8071 352.728C67.0631 352.835 67.3351 352.888 67.6231 352.888C67.9965 352.888 68.3058 352.792 68.5511 352.6C68.7965 352.408 69.0258 352.067 69.2391 351.576L69.7671 350.408L69.9271 350.216L73.2551 342.52H74.7591L70.6471 351.848C70.4018 352.445 70.1245 352.915 69.8151 353.256C69.5165 353.597 69.1858 353.837 68.8231 353.976C68.4605 354.125 68.0605 354.2 67.6231 354.2ZM69.6391 351.272L65.7671 342.52H67.3671L70.6631 350.072L69.6391 351.272ZM79.7934 351.096C78.9294 351.096 78.156 350.909 77.4734 350.536C76.8014 350.163 76.2734 349.651 75.8894 349C75.5054 348.349 75.3134 347.603 75.3134 346.76C75.3134 345.917 75.5054 345.171 75.8894 344.52C76.2734 343.869 76.8014 343.363 77.4734 343C78.156 342.627 78.9294 342.44 79.7934 342.44C80.5614 342.44 81.244 342.595 81.8414 342.904C82.4494 343.203 82.9187 343.651 83.2494 344.248L82.0814 345C81.804 344.584 81.4627 344.28 81.0574 344.088C80.6627 343.885 80.236 343.784 79.7774 343.784C79.2227 343.784 78.7267 343.907 78.2894 344.152C77.852 344.397 77.5054 344.744 77.2494 345.192C76.9934 345.629 76.8654 346.152 76.8654 346.76C76.8654 347.368 76.9934 347.896 77.2494 348.344C77.5054 348.792 77.852 349.139 78.2894 349.384C78.7267 349.629 79.2227 349.752 79.7774 349.752C80.236 349.752 80.6627 349.656 81.0574 349.464C81.4627 349.261 81.804 348.952 82.0814 348.536L83.2494 349.272C82.9187 349.859 82.4494 350.312 81.8414 350.632C81.244 350.941 80.5614 351.096 79.7934 351.096ZM86.8086 351V343.464L87.1926 343.864H83.7046V342.52H91.4486V343.864H87.9766L88.3446 343.464V351H86.8086ZM97.5153 351.096C96.8113 351.096 96.1659 350.936 95.5793 350.616C95.0033 350.285 94.5393 349.8 94.1873 349.16C93.8459 348.52 93.6753 347.72 93.6753 346.76C93.6753 345.8 93.8406 345 94.1713 344.36C94.5126 343.72 94.9713 343.24 95.5473 342.92C96.1339 342.6 96.7899 342.44 97.5153 342.44C98.3473 342.44 99.0833 342.621 99.7233 342.984C100.363 343.347 100.87 343.853 101.243 344.504C101.617 345.144 101.803 345.896 101.803 346.76C101.803 347.624 101.617 348.381 101.243 349.032C100.87 349.683 100.363 350.189 99.7233 350.552C99.0833 350.915 98.3473 351.096 97.5153 351.096ZM93.0193 354.104V342.52H94.4913V344.808L94.3953 346.776L94.5553 348.744V354.104H93.0193ZM97.3873 349.752C97.9313 349.752 98.4166 349.629 98.8433 349.384C99.2806 349.139 99.6219 348.792 99.8673 348.344C100.123 347.885 100.251 347.357 100.251 346.76C100.251 346.152 100.123 345.629 99.8673 345.192C99.6219 344.744 99.2806 344.397 98.8433 344.152C98.4166 343.907 97.9313 343.784 97.3873 343.784C96.8539 343.784 96.3686 343.907 95.9313 344.152C95.5046 344.397 95.1633 344.744 94.9073 345.192C94.6619 345.629 94.5393 346.152 94.5393 346.76C94.5393 347.357 94.6619 347.885 94.9073 348.344C95.1633 348.792 95.5046 349.139 95.9313 349.384C96.3686 349.629 96.8539 349.752 97.3873 349.752ZM104.035 351V342.52H105.571V351H104.035ZM104.803 340.888C104.504 340.888 104.254 340.792 104.051 340.6C103.859 340.408 103.763 340.173 103.763 339.896C103.763 339.608 103.859 339.368 104.051 339.176C104.254 338.984 104.504 338.888 104.803 338.888C105.102 338.888 105.347 338.984 105.539 339.176C105.742 339.357 105.843 339.587 105.843 339.864C105.843 340.152 105.747 340.397 105.555 340.6C105.363 340.792 105.112 340.888 104.803 340.888ZM113.91 347.528C113.462 347.741 112.998 347.912 112.518 348.04C112.049 348.157 111.563 348.216 111.062 348.216C110.038 348.216 109.227 347.976 108.63 347.496C108.043 347.016 107.75 346.275 107.75 345.272V342.52H109.286V345.176C109.286 345.784 109.473 346.232 109.846 346.52C110.23 346.808 110.742 346.952 111.382 346.952C111.787 346.952 112.203 346.899 112.63 346.792C113.067 346.685 113.494 346.536 113.91 346.344V347.528ZM113.798 351V342.52H115.334V351H113.798ZM118.316 351V342.52H119.852V351H118.316ZM119.084 340.888C118.785 340.888 118.535 340.792 118.332 340.6C118.14 340.408 118.044 340.173 118.044 339.896C118.044 339.608 118.14 339.368 118.332 339.176C118.535 338.984 118.785 338.888 119.084 338.888C119.383 338.888 119.628 338.984 119.82 339.176C120.023 339.357 120.124 339.587 120.124 339.864C120.124 340.152 120.028 340.397 119.836 340.6C119.644 340.792 119.393 340.888 119.084 340.888Z" fill="#5E6476"/>
<mask id="path-4-inside-2_102_2" fill="white">
<path fill-rule="evenodd" clip-rule="evenodd" d="M200 118.823C200 114.541 208.968 111.154 212.938 112.757C216.017 114.001 219.421 114.691 223 114.691C236.807 114.691 248 104.421 248 91.7526C248 79.0842 236.807 68.8144 223 68.8144C219.421 68.8144 216.017 69.5046 212.938 70.7479C208.968 72.3512 200 68.9639 200 64.6823V4C200 1.79087 198.209 0 196 0L20 0C8.9543 0 0 8.95428 0 20V179.505C0 181.714 1.79086 183.505 4 183.505L69.0226 183.505C73.4423 183.505 77.3007 172.986 75.9757 168.769C75.3404 166.748 75 164.611 75 162.402C75 149.734 86.1929 139.464 100 139.464C113.807 139.464 125 149.734 125 162.402C125 164.611 124.66 166.748 124.024 168.769C122.699 172.986 126.558 183.505 130.977 183.505H196C198.209 183.505 200 181.714 200 179.505V118.823Z"/>
</mask>
<path fill-rule="evenodd" clip-rule="evenodd" d="M200 118.823C200 114.541 208.968 111.154 212.938 112.757C216.017 114.001 219.421 114.691 223 114.691C236.807 114.691 248 104.421 248 91.7526C248 79.0842 236.807 68.8144 223 68.8144C219.421 68.8144 216.017 69.5046 212.938 70.7479C208.968 72.3512 200 68.9639 200 64.6823V4C200 1.79087 198.209 0 196 0L20 0C8.9543 0 0 8.95428 0 20V179.505C0 181.714 1.79086 183.505 4 183.505L69.0226 183.505C73.4423 183.505 77.3007 172.986 75.9757 168.769C75.3404 166.748 75 164.611 75 162.402C75 149.734 86.1929 139.464 100 139.464C113.807 139.464 125 149.734 125 162.402C125 164.611 124.66 166.748 124.024 168.769C122.699 172.986 126.558 183.505 130.977 183.505H196C198.209 183.505 200 181.714 200 179.505V118.823Z" fill="#F3B150"/>
<path d="M75.9757 168.769L76.9297 168.469L75.9757 168.769ZM212.938 70.7479L212.564 69.8206L212.938 70.7479ZM223 113.691C219.55 113.691 216.273 113.025 213.313 111.83L212.564 113.685C215.761 114.976 219.292 115.691 223 115.691V113.691ZM247 91.7526C247 103.789 236.338 113.691 223 113.691V115.691C237.277 115.691 249 105.053 249 91.7526H247ZM223 69.8144C236.338 69.8144 247 79.7158 247 91.7526H249C249 78.4526 237.277 67.8144 223 67.8144V69.8144ZM213.313 71.6751C216.273 70.4797 219.55 69.8144 223 69.8144V67.8144C219.292 67.8144 215.761 68.5296 212.564 69.8206L213.313 71.6751ZM201 64.6823V4H199V64.6823H201ZM196 -1L20 -1V1L196 1V-1ZM20 -1C8.40202 -1 -1 8.402 -1 20H1C1 9.50657 9.50658 1 20 1V-1ZM-1 20V179.505H1V20H-1ZM4 184.505L69.0226 184.505V182.505L4 182.505V184.505ZM76.9297 168.469C76.3244 166.543 76 164.508 76 162.402H74C74 164.715 74.3564 166.952 75.0217 169.069L76.9297 168.469ZM76 162.402C76 150.365 86.6624 140.464 100 140.464V138.464C85.7234 138.464 74 149.102 74 162.402H76ZM100 140.464C113.338 140.464 124 150.365 124 162.402H126C126 149.102 114.277 138.464 100 138.464V140.464ZM124 162.402C124 164.508 123.676 166.543 123.07 168.469L124.978 169.069C125.644 166.952 126 164.715 126 162.402H124ZM130.977 184.505H196V182.505H130.977V184.505ZM201 179.505V118.823H199V179.505H201ZM196 184.505C198.761 184.505 201 182.267 201 179.505H199C199 181.162 197.657 182.505 196 182.505V184.505ZM123.07 168.469C122.673 169.735 122.687 171.359 122.942 173.003C123.2 174.671 123.721 176.461 124.427 178.112C125.131 179.756 126.041 181.31 127.102 182.471C128.148 183.613 129.466 184.505 130.977 184.505V182.505C130.279 182.505 129.457 182.082 128.578 181.121C127.714 180.177 126.913 178.837 126.266 177.325C125.621 175.818 125.149 174.189 124.918 172.698C124.684 171.183 124.714 169.911 124.978 169.069L123.07 168.469ZM-1 179.505C-1 182.267 1.23857 184.505 4 184.505V182.505C2.34314 182.505 1 181.162 1 179.505H-1ZM201 4C201 1.23858 198.761 -1 196 -1V1C197.657 1 199 2.34315 199 4H201ZM69.0226 184.505C70.5343 184.505 71.8522 183.613 72.8977 182.471C73.9594 181.31 74.8687 179.756 75.5727 178.112C76.2793 176.461 76.8 174.671 77.058 173.003C77.3125 171.359 77.3275 169.735 76.9297 168.469L75.0217 169.069C75.2864 169.911 75.316 171.183 75.0816 172.698C74.8507 174.189 74.379 175.818 73.7341 177.325C73.0867 178.837 72.2855 180.177 71.4221 181.121C70.5426 182.082 69.7207 182.505 69.0226 182.505V184.505ZM212.564 69.8206C211.785 70.1352 210.666 70.234 209.355 70.085C208.06 69.9379 206.662 69.5584 205.377 69.0038C204.086 68.4471 202.957 67.7345 202.167 66.9515C201.371 66.1628 201 65.3886 201 64.6823H199C199 66.1169 199.75 67.3716 200.759 68.3722C201.775 69.3784 203.136 70.2152 204.584 70.8401C206.037 71.4671 207.626 71.9014 209.129 72.0722C210.616 72.2412 212.107 72.1622 213.313 71.6751L212.564 69.8206ZM213.313 111.83C212.107 111.343 210.616 111.264 209.129 111.433C207.626 111.604 206.037 112.038 204.584 112.665C203.136 113.29 201.775 114.127 200.759 115.133C199.75 116.134 199 117.388 199 118.823H201C201 118.117 201.371 117.342 202.167 116.554C202.957 115.771 204.086 115.058 205.377 114.501C206.662 113.947 208.06 113.567 209.355 113.42C210.666 113.271 211.785 113.37 212.564 113.685L213.313 111.83Z" fill="#167EA1" mask="url(#path-4-inside-2_102_2)"/>
<path d="M72.2606 83.128C71.4072 83.128 70.6126 82.984 69.8766 82.696C69.1512 82.408 68.5219 82.008 67.9886 81.496C67.4552 80.9733 67.0392 80.3653 66.7406 79.672C66.4419 78.9787 66.2926 78.2213 66.2926 77.4C66.2926 76.5787 66.4419 75.8213 66.7406 75.128C67.0392 74.4347 67.4552 73.832 67.9886 73.32C68.5219 72.7973 69.1512 72.392 69.8766 72.104C70.6019 71.816 71.3966 71.672 72.2606 71.672C73.1139 71.672 73.8979 71.816 74.6126 72.104C75.3379 72.3813 75.9672 72.7813 76.5006 73.304C77.0446 73.816 77.4606 74.4187 77.7486 75.112C78.0472 75.8053 78.1966 76.568 78.1966 77.4C78.1966 78.232 78.0472 78.9947 77.7486 79.688C77.4606 80.3813 77.0446 80.9893 76.5006 81.512C75.9672 82.024 75.3379 82.424 74.6126 82.712C73.8979 82.9893 73.1139 83.128 72.2606 83.128ZM72.2606 81.704C72.8792 81.704 73.4499 81.5973 73.9726 81.384C74.5059 81.1707 74.9646 80.872 75.3486 80.488C75.7432 80.0933 76.0472 79.6347 76.2606 79.112C76.4846 78.5893 76.5966 78.0187 76.5966 77.4C76.5966 76.7813 76.4846 76.2107 76.2606 75.688C76.0472 75.1653 75.7432 74.712 75.3486 74.328C74.9646 73.9333 74.5059 73.6293 73.9726 73.416C73.4499 73.2027 72.8792 73.096 72.2606 73.096C71.6312 73.096 71.0499 73.2027 70.5166 73.416C69.9939 73.6293 69.5352 73.9333 69.1406 74.328C68.7459 74.712 68.4366 75.1653 68.2126 75.688C67.9992 76.2107 67.8926 76.7813 67.8926 77.4C67.8926 78.0187 67.9992 78.5893 68.2126 79.112C68.4366 79.6347 68.7459 80.0933 69.1406 80.488C69.5352 80.872 69.9939 81.1707 70.5166 81.384C71.0499 81.5973 71.6312 81.704 72.2606 81.704ZM85.5831 83.128C85.5724 83.128 85.5351 83.128 85.4711 83.128C85.4177 83.128 85.3644 83.128 85.3111 83.128C85.2577 83.128 85.2257 83.128 85.2151 83.128C83.4764 83.1067 82.1271 82.7227 81.1671 81.976C80.2071 81.2187 79.7271 80.1413 79.7271 78.744C79.7271 77.3573 80.2071 76.296 81.1671 75.56C82.1377 74.8133 83.5031 74.4347 85.2631 74.424C85.2844 74.424 85.3164 74.424 85.3591 74.424C85.4124 74.424 85.4604 74.424 85.5031 74.424C85.5564 74.424 85.5884 74.424 85.5991 74.424C87.3804 74.424 88.7617 74.7973 89.7431 75.544C90.7351 76.2907 91.2311 77.3573 91.2311 78.744C91.2311 80.152 90.7351 81.2347 89.7431 81.992C88.7511 82.7493 87.3644 83.128 85.5831 83.128ZM85.5511 81.784C86.4791 81.784 87.2471 81.6667 87.8551 81.432C88.4737 81.1973 88.9377 80.856 89.2471 80.408C89.5564 79.96 89.7111 79.4053 89.7111 78.744C89.7111 78.0933 89.5564 77.5493 89.2471 77.112C88.9377 76.6747 88.4737 76.344 87.8551 76.12C87.2471 75.896 86.4791 75.784 85.5511 75.784C85.5297 75.784 85.4871 75.784 85.4231 75.784C85.3591 75.784 85.3217 75.784 85.3111 75.784C84.4044 75.784 83.6471 75.9013 83.0391 76.136C82.4417 76.36 81.9937 76.6907 81.6951 77.128C81.3964 77.5653 81.2471 78.104 81.2471 78.744C81.2471 79.3947 81.3964 79.944 81.6951 80.392C82.0044 80.84 82.4577 81.1813 83.0551 81.416C83.6631 81.6507 84.4151 81.7733 85.3111 81.784C85.3324 81.784 85.3697 81.784 85.4231 81.784C85.4871 81.784 85.5297 81.784 85.5511 81.784ZM84.7191 86.104V71.128H86.2231V86.104H84.7191ZM91.9316 82.984L92.0276 81.688C92.1022 81.6987 92.1716 81.7093 92.2356 81.72C92.2996 81.7307 92.3582 81.736 92.4116 81.736C92.7529 81.736 93.0196 81.6187 93.2116 81.384C93.4142 81.1493 93.5636 80.84 93.6596 80.456C93.7556 80.0613 93.8249 79.6187 93.8676 79.128C93.9102 78.6373 93.9422 78.1467 93.9636 77.656L94.1076 74.52H100.62V83H99.0836V75.416L99.4516 75.864H95.0996L95.4516 75.4L95.3396 77.752C95.3076 78.4987 95.2489 79.1973 95.1636 79.848C95.0782 80.4987 94.9449 81.0693 94.7636 81.56C94.5929 82.0507 94.3529 82.4347 94.0436 82.712C93.7449 82.9893 93.3556 83.128 92.8756 83.128C92.7369 83.128 92.5876 83.112 92.4276 83.08C92.2782 83.0587 92.1129 83.0267 91.9316 82.984ZM108.79 83V81.208L108.71 80.872V77.816C108.71 77.1653 108.518 76.664 108.134 76.312C107.76 75.9493 107.195 75.768 106.438 75.768C105.936 75.768 105.446 75.8533 104.966 76.024C104.486 76.184 104.08 76.4027 103.75 76.68L103.11 75.528C103.547 75.176 104.07 74.9093 104.678 74.728C105.296 74.536 105.942 74.44 106.614 74.44C107.776 74.44 108.672 74.7227 109.302 75.288C109.931 75.8533 110.246 76.7173 110.246 77.88V83H108.79ZM106.006 83.096C105.376 83.096 104.822 82.9893 104.342 82.776C103.872 82.5627 103.51 82.2693 103.254 81.896C102.998 81.512 102.87 81.08 102.87 80.6C102.87 80.1413 102.976 79.7253 103.19 79.352C103.414 78.9787 103.771 78.68 104.262 78.456C104.763 78.232 105.435 78.12 106.278 78.12H108.966V79.224H106.342C105.574 79.224 105.056 79.352 104.79 79.608C104.523 79.864 104.39 80.1733 104.39 80.536C104.39 80.952 104.555 81.288 104.886 81.544C105.216 81.7893 105.675 81.912 106.262 81.912C106.838 81.912 107.339 81.784 107.766 81.528C108.203 81.272 108.518 80.8987 108.71 80.408L109.014 81.464C108.811 81.9653 108.454 82.3653 107.942 82.664C107.43 82.952 106.784 83.096 106.006 83.096ZM113.011 83V74.52H114.547V80.696L119.747 74.52H121.139V83H119.603V76.824L114.419 83H113.011ZM116.979 73.416C116.201 73.416 115.587 73.2293 115.139 72.856C114.702 72.472 114.478 71.9227 114.467 71.208H115.507C115.518 71.6133 115.651 71.9333 115.907 72.168C116.174 72.4027 116.526 72.52 116.963 72.52C117.401 72.52 117.753 72.4027 118.019 72.168C118.286 71.9333 118.425 71.6133 118.435 71.208H119.507C119.497 71.9227 119.267 72.472 118.819 72.856C118.371 73.2293 117.758 73.416 116.979 73.416ZM124.121 83V74.52H125.657V78.12H130.489V74.52H132.025V83H130.489V79.448H125.657V83H124.121ZM39.8117 108L36.5317 103.872L37.7957 103.104L41.6197 108H39.8117ZM33.6677 108V99.52H35.2037V108H33.6677ZM34.7397 104.416V103.104H37.5397V104.416H34.7397ZM37.9237 103.936L36.4997 103.744L39.7477 99.52H41.3957L37.9237 103.936ZM46.5809 108.096C45.7276 108.096 44.9703 107.909 44.3089 107.536C43.6476 107.163 43.1249 106.651 42.7409 106C42.3569 105.339 42.1649 104.592 42.1649 103.76C42.1649 102.917 42.3569 102.171 42.7409 101.52C43.1249 100.869 43.6476 100.363 44.3089 100C44.9703 99.6267 45.7276 99.44 46.5809 99.44C47.4236 99.44 48.1756 99.6267 48.8369 100C49.5089 100.363 50.0316 100.869 50.4049 101.52C50.7889 102.16 50.9809 102.907 50.9809 103.76C50.9809 104.603 50.7889 105.349 50.4049 106C50.0316 106.651 49.5089 107.163 48.8369 107.536C48.1756 107.909 47.4236 108.096 46.5809 108.096ZM46.5809 106.752C47.1249 106.752 47.6103 106.629 48.0369 106.384C48.4743 106.139 48.8156 105.792 49.0609 105.344C49.3063 104.885 49.4289 104.357 49.4289 103.76C49.4289 103.152 49.3063 102.629 49.0609 102.192C48.8156 101.744 48.4743 101.397 48.0369 101.152C47.6103 100.907 47.1249 100.784 46.5809 100.784C46.0369 100.784 45.5516 100.907 45.1249 101.152C44.6983 101.397 44.3569 101.744 44.1009 102.192C43.8449 102.629 43.7169 103.152 43.7169 103.76C43.7169 104.357 43.8449 104.885 44.1009 105.344C44.3569 105.792 44.6983 106.139 45.1249 106.384C45.5516 106.629 46.0369 106.752 46.5809 106.752ZM53.1989 108V99.52H54.7349V103.12H59.5669V99.52H61.1029V108H59.5669V104.448H54.7349V108H53.1989ZM67.7856 108.096C66.9216 108.096 66.1482 107.909 65.4656 107.536C64.7936 107.163 64.2656 106.651 63.8816 106C63.4976 105.349 63.3056 104.603 63.3056 103.76C63.3056 102.917 63.4976 102.171 63.8816 101.52C64.2656 100.869 64.7936 100.363 65.4656 100C66.1482 99.6267 66.9216 99.44 67.7856 99.44C68.5536 99.44 69.2362 99.5947 69.8336 99.904C70.4416 100.203 70.9109 100.651 71.2416 101.248L70.0736 102C69.7962 101.584 69.4549 101.28 69.0496 101.088C68.6549 100.885 68.2282 100.784 67.7696 100.784C67.2149 100.784 66.7189 100.907 66.2816 101.152C65.8442 101.397 65.4976 101.744 65.2416 102.192C64.9856 102.629 64.8576 103.152 64.8576 103.76C64.8576 104.368 64.9856 104.896 65.2416 105.344C65.4976 105.792 65.8442 106.139 66.2816 106.384C66.7189 106.629 67.2149 106.752 67.7696 106.752C68.2282 106.752 68.6549 106.656 69.0496 106.464C69.4549 106.261 69.7962 105.952 70.0736 105.536L71.2416 106.272C70.9109 106.859 70.4416 107.312 69.8336 107.632C69.2362 107.941 68.5536 108.096 67.7856 108.096ZM73.5528 111.2C73.1475 111.2 72.7528 111.131 72.3688 110.992C71.9848 110.864 71.6541 110.672 71.3768 110.416L72.0328 109.264C72.2461 109.467 72.4808 109.621 72.7368 109.728C72.9928 109.835 73.2648 109.888 73.5528 109.888C73.9261 109.888 74.2355 109.792 74.4808 109.6C74.7261 109.408 74.9555 109.067 75.1688 108.576L75.6968 107.408L75.8568 107.216L79.1848 99.52H80.6888L76.5768 108.848C76.3315 109.445 76.0541 109.915 75.7448 110.256C75.4461 110.597 75.1155 110.837 74.7528 110.976C74.3901 111.125 73.9901 111.2 73.5528 111.2ZM75.5688 108.272L71.6968 99.52H73.2968L76.5928 107.072L75.5688 108.272ZM80.4159 107.984L80.5119 106.688C80.5866 106.699 80.6559 106.709 80.7199 106.72C80.7839 106.731 80.8426 106.736 80.8959 106.736C81.2373 106.736 81.5039 106.619 81.6959 106.384C81.8986 106.149 82.0479 105.84 82.1439 105.456C82.2399 105.061 82.3093 104.619 82.3519 104.128C82.3946 103.637 82.4266 103.147 82.4479 102.656L82.5919 99.52H89.1039V108H87.5679V100.416L87.9359 100.864H83.5839L83.9359 100.4L83.8239 102.752C83.7919 103.499 83.7333 104.197 83.6479 104.848C83.5626 105.499 83.4293 106.069 83.2479 106.56C83.0773 107.051 82.8373 107.435 82.5279 107.712C82.2293 107.989 81.8399 108.128 81.3599 108.128C81.2213 108.128 81.0719 108.112 80.9119 108.08C80.7626 108.059 80.5973 108.027 80.4159 107.984ZM95.9939 102.4C97.0713 102.411 97.8926 102.656 98.4579 103.136C99.0233 103.616 99.3059 104.293 99.3059 105.168C99.3059 106.085 98.9966 106.795 98.3779 107.296C97.7593 107.787 96.8846 108.027 95.7539 108.016L92.0739 108V99.52H93.6099V102.384L95.9939 102.4ZM95.6259 106.848C96.3193 106.859 96.8419 106.72 97.1939 106.432C97.5566 106.144 97.7379 105.717 97.7379 105.152C97.7379 104.597 97.5619 104.192 97.2099 103.936C96.8579 103.68 96.3299 103.547 95.6259 103.536L93.6099 103.504V106.832L95.6259 106.848ZM102.129 108V100.464L102.513 100.864H99.0249V99.52H106.769V100.864H103.297L103.665 100.464V108H102.129ZM108.772 111.2C108.366 111.2 107.972 111.131 107.588 110.992C107.204 110.864 106.873 110.672 106.596 110.416L107.252 109.264C107.465 109.467 107.7 109.621 107.956 109.728C108.212 109.835 108.484 109.888 108.772 109.888C109.145 109.888 109.454 109.792 109.7 109.6C109.945 109.408 110.174 109.067 110.388 108.576L110.916 107.408L111.076 107.216L114.404 99.52H115.908L111.796 108.848C111.55 109.445 111.273 109.915 110.964 110.256C110.665 110.597 110.334 110.837 109.972 110.976C109.609 111.125 109.209 111.2 108.772 111.2ZM110.788 108.272L106.916 99.52H108.516L111.812 107.072L110.788 108.272ZM117.48 108V99.52H121.416C122.408 99.52 123.187 99.712 123.752 100.096C124.328 100.469 124.616 101.003 124.616 101.696C124.616 102.389 124.344 102.928 123.8 103.312C123.267 103.685 122.558 103.872 121.672 103.872L121.912 103.456C122.926 103.456 123.678 103.643 124.168 104.016C124.659 104.389 124.904 104.939 124.904 105.664C124.904 106.4 124.627 106.976 124.072 107.392C123.528 107.797 122.691 108 121.56 108H117.48ZM118.984 106.816H121.448C122.088 106.816 122.568 106.72 122.888 106.528C123.208 106.325 123.368 106.005 123.368 105.568C123.368 105.12 123.219 104.795 122.92 104.592C122.632 104.379 122.174 104.272 121.544 104.272H118.984V106.816ZM118.984 103.168H121.288C121.875 103.168 122.318 103.061 122.616 102.848C122.926 102.624 123.08 102.315 123.08 101.92C123.08 101.515 122.926 101.211 122.616 101.008C122.318 100.805 121.875 100.704 121.288 100.704H118.984V103.168ZM132.508 108V106.208L132.428 105.872V102.816C132.428 102.165 132.236 101.664 131.852 101.312C131.479 100.949 130.914 100.768 130.156 100.768C129.655 100.768 129.164 100.853 128.684 101.024C128.204 101.184 127.799 101.403 127.468 101.68L126.828 100.528C127.266 100.176 127.788 99.9093 128.396 99.728C129.015 99.536 129.66 99.44 130.332 99.44C131.495 99.44 132.391 99.7227 133.02 100.288C133.65 100.853 133.964 101.717 133.964 102.88V108H132.508ZM129.724 108.096C129.095 108.096 128.54 107.989 128.06 107.776C127.591 107.563 127.228 107.269 126.972 106.896C126.716 106.512 126.588 106.08 126.588 105.6C126.588 105.141 126.695 104.725 126.908 104.352C127.132 103.979 127.49 103.68 127.98 103.456C128.482 103.232 129.154 103.12 129.996 103.12H132.684V104.224H130.06C129.292 104.224 128.775 104.352 128.508 104.608C128.242 104.864 128.108 105.173 128.108 105.536C128.108 105.952 128.274 106.288 128.604 106.544C128.935 106.789 129.394 106.912 129.98 106.912C130.556 106.912 131.058 106.784 131.484 106.528C131.922 106.272 132.236 105.899 132.428 105.408L132.732 106.464C132.53 106.965 132.172 107.365 131.66 107.664C131.148 107.952 130.503 108.096 129.724 108.096ZM136.73 108V99.52H138.266V103.12H143.098V99.52H144.634V108H143.098V104.448H138.266V108H136.73ZM147.621 108V99.52H149.157V103.12H153.989V99.52H155.525V108H153.989V104.448H149.157V108H147.621ZM163.935 108V105.024L164.175 105.312H161.471C160.341 105.312 159.455 105.072 158.815 104.592C158.186 104.112 157.871 103.413 157.871 102.496C157.871 101.515 158.207 100.773 158.879 100.272C159.562 99.7707 160.469 99.52 161.599 99.52H165.311V108H163.935ZM157.791 108L160.095 104.752H161.679L159.439 108H157.791ZM163.935 104.544V100.432L164.175 100.864H161.647C160.943 100.864 160.399 100.997 160.015 101.264C159.631 101.52 159.439 101.947 159.439 102.544C159.439 103.653 160.154 104.208 161.583 104.208H164.175L163.935 104.544Z" fill="white"/>
<mask id="path-7-inside-3_102_2" fill="white">
<path fill-rule="evenodd" clip-rule="evenodd" d="M329.023 183.506C333.442 183.506 337.301 194.025 335.976 198.242C335.34 200.263 335 202.399 335 204.609C335 217.277 346.193 227.547 360 227.547C373.807 227.547 385 217.277 385 204.609C385 202.399 384.66 200.263 384.024 198.242C382.699 194.025 386.558 183.506 390.977 183.506H456C458.209 183.506 460 181.715 460 179.506L460 20.0005C460 8.95479 451.046 0.000488281 440 0.000488281L264 0.000488281C261.791 0.000488281 260 1.79135 260 4.00049L260 64.6829C260 68.9645 268.968 72.3517 272.938 70.7484C276.017 69.5051 279.421 68.8149 283 68.8149C296.807 68.8149 308 79.0847 308 91.7531C308 104.421 296.807 114.691 283 114.691C279.421 114.691 276.017 114.001 272.938 112.758C268.968 111.154 260 114.542 260 118.823V179.506C260 181.715 261.791 183.506 264 183.506L329.023 183.506Z"/>
</mask>
<path fill-rule="evenodd" clip-rule="evenodd" d="M329.023 183.506C333.442 183.506 337.301 194.025 335.976 198.242C335.34 200.263 335 202.399 335 204.609C335 217.277 346.193 227.547 360 227.547C373.807 227.547 385 217.277 385 204.609C385 202.399 384.66 200.263 384.024 198.242C382.699 194.025 386.558 183.506 390.977 183.506H456C458.209 183.506 460 181.715 460 179.506L460 20.0005C460 8.95479 451.046 0.000488281 440 0.000488281L264 0.000488281C261.791 0.000488281 260 1.79135 260 4.00049L260 64.6829C260 68.9645 268.968 72.3517 272.938 70.7484C276.017 69.5051 279.421 68.8149 283 68.8149C296.807 68.8149 308 79.0847 308 91.7531C308 104.421 296.807 114.691 283 114.691C279.421 114.691 276.017 114.001 272.938 112.758C268.968 111.154 260 114.542 260 118.823V179.506C260 181.715 261.791 183.506 264 183.506L329.023 183.506Z" fill="#E3F5F5"/>
<path d="M272.938 112.758L273.313 111.831L272.938 112.758ZM272.938 70.7484L272.564 69.8211L272.938 70.7484ZM335.976 198.242L336.93 198.541L335.976 198.242ZM336 204.609C336 202.503 336.324 200.468 336.93 198.541L335.022 197.942C334.356 200.059 334 202.296 334 204.609H336ZM360 226.547C346.662 226.547 336 216.646 336 204.609H334C334 217.909 345.723 228.547 360 228.547V226.547ZM384 204.609C384 216.646 373.338 226.547 360 226.547V228.547C374.277 228.547 386 217.909 386 204.609H384ZM383.07 198.541C383.676 200.468 384 202.503 384 204.609H386C386 202.296 385.644 200.059 384.978 197.942L383.07 198.541ZM390.977 184.506H456V182.506H390.977V184.506ZM461 179.506L461 20.0005H459L459 179.506H461ZM461 20.0005C461 8.4025 451.598 -0.999512 440 -0.999512V1.00049C450.493 1.00049 459 9.50708 459 20.0005H461ZM440 -0.999512L264 -0.999512V1.00049L440 1.00049V-0.999512ZM259 4.00049L259 64.6829H261L261 4.00049H259ZM273.313 71.6756C276.273 70.4802 279.55 69.8149 283 69.8149V67.8149C279.292 67.8149 275.761 68.5301 272.564 69.8211L273.313 71.6756ZM283 69.8149C296.338 69.8149 307 79.7163 307 91.7531H309C309 78.4531 297.277 67.8149 283 67.8149V69.8149ZM307 91.7531C307 103.79 296.338 113.691 283 113.691V115.691C297.277 115.691 309 105.053 309 91.7531H307ZM283 113.691C279.55 113.691 276.273 113.026 273.313 111.831L272.564 113.685C275.761 114.976 279.292 115.691 283 115.691V113.691ZM259 118.823V179.506H261V118.823H259ZM264 184.506L329.023 184.506V182.506L264 182.506V184.506ZM259 179.506C259 182.267 261.239 184.506 264 184.506V182.506C262.343 182.506 261 181.162 261 179.506H259ZM273.313 111.831C272.107 111.343 270.616 111.264 269.129 111.433C267.626 111.604 266.037 112.039 264.584 112.666C263.136 113.29 261.775 114.127 260.759 115.133C259.75 116.134 259 117.389 259 118.823H261C261 118.117 261.371 117.343 262.167 116.554C262.957 115.771 264.086 115.059 265.377 114.502C266.662 113.947 268.06 113.568 269.355 113.421C270.666 113.272 271.785 113.37 272.564 113.685L273.313 111.831ZM264 -0.999512C261.239 -0.999512 259 1.23906 259 4.00049H261C261 2.34363 262.343 1.00049 264 1.00049V-0.999512ZM456 184.506C458.761 184.506 461 182.267 461 179.506H459C459 181.162 457.657 182.506 456 182.506V184.506ZM259 64.6829C259 66.1174 259.75 67.3722 260.759 68.3727C261.775 69.3789 263.136 70.2158 264.584 70.8406C266.037 71.4676 267.626 71.9019 269.129 72.0728C270.616 72.2417 272.107 72.1627 273.313 71.6756L272.564 69.8211C271.785 70.1357 270.666 70.2346 269.355 70.0855C268.06 69.9384 266.662 69.5589 265.377 69.0043C264.086 68.4476 262.957 67.735 262.167 66.952C261.371 66.1633 261 65.3891 261 64.6829H259ZM384.978 197.942C384.714 197.099 384.684 195.827 384.918 194.313C385.149 192.822 385.621 191.192 386.266 189.686C386.913 188.174 387.714 186.834 388.578 185.89C389.457 184.929 390.279 184.506 390.977 184.506V182.506C389.466 182.506 388.148 183.397 387.102 184.54C386.041 185.701 385.131 187.254 384.427 188.899C383.721 190.549 383.2 192.34 382.942 194.007C382.687 195.651 382.672 197.275 383.07 198.541L384.978 197.942ZM336.93 198.541C337.328 197.275 337.313 195.651 337.058 194.007C336.8 192.34 336.279 190.549 335.573 188.899C334.869 187.254 333.959 185.701 332.898 184.54C331.852 183.397 330.534 182.506 329.023 182.506V184.506C329.721 184.506 330.543 184.929 331.422 185.89C332.286 186.834 333.087 188.174 333.734 189.686C334.379 191.192 334.851 192.822 335.082 194.313C335.316 195.827 335.286 197.099 335.022 197.942L336.93 198.541Z" fill="#167EA1" mask="url(#path-7-inside-3_102_2)"/>
<path d="M326.032 103V92.776L326.432 93.192H322.208V91.8H331.44V93.192H327.216L327.6 92.776V103H326.032ZM337.422 103.096C336.718 103.096 336.072 102.936 335.486 102.616C334.91 102.285 334.446 101.8 334.094 101.16C333.752 100.52 333.582 99.72 333.582 98.76C333.582 97.8 333.747 97 334.078 96.36C334.419 95.72 334.878 95.24 335.454 94.92C336.04 94.6 336.696 94.44 337.422 94.44C338.254 94.44 338.99 94.6213 339.63 94.984C340.27 95.3467 340.776 95.8533 341.15 96.504C341.523 97.144 341.71 97.896 341.71 98.76C341.71 99.624 341.523 100.381 341.15 101.032C340.776 101.683 340.27 102.189 339.63 102.552C338.99 102.915 338.254 103.096 337.422 103.096ZM332.926 106.104V94.52H334.398V96.808L334.302 98.776L334.462 100.744V106.104H332.926ZM337.294 101.752C337.838 101.752 338.323 101.629 338.75 101.384C339.187 101.139 339.528 100.792 339.774 100.344C340.03 99.8853 340.158 99.3573 340.158 98.76C340.158 98.152 340.03 97.6293 339.774 97.192C339.528 96.744 339.187 96.3973 338.75 96.152C338.323 95.9067 337.838 95.784 337.294 95.784C336.76 95.784 336.275 95.9067 335.838 96.152C335.411 96.3973 335.07 96.744 334.814 97.192C334.568 97.6293 334.446 98.152 334.446 98.76C334.446 99.3573 334.568 99.8853 334.814 100.344C335.07 100.792 335.411 101.139 335.838 101.384C336.275 101.629 336.76 101.752 337.294 101.752ZM347.717 103.096C346.81 103.096 346.01 102.909 345.317 102.536C344.634 102.163 344.101 101.651 343.717 101C343.344 100.349 343.157 99.6027 343.157 98.76C343.157 97.9173 343.338 97.1707 343.701 96.52C344.074 95.8693 344.581 95.3627 345.221 95C345.872 94.6267 346.602 94.44 347.413 94.44C348.234 94.44 348.96 94.6213 349.589 94.984C350.218 95.3467 350.709 95.8587 351.061 96.52C351.424 97.1707 351.605 97.9333 351.605 98.808C351.605 98.872 351.6 98.9467 351.589 99.032C351.589 99.1173 351.584 99.1973 351.573 99.272H344.357V98.168H350.773L350.149 98.552C350.16 98.008 350.048 97.5227 349.813 97.096C349.578 96.6693 349.253 96.3387 348.837 96.104C348.432 95.8587 347.957 95.736 347.413 95.736C346.88 95.736 346.405 95.8587 345.989 96.104C345.573 96.3387 345.248 96.6747 345.013 97.112C344.778 97.5387 344.661 98.0293 344.661 98.584V98.84C344.661 99.4053 344.789 99.912 345.045 100.36C345.312 100.797 345.68 101.139 346.149 101.384C346.618 101.629 347.157 101.752 347.765 101.752C348.266 101.752 348.72 101.667 349.125 101.496C349.541 101.325 349.904 101.069 350.213 100.728L351.061 101.72C350.677 102.168 350.197 102.509 349.621 102.744C349.056 102.979 348.421 103.096 347.717 103.096ZM353.988 103V94.52H355.524V98.12H360.356V94.52H361.892V103H360.356V99.448H355.524V103H353.988ZM364.879 103V94.52H366.415V103H364.879ZM365.647 92.888C365.348 92.888 365.097 92.792 364.895 92.6C364.703 92.408 364.607 92.1733 364.607 91.896C364.607 91.608 364.703 91.368 364.895 91.176C365.097 90.984 365.348 90.888 365.647 90.888C365.945 90.888 366.191 90.984 366.383 91.176C366.585 91.3573 366.687 91.5867 366.687 91.864C366.687 92.152 366.591 92.3973 366.399 92.6C366.207 92.792 365.956 92.888 365.647 92.888ZM369.41 103V94.52H370.946V98.12H375.778V94.52H377.314V103H375.778V99.448H370.946V103H369.41ZM380.301 103V94.52H386.541V95.864H381.469L381.837 95.512V103H380.301ZM388.113 103V94.52H389.649V100.696L394.849 94.52H396.241V103H394.705V96.824L389.521 103H388.113Z" fill="#5E6476"/>
<mask id="path-10-inside-4_102_2" fill="white">
<path fill-rule="evenodd" clip-rule="evenodd" d="M260 297.736C260 302.017 251.032 305.405 247.062 303.801C243.983 302.558 240.579 301.868 237 301.868C223.193 301.868 212 312.138 212 324.806C212 337.474 223.193 347.744 237 347.744C240.579 347.744 243.983 347.054 247.062 345.811C251.032 344.207 260 347.595 260 351.876V412.559C260 414.768 261.791 416.559 264 416.559H440C451.046 416.559 460 407.604 460 396.559V237.053C460 234.844 458.209 233.053 456 233.053H390.978C386.558 233.053 382.699 243.573 384.024 247.79C384.66 249.811 385 251.947 385 254.157C385 266.825 373.807 277.095 360 277.095C346.193 277.095 335 266.825 335 254.157C335 251.947 335.34 249.811 335.976 247.79C337.301 243.573 333.442 233.053 329.022 233.053H264C261.791 233.053 260 234.844 260 237.053V297.736Z"/>
</mask>
<path fill-rule="evenodd" clip-rule="evenodd" d="M260 297.736C260 302.017 251.032 305.405 247.062 303.801C243.983 302.558 240.579 301.868 237 301.868C223.193 301.868 212 312.138 212 324.806C212 337.474 223.193 347.744 237 347.744C240.579 347.744 243.983 347.054 247.062 345.811C251.032 344.207 260 347.595 260 351.876V412.559C260 414.768 261.791 416.559 264 416.559H440C451.046 416.559 460 407.604 460 396.559V237.053C460 234.844 458.209 233.053 456 233.053H390.978C386.558 233.053 382.699 243.573 384.024 247.79C384.66 249.811 385 251.947 385 254.157C385 266.825 373.807 277.095 360 277.095C346.193 277.095 335 266.825 335 254.157C335 251.947 335.34 249.811 335.976 247.79C337.301 243.573 333.442 233.053 329.022 233.053H264C261.791 233.053 260 234.844 260 237.053V297.736Z" fill="#F3B150"/>
<path d="M247.062 345.811L247.436 346.738L247.062 345.811ZM237 302.868C240.45 302.868 243.727 303.533 246.687 304.729L247.436 302.874C244.239 301.583 240.708 300.868 237 300.868V302.868ZM213 324.806C213 312.769 223.662 302.868 237 302.868V300.868C222.723 300.868 211 311.506 211 324.806H213ZM237 346.744C223.662 346.744 213 336.843 213 324.806H211C211 338.106 222.723 348.744 237 348.744V346.744ZM246.687 344.884C243.727 346.079 240.45 346.744 237 346.744V348.744C240.708 348.744 244.239 348.029 247.436 346.738L246.687 344.884ZM259 351.876V412.559H261V351.876H259ZM264 417.559H440V415.559H264V417.559ZM440 417.559C451.598 417.559 461 408.157 461 396.559H459C459 407.052 450.493 415.559 440 415.559V417.559ZM461 396.559V237.053H459V396.559H461ZM456 232.053H390.978V234.053H456V232.053ZM383.07 248.089C383.676 250.016 384 252.051 384 254.157H386C386 251.844 385.644 249.607 384.978 247.49L383.07 248.089ZM384 254.157C384 266.193 373.338 276.095 360 276.095V278.095C374.277 278.095 386 267.457 386 254.157H384ZM360 276.095C346.662 276.095 336 266.193 336 254.157H334C334 267.457 345.723 278.095 360 278.095V276.095ZM336 254.157C336 252.051 336.324 250.016 336.93 248.089L335.022 247.49C334.356 249.607 334 251.844 334 254.157H336ZM329.022 232.053H264V234.053H329.022V232.053ZM259 237.053V297.736H261V237.053H259ZM264 232.053C261.239 232.053 259 234.292 259 237.053H261C261 235.397 262.343 234.053 264 234.053V232.053ZM336.93 248.089C337.327 246.824 337.312 245.199 337.058 243.555C336.8 241.888 336.279 240.097 335.573 238.447C334.869 236.802 333.959 235.248 332.898 234.088C331.852 232.945 330.534 232.053 329.022 232.053V234.053C329.721 234.053 330.542 234.477 331.422 235.438C332.285 236.382 333.087 237.721 333.734 239.234C334.379 240.74 334.851 242.37 335.081 243.861C335.316 245.376 335.286 246.647 335.022 247.49L336.93 248.089ZM461 237.053C461 234.292 458.761 232.053 456 232.053V234.053C457.657 234.053 459 235.397 459 237.053H461ZM259 412.559C259 415.32 261.239 417.559 264 417.559V415.559C262.343 415.559 261 414.215 261 412.559H259ZM390.978 232.053C389.466 232.053 388.148 232.945 387.102 234.088C386.041 235.248 385.131 236.802 384.427 238.447C383.721 240.097 383.2 241.888 382.942 243.555C382.688 245.199 382.673 246.824 383.07 248.089L384.978 247.49C384.714 246.647 384.684 245.376 384.919 243.861C385.149 242.37 385.621 240.74 386.266 239.234C386.913 237.721 387.715 236.382 388.578 235.438C389.458 234.477 390.279 234.053 390.978 234.053V232.053ZM247.436 346.738C248.215 346.423 249.334 346.325 250.645 346.474C251.94 346.621 253.338 347 254.623 347.555C255.914 348.112 257.043 348.824 257.833 349.607C258.629 350.396 259 351.17 259 351.876H261C261 350.442 260.25 349.187 259.241 348.186C258.225 347.18 256.864 346.343 255.416 345.719C253.963 345.092 252.374 344.657 250.871 344.486C249.384 344.317 247.893 344.396 246.687 344.884L247.436 346.738ZM246.687 304.729C247.893 305.216 249.384 305.295 250.871 305.126C252.374 304.955 253.963 304.521 255.416 303.894C256.864 303.269 258.225 302.432 259.241 301.426C260.25 300.425 261 299.17 261 297.736H259C259 298.442 258.629 299.216 257.833 300.005C257.043 300.788 255.914 301.501 254.623 302.057C253.338 302.612 251.94 302.991 250.645 303.139C249.334 303.288 248.215 303.189 247.436 302.874L246.687 304.729Z" fill="#167EA1" mask="url(#path-10-inside-4_102_2)"/>
<path d="M333.222 325.128C332.368 325.128 331.574 324.984 330.838 324.696C330.112 324.408 329.483 324.008 328.95 323.496C328.416 322.973 328 322.365 327.702 321.672C327.403 320.979 327.254 320.221 327.254 319.4C327.254 318.579 327.403 317.821 327.702 317.128C328 316.435 328.416 315.832 328.95 315.32C329.483 314.797 330.112 314.392 330.838 314.104C331.563 313.816 332.358 313.672 333.222 313.672C334.075 313.672 334.859 313.816 335.574 314.104C336.299 314.381 336.928 314.781 337.462 315.304C338.006 315.816 338.422 316.419 338.71 317.112C339.008 317.805 339.158 318.568 339.158 319.4C339.158 320.232 339.008 320.995 338.71 321.688C338.422 322.381 338.006 322.989 337.462 323.512C336.928 324.024 336.299 324.424 335.574 324.712C334.859 324.989 334.075 325.128 333.222 325.128ZM333.222 323.704C333.84 323.704 334.411 323.597 334.934 323.384C335.467 323.171 335.926 322.872 336.31 322.488C336.704 322.093 337.008 321.635 337.222 321.112C337.446 320.589 337.558 320.019 337.558 319.4C337.558 318.781 337.446 318.211 337.222 317.688C337.008 317.165 336.704 316.712 336.31 316.328C335.926 315.933 335.467 315.629 334.934 315.416C334.411 315.203 333.84 315.096 333.222 315.096C332.592 315.096 332.011 315.203 331.478 315.416C330.955 315.629 330.496 315.933 330.102 316.328C329.707 316.712 329.398 317.165 329.174 317.688C328.96 318.211 328.854 318.781 328.854 319.4C328.854 320.019 328.96 320.589 329.174 321.112C329.398 321.635 329.707 322.093 330.102 322.488C330.496 322.872 330.955 323.171 331.478 323.384C332.011 323.597 332.592 323.704 333.222 323.704ZM341.488 325V316.52H343.024V320.12H347.856V316.52H349.392V325H347.856V321.448H343.024V325H341.488ZM350.971 324.984L351.067 323.688C351.141 323.699 351.211 323.709 351.275 323.72C351.339 323.731 351.397 323.736 351.451 323.736C351.792 323.736 352.059 323.619 352.251 323.384C352.453 323.149 352.603 322.84 352.699 322.456C352.795 322.061 352.864 321.619 352.907 321.128C352.949 320.637 352.981 320.147 353.003 319.656L353.147 316.52H359.659V325H358.123V317.416L358.491 317.864H354.139L354.491 317.4L354.379 319.752C354.347 320.499 354.288 321.197 354.203 321.848C354.117 322.499 353.984 323.069 353.803 323.56C353.632 324.051 353.392 324.435 353.083 324.712C352.784 324.989 352.395 325.128 351.915 325.128C351.776 325.128 351.627 325.112 351.467 325.08C351.317 325.059 351.152 325.027 350.971 324.984ZM367.829 325V323.208L367.749 322.872V319.816C367.749 319.165 367.557 318.664 367.173 318.312C366.799 317.949 366.234 317.768 365.477 317.768C364.975 317.768 364.485 317.853 364.005 318.024C363.525 318.184 363.119 318.403 362.789 318.68L362.149 317.528C362.586 317.176 363.109 316.909 363.717 316.728C364.335 316.536 364.981 316.44 365.653 316.44C366.815 316.44 367.711 316.723 368.341 317.288C368.97 317.853 369.285 318.717 369.285 319.88V325H367.829ZM365.045 325.096C364.415 325.096 363.861 324.989 363.381 324.776C362.911 324.563 362.549 324.269 362.293 323.896C362.037 323.512 361.909 323.08 361.909 322.6C361.909 322.141 362.015 321.725 362.229 321.352C362.453 320.979 362.81 320.68 363.301 320.456C363.802 320.232 364.474 320.12 365.317 320.12H368.005V321.224H365.381C364.613 321.224 364.095 321.352 363.829 321.608C363.562 321.864 363.429 322.173 363.429 322.536C363.429 322.952 363.594 323.288 363.925 323.544C364.255 323.789 364.714 323.912 365.301 323.912C365.877 323.912 366.378 323.784 366.805 323.528C367.242 323.272 367.557 322.899 367.749 322.408L368.053 323.464C367.85 323.965 367.493 324.365 366.981 324.664C366.469 324.952 365.823 325.096 365.045 325.096ZM372.051 325V316.52H373.587V322.696L378.786 316.52H380.179V325H378.642V318.824L373.459 325H372.051ZM376.019 315.416C375.24 315.416 374.627 315.229 374.179 314.856C373.741 314.472 373.517 313.923 373.507 313.208H374.547C374.557 313.613 374.691 313.933 374.947 314.168C375.213 314.403 375.565 314.52 376.003 314.52C376.44 314.52 376.792 314.403 377.059 314.168C377.325 313.933 377.464 313.613 377.475 313.208H378.547C378.536 313.923 378.307 314.472 377.859 314.856C377.411 315.229 376.797 315.416 376.019 315.416ZM383.16 325V316.52H384.696V320.12H389.528V316.52H391.064V325H389.528V321.448H384.696V325H383.16ZM299.812 350L296.532 345.872L297.796 345.104L301.62 350H299.812ZM293.668 350V341.52H295.204V350H293.668ZM294.74 346.416V345.104H297.54V346.416H294.74ZM297.924 345.936L296.5 345.744L299.748 341.52H301.396L297.924 345.936ZM306.581 350.096C305.728 350.096 304.97 349.909 304.309 349.536C303.648 349.163 303.125 348.651 302.741 348C302.357 347.339 302.165 346.592 302.165 345.76C302.165 344.917 302.357 344.171 302.741 343.52C303.125 342.869 303.648 342.363 304.309 342C304.97 341.627 305.728 341.44 306.581 341.44C307.424 341.44 308.176 341.627 308.837 342C309.509 342.363 310.032 342.869 310.405 343.52C310.789 344.16 310.981 344.907 310.981 345.76C310.981 346.603 310.789 347.349 310.405 348C310.032 348.651 309.509 349.163 308.837 349.536C308.176 349.909 307.424 350.096 306.581 350.096ZM306.581 348.752C307.125 348.752 307.61 348.629 308.037 348.384C308.474 348.139 308.816 347.792 309.061 347.344C309.306 346.885 309.429 346.357 309.429 345.76C309.429 345.152 309.306 344.629 309.061 344.192C308.816 343.744 308.474 343.397 308.037 343.152C307.61 342.907 307.125 342.784 306.581 342.784C306.037 342.784 305.552 342.907 305.125 343.152C304.698 343.397 304.357 343.744 304.101 344.192C303.845 344.629 303.717 345.152 303.717 345.76C303.717 346.357 303.845 346.885 304.101 347.344C304.357 347.792 304.698 348.139 305.125 348.384C305.552 348.629 306.037 348.752 306.581 348.752ZM313.199 350V341.52H314.735V345.12H319.567V341.52H321.103V350H319.567V346.448H314.735V350H313.199ZM327.786 350.096C326.922 350.096 326.148 349.909 325.466 349.536C324.794 349.163 324.266 348.651 323.882 348C323.498 347.349 323.306 346.603 323.306 345.76C323.306 344.917 323.498 344.171 323.882 343.52C324.266 342.869 324.794 342.363 325.466 342C326.148 341.627 326.922 341.44 327.786 341.44C328.554 341.44 329.236 341.595 329.834 341.904C330.442 342.203 330.911 342.651 331.242 343.248L330.074 344C329.796 343.584 329.455 343.28 329.05 343.088C328.655 342.885 328.228 342.784 327.77 342.784C327.215 342.784 326.719 342.907 326.282 343.152C325.844 343.397 325.498 343.744 325.242 344.192C324.986 344.629 324.858 345.152 324.858 345.76C324.858 346.368 324.986 346.896 325.242 347.344C325.498 347.792 325.844 348.139 326.282 348.384C326.719 348.629 327.215 348.752 327.77 348.752C328.228 348.752 328.655 348.656 329.05 348.464C329.455 348.261 329.796 347.952 330.074 347.536L331.242 348.272C330.911 348.859 330.442 349.312 329.834 349.632C329.236 349.941 328.554 350.096 327.786 350.096ZM333.553 353.2C333.147 353.2 332.753 353.131 332.369 352.992C331.985 352.864 331.654 352.672 331.377 352.416L332.033 351.264C332.246 351.467 332.481 351.621 332.737 351.728C332.993 351.835 333.265 351.888 333.553 351.888C333.926 351.888 334.235 351.792 334.481 351.6C334.726 351.408 334.955 351.067 335.169 350.576L335.697 349.408L335.857 349.216L339.185 341.52H340.689L336.577 350.848C336.331 351.445 336.054 351.915 335.745 352.256C335.446 352.597 335.115 352.837 334.753 352.976C334.39 353.125 333.99 353.2 333.553 353.2ZM335.569 350.272L331.697 341.52H333.297L336.593 349.072L335.569 350.272ZM340.416 349.984L340.512 348.688C340.587 348.699 340.656 348.709 340.72 348.72C340.784 348.731 340.843 348.736 340.896 348.736C341.237 348.736 341.504 348.619 341.696 348.384C341.899 348.149 342.048 347.84 342.144 347.456C342.24 347.061 342.309 346.619 342.352 346.128C342.395 345.637 342.427 345.147 342.448 344.656L342.592 341.52H349.104V350H347.568V342.416L347.936 342.864H343.584L343.936 342.4L343.824 344.752C343.792 345.499 343.733 346.197 343.648 346.848C343.563 347.499 343.429 348.069 343.248 348.56C343.077 349.051 342.837 349.435 342.528 349.712C342.229 349.989 341.84 350.128 341.36 350.128C341.221 350.128 341.072 350.112 340.912 350.08C340.763 350.059 340.597 350.027 340.416 349.984ZM355.994 344.4C357.071 344.411 357.893 344.656 358.458 345.136C359.023 345.616 359.306 346.293 359.306 347.168C359.306 348.085 358.997 348.795 358.378 349.296C357.759 349.787 356.885 350.027 355.754 350.016L352.074 350V341.52H353.61V344.384L355.994 344.4ZM355.626 348.848C356.319 348.859 356.842 348.72 357.194 348.432C357.557 348.144 357.738 347.717 357.738 347.152C357.738 346.597 357.562 346.192 357.21 345.936C356.858 345.68 356.33 345.547 355.626 345.536L353.61 345.504V348.832L355.626 348.848ZM362.129 350V342.464L362.513 342.864H359.025V341.52H366.769V342.864H363.297L363.665 342.464V350H362.129ZM368.772 353.2C368.366 353.2 367.972 353.131 367.588 352.992C367.204 352.864 366.873 352.672 366.596 352.416L367.252 351.264C367.465 351.467 367.7 351.621 367.956 351.728C368.212 351.835 368.484 351.888 368.772 351.888C369.145 351.888 369.454 351.792 369.7 351.6C369.945 351.408 370.174 351.067 370.388 350.576L370.916 349.408L371.076 349.216L374.404 341.52H375.908L371.796 350.848C371.55 351.445 371.273 351.915 370.964 352.256C370.665 352.597 370.334 352.837 369.972 352.976C369.609 353.125 369.209 353.2 368.772 353.2ZM370.788 350.272L366.916 341.52H368.516L371.812 349.072L370.788 350.272ZM377.48 350V341.52H381.416C382.408 341.52 383.187 341.712 383.752 342.096C384.328 342.469 384.616 343.003 384.616 343.696C384.616 344.389 384.344 344.928 383.8 345.312C383.267 345.685 382.558 345.872 381.672 345.872L381.912 345.456C382.926 345.456 383.678 345.643 384.168 346.016C384.659 346.389 384.904 346.939 384.904 347.664C384.904 348.4 384.627 348.976 384.072 349.392C383.528 349.797 382.691 350 381.56 350H377.48ZM378.984 348.816H381.448C382.088 348.816 382.568 348.72 382.888 348.528C383.208 348.325 383.368 348.005 383.368 347.568C383.368 347.12 383.219 346.795 382.92 346.592C382.632 346.379 382.174 346.272 381.544 346.272H378.984V348.816ZM378.984 345.168H381.288C381.875 345.168 382.318 345.061 382.616 344.848C382.926 344.624 383.08 344.315 383.08 343.92C383.08 343.515 382.926 343.211 382.616 343.008C382.318 342.805 381.875 342.704 381.288 342.704H378.984V345.168ZM392.508 350V348.208L392.428 347.872V344.816C392.428 344.165 392.236 343.664 391.852 343.312C391.479 342.949 390.914 342.768 390.156 342.768C389.655 342.768 389.164 342.853 388.684 343.024C388.204 343.184 387.799 343.403 387.468 343.68L386.828 342.528C387.266 342.176 387.788 341.909 388.396 341.728C389.015 341.536 389.66 341.44 390.332 341.44C391.495 341.44 392.391 341.723 393.02 342.288C393.65 342.853 393.964 343.717 393.964 344.88V350H392.508ZM389.724 350.096C389.095 350.096 388.54 349.989 388.06 349.776C387.591 349.563 387.228 349.269 386.972 348.896C386.716 348.512 386.588 348.08 386.588 347.6C386.588 347.141 386.695 346.725 386.908 346.352C387.132 345.979 387.49 345.68 387.98 345.456C388.482 345.232 389.154 345.12 389.996 345.12H392.684V346.224H390.06C389.292 346.224 388.775 346.352 388.508 346.608C388.242 346.864 388.108 347.173 388.108 347.536C388.108 347.952 388.274 348.288 388.604 348.544C388.935 348.789 389.394 348.912 389.98 348.912C390.556 348.912 391.058 348.784 391.484 348.528C391.922 348.272 392.236 347.899 392.428 347.408L392.732 348.464C392.53 348.965 392.172 349.365 391.66 349.664C391.148 349.952 390.503 350.096 389.724 350.096ZM396.73 350V341.52H398.266V345.12H403.098V341.52H404.634V350H403.098V346.448H398.266V350H396.73ZM407.621 350V341.52H409.157V345.12H413.989V341.52H415.525V350H413.989V346.448H409.157V350H407.621ZM423.935 350V347.024L424.175 347.312H421.471C420.341 347.312 419.455 347.072 418.815 346.592C418.186 346.112 417.871 345.413 417.871 344.496C417.871 343.515 418.207 342.773 418.879 342.272C419.562 341.771 420.469 341.52 421.599 341.52H425.311V350H423.935ZM417.791 350L420.095 346.752H421.679L419.439 350H417.791ZM423.935 346.544V342.432L424.175 342.864H421.647C420.943 342.864 420.399 342.997 420.015 343.264C419.631 343.52 419.439 343.947 419.439 344.544C419.439 345.653 420.154 346.208 421.583 346.208H424.175L423.935 346.544Z" fill="white"/>
</svg>
