<svg width="100" height="100" viewBox="0 0 100 100" fill="none" xmlns="http://www.w3.org/2000/svg">
<path d="M49.9999 97.5614C76.2671 97.5614 97.5609 76.2676 97.5609 50.0004C97.5609 23.7332 76.2671 2.43945 49.9999 2.43945C23.7327 2.43945 2.43896 23.7332 2.43896 50.0004C2.43896 76.2676 23.7327 97.5614 49.9999 97.5614Z" fill="#167EA1" stroke="#167EA1" stroke-width="4.06504"/>
<path d="M30.6925 34.7642C33.2356 34.7642 35.296 32.7023 35.296 30.1609C35.296 27.6169 33.2356 25.5566 30.6925 25.5566C28.1486 25.5566 26.0884 27.6169 26.0884 30.1609C26.0882 32.7023 28.1486 34.7642 30.6925 34.7642Z" fill="white"/>
<path d="M50.3738 46.9685V46.9754C50.385 46.9754 50.3953 46.9719 50.4065 46.9719C50.4177 46.9719 50.4281 46.9754 50.4392 46.9754V46.9685C52.1691 46.9332 53.5606 45.5261 53.5606 43.7894C53.5606 42.05 52.1689 40.6438 50.4392 40.6085V40.6016C50.4281 40.6016 50.4177 40.6051 50.4065 40.6051C50.3953 40.6051 50.385 40.6016 50.3738 40.6016V40.6085C48.644 40.6438 47.2524 42.05 47.2524 43.7894C47.2524 45.526 48.644 46.9331 50.3738 46.9685Z" fill="white"/>
<path d="M70.1204 34.7642C72.6644 34.7642 74.7247 32.7023 74.7247 30.1609C74.7247 27.6169 72.6644 25.5566 70.1204 25.5566C67.5773 25.5566 65.5171 27.6169 65.5171 30.1609C65.5171 32.7023 67.5774 34.7642 70.1204 34.7642Z" fill="white"/>
<path d="M78.8617 57.0777V41.6038C78.8617 39.3722 76.4348 36.9453 74.2041 36.9453H73.5595L70.3563 40.1485L67.2202 37.0125C65.2374 37.3025 63.4895 38.5313 62.5608 40.3491L58.8379 51.2384C58.7096 51.4879 58.4713 51.6652 58.1941 51.7143C57.917 51.7634 57.633 51.6798 57.4256 51.4879L55.1097 49.4827C54.4169 48.8415 53.5081 48.4852 52.564 48.4852H50.4065H48.249C47.3048 48.4852 46.396 48.8416 45.7032 49.4827L43.3874 51.4879C43.18 51.6798 42.8958 51.7634 42.6188 51.7143C42.3416 51.6651 42.1033 51.4879 41.975 51.2384L38.2521 40.3491C37.185 38.2604 35.0369 36.9453 32.6908 36.9453H30.6452H26.6088C24.3781 36.9453 21.9512 39.3722 21.9512 41.6038V57.0775C21.9512 58.193 22.8548 59.0974 23.9703 59.0974C24.5193 59.0974 23.9703 59.0974 25.38 59.0974L26.1475 72.294C26.1475 73.4808 27.1106 74.443 28.2974 74.443C28.7982 74.443 29.7217 74.443 30.6452 74.443C31.5685 74.443 32.492 74.443 32.9928 74.443C34.1796 74.443 35.1426 73.4808 35.1426 72.294L35.9103 59.0974L35.9007 49.6755C35.9007 49.5266 36.0023 49.3984 36.1477 49.3622C36.2932 49.3278 36.442 49.3966 36.51 49.5292L39.4637 56.7987C39.82 57.4941 40.481 57.983 41.2504 58.1199C42.0197 58.2566 42.8089 58.0261 43.383 57.4959L46.2092 55.4141C46.3039 55.3272 46.4407 55.3048 46.5578 55.3538C46.6757 55.4064 46.7514 55.5226 46.7514 55.6499L46.7618 63.8205L47.2928 72.9559C47.2928 73.777 47.9597 74.443 48.7817 74.443C49.1277 74.443 49.7671 74.443 50.4065 74.443C51.046 74.443 51.6855 74.443 52.0314 74.443C52.8533 74.443 53.5202 73.777 53.5202 72.9559L54.0512 63.8205L54.0615 55.6499C54.0615 55.5225 54.1372 55.4062 54.2552 55.3538C54.3722 55.3047 54.5091 55.3272 54.6037 55.4141L57.4299 57.4959C58.0039 58.0261 58.7931 58.2566 59.5626 58.1199C60.3319 57.9831 60.993 57.4943 61.3491 56.7987L64.3027 49.5292C64.3708 49.3967 64.5196 49.3278 64.6651 49.3622C64.8105 49.3984 64.9121 49.5266 64.9121 49.6755L64.9087 53.2693L61.8095 62.9005C61.7363 63.1285 61.776 63.3781 61.917 63.5718C62.0582 63.7654 62.2836 63.8799 62.523 63.8799H65.1806L65.6703 72.2941C65.6703 73.4809 66.6333 74.443 67.8201 74.443C68.3209 74.443 69.2444 74.443 70.1678 74.443C71.0913 74.443 72.0146 74.443 72.5156 74.443C73.7023 74.443 74.6652 73.4809 74.6652 72.2941L75.155 63.8799H78.0914C78.3307 63.8799 78.5562 63.7654 78.6973 63.5718C78.8385 63.3781 78.8781 63.1285 78.8049 62.9005L77.539 58.9667C78.3101 58.6818 78.8617 57.9469 78.8617 57.0777ZM31.4464 39.2278V47.5189H28.9971V39.2278H31.4464Z" fill="white"/>
</svg>
