<svg width="100" height="100" viewBox="0 0 100 100" fill="none" xmlns="http://www.w3.org/2000/svg">
<path d="M49.9999 97.5614C76.2671 97.5614 97.5609 76.2676 97.5609 50.0004C97.5609 23.7332 76.2671 2.43945 49.9999 2.43945C23.7327 2.43945 2.43896 23.7332 2.43896 50.0004C2.43896 76.2676 23.7327 97.5614 49.9999 97.5614Z" fill="#167EA1" stroke="#167EA1" stroke-width="4.06504"/>
<path d="M47.4867 33.6517C49.9536 33.6517 51.9535 31.6139 51.9535 29.1003C51.9535 26.5866 49.9536 24.5488 47.4867 24.5488C45.0197 24.5488 43.0198 26.5866 43.0198 29.1003C43.0198 31.6139 45.0197 33.6517 47.4867 33.6517Z" fill="white"/>
<path d="M54.4923 35.3218C54.1437 35.148 53.8008 35.0493 53.4662 35.0089L53.4616 34.9309C51.2996 34.479 50.4605 34.8473 50.4605 34.8473L48.0805 39.8347L48.5992 35.3839H48.6866V34.6462H46.8854V35.3839H46.9774L47.5891 39.8365L45.2072 34.6462C44.9873 34.7082 45.2608 34.6547 45.0512 34.7383C45.0512 34.7383 44.2404 33.794 41.2458 35.257C41.0354 35.3124 40.8202 35.3923 40.605 35.4994C37.6557 36.967 34.632 39.1845 33.948 42.6704C33.2846 46.052 35.192 49.0278 37.4367 51.3148C38.7258 52.6283 40.3523 52.3455 41.4093 51.3899L41.3915 58.3636V75.8523C41.3915 77.2927 42.425 78.456 43.8767 78.456C45.3275 78.456 46.5029 77.2937 46.5029 75.8523V57.6317C46.5029 57.6317 46.5875 56.7071 47.5111 56.6958C48.4347 56.6864 48.4112 57.5856 48.4112 57.5856V75.8035C48.4112 77.243 49.5876 78.4071 51.0393 78.4071C52.4901 78.4071 53.6674 77.2448 53.6674 75.8035L53.7538 57.0022C53.7538 56.9251 53.7575 54.3722 53.7632 51.2762C54.8202 52.1791 56.4035 52.4216 57.6616 51.1371C59.9072 48.8511 61.8155 45.8744 61.1513 42.4928C60.4663 39.006 57.4389 36.7895 54.4923 35.3218ZM41.4206 46.8356C40.7149 46.1347 39.2483 44.6558 39.7575 43.7181C40.1672 42.9645 40.7592 42.3961 41.4338 41.9253L41.4206 46.8356ZM47.7629 50.3074C47.3223 50.3074 46.9633 49.9401 46.9633 49.4909C46.9633 49.0409 47.3223 48.6744 47.7629 48.6744C48.2045 48.6744 48.5644 49.0409 48.5644 49.4909C48.5644 49.9401 48.2045 50.3074 47.7629 50.3074ZM47.7629 47.7405C47.3223 47.7405 46.9633 47.374 46.9633 46.9239C46.9633 46.4739 47.3223 46.1084 47.7629 46.1084C48.2045 46.1084 48.5644 46.4739 48.5644 46.9239C48.5644 47.374 48.2045 47.7405 47.7629 47.7405ZM47.8221 45.1726C47.3796 45.1726 47.0206 44.807 47.0206 44.3561C47.0206 43.9051 47.3796 43.5404 47.8221 43.5404C48.2637 43.5404 48.6245 43.906 48.6245 44.3561C48.6245 44.8061 48.2637 45.1726 47.8221 45.1726ZM53.766 46.5688C53.7689 44.7253 53.7697 43.0218 53.7707 41.8313C54.4002 42.2861 54.9518 42.8283 55.3389 43.5414C55.8266 44.4397 54.498 45.8378 53.766 46.5688Z" fill="white"/>
</svg>
