<svg width="100" height="100" viewBox="0 0 100 100" fill="none" xmlns="http://www.w3.org/2000/svg">
<path d="M49.9999 97.5614C76.2671 97.5614 97.5609 76.2676 97.5609 50.0004C97.5609 23.7332 76.2671 2.43945 49.9999 2.43945C23.7327 2.43945 2.43896 23.7332 2.43896 50.0004C2.43896 76.2676 23.7327 97.5614 49.9999 97.5614Z" fill="#167EA1" stroke="#167EA1" stroke-width="4.06504"/>
<path d="M68.1402 68.0256L62.5381 55.6209C61.8712 54.0584 60.6897 52.896 59.2226 52.3815C59.6036 51.9432 59.8895 51.4097 60.0038 50.8L61.8141 41.7489C62.157 39.9958 61.0899 38.2809 59.3941 37.8236C60.5754 36.604 61.2995 34.9463 61.2995 33.0979C61.2995 29.3442 58.2698 26.3145 54.516 26.3145C50.7622 26.3145 47.7324 29.3442 47.7324 33.0979C47.7324 36.8518 50.7622 39.8815 54.516 39.8815C54.7828 39.8815 55.0686 39.8624 55.3354 39.8244C55.2592 40.0149 55.2019 40.2054 55.1639 40.415L54.516 43.6544L47.9993 37.8236L47.9802 37.8045C45.9604 36.0134 42.5686 35.9943 39.8056 39.3289C36.5282 43.2733 32.3361 53.1818 30.8117 63.338C29.9923 68.6735 34.1273 73.4943 39.5389 73.4943C39.6341 73.4943 39.7294 73.4943 39.8056 73.4943C40.9871 73.4943 41.9588 73.2085 42.7782 72.7131C43.1021 72.5606 43.4261 72.3701 43.7119 72.1223L56.5739 61.1658L61.109 71.2077C61.7568 72.6369 63.1479 73.4753 64.6151 73.4753C65.1486 73.4753 65.6822 73.361 66.1967 73.1323C68.1593 72.2367 69.0167 69.9501 68.1402 68.0256ZM47.4657 58.8411L49.6189 48.399L54.4017 52.6864C54.4779 52.7436 54.5541 52.8198 54.6303 52.877C54.3636 53.0294 54.1158 53.2009 53.8681 53.3914L47.4657 58.8411Z" fill="white"/>
</svg>
