<svg width="100" height="100" viewBox="0 0 100 100" fill="none" xmlns="http://www.w3.org/2000/svg">
<path d="M49.9999 97.5614C76.2671 97.5614 97.5609 76.2676 97.5609 50.0004C97.5609 23.7332 76.2671 2.43945 49.9999 2.43945C23.7327 2.43945 2.43896 23.7332 2.43896 50.0004C2.43896 76.2676 23.7327 97.5614 49.9999 97.5614Z" fill="#167EA1" stroke="#167EA1" stroke-width="4.06504"/>
<path d="M43.4975 40.5757C46.6834 40.5757 49.2663 43.1586 49.2663 46.3446C49.2663 49.5306 46.6834 52.1136 43.4975 52.1136C40.3115 52.1136 37.7286 49.5308 37.7286 46.3448C37.7286 43.1588 40.3115 40.5757 43.4975 40.5757ZM51.5246 50.1443C50.2955 49.6875 48.9292 50.3142 48.4725 51.5429L45.2756 60.1486C45.2756 60.1486 39.5982 52.2996 39.5365 52.2321C38.3409 50.4834 36.154 49.941 33.99 50.4482C28.0459 51.842 24.9751 58.17 24.1963 67.2029C24.1033 68.2773 23.99 71.5395 23.99 71.5395H40.2123V67.3273V67.2408V61.2478L43.5932 65.9261C44.1198 66.6538 44.9556 67.0742 45.8377 67.0742C45.9622 67.0742 46.0879 67.0658 46.2134 67.0486C47.229 66.9106 48.0818 66.2279 48.4391 65.2666L52.9232 53.1965C53.3797 51.9675 52.7536 50.6009 51.5246 50.1443ZM43.4975 68.2882H76.0098V71.5395H43.4975V68.2882ZM58.128 63.4114H72.7586V65.8855H58.128V63.4114ZM58.128 53.6577H72.7586V56.0962H58.128V53.6577ZM58.128 43.9063H72.7586V46.3448H58.128V43.9063ZM59.7537 39.0271H74.3842V41.4656H59.7537V39.0271ZM53.2511 34.1756H67.8817V36.6142H53.2511V34.1756ZM48.3743 29.2734H63.0049V31.712H48.3743V29.2734ZM61.3793 58.5346H76.0098V61.0086H61.3793V58.5346ZM61.3793 48.7808H76.0098V51.2194H61.3793V48.7808Z" fill="white"/>
</svg>
