<svg width="192" height="157" viewBox="0 0 192 157" fill="none" xmlns="http://www.w3.org/2000/svg">
<path d="M36.5978 118.33L18.593 100.266L27.655 83.6319C36.717 72.0664 55.8545 72.7814 55.8545 72.7814C55.8545 72.7814 68.9109 71.5296 84.1133 74.5102C99.3163 77.4917 98.1242 87.5668 98.1242 87.5668L100.15 124.888L102.357 155.234L46.2559 156.366L36.5978 118.33Z" fill="#167EA1"/>
<path d="M66.8242 154.578L16.5659 155.175C4.46343 155.294 -3.58504 142.774 1.60175 131.864L23.124 91.9795L42.6788 105.214L29.3243 132.937L70.0435 133.653L66.8242 154.578Z" fill="#167EA1"/>
<path d="M96.3354 81.4863L136.697 143.787L113.147 145.337C113.147 145.337 99.0775 123.159 99.4354 123.636C99.9722 124.411 96.3354 81.4863 96.3354 81.4863Z" fill="#167EA1"/>
<path d="M41.6653 108.791C41.6653 108.791 41.6653 108.671 41.7248 108.493C41.7845 108.255 41.8441 107.956 41.9633 107.598C42.1422 106.823 42.4403 105.691 42.6788 104.26C42.9768 102.829 43.275 101.16 43.4538 99.2522C43.6327 97.3444 43.7519 95.2576 43.4538 93.1112C43.1557 90.9648 42.3211 88.9973 41.3671 87.3877C40.4133 85.7781 39.3401 84.4071 38.3863 83.3335C37.4323 82.2607 36.5381 81.4853 35.9419 80.9493C35.3457 80.4125 34.988 80.1739 34.988 80.1143C34.988 80.1143 35.1072 80.1739 35.2861 80.2932C35.465 80.4125 35.7035 80.5914 36.0015 80.83C36.6573 81.3072 37.5516 82.0817 38.5055 83.1554C39.519 84.1685 40.5922 85.5395 41.6056 87.2088C42.5596 88.878 43.3942 90.8455 43.7519 93.0516C44.05 95.2576 43.9307 97.3444 43.6922 99.2522C43.4538 101.16 43.1557 102.829 42.8576 104.26C42.5596 105.691 42.2614 106.823 42.023 107.598C41.9037 108.016 41.8441 108.314 41.7248 108.493C41.7248 108.731 41.6653 108.791 41.6653 108.791Z" fill="#167EA1"/>
<path d="M40.0555 110.938C40.0555 110.938 39.9363 111.295 39.6978 111.832C39.4593 112.428 39.1016 113.203 38.6247 114.216C37.7304 116.243 36.4188 119.046 34.9283 122.086C33.4379 125.127 32.007 127.869 30.9935 129.837C30.457 130.79 30.0396 131.625 29.7416 132.161C29.4435 132.698 29.2646 132.996 29.2646 132.996C29.2646 132.996 29.3839 132.698 29.6819 132.102C29.9801 131.506 30.3973 130.731 30.8743 129.777C31.8878 127.75 33.2591 125.007 34.7495 122.027C36.24 118.986 37.5516 116.243 38.5055 114.216C38.9824 113.263 39.3401 112.487 39.6382 111.832C39.8767 111.236 40.0555 110.938 40.0555 110.938Z" fill="#167EA1"/>
<path d="M66.8242 154.578C66.8242 154.578 66.8242 154.519 66.8242 154.459C66.8242 154.399 66.8242 154.28 66.8242 154.161C66.8242 153.863 66.8838 153.505 66.9434 152.969C67.0626 151.896 67.2415 150.405 67.4203 148.498C67.8377 144.622 68.4935 139.197 69.209 132.817L69.3282 132.996C64.7972 132.996 59.7893 132.996 54.4832 132.996C44.3481 132.996 35.1669 132.937 28.4896 132.937C25.2106 132.937 22.4682 132.877 20.62 132.877C22.5278 132.877 25.2106 132.877 28.4896 132.817C35.1669 132.817 44.3481 132.817 54.4832 132.758C59.7893 132.758 64.7972 132.758 69.3282 132.758H69.507V132.937C68.732 139.316 68.0762 144.742 67.5992 148.616C67.3608 150.524 67.1819 152.015 67.0031 153.088C66.9434 153.565 66.8838 153.982 66.8242 154.28C66.8242 154.399 66.7646 154.519 66.7646 154.578C66.8242 154.519 66.8242 154.578 66.8242 154.578Z" fill="#167EA1"/>
<path d="M29.682 133.353C29.6223 133.353 29.3242 132.876 28.6684 132.102C28.0723 131.326 27.1184 130.313 25.9856 129.359C24.8528 128.405 23.6605 127.63 22.8259 127.153C21.9911 126.676 21.395 126.438 21.395 126.378C21.395 126.319 21.9911 126.498 22.8854 126.974C23.7797 127.391 24.9721 128.107 26.1644 129.12C27.3569 130.134 28.2511 131.147 28.8472 131.982C29.4435 132.817 29.682 133.353 29.682 133.353Z" fill="#167EA1"/>
<path d="M100.985 137.349C100.985 137.349 100.926 137.17 100.926 136.812C100.866 136.454 100.807 135.977 100.747 135.322C100.628 134.01 100.449 132.162 100.21 129.837C99.7934 125.246 99.3162 118.808 98.8987 111.773C98.4812 104.738 98.1838 98.2986 98.0049 93.6487C97.9452 91.3234 97.8856 89.4752 97.8259 88.1638C97.8259 87.5077 97.8259 87.0306 97.8259 86.6735C97.8259 86.3157 97.8259 86.1367 97.8259 86.1367C97.8259 86.1367 97.8259 86.3157 97.8856 86.6735C97.8856 87.0306 97.9452 87.5674 97.9452 88.1638C98.0049 89.4752 98.1242 91.383 98.1838 93.6487C98.4216 98.2986 98.7198 104.678 99.1373 111.713C99.5548 118.748 99.9723 125.186 100.329 129.777C100.508 132.043 100.628 133.95 100.747 135.262C100.807 135.858 100.807 136.395 100.866 136.753C100.985 137.17 100.985 137.349 100.985 137.349Z" fill="#167EA1"/>
<path d="M68.553 140.448C68.553 140.448 78.5689 137.586 81.9079 136.692C83.2193 136.334 88.7638 139.255 92.5795 141.7C92.5795 141.7 97.8258 144.8 97.4083 145.814C96.9312 146.886 95.0233 146.648 91.9234 145.217C91.9234 145.217 92.9962 148.377 90.9102 148.317C90.9102 148.317 91.983 151.716 89.9559 152.073C87.9884 152.431 87.5113 148.079 85.7227 147.841C83.9939 147.602 80.3574 147.364 80.3574 147.364C80.3574 147.364 77.3169 152.371 74.9918 152.729C72.6667 153.087 67.2415 152.431 67.2415 152.431L68.553 140.448Z" fill="#F2ADA5"/>
<path d="M85.6632 141.104C85.7229 141.044 86.9754 141.76 88.4657 142.714C89.956 143.668 91.1481 144.502 91.0885 144.562C91.0297 144.622 89.7771 143.907 88.2868 142.952C86.7965 141.999 85.6044 141.223 85.6632 141.104Z" fill="#EB996E"/>
<path d="M85.0675 143.071C85.1271 143.012 86.6174 143.608 88.406 144.443C90.1945 145.278 91.6252 145.993 91.6252 146.113C91.5655 146.172 90.0752 145.576 88.2867 144.741C86.4385 143.847 85.0078 143.131 85.0675 143.071Z" fill="#EB996E"/>
<path d="M86.1404 147.722C86.1404 147.662 87.1543 147.722 88.4061 147.901C89.6578 148.079 90.6121 148.258 90.6121 148.377C90.6121 148.437 89.5982 148.377 88.3464 148.198C87.0947 148.02 86.1404 147.841 86.1404 147.722Z" fill="#EB996E"/>
<path d="M55.4967 36.9513C55.7351 37.7266 55.4371 38.6205 54.8409 39.1573C54.2448 39.6941 53.2908 39.7538 52.5754 39.3959C51.2042 38.6801 51.0253 36.832 51.3234 35.3416C51.5619 33.8512 52.0984 32.2415 51.4427 30.8703C50.9657 29.7972 49.8926 29.1413 49.1175 28.3067C47.6867 26.8759 46.9713 24.7296 47.2694 22.7026C47.6271 20.6755 49.1175 18.887 51.0849 18.3504C53.0523 17.8139 55.5563 18.4101 57.0468 16.9792C58.1199 15.9061 58.1795 14.2368 59.0142 12.9848C60.3258 11.0174 63.0682 10.7193 65.3337 11.077C67.6588 11.3751 69.984 12.1501 72.2495 11.554C74.1572 11.077 75.7073 9.76543 77.4362 8.93072C81.2519 7.20182 86.2 8.0961 89.1218 11.1963C92.0428 14.2368 92.6989 19.1851 90.791 22.9411C90.0753 24.3123 89.0025 25.5047 87.6307 26.1008" fill="#2A2D40"/>
<path d="M67.003 86.1957C73.3822 86.1957 78.5689 80.9494 78.5093 74.5698L78.3304 63.6C78.3304 63.6 87.5113 62.7061 88.1674 53.5845C88.7639 44.4628 88.3463 23.4175 88.3463 23.4175C78.0324 18.2904 65.751 19.1847 56.2717 25.6831L54.8408 26.6369L55.5563 74.868C55.5563 81.188 60.6834 86.1957 67.003 86.1957Z" fill="#F2ADA5"/>
<path d="M77.3767 49.0343C77.5344 48.1936 77.7972 47.6335 78.0601 46.9798L78.2177 47.727C77.9023 47.54 77.6921 47.1668 77.5344 46.8863C77.3767 46.5131 77.219 46.2326 77.0613 45.8594C76.7984 45.1123 76.5357 44.3651 76.3779 43.5244C76.7459 44.1781 77.0613 44.8318 77.3767 45.3919C77.5344 45.6724 77.692 45.9529 77.9023 46.2326C78.0601 46.5131 78.2703 46.7928 78.3755 46.7928L78.796 46.9798L78.5331 47.54C78.2703 48.1936 77.9549 48.7546 77.5344 49.1278C77.4818 49.2213 77.4292 49.1278 77.3767 49.0343Z" fill="#1E1C1C"/>
<path d="M79.602 52.5467C79.3268 53.3785 78.914 54.0032 78.3635 54.4191C77.8131 54.835 77.125 54.939 76.5058 54.627C75.8865 54.3151 75.4049 53.6904 74.9232 53.0666C74.7168 52.7547 74.5792 52.3388 74.3728 52.0268C74.2352 51.6101 74.0975 51.1942 73.96 50.7783C74.1664 51.0902 74.4416 51.4022 74.6481 51.6101L75.2673 52.4427C75.7489 52.8586 76.1617 53.3785 76.6434 53.5865C77.125 53.7944 77.6067 53.7944 78.0884 53.5865C78.6388 53.3785 79.1204 52.9626 79.602 52.5467Z" fill="#1E1C1C"/>
<path d="M73.5056 36.5389C73.8515 37.5247 74.0244 38.5096 73.938 39.584C73.938 40.1216 73.765 40.6584 73.4191 41.196C72.9869 41.7337 72.3816 41.9126 71.7764 41.9126C71.1712 41.9126 70.5659 41.6442 70.2201 41.2855C69.7877 40.9276 69.4419 40.4795 69.269 40.0322C68.7502 39.1367 68.4908 38.1509 68.3179 37.0765C68.3179 36.8976 68.4044 36.7187 68.5772 36.7187C68.7502 36.7187 68.8366 36.8081 68.9231 36.8976C69.1825 37.7931 69.5283 38.6885 70.0471 39.4946C70.4794 40.3006 71.1712 40.9276 71.9493 40.9276C72.2951 40.9276 72.641 40.8382 72.9004 40.569C73.1597 40.3006 73.2462 39.8524 73.3327 39.4051C73.4191 38.5096 73.3327 37.5247 73.2462 36.5389C73.2462 36.36 73.3327 36.2705 73.4191 36.2705C73.3327 36.36 73.4191 36.4494 73.5056 36.5389Z" fill="#1E1C1C"/>
<path d="M84.8635 36.4149C85.0916 37.3314 85.2439 38.3493 85.2439 39.3673C85.2439 39.8767 85.1682 40.3853 84.9401 40.9963C84.712 41.5057 84.1792 41.9127 83.723 41.9127C83.2668 41.9127 82.8106 41.6072 82.5067 41.2002C82.202 40.7924 81.9739 40.3853 81.8224 39.8767C81.5177 38.9603 81.2896 38.0439 81.2139 37.0259C81.2139 36.8219 81.2896 36.618 81.442 36.618C81.5943 36.618 81.6701 36.7204 81.7458 36.822C81.9739 37.7384 82.202 38.5525 82.5067 39.3673C82.8106 40.0799 83.2668 40.7924 83.723 40.7924C83.9511 40.7924 84.1792 40.6908 84.2558 40.4869C84.4073 40.1822 84.4839 39.7744 84.4839 39.3673C84.5596 38.5525 84.4839 37.5345 84.4073 36.618C84.4073 36.4149 84.4839 36.3126 84.5596 36.3126C84.712 36.211 84.7877 36.3126 84.8635 36.4149Z" fill="#1E1C1C"/>
<path d="M78.3305 63.4812C78.3305 63.4812 72.5475 63.6601 66.5857 59.4277C66.5857 59.4277 69.0301 66.1644 78.2113 65.8065L78.3305 63.4812Z" fill="#D99A92"/>
<path d="M88.3464 25.6832C88.3464 25.6832 82.8615 28.4853 75.5285 25.0274C70.759 22.7619 65.1549 21.6888 63.9625 22.7023C62.7701 23.6562 62.5913 28.6045 57.9411 30.095C57.9411 30.095 58.418 39.4553 54.7217 39.1571C50.9658 38.9185 53.0524 24.3716 53.0524 24.3716L62.0547 19.7214L71.9514 17.6348L81.3712 18.7675L88.6447 20.6156L88.3464 25.6832Z" fill="#2A2D40"/>
<path d="M55.3775 36.1163C55.1986 36.0568 49.1771 33.9104 49.0578 40.1702C48.9386 46.4305 55.1986 45.2972 55.2582 45.1191C55.2582 44.9401 55.3775 36.1163 55.3775 36.1163Z" fill="#F2ADA5"/>
<path d="M53.4099 42.6747C53.4099 42.6747 53.2907 42.7344 53.1118 42.8537C52.9329 42.9133 52.6349 42.973 52.2772 42.8537C51.6214 42.6151 51.0848 41.5415 51.0848 40.409C51.0848 39.8126 51.204 39.2766 51.4425 38.8591C51.6213 38.3819 51.9195 38.0837 52.2772 38.0241C52.6349 37.9644 52.8137 38.1433 52.9329 38.3223C52.9926 38.5012 52.9926 38.6205 52.9926 38.6205C52.9926 38.6205 53.1118 38.5012 53.1118 38.2626C53.1118 38.1433 52.9926 37.9644 52.8734 37.8451C52.7541 37.7266 52.5157 37.667 52.2772 37.667C51.8003 37.667 51.3233 38.1433 51.1444 38.6205C50.9059 39.0977 50.7271 39.6933 50.7271 40.3494C50.7271 41.6011 51.3829 42.794 52.2772 43.0923C52.6945 43.2115 53.1118 43.0923 53.2907 42.973C53.4099 42.8537 53.4099 42.7344 53.4099 42.6747Z" fill="#D99A92"/>
<path d="M52.2177 16.5612C52.1581 16.5015 53.2312 16.2035 54.364 16.6208C55.5563 17.0381 56.1525 17.9324 56.0333 17.992C55.9736 18.0517 55.3179 17.3362 54.2447 16.9189C53.1715 16.5015 52.2177 16.6804 52.2177 16.5612Z" fill="#2A2D40"/>
<path d="M55.9738 12.8057C56.093 12.8057 55.9141 14.1172 56.1526 15.6673C56.3911 17.2174 57.1066 18.3501 57.0469 18.4097C57.0469 18.4097 56.8084 18.1713 56.5104 17.6943C56.2719 17.2174 55.9738 16.502 55.8546 15.7269C55.6161 14.1172 55.9141 12.8057 55.9738 12.8057Z" fill="#2A2D40"/>
<path d="M151.429 6.43973L133.663 0.0605469L116.075 6.32052C113.81 7.39365 111.842 7.98977 111.842 10.0765V20.5096C111.842 27.7235 113.75 34.8776 117.625 41.1972C120.904 46.5031 125.972 51.988 133.782 55.5055C140.936 53.1801 146.302 46.9803 149.581 41.6147C153.456 35.295 155.364 28.1408 155.364 20.927V11.5669C155.483 8.58598 153.873 7.15515 151.429 6.43973Z" fill="#167EA1"/>
<g opacity="0.3">
<path opacity="0.3" d="M133.842 49.4834C127.641 46.7406 123.647 42.3293 121.024 38.0961C117.924 33.0881 116.433 27.4243 116.433 21.701V14.4276C116.433 12.7583 117.447 11.2082 119.414 10.3139L133.663 5.00793V0.119141L116.076 6.37912C114.228 7.21374 111.843 8.04845 111.843 10.1351V20.5682C111.843 27.782 113.75 34.9363 117.626 41.2557C120.905 46.5616 125.972 52.0466 133.782 55.564V49.4834H133.842Z" fill="black"/>
</g>
<g opacity="0.4">
<path opacity="0.4" d="M133.842 55.5044C135.094 55.0877 136.226 54.6105 137.3 54.0141C140.221 52.4045 142.785 50.1984 144.692 48.231C146.839 46.0257 148.448 43.5811 149.819 41.3154C153.695 34.9959 155.603 27.8418 155.424 20.3894V11.8045C155.424 7.51187 153.218 7.21381 151.369 6.37918L133.603 0V4.88871L147.971 10.314C149.939 11.2679 150.952 12.7583 150.952 14.4276V21.7011C150.952 27.4244 149.462 33.0882 146.362 38.0962C143.738 42.3293 139.922 46.6214 133.723 49.4239V55.5044H133.842Z" fill="black"/>
</g>
<path d="M138.372 21.2245V19.7937C138.372 17.2301 136.286 15.2031 133.782 15.2031C131.218 15.2031 129.191 17.2897 129.191 19.7937V21.2245C127.939 21.4034 126.986 22.4766 126.986 23.7881V32.0751C126.986 33.5059 128.118 34.6387 129.549 34.6387H138.134C139.565 34.6387 140.698 33.5059 140.698 32.0751V23.7881C140.757 22.4766 139.685 21.3438 138.372 21.2245ZM135.034 30.0481H132.768L133.126 28.4383C132.709 28.1999 132.471 27.7826 132.471 27.246C132.471 26.4709 133.066 25.8748 133.842 25.8748C134.616 25.8748 135.213 26.4709 135.213 27.246C135.213 27.7229 134.974 28.1403 134.616 28.3788C134.795 28.9749 135.034 30.0481 135.034 30.0481ZM137.419 21.2245H130.205V19.8533C130.205 17.8859 131.815 16.2166 133.842 16.2166C135.809 16.2166 137.479 17.8263 137.479 19.8533L137.419 21.2245Z" fill="white"/>
<path d="M119.354 21.1053C119.295 21.1053 119.175 20.5687 119.116 19.6743C118.997 18.7801 118.937 17.5281 118.997 16.1569C118.997 15.4415 119.056 14.7857 119.116 14.1895C119.175 13.5933 119.295 13.0567 119.533 12.6394C119.772 12.2221 120.069 11.9836 120.308 11.8644C120.547 11.7451 120.725 11.7451 120.725 11.7451C120.785 11.8048 120.129 11.924 119.772 12.699C119.593 13.1164 119.533 13.5933 119.474 14.1895C119.414 14.7857 119.414 15.4415 119.354 16.0973C119.295 17.4685 119.354 18.7205 119.414 19.6148C119.354 20.5687 119.414 21.1053 119.354 21.1053Z" fill="white"/>
<path d="M119.593 25.6363C119.533 25.6363 119.414 25.219 119.414 24.6824C119.414 24.1459 119.474 23.7285 119.533 23.7285C119.593 23.7285 119.712 24.1459 119.712 24.6824C119.772 25.219 119.712 25.6363 119.593 25.6363Z" fill="white"/>
<path d="M118.573 105.034L98.7795 153.981H63.1279V156.187H169.427L191.128 105.034H118.573Z" fill="#263238"/>
<path d="M148.859 133.95C148.144 136.394 146.057 137.944 144.209 137.408C142.36 136.871 141.407 134.427 142.122 131.983C142.838 129.538 144.924 127.988 146.772 128.525C148.621 129.061 149.574 131.506 148.859 133.95Z" fill="#FAFAFA"/>
</svg>
