<svg width="124" height="142" viewBox="0 0 124 142" fill="none" xmlns="http://www.w3.org/2000/svg">
<path d="M54.5926 13.1199C56.2696 7.45574 61.4167 3.2355 67.2328 1.90264C72.9384 0.569913 80.0984 -1.31814 85.3561 1.34731C88.6009 3.01328 91.8442 5.45665 93.0746 8.89964C94.641 13.0088 92.2921 20.561 91.0617 24.7814C89.8313 29.0018 89.0474 33.7775 91.2857 37.4426C93.5225 40.9964 98.1097 42.4403 101.019 45.5501C104.934 49.8815 104.374 57.5447 99.7881 61.2098C104.822 60.8765 109.185 66.0965 108.961 71.0947C108.737 76.2033 105.046 80.535 100.571 82.8669C95.9834 85.1988 90.8377 85.6435 85.6921 85.6435C79.4265 85.6435 73.0504 84.9764 66.8983 83.7549C61.7512 82.6445 56.4935 80.9782 53.1382 76.9801C50.1175 73.3155 49.2224 68.3177 49.2224 63.5421C49.2224 46.7718 58.0599 30.1124 54.2567 13.6752" fill="#2A2D40"/>
<path d="M58.6199 9.23282C53.3623 5.56777 45.8665 5.34569 40.3848 8.6775C34.9032 12.0094 31.659 18.562 32.4422 24.8927C32.8896 28.2245 34.232 31.5563 33.449 34.7772C31.8829 40.7744 23.2689 43.1068 22.1502 49.3262C21.7026 51.7696 22.5977 54.213 23.2689 56.5452C23.9401 58.8775 24.3876 61.5431 23.157 63.7643C22.262 65.3192 20.5839 66.3187 19.2415 67.6514C15.1024 71.7605 15.1024 79.0911 18.6821 83.755C22.1502 88.4202 28.303 90.7521 34.232 90.5297C40.1612 90.3074 45.7546 87.9755 50.7887 84.9765" fill="#2A2D40"/>
<path d="M46.3138 16.0075L46.4257 20.0057L47.2087 79.8678C47.3206 86.865 53.3621 92.3071 60.8567 92.0847C68.4646 91.9735 74.6167 86.0882 74.6167 79.091C74.6167 71.7603 74.8407 63.9862 74.8407 63.9862C74.8407 63.9862 84.3496 62.4313 86.3625 49.9923C87.3704 43.8841 87.0344 33.7773 86.4745 25.4477C86.028 18.0066 79.4265 12.4535 71.9319 13.2309L46.3138 16.0075Z" fill="#F2ADA5"/>
<path d="M74.4976 48.9415C74.779 47.8798 75.2471 47.1719 75.7151 46.3462L75.9965 47.29C75.4337 47.0541 75.059 46.5821 74.779 46.2282C74.4976 45.7564 74.2162 45.4025 73.9363 44.9305C73.4682 43.9869 73.0002 43.0432 72.7188 41.9814C73.3749 42.8072 73.9362 43.633 74.4976 44.3407C74.779 44.6946 75.059 45.0486 75.4337 45.4025C75.7151 45.7564 76.0898 46.1103 76.2765 46.1103L77.026 46.3462L76.5579 47.0541C76.0899 47.8798 75.5285 48.5876 74.779 49.0594C74.6857 49.1774 74.5909 49.0594 74.4976 48.9415Z" fill="#1E1C1C"/>
<path d="M77.026 51.6101C76.6054 52.7873 75.9751 53.6703 75.1352 54.2588C74.2953 54.8475 73.2443 54.9946 72.2982 54.5532C71.3534 54.1117 70.6183 53.2287 69.8818 52.3458C69.5674 51.9044 69.3578 51.3157 69.0419 50.8743C68.8323 50.2856 68.6212 49.6971 68.4116 49.1084C68.7275 49.5498 69.1467 49.9913 69.4626 50.2856L70.4073 51.463C71.1424 52.0515 71.7727 52.7873 72.5092 53.0816C73.2443 53.376 73.9794 53.376 74.7145 53.0816C75.5558 52.7873 76.2909 52.1987 77.026 51.6101Z" fill="#1E1C1C"/>
<path d="M67.833 32.3433C68.2737 33.5876 68.4934 34.832 68.3829 36.1895C68.3829 36.8683 68.1632 37.547 67.7239 38.2258C67.174 38.9046 66.403 39.1308 65.6334 39.1308C64.8639 39.1308 64.0929 38.7914 63.6536 38.3388C63.1037 37.8864 62.6629 37.3208 62.4432 36.7551C61.7828 35.6239 61.4526 34.3796 61.2329 33.0221C61.2329 32.7958 61.3435 32.5695 61.5631 32.5695C61.7828 32.5695 61.8934 32.6827 62.0025 32.7958C62.3327 33.927 62.7734 35.0583 63.4325 36.0763C63.9838 37.0945 64.8639 37.8864 65.8531 37.8864C66.2939 37.8864 66.7332 37.7732 67.0634 37.4339C67.3936 37.0945 67.5028 36.5289 67.6133 35.9633C67.7239 34.832 67.6133 33.5876 67.5028 32.3433C67.5028 32.1171 67.6133 32.0039 67.7239 32.0039C67.6133 32.1171 67.7239 32.2301 67.833 32.3433Z" fill="#1E1C1C"/>
<path d="M83.6635 32.1858C83.9879 33.3433 84.2047 34.6295 84.2047 35.9156C84.2047 36.5585 84.097 37.2017 83.7711 37.9732C83.4467 38.6164 82.6872 39.1308 82.0382 39.1308C81.3878 39.1308 80.7374 38.7449 80.3038 38.2305C79.8702 37.7161 79.5458 37.2017 79.329 36.5585C78.8954 35.401 78.5695 34.2436 78.4618 32.9575C78.4618 32.7002 78.5695 32.4431 78.7863 32.4431C79.0031 32.4431 79.1122 32.5716 79.2199 32.7002C79.5458 33.8578 79.8702 34.8866 80.3038 35.9156C80.7374 36.8158 81.3878 37.7161 82.0382 37.7161C82.3627 37.7161 82.6872 37.5874 82.7963 37.3302C83.0131 36.9444 83.1208 36.43 83.1208 35.9156C83.2299 34.8866 83.1207 33.6005 83.0131 32.4431C83.0131 32.1858 83.1207 32.0572 83.2299 32.0572C83.4467 31.9285 83.5543 32.0572 83.6635 32.1858Z" fill="#1E1C1C"/>
<path d="M74.7288 63.9864C74.7288 63.9864 66.3384 64.5417 58.0599 59.5439C58.0599 59.5439 62.0872 68.0956 74.6168 66.8739L74.7288 63.9864Z" fill="#AA6550"/>
<path d="M56.4935 10.233C56.6055 10.1218 56.7175 10.0107 56.8294 10.0107C56.9414 10.0107 56.9414 10.233 56.9414 10.344C56.8294 10.455 56.7175 10.5661 56.6055 10.5661C56.3815 10.455 56.3815 10.344 56.4935 10.233Z" fill="#263238"/>
<path d="M45.6427 74.5375C49.3342 73.3159 52.2423 70.2058 53.5847 66.5413C54.9271 62.8762 54.9271 58.8779 53.8087 55.1018C53.3622 53.3248 52.5783 51.5478 53.3622 49.882C53.9207 48.6603 55.1511 47.9939 56.047 47.1054C58.2839 45.1063 59.4023 42.2186 59.6263 39.3311C59.8503 36.4434 59.0664 33.4447 58.0599 30.7793C57.5014 29.3355 56.7175 27.6696 57.2774 26.1148C57.612 25.0041 58.6198 24.3378 59.4023 23.5602C61.1927 21.8944 62.6471 20.0063 63.7655 17.785C64.548 16.2302 65.1079 14.4532 64.3255 12.8983C63.4296 11.0102 61.0807 10.4549 58.9544 10.3439C54.0327 10.0108 48.5512 11.0102 45.4188 14.8975C42.6222 18.3404 42.2865 23.005 42.0628 27.4475C41.3916 41.3302 40.8323 55.324 43.1815 68.9847" fill="#2A2D40"/>
<path d="M91.1737 14.5632C90.6138 15.1185 89.7193 15.2296 89.0474 15.6739C88.3769 16.1181 87.9289 16.6733 87.2585 17.2286C86.9225 17.5619 86.5865 17.895 86.2506 18.2283C86.14 18.3393 86.14 18.4503 86.028 18.4503L85.6921 18.7836C85.3561 19.0057 85.1321 19.3389 84.7976 19.561C84.1257 20.1163 83.3432 20.8937 82.1114 21.6712C80.9929 22.4486 79.316 23.226 77.5256 23.6703C73.7224 24.4477 70.4776 23.6703 68.0168 22.5597C65.5559 21.338 63.8775 19.7832 62.8711 18.4503C60.7448 15.6739 60.4088 13.3415 61.4167 12.1198C62.4231 10.8981 64.884 11.0092 67.5688 11.6755C68.9112 12.0088 70.3656 12.3419 71.596 12.4531C72.9385 12.5641 74.0569 12.5641 74.8408 12.3419C75.1768 12.2309 75.6233 12.1198 76.4072 11.7867C77.0777 11.4535 77.9736 11.0092 78.98 10.565C79.4265 10.3428 79.9865 10.1207 80.5464 9.89868C80.7689 9.7875 81.1049 9.67646 81.4409 9.56543C81.7768 9.45439 82.1114 9.34335 82.4473 9.23217C83.7897 8.89906 85.0201 8.78802 86.14 8.89906C88.4889 9.12113 90.5018 10.2318 91.2857 11.5645C92.0682 13.1194 91.7322 14.1189 91.1737 14.5632Z" fill="#2A2D40"/>
<path d="M28.191 83.0892C28.191 83.0892 28.0791 83.0892 27.9673 82.8668C27.8553 82.7556 27.6316 82.5333 27.5198 82.3109C27.0723 81.7565 26.6247 80.9782 26.2892 79.7567C25.9535 78.5351 25.7299 76.98 26.0654 75.3152C26.4011 73.5378 27.4079 71.6492 29.0859 70.2052C30.764 68.6509 32.8894 67.5402 34.9032 65.9854C35.9099 65.2079 36.805 64.2084 37.588 63.0978C38.2592 61.9871 38.5949 60.5434 38.4829 59.2106C38.1474 56.434 35.7981 53.9906 35.5744 50.6588C35.3506 47.4381 37.2523 43.884 40.3847 42.4403C41.8391 41.6628 43.517 41.1076 44.6357 39.9969C45.8663 38.9973 46.4257 37.4425 46.3138 35.8876C46.3138 34.3328 45.7545 32.8889 45.1951 31.5562C44.5239 30.2234 43.7408 28.8907 43.0696 27.669C42.3984 26.3363 41.8391 25.0036 41.6152 23.5597C41.3916 22.1159 41.6152 20.7832 42.1746 19.5615C43.1815 17.1181 44.9714 15.3411 46.8732 14.1194C48.775 12.8978 50.7886 12.4535 52.5782 12.1204C54.3686 11.8981 55.823 11.7871 57.0534 11.7871C58.2838 11.7871 59.2903 11.8981 59.8502 11.8981C60.1862 11.8981 60.4087 11.8981 60.6327 12.0093C60.7447 12.0093 60.8567 12.0093 60.8567 12.0093C60.8567 12.0093 60.5207 12.0093 59.8502 12.0093C59.1783 12.0093 58.2838 12.0093 57.0534 12.0093C55.823 12.0093 54.3686 12.1204 52.5782 12.3424C50.9004 12.6757 48.8868 13.231 47.0969 14.3415C45.3069 15.4522 43.517 17.2292 42.6221 19.5615C42.1746 20.7832 41.9509 22.0049 42.1746 23.3376C42.3983 24.6703 42.8458 26.0031 43.517 27.2247C44.1882 28.5575 44.9714 29.7791 45.6426 31.1119C46.3138 32.5558 46.7613 33.9995 46.8732 35.6655C46.985 37.3313 46.3138 39.1083 44.9714 40.219C43.6289 41.3296 42.0628 41.885 40.6085 42.6624C37.588 44.1061 35.9099 47.3269 36.1338 50.4366C36.2456 53.5464 38.5949 55.9899 39.0423 58.9884C39.2661 60.5434 38.8186 61.9871 38.1474 63.2088C37.3642 64.4305 36.3574 65.4301 35.3506 66.2075C33.2251 67.7624 31.0995 68.8729 29.4216 70.3164C27.7435 71.7603 26.7366 73.5378 26.4011 75.204C26.0654 76.8689 26.1774 78.4239 26.5129 79.5343C27.1841 82.09 28.3028 83.0892 28.191 83.0892Z" fill="#474C66"/>
<path d="M97.7738 80.7561C97.6618 80.7561 98.5563 80.5352 98.8922 79.4234C99.0042 78.8689 99.1162 78.2019 98.7802 77.425C98.4457 76.6468 97.7738 75.9811 96.8793 75.4252C95.9834 74.8708 94.977 74.4261 93.8586 73.6492C92.8521 72.9822 91.7322 71.8718 91.6217 70.3167C91.5097 68.762 92.1802 67.3183 93.0746 66.0966C93.9705 64.7639 95.089 63.7643 95.9834 62.4316C96.8793 61.2099 97.3259 59.6549 97.1019 58.2112C96.8793 56.7674 96.2074 55.4347 95.4249 54.324C93.8586 52.1027 91.8442 50.4369 90.5018 48.7709C89.1594 47.105 88.4889 45.4391 88.3769 44.2174C88.2649 43.6621 88.3769 43.1068 88.3769 42.8847C88.3769 42.5515 88.4889 42.4404 88.4889 42.4404C88.6009 42.4404 88.3769 43.1068 88.6009 44.2174C88.8249 45.3279 89.4954 46.8829 90.8378 48.5489C92.0682 50.2147 94.0825 51.7696 95.8715 54.102C96.6554 55.2125 97.4378 56.5452 97.6618 58.2112C97.7738 58.9886 97.7738 59.8771 97.5498 60.6545C97.3258 61.4319 96.8793 62.2095 96.4314 62.8758C95.5369 64.2086 94.3065 65.3192 93.4106 66.5409C92.5161 67.7626 91.9562 69.0952 92.0682 70.4279C92.1802 71.7606 93.0747 72.7598 94.0825 73.4269C95.089 74.0925 96.0954 74.6484 96.9913 75.2043C97.8858 75.8699 98.5563 76.537 98.8922 77.425C99.2282 78.2019 99.1162 79.0913 98.8922 79.6458C98.6683 80.2017 98.3337 80.6464 97.9978 80.7561C97.8858 80.7561 97.7738 80.7561 97.7738 80.7561Z" fill="#474C66"/>
<path d="M92.0682 9.56601C92.0682 9.56601 92.0682 9.67705 92.0682 9.89912C92.0682 10.1213 92.0682 10.5655 91.9562 11.0098C91.7322 11.8983 91.2857 13.3421 90.0553 14.5638C88.8248 15.7855 86.6985 16.7849 84.3497 16.5629C83.2312 16.4518 82.0008 16.1186 80.8809 15.3412C79.7625 14.5638 78.98 13.5642 78.0841 12.6757C77.1897 11.6761 76.4072 10.7877 75.3993 10.1213C74.3929 9.45497 73.3864 8.89965 72.268 8.5664C70.1416 7.90004 68.0168 8.01107 66.4504 8.34432C64.772 8.67743 63.5416 9.34394 62.7591 9.89912C61.9752 10.4544 61.5287 10.7877 61.5287 10.6767C61.5287 10.6767 61.8632 10.2324 62.6471 9.67705C63.4296 9.12172 64.66 8.34433 66.3384 7.90004C68.0168 7.45575 70.1417 7.34471 72.38 8.01107C73.4984 8.34433 74.6168 8.89965 75.6233 9.56601C76.6312 10.2324 77.6376 11.232 78.4201 12.2315C79.316 13.2311 80.0985 14.2305 81.1049 14.8969C82.1128 15.5634 83.2312 15.8965 84.2377 16.0076C86.4746 16.2298 88.3769 15.3412 89.6073 14.2305C90.8378 13.12 91.3977 11.7872 91.6217 10.8987C91.9562 10.1213 91.9562 9.56601 92.0682 9.56601Z" fill="#474C66"/>
<path d="M34.9031 141.951C35.4625 142.952 31.0996 128.179 31.0996 128.179L27.4079 141.729L0 141.951C0 141.951 15.5499 91.6396 22.9331 84.5327C32.554 75.3148 50.5648 74.8701 50.5648 74.8701L61.3047 83.9768L78.3081 75.3148C78.3081 75.3148 78.532 75.3148 78.98 75.4246C90.3898 76.7573 100.235 83.7545 105.38 93.9729L123.839 141.508H99.4521L94.1945 127.513L95.9834 141.508" fill="#167EA1"/>
<path d="M41.7272 75.9813L66.4504 131.846L78.98 75.4254C78.98 75.4254 75.5113 75.2045 70.5896 75.0933C67.9048 74.9821 64.66 85.7551 61.3047 85.6439C59.1784 85.6439 57.0535 74.7598 54.9272 74.7598C52.2423 74.7598 49.5581 74.8709 47.2088 74.9821C45.0833 74.9821 43.2934 75.7589 41.7272 75.9813Z" fill="#FAFAFA"/>
<path d="M46.4258 76.4254V71.3154C46.4258 71.3154 61.1927 71.5378 61.4167 83.2002C61.4167 83.2002 63.5416 71.649 75.3993 71.3154L76.1832 75.2038L72.8265 88.6422L64.2135 94.3052H52.5783L47.7682 88.0863L46.4258 76.4254Z" fill="#FAFAFA"/>
<path d="M66.2263 133.29C66.2263 133.29 66.2263 133.068 66.3383 132.623C66.4503 132.178 66.6743 131.624 67.0102 130.957C67.3448 130.291 68.0167 129.403 68.7992 128.625C69.5831 127.737 70.4775 126.847 71.484 125.848C73.3863 123.739 75.8472 121.295 77.6375 117.963C78.532 116.297 79.0919 114.409 79.2039 112.41C79.3159 110.411 78.756 108.3 77.5255 106.634L77.0776 106.08H77.7495C77.9735 106.08 78.196 106.08 78.532 106.08C79.5385 105.857 80.4343 105.301 81.1048 104.413C81.7768 103.637 82.1113 102.636 82.3353 101.637C82.6712 99.6383 82.2233 97.6385 81.8887 95.6402C81.2168 91.8629 80.6583 88.4207 80.2104 85.4217C79.7624 82.5339 79.4265 80.202 79.0919 78.5357C78.9799 77.7589 78.868 77.203 78.868 76.6485C78.868 76.2038 78.756 75.9814 78.868 75.9814C78.868 75.9814 78.9799 76.2038 79.0919 76.6485C79.2039 77.0918 79.3159 77.7589 79.4265 78.5357C79.7624 80.202 80.2104 82.5339 80.6583 85.4217C81.2168 88.3095 81.7768 91.7518 82.4472 95.529C82.7832 97.4162 83.2311 99.5272 82.8952 101.637C82.7832 102.747 82.3353 103.857 81.6648 104.747C80.9928 105.635 79.9864 106.413 78.756 106.634C78.42 106.634 78.196 106.634 77.8615 106.634L78.084 106.191C79.5384 107.967 79.9864 110.3 79.8744 112.41C79.7624 114.521 79.0919 116.519 78.196 118.185C76.2951 121.628 73.8343 123.961 71.8199 126.07C70.8135 127.07 69.9176 127.959 69.0231 128.847C68.2407 129.624 67.6807 130.402 67.2328 131.068C66.5623 132.512 66.3383 133.401 66.2263 133.29Z" fill="#167EA1"/>
<path d="M66.2263 132.845C66.2263 132.845 66.0024 132.734 65.7784 132.289C65.4439 131.846 64.9959 131.401 64.548 130.734C63.4295 129.401 61.8632 127.625 59.7383 125.293C57.7239 123.071 55.2631 120.406 52.8022 117.186C51.5718 115.631 50.2293 113.853 49.3342 111.853C48.4393 109.855 47.9918 107.301 48.8869 105.079C48.9987 104.747 49.1105 104.524 49.3342 104.191L49.4462 104.635C47.2088 103.857 45.307 102.524 43.9646 100.86C42.5103 99.1933 41.5034 97.4159 40.8322 95.5287C39.378 91.7515 39.378 88.198 39.4898 85.199C39.6017 82.2 40.0492 79.8681 40.3847 78.3131C40.4966 77.5362 40.6086 76.9803 40.7204 76.4259C40.8322 75.9812 40.8322 75.7588 40.8322 75.7588C40.8322 75.7588 40.8322 75.9812 40.8322 76.4259C40.7204 76.8692 40.7204 77.5362 40.6086 78.3131C40.3847 79.9793 40.0492 82.3112 39.9374 85.199C39.8254 88.0868 39.9373 91.6403 41.3916 95.3063C42.0628 97.0824 43.0697 98.8598 44.5239 100.415C45.8664 101.97 47.6563 103.303 49.7817 104.079L50.1174 104.191L49.8936 104.524C49.7817 104.747 49.6699 105.079 49.5581 105.301C48.775 107.412 49.1105 109.744 50.0056 111.633C50.9005 113.631 52.1303 115.297 53.3622 116.852C55.823 120.072 58.1719 122.738 60.1862 125.071C62.1991 127.403 63.7655 129.291 64.7719 130.624C65.3319 131.29 65.6679 131.846 65.8904 132.178C66.1144 132.623 66.2263 132.845 66.2263 132.845Z" fill="#167EA1"/>
<path d="M66.0023 141.84C65.8904 141.84 65.7798 139.62 65.8904 136.843C66.0023 134.066 66.1143 131.846 66.3383 131.846C66.4503 131.846 66.5623 134.066 66.4503 136.843C66.3383 139.62 66.1143 141.84 66.0023 141.84Z" fill="#167EA1"/>
<path d="M30.4284 131.512C30.4284 131.512 30.5404 130.845 30.8759 129.623C31.2116 128.402 31.6589 126.626 32.1065 124.404C33.0015 119.961 33.7845 113.631 33.4489 106.745C33.2252 103.302 32.8895 99.97 32.1065 97.0822C31.3234 94.1958 30.0928 91.7513 28.6384 89.9752C27.1842 88.1978 25.6181 87.1986 24.6112 86.5316C23.4925 85.9771 22.8213 85.7547 22.8213 85.6436C22.8213 85.6436 23.0451 85.6435 23.3806 85.7547C23.7163 85.8659 24.1637 85.9771 24.7231 86.3092C25.8418 86.8651 27.5199 87.8643 28.9741 89.6417C30.5404 91.4191 31.8828 93.8622 32.6658 96.8612C33.4489 99.7476 33.8964 103.08 34.0082 106.634C34.3439 113.631 33.4489 119.961 32.4421 124.404C31.8828 126.626 31.4353 128.402 30.9877 129.623C30.764 130.179 30.6522 130.734 30.5404 131.067C30.4284 131.401 30.4284 131.512 30.4284 131.512Z" fill="#167EA1"/>
<path d="M94.417 122.516C94.417 122.516 94.3065 121.849 94.3065 120.627C94.3065 119.406 94.3065 117.74 94.1945 115.63C94.0825 111.409 93.6346 105.523 92.7401 99.0814C91.2857 88.9741 88.8248 80.5345 88.0409 77.4243L87.929 77.0908L88.1529 77.3132C88.9368 77.8691 89.2714 78.2012 89.2714 78.2012C89.2714 78.2012 88.8248 77.9802 88.0409 77.4243L88.1529 77.3132C89.1594 80.3122 91.8442 88.642 93.2986 98.8591C94.1945 105.3 94.529 111.187 94.641 115.519C94.641 117.628 94.641 119.406 94.529 120.627C94.529 121.849 94.417 122.516 94.417 122.516Z" fill="#167EA1"/>
<path d="M58.6198 76.6481C58.6198 76.6481 58.2839 76.6481 57.9479 76.9802C57.6119 77.2025 57.1654 77.7584 56.7175 78.5353C55.935 80.0903 55.0391 82.3111 54.8151 84.9765L54.7046 85.7548L54.2566 85.1989C54.0327 84.8653 53.6967 84.5332 53.4727 84.0885C51.5718 81.6454 49.7818 79.6456 48.4393 78.0905C47.0969 76.6481 46.2019 75.7586 46.3137 75.6475C46.3137 75.6475 47.3206 76.4257 48.7749 77.7584C50.2291 79.2023 52.1303 81.2007 54.0327 83.6438C54.2566 83.9773 54.5926 84.422 54.8151 84.7556L54.2566 84.8653C54.5926 82.0887 55.4871 79.7568 56.4935 78.3129C56.9415 77.5361 57.3894 76.9802 57.9479 76.7578C58.3959 76.5369 58.6198 76.6481 58.6198 76.6481Z" fill="#9F9F9F"/>
<path d="M75.9592 75.5367C76.0712 75.5367 75.2873 76.6471 73.9449 78.3134C72.7144 79.9796 70.8135 82.2003 68.7992 84.6449C68.4647 85.0881 68.1287 85.5329 67.6807 85.9776L67.2328 86.532V85.7552C67.2328 84.4225 67.1208 83.0898 66.8983 81.9794C66.6743 80.8676 66.3383 79.8684 65.8904 79.2028C64.9959 77.7589 63.8775 77.3142 63.9895 77.203C63.9895 77.203 64.3254 77.203 64.66 77.5365C65.1079 77.7589 65.6678 78.2022 66.2263 78.9804C66.7863 79.7573 67.2328 80.7564 67.4568 81.8682C67.6807 83.0898 67.7927 84.4225 67.7927 85.7552L67.2328 85.5329C67.5688 85.0881 67.9047 84.6449 68.2407 84.2001C70.2536 81.7571 72.1559 79.5349 73.4983 77.9798C75.0647 76.4262 75.8472 75.4256 75.9592 75.5367Z" fill="#9F9F9F"/>
<path d="M65.7784 130.512C65.7784 130.512 65.6679 129.845 65.5559 128.624C65.4439 127.291 65.2199 125.625 64.9959 123.515C64.548 119.183 63.9895 113.297 63.4296 106.744C62.871 100.192 62.3111 94.305 61.9752 89.9747C61.8632 87.8637 61.7512 86.1974 61.6392 84.8647C61.5286 83.6432 61.5286 82.9775 61.6392 82.9775C61.6392 82.9775 61.7512 83.6432 61.8632 84.8647C61.9752 86.1974 62.1991 87.8637 62.4231 89.9747C62.8711 94.305 63.4295 100.192 63.9895 106.744C64.548 113.297 65.1079 119.183 65.4439 123.515C65.5559 125.625 65.6679 127.291 65.7784 128.624C65.7784 129.845 65.7784 130.512 65.7784 130.512Z" fill="#9F9F9F"/>
<path d="M65.7784 93.3066C65.7784 93.3066 66.2264 92.9731 66.7863 93.4178C67.0103 93.6401 67.3448 93.9737 67.3448 94.417C67.3448 94.9729 66.8983 95.4176 66.4503 95.6399C65.8904 95.8609 65.3319 95.6385 64.9959 95.1952C64.66 94.7505 64.772 94.3058 64.884 93.9737C65.1079 93.3066 65.6679 93.1954 65.6679 93.3066C65.6679 93.4178 65.3319 93.529 65.3319 94.0849C65.3319 94.3058 65.3319 94.6393 65.5559 94.8617C65.7784 95.084 66.1144 95.1952 66.4503 95.084C66.7863 94.9729 67.0103 94.7505 67.0103 94.417C67.0103 94.196 66.8983 93.8625 66.6743 93.7513C66.2264 93.4178 65.7784 93.4178 65.7784 93.3066Z" fill="#9F9F9F"/>
<path d="M67.9047 107.189C67.9047 107.078 68.3527 106.967 68.9112 107.523C69.1351 107.745 69.3591 108.189 69.2471 108.744C69.1352 109.299 68.5752 109.633 68.0167 109.633C67.4568 109.633 66.8983 109.299 66.6743 108.856C66.5623 108.411 66.6743 107.966 66.8983 107.634C67.4568 106.967 68.0167 107.078 67.9047 107.189C67.9047 107.301 67.4568 107.301 67.2328 107.745C67.1223 107.966 67.0103 108.3 67.1222 108.522C67.2328 108.744 67.5688 108.967 67.9047 108.967C68.2407 108.967 68.5752 108.744 68.6872 108.522C68.7992 108.3 68.6872 107.966 68.5752 107.745C68.3527 107.189 67.9047 107.189 67.9047 107.189Z" fill="#9F9F9F"/>
<g opacity="0.3">
<path opacity="0.3" d="M40.2728 76.6465C38.1474 84.0883 36.2454 92.4182 40.0491 99.0818C41.1677 101.08 42.8458 102.746 43.9645 104.857C45.8663 108.411 45.9781 112.52 47.0969 116.296C49.446 123.959 57.9479 131.401 65.8903 132.622C61.7511 127.625 55.375 121.184 51.5718 115.519C50.3411 113.742 49.4462 112.52 48.9986 110.52C48.5511 108.411 48.2156 106.301 49.558 104.635C44.1882 103.857 41.1677 98.3036 40.161 93.0839C39.1541 87.753 39.6016 82.3109 40.8322 77.0912" fill="#167EA1"/>
</g>
<g opacity="0.3">
<path opacity="0.3" d="M94.641 115.853C93.2986 123.738 94.1945 134.177 99.1162 140.619C100.907 131.957 100.011 120.517 94.641 113.408" fill="black"/>
</g>
</svg>
