<svg width="181" height="192" viewBox="0 0 181 192" fill="none" xmlns="http://www.w3.org/2000/svg">
<g clip-path="url(#clip0_2_4426)">
<mask id="mask0_2_4426" style="mask-type:alpha" maskUnits="userSpaceOnUse" x="0" y="0" width="181" height="192">
<path d="M176.409 0H4.59091C2.33156 0 0.5 1.72613 0.5 3.85542V188.145C0.5 190.274 2.33156 192 4.59091 192H176.409C178.668 192 180.5 190.274 180.5 188.145V3.85542C180.5 1.72613 178.668 0 176.409 0Z" fill="#ECF7FD"/>
</mask>
<g mask="url(#mask0_2_4426)">
<path d="M8.59528 78.9642C8.78921 83.7426 12.9107 87.4623 17.8939 87.2741C22.7918 87.0806 26.6573 83.1095 26.4633 78.3311C26.2693 73.552 22.1479 69.8324 17.1647 70.0205C12.1815 70.2087 8.4013 74.1853 8.59528 78.9642Z" fill="#2A2D40"/>
<path d="M26.6303 83.5119C26.6303 83.5119 11.2404 80.4145 9.69252 66.4246C8.37829 54.0649 17.7375 44.8453 27.3311 43.6387C27.3311 43.6387 48.0602 78.3233 26.6303 83.5119Z" fill="#2A2D40"/>
<path d="M29.5443 45.1441C28.3969 45.6414 27.244 46.2192 26.1604 47.0435C16.7437 54.5629 21.3366 70.4305 28.8005 77.9849C32.8949 82.1072 39.2582 84.3441 44.9415 82.6623C53.3301 80.2535 56.4787 71.6334 55.38 63.7304C54.4879 57.8598 51.5256 52.1892 46.6359 48.4238C41.8209 44.8245 35.0891 42.9694 29.5443 45.1441Z" fill="#F2ADA5"/>
<path d="M26.2109 73.1443C24.5774 74.5014 21.8081 74.9022 19.8027 74.1365C17.8025 73.2902 16.214 71.4181 15.7621 69.2096C15.3794 67.2477 16.0371 65.1052 17.6545 63.9896C19.2719 62.8738 21.9126 63.1118 23.0905 64.7171L26.2109 73.1443Z" fill="#F2ADA5"/>
<path d="M24.2514 67.8564L24.0289 95.4766C23.9452 100.562 28.0235 104.925 33.3957 105.326C39.6216 105.778 44.8269 100.997 44.4523 95.0764L42.8383 69.2859L24.2514 67.8564Z" fill="#F2ADA5"/>
<path d="M43.9834 86.7254L43.8101 82.9178C43.8101 82.9178 35.6299 84.7745 28.8004 77.9844C28.8004 77.9844 32.503 85.396 43.9834 86.7254Z" fill="#1E1C1C"/>
<path d="M21.3684 63.5638C31.8999 63.7058 41.8225 57.5901 47.6865 49.3744C47.6865 49.3744 38.6178 40.1891 24.1938 44.4209C12.3098 47.8344 21.3684 63.5638 21.3684 63.5638Z" fill="#2A2D40"/>
<path d="M22.0572 69.9072C20.8568 69.9166 19.8702 69.2922 19.7588 68.3969C19.7166 67.7479 20.2719 67.1346 21.0617 66.8584" stroke="#1E1C1C" stroke-width="1.0496" stroke-miterlimit="10" stroke-linecap="round"/>
<path d="M47.3784 69.3144C47.683 68.6054 48.1422 68.1479 48.6067 67.61L48.8196 68.269C48.3182 68.0776 47.9984 67.7353 47.7585 67.4787C47.524 67.1415 47.2841 66.8848 47.0496 66.5477C46.6659 65.8785 46.2823 65.2093 46.0747 64.4697C46.6345 65.0686 47.1089 65.6624 47.5887 66.1758C47.8286 66.4324 48.0685 66.6891 48.3938 66.9509C48.6337 67.2075 48.9589 67.4693 49.1296 67.4795L49.8017 67.6811L49.3426 68.1385C48.878 68.6765 48.3335 69.1288 47.6291 69.4101C47.5383 69.4856 47.4583 69.4 47.3784 69.3144Z" fill="#1E1C1C"/>
<path d="M49.5216 71.8658C49.137 72.4893 48.5925 72.9417 47.888 73.223C47.1836 73.5042 46.3246 73.5339 45.5726 73.2467C44.8205 72.9596 44.2553 72.4412 43.6902 71.9227C43.4503 71.666 43.3011 71.334 43.0612 71.0773C42.9121 70.7452 42.7629 70.4132 42.6138 70.0811C42.8537 70.3377 43.1789 70.5995 43.4242 70.7757L44.1493 71.4652C44.7252 71.8227 45.2104 72.2556 45.7971 72.4521C46.3839 72.6486 46.9815 72.6842 47.5897 72.5588C48.2834 72.4385 48.9025 72.1522 49.5216 71.8658Z" fill="#1E1C1C"/>
<path d="M41.8249 61.3884C42.1071 62.2939 42.2185 63.1894 42.0684 64.15C42.036 64.6328 41.8329 65.1056 41.4592 65.5682C41 66.0256 40.3917 66.151 39.7942 66.1154C39.1967 66.0799 38.6153 65.8029 38.2954 65.4606C37.8902 65.1133 37.5758 64.6906 37.432 64.2781C36.9737 63.4428 36.777 62.5423 36.671 61.5664C36.6818 61.4054 36.778 61.2496 36.9486 61.2597C37.1194 61.2698 37.1993 61.3554 37.2793 61.441C37.4814 62.261 37.7689 63.0861 38.2326 63.8409C38.6108 64.5906 39.256 65.1946 40.0243 65.2403C40.3657 65.2607 40.7125 65.2005 40.9847 64.9743C41.257 64.7481 41.3693 64.3508 41.4817 63.9535C41.6209 63.1538 41.5949 62.2635 41.5689 61.3731C41.5796 61.2122 41.6704 61.1368 41.7558 61.1418C41.665 61.2173 41.745 61.3028 41.8249 61.3884Z" fill="#1E1C1C"/>
<path d="M53.6324 60.3944C53.84 61.134 53.9567 61.9488 53.9028 62.7536C53.8759 63.1561 53.7636 63.5533 53.4751 64.021C53.1921 64.4081 52.573 64.6944 52.0609 64.664C51.5487 64.6335 51.0527 64.3616 50.7328 64.0194C50.413 63.6771 50.1785 63.34 50.0347 62.9274C49.7418 62.1828 49.5342 61.4432 49.5028 60.6334C49.5136 60.4724 49.6097 60.3165 49.7804 60.3267C49.9512 60.3369 50.0311 60.4224 50.1111 60.508C50.3186 61.2475 50.5316 61.9066 50.8299 62.5707C51.1336 63.1544 51.608 63.7482 52.1202 63.7787C52.3762 63.794 52.6377 63.7287 52.7338 63.5729C52.9208 63.3416 53.0277 63.0247 53.0492 62.7028C53.1778 62.0641 53.1463 61.2542 53.1095 60.5249C53.1202 60.3639 53.2111 60.2885 53.2964 60.2936C53.4725 60.2232 53.5525 60.3088 53.6324 60.3944Z" fill="#1E1C1C"/>
<path d="M106.48 56.995L107.405 62.3828C107.458 62.8708 121.52 57.6477 121.52 57.6477C121.52 57.6477 122.625 33.4738 121.88 31.8134C121.134 30.1531 119.239 39.2514 119.239 39.2514C119.239 39.2514 119.32 30.3683 117.945 27.8625C116.879 25.8599 114.636 37.6038 114.636 37.6038C114.34 33.0615 114.389 24.6613 112.858 24.4893C110.9 24.292 110.889 38.512 110.889 38.512C110.889 38.512 110.096 28.6073 108.256 27.9322C106.501 27.2622 105.826 46.2906 105.826 46.2906C105.826 46.2906 102.883 42.8835 98.6099 42.71C97.5004 42.6439 96.5718 43.7198 96.4319 44.5195C101.622 46.3636 106.48 56.995 106.48 56.995Z" fill="#F2ADA5"/>
<path d="M20.4051 89.444C20.4051 89.444 6.27591 84.159 -7.2663 108.481L-21.0043 130.611L-20.4353 118.283C-19.9769 111.441 -21.2508 102.316 -24.9213 102.097L-41.641 100.941C-43.8603 100.809 -45.617 102.724 -46.9046 105.314C-48.4646 108.13 -49.187 111.238 -49.3974 114.377C-50.3204 129.432 -54.5252 189.619 -35.4538 185.098C-27.7912 183.292 -15.0085 169.024 -10.495 161.778L6.44077 144.364L20.4051 89.444Z" fill="#167EA1"/>
<path d="M123.937 57.3874L104.09 56.8525C103.987 59.6743 96.6299 88.8899 96.6299 88.8899L51.22 91.2771L41.2939 94.8881L44.0824 119.779L110.997 118.752C117.261 118.64 122.359 114.176 123.009 108.317C124.756 91.2101 123.937 57.3874 123.937 57.3874Z" fill="#167EA1"/>
<path d="M59.6218 100.181C59.8439 95.5884 56.0801 91.6474 51.2145 91.3583L45.2393 91.002C44.1449 91.9875 41.2948 93.5952 34.1246 93.1688C27.2104 92.757 24.5922 90.9049 23.558 89.712L16.7292 89.3057C15.1927 89.2139 13.773 89.9372 13.0039 91.1848C-2.54122 118.539 -4.80366 156.138 -4.05735 171.857C-3.97385 174.447 39.8382 175.439 52.5774 177.167C55.4689 177.501 58.7562 116.935 59.6218 100.181Z" fill="#167EA1"/>
<path d="M96.6298 88.8906L96.3696 101.722" stroke="#7ABCE2" stroke-width="1.7972" stroke-miterlimit="10" stroke-linecap="round" stroke-linejoin="round"/>
</g>
</g>
<defs>
<clipPath id="clip0_2_4426">
<rect width="180" height="192" fill="white" transform="translate(0.5)"/>
</clipPath>
</defs>
</svg>
